<?xml version="1.0" encoding="UTF-8"?>
<svg version="1.1" xmlns="http://www.w3.org/2000/svg" width="256" height="256">
<path d="M0 0 C66 0 132 0 200 0 C200 2.31 200 4.62 200 7 C202.31 7 204.62 7 207 7 C207 9.31 207 11.62 207 14 C209.31 14 211.62 14 214 14 C214 16.31 214 18.62 214 21 C216.31 21 218.62 21 221 21 C221 25.95 221 30.9 221 36 C222.98 36 224.96 36 227 36 C227 97.05 227 158.1 227 221 C225.02 221 223.04 221 221 221 C221 225.95 221 230.9 221 236 C218.69 236 216.38 236 214 236 C214 238.31 214 240.62 214 243 C211.69 243 209.38 243 207 243 C207 245.31 207 247.62 207 250 C202.05 250 197.1 250 192 250 C192 251.98 192 253.96 192 256 C130.95 256 69.9 256 7 256 C7 254.02 7 252.04 7 250 C2.05 250 -2.9 250 -8 250 C-8 247.69 -8 245.38 -8 243 C-10.31 243 -12.62 243 -15 243 C-15 240.69 -15 238.38 -15 236 C-17.31 236 -19.62 236 -22 236 C-22 233.69 -22 231.38 -22 229 C-24.31 229 -26.62 229 -29 229 C-29 163 -29 97 -29 29 C-26.69 29 -24.38 29 -22 29 C-22 26.36 -22 23.72 -22 21 C-19.69 21 -17.38 21 -15 21 C-15 18.69 -15 16.38 -15 14 C-12.69 14 -10.38 14 -8 14 C-8 11.69 -8 9.38 -8 7 C-5.36 7 -2.72 7 0 7 C0 4.69 0 2.38 0 0 Z " fill="#502BD3" transform="translate(29,0)"/>
<path d="M0 0 C37.62 0 75.24 0 114 0 C114 4.62 114 9.24 114 14 C106.74 14 99.48 14 92 14 C92 37.43 92 60.86 92 85 C85.07 85 78.14 85 71 85 C71 61.57 71 38.14 71 14 C52.19 14 33.38 14 14 14 C14 20.93 14 27.86 14 35 C23.24 35 32.48 35 42 35 C42 37.64 42 40.28 42 43 C32.76 43 23.52 43 14 43 C14 52.24 14 61.48 14 71 C25.88 71 37.76 71 50 71 C50 75.62 50 80.24 50 85 C33.5 85 17 85 0 85 C0 56.95 0 28.9 0 0 Z " fill="#D3CAF4" transform="translate(129,86)"/>
<path d="M0 0 C6.93 0 13.86 0 21 0 C21 4.62 21 9.24 21 14 C23.31 14 25.62 14 28 14 C28 16.31 28 18.62 28 21 C30.64 21 33.28 21 36 21 C36 25.62 36 30.24 36 35 C38.31 35 40.62 35 43 35 C43 37.64 43 40.28 43 43 C45.31 43 47.62 43 50 43 C50 47.62 50 52.24 50 57 C52.31 57 54.62 57 57 57 C57 38.19 57 19.38 57 0 C61.62 0 66.24 0 71 0 C71 25.74 71 51.48 71 78 C64.07 78 57.14 78 50 78 C50 75.69 50 73.38 50 71 C47.69 71 45.38 71 43 71 C43 66.38 43 61.76 43 57 C40.69 57 38.38 57 36 57 C36 52.38 36 47.76 36 43 C33.36 43 30.72 43 28 43 C28 38.05 28 33.1 28 28 C25.69 28 23.38 28 21 28 C21 25.69 21 23.38 21 21 C18.69 21 16.38 21 14 21 C14 39.81 14 58.62 14 78 C9.38 78 4.76 78 0 78 C0 52.26 0 26.52 0 0 Z " fill="#FFFFFF" transform="translate(43,86)"/>
<path d="M0 0 C13.86 0 27.72 0 42 0 C42 4.62 42 9.24 42 14 C32.76 14 23.52 14 14 14 C14 20.93 14 27.86 14 35 C23.24 35 32.48 35 42 35 C42 37.64 42 40.28 42 43 C32.76 43 23.52 43 14 43 C14 52.24 14 61.48 14 71 C25.88 71 37.76 71 50 71 C50 75.62 50 80.24 50 85 C33.5 85 17 85 0 85 C0 56.95 0 28.9 0 0 Z " fill="#D3CAF4" transform="translate(129,86)"/>
<path d="M0 0 C4.62 0 9.24 0 14 0 C14 25.74 14 51.48 14 78 C7.07 78 0.14 78 -7 78 C-7 73.38 -7 68.76 -7 64 C-4.69 64 -2.38 64 0 64 C0 66.31 0 68.62 0 71 C2.31 71 4.62 71 7 71 C7 66.38 7 61.76 7 57 C4.69 57 2.38 57 0 57 C0 38.19 0 19.38 0 0 Z " fill="#FFFFFF" transform="translate(100,86)"/>
<path d="M0 0 C2.31 0 4.62 0 7 0 C7 21.12 7 42.24 7 64 C9.31 64 11.62 64 14 64 C14 42.88 14 21.76 14 0 C16.31 0 18.62 0 21 0 C21 23.43 21 46.86 21 71 C14.07 71 7.14 71 0 71 C0 47.57 0 24.14 0 0 Z " fill="#A895EA" transform="translate(200,100)"/>
<path d="M0 0 C2.31 0 4.62 0 7 0 C7 9.24 7 18.48 7 28 C16.24 28 25.48 28 35 28 C35 30.64 35 33.28 35 36 C25.76 36 16.52 36 7 36 C7 45.24 7 54.48 7 64 C16.24 64 25.48 64 35 64 C35 66.31 35 68.62 35 71 C23.45 71 11.9 71 0 71 C0 47.57 0 24.14 0 0 Z " fill="#FFFFFF" transform="translate(136,93)"/>
<path d="M0 0 C6.93 0 13.86 0 21 0 C21 2.31 21 4.62 21 7 C16.38 7 11.76 7 7 7 C7 30.43 7 53.86 7 78 C4.69 78 2.38 78 0 78 C0 52.26 0 26.52 0 0 Z " fill="#D3CAF4" transform="translate(43,86)"/>
<path d="M0 0 C2.31 0 4.62 0 7 0 C7 2.31 7 4.62 7 7 C9.31 7 11.62 7 14 7 C14 9.31 14 11.62 14 14 C11.69 14 9.38 14 7 14 C7 30.5 7 47 7 64 C0.07 64 -6.86 64 -14 64 C-14 61.69 -14 59.38 -14 57 C-9.38 57 -4.76 57 0 57 C0 38.19 0 19.38 0 0 Z " fill="#7D60DF" transform="translate(57,107)"/>
<path d="M0 0 C2.31 0 4.62 0 7 0 C7 2.64 7 5.28 7 8 C9.31 8 11.62 8 14 8 C14 12.62 14 17.24 14 22 C18.62 22 23.24 22 28 22 C28 26.62 28 31.24 28 36 C25.69 36 23.38 36 21 36 C21 33.69 21 31.38 21 29 C18.69 29 16.38 29 14 29 C14 31.31 14 33.62 14 36 C11.69 36 9.38 36 7 36 C7 31.38 7 26.76 7 22 C4.69 22 2.38 22 0 22 C0 14.74 0 7.48 0 0 Z " fill="#E6E1F9" transform="translate(79,121)"/>
<path d="M0 0 C2.31 0 4.62 0 7 0 C7 23.43 7 46.86 7 71 C4.69 71 2.38 71 0 71 C0 47.57 0 24.14 0 0 Z " fill="#FFFFFF" transform="translate(207,93)"/>
<path d="M0 0 C2.64 0 5.28 0 8 0 C8 4.62 8 9.24 8 14 C-8.5 14 -25 14 -42 14 C-42 11.69 -42 9.38 -42 7 C-28.14 7 -14.28 7 0 7 C0 4.69 0 2.38 0 0 Z " fill="#A895EA" transform="translate(171,157)"/>
<path d="M0 0 C9.24 0 18.48 0 28 0 C28 2.31 28 4.62 28 7 C21.07 7 14.14 7 7 7 C7 13.93 7 20.86 7 28 C4.69 28 2.38 28 0 28 C0 18.76 0 9.52 0 0 Z " fill="#A895EA" transform="translate(143,129)"/>
<path d="M0 0 C4.62 0 9.24 0 14 0 C14 2.31 14 4.62 14 7 C16.64 7 19.28 7 22 7 C22 14.26 22 21.52 22 29 C19.36 29 16.72 29 14 29 C14 24.05 14 19.1 14 14 C11.69 14 9.38 14 7 14 C7 11.69 7 9.38 7 7 C4.69 7 2.38 7 0 7 C0 4.69 0 2.38 0 0 Z " fill="#EFEBFB" transform="translate(57,100)"/>
<path d="M0 0 C2.64 0 5.28 0 8 0 C8 6.93 8 13.86 8 21 C5.36 21 2.72 21 0 21 C0 18.69 0 16.38 0 14 C-2.31 14 -4.62 14 -7 14 C-7 11.69 -7 9.38 -7 7 C-4.69 7 -2.38 7 0 7 C0 4.69 0 2.38 0 0 Z " fill="#FFFFFF" transform="translate(21,150)"/>
<path d="M0 0 C6.93 0 13.86 0 21 0 C21 2.31 21 4.62 21 7 C14.07 7 7.14 7 0 7 C0 4.69 0 2.38 0 0 Z " fill="#A996EA" transform="translate(93,164)"/>
<path d="M0 0 C4.62 0 9.24 0 14 0 C14 4.62 14 9.24 14 14 C11.69 14 9.38 14 7 14 C7 11.69 7 9.38 7 7 C4.69 7 2.38 7 0 7 C0 4.69 0 2.38 0 0 Z " fill="#DDD6F6" transform="translate(93,143)"/>
<path d="M0 0 C2.31 0 4.62 0 7 0 C7 6.93 7 13.86 7 21 C4.69 21 2.38 21 0 21 C0 14.07 0 7.14 0 0 Z " fill="#7D60DF" transform="translate(143,136)"/>
<path d="M0 0 C2.31 0 4.62 0 7 0 C7 6.93 7 13.86 7 21 C4.69 21 2.38 21 0 21 C0 14.07 0 7.14 0 0 Z " fill="#FFFFFF" transform="translate(86,136)"/>
<path d="M0 0 C2.31 0 4.62 0 7 0 C7 6.93 7 13.86 7 21 C4.69 21 2.38 21 0 21 C0 14.07 0 7.14 0 0 Z " fill="#7D60DF" transform="translate(143,100)"/>
<path d="M0 0 C2.64 0 5.28 0 8 0 C8 4.95 8 9.9 8 15 C5.36 15 2.72 15 0 15 C0 10.05 0 5.1 0 0 Z " fill="#FFFFFF" transform="translate(71,114)"/>
<path d="M0 0 C2.64 0 5.28 0 8 0 C8 4.62 8 9.24 8 14 C5.36 14 2.72 14 0 14 C0 9.38 0 4.76 0 0 Z " fill="#A895EA" transform="translate(171,86)"/>
<path d="M0 0 C4.62 0 9.24 0 14 0 C14 2.31 14 4.62 14 7 C9.38 7 4.76 7 0 7 C0 4.69 0 2.38 0 0 Z " fill="#A895EA" transform="translate(43,164)"/>
<path d="M0 0 C2.31 0 4.62 0 7 0 C7 4.62 7 9.24 7 14 C4.69 14 2.38 14 0 14 C0 9.38 0 4.76 0 0 Z " fill="#5F3CD7" transform="translate(29,157)"/>
<path d="M0 0 C2.31 0 4.62 0 7 0 C7 4.62 7 9.24 7 14 C4.69 14 2.38 14 0 14 C0 9.38 0 4.76 0 0 Z " fill="#E3DDF8" transform="translate(93,150)"/>
<path d="M0 0 C2.31 0 4.62 0 7 0 C7 4.62 7 9.24 7 14 C4.69 14 2.38 14 0 14 C0 9.38 0 4.76 0 0 Z " fill="#A895EA" transform="translate(236,86)"/>
<path d="M0 0 C4.62 0 9.24 0 14 0 C14 2.31 14 4.62 14 7 C9.38 7 4.76 7 0 7 C0 4.69 0 2.38 0 0 Z " fill="#D3CAF4" transform="translate(100,86)"/>
<path d="M0 0 C2.31 0 4.62 0 7 0 C7 2.64 7 5.28 7 8 C4.69 8 2.38 8 0 8 C0 5.36 0 2.72 0 0 Z " fill="#3333CC" transform="translate(0,221)"/>
<path d="M0 0 C2.64 0 5.28 0 8 0 C8 2.31 8 4.62 8 7 C5.36 7 2.72 7 0 7 C0 4.69 0 2.38 0 0 Z " fill="#BBADEE" transform="translate(21,164)"/>
<path d="M0 0 C2.64 0 5.28 0 8 0 C8 2.31 8 4.62 8 7 C5.36 7 2.72 7 0 7 C0 4.69 0 2.38 0 0 Z " fill="#D3CAF4" transform="translate(171,157)"/>
<path d="M0 0 C2.64 0 5.28 0 8 0 C8 2.31 8 4.62 8 7 C5.36 7 2.72 7 0 7 C0 4.69 0 2.38 0 0 Z " fill="#A693E9" transform="translate(21,150)"/>
<path d="M0 0 C2.64 0 5.28 0 8 0 C8 2.31 8 4.62 8 7 C5.36 7 2.72 7 0 7 C0 4.69 0 2.38 0 0 Z " fill="#8B72E2" transform="translate(71,129)"/>
<path d="M0 0 C2.31 0 4.62 0 7 0 C7 2.64 7 5.28 7 8 C4.69 8 2.38 8 0 8 C0 5.36 0 2.72 0 0 Z " fill="#5D3AD7" transform="translate(86,121)"/>
<path d="M0 0 C2.31 0 4.62 0 7 0 C7 2.64 7 5.28 7 8 C4.69 8 2.38 8 0 8 C0 5.36 0 2.72 0 0 Z " fill="#6341D8" transform="translate(64,121)"/>
<path d="M0 0 C2.64 0 5.28 0 8 0 C8 2.31 8 4.62 8 7 C5.36 7 2.72 7 0 7 C0 4.69 0 2.38 0 0 Z " fill="#B8A8ED" transform="translate(71,107)"/>
<path d="M0 0 C2.64 0 5.28 0 8 0 C8 2.31 8 4.62 8 7 C5.36 7 2.72 7 0 7 C0 4.69 0 2.38 0 0 Z " fill="#5D3AD7" transform="translate(71,100)"/>
<path d="M0 0 C2.64 0 5.28 0 8 0 C8 2.31 8 4.62 8 7 C5.36 7 2.72 7 0 7 C0 4.69 0 2.38 0 0 Z " fill="#3333CC" transform="translate(221,0)"/>
<path d="M0 0 C2.31 0 4.62 0 7 0 C7 2.31 7 4.62 7 7 C4.69 7 2.38 7 0 7 C0 4.69 0 2.38 0 0 Z " fill="#8266E0" transform="translate(93,164)"/>
<path d="M0 0 C2.31 0 4.62 0 7 0 C7 2.31 7 4.62 7 7 C4.69 7 2.38 7 0 7 C0 4.69 0 2.38 0 0 Z " fill="#7455DD" transform="translate(14,164)"/>
<path d="M0 0 C2.31 0 4.62 0 7 0 C7 2.31 7 4.62 7 7 C4.69 7 2.38 7 0 7 C0 4.69 0 2.38 0 0 Z " fill="#A28DE8" transform="translate(29,157)"/>
<path d="M0 0 C2.31 0 4.62 0 7 0 C7 2.31 7 4.62 7 7 C4.69 7 2.38 7 0 7 C0 4.69 0 2.38 0 0 Z " fill="#CFC4F3" transform="translate(14,157)"/>
<path d="M0 0 C2.31 0 4.62 0 7 0 C7 2.31 7 4.62 7 7 C4.69 7 2.38 7 0 7 C0 4.69 0 2.38 0 0 Z " fill="#BFB1EF" transform="translate(100,150)"/>
<path d="M0 0 C2.31 0 4.62 0 7 0 C7 2.31 7 4.62 7 7 C4.69 7 2.38 7 0 7 C0 4.69 0 2.38 0 0 Z " fill="#FFFFFF" transform="translate(93,150)"/>
<path d="M0 0 C2.31 0 4.62 0 7 0 C7 2.31 7 4.62 7 7 C4.69 7 2.38 7 0 7 C0 4.69 0 2.38 0 0 Z " fill="#AB98EA" transform="translate(86,150)"/>
<path d="M0 0 C2.31 0 4.62 0 7 0 C7 2.31 7 4.62 7 7 C4.69 7 2.38 7 0 7 C0 4.69 0 2.38 0 0 Z " fill="#5F3CD8" transform="translate(29,150)"/>
<path d="M0 0 C2.31 0 4.62 0 7 0 C7 2.31 7 4.62 7 7 C4.69 7 2.38 7 0 7 C0 4.69 0 2.38 0 0 Z " fill="#7455DD" transform="translate(14,150)"/>
<path d="M0 0 C2.31 0 4.62 0 7 0 C7 2.31 7 4.62 7 7 C4.69 7 2.38 7 0 7 C0 4.69 0 2.38 0 0 Z " fill="#7254DC" transform="translate(79,143)"/>
<path d="M0 0 C2.31 0 4.62 0 7 0 C7 2.31 7 4.62 7 7 C4.69 7 2.38 7 0 7 C0 4.69 0 2.38 0 0 Z " fill="#C4B7F0" transform="translate(79,136)"/>
<path d="M0 0 C2.31 0 4.62 0 7 0 C7 2.31 7 4.62 7 7 C4.69 7 2.38 7 0 7 C0 4.69 0 2.38 0 0 Z " fill="#B6A6ED" transform="translate(86,129)"/>
<path d="M0 0 C2.31 0 4.62 0 7 0 C7 2.31 7 4.62 7 7 C4.69 7 2.38 7 0 7 C0 4.69 0 2.38 0 0 Z " fill="#FFFFFF" transform="translate(79,129)"/>
<path d="M0 0 C2.31 0 4.62 0 7 0 C7 2.31 7 4.62 7 7 C4.69 7 2.38 7 0 7 C0 4.69 0 2.38 0 0 Z " fill="#8F77E3" transform="translate(79,114)"/>
<path d="M0 0 C2.31 0 4.62 0 7 0 C7 2.31 7 4.62 7 7 C4.69 7 2.38 7 0 7 C0 4.69 0 2.38 0 0 Z " fill="#B1A0EC" transform="translate(64,114)"/>
<path d="M0 0 C2.31 0 4.62 0 7 0 C7 2.31 7 4.62 7 7 C4.69 7 2.38 7 0 7 C0 4.69 0 2.38 0 0 Z " fill="#FFFFFF" transform="translate(64,107)"/>
<path d="M0 0 C2.31 0 4.62 0 7 0 C7 2.31 7 4.62 7 7 C4.69 7 2.38 7 0 7 C0 4.69 0 2.38 0 0 Z " fill="#9E88E7" transform="translate(57,107)"/>
<path d="M0 0 C2.31 0 4.62 0 7 0 C7 2.31 7 4.62 7 7 C4.69 7 2.38 7 0 7 C0 4.69 0 2.38 0 0 Z " fill="#8F77E3" transform="translate(64,93)"/>
<path d="M0 0 C2.31 0 4.62 0 7 0 C7 2.31 7 4.62 7 7 C4.69 7 2.38 7 0 7 C0 4.69 0 2.38 0 0 Z " fill="#C1B3F0" transform="translate(57,86)"/>
</svg>
