<?xml version="1.0" encoding="UTF-8"?>
<svg version="1.1" xmlns="http://www.w3.org/2000/svg" width="256" height="256">
<path d="M0 0 C66 0 132 0 200 0 C200 2.31 200 4.62 200 7 C202.31 7 204.62 7 207 7 C207 9.31 207 11.62 207 14 C209.31 14 211.62 14 214 14 C214 16.31 214 18.62 214 21 C216.31 21 218.62 21 221 21 C221 25.95 221 30.9 221 36 C222.98 36 224.96 36 227 36 C227 97.05 227 158.1 227 221 C225.02 221 223.04 221 221 221 C221 225.95 221 230.9 221 236 C218.69 236 216.38 236 214 236 C214 238.31 214 240.62 214 243 C211.69 243 209.38 243 207 243 C207 245.31 207 247.62 207 250 C202.05 250 197.1 250 192 250 C192 251.98 192 253.96 192 256 C130.95 256 69.9 256 7 256 C7 254.02 7 252.04 7 250 C2.05 250 -2.9 250 -8 250 C-8 247.69 -8 245.38 -8 243 C-10.31 243 -12.62 243 -15 243 C-15 240.69 -15 238.38 -15 236 C-17.31 236 -19.62 236 -22 236 C-22 233.69 -22 231.38 -22 229 C-24.31 229 -26.62 229 -29 229 C-29 163 -29 97 -29 29 C-26.69 29 -24.38 29 -22 29 C-22 26.36 -22 23.72 -22 21 C-19.69 21 -17.38 21 -15 21 C-15 18.69 -15 16.38 -15 14 C-12.69 14 -10.38 14 -8 14 C-8 11.69 -8 9.38 -8 7 C-5.36 7 -2.72 7 0 7 C0 4.69 0 2.38 0 0 Z " fill="#049788" transform="translate(29,0)"/>
<path d="M0 0 C18.81 0 37.62 0 57 0 C57 2.31 57 4.62 57 7 C63.93 7 70.86 7 78 7 C78 9.31 78 11.62 78 14 C80.64 14 83.28 14 86 14 C86 16.31 86 18.62 86 21 C90.62 21 95.24 21 100 21 C100 23.31 100 25.62 100 28 C102.31 28 104.62 28 107 28 C107 32.95 107 37.9 107 43 C109.31 43 111.62 43 114 43 C114 47.62 114 52.24 114 57 C116.31 57 118.62 57 121 57 C121 75.81 121 94.62 121 114 C118.69 114 116.38 114 114 114 C114 116.31 114 118.62 114 121 C111.69 121 109.38 121 107 121 C107 125.95 107 130.9 107 136 C104.69 136 102.38 136 100 136 C100 140.62 100 145.24 100 150 C95.38 150 90.76 150 86 150 C86 152.31 86 154.62 86 157 C81.05 157 76.1 157 71 157 C71 159.31 71 161.62 71 164 C66.38 164 61.76 164 57 164 C57 166.31 57 168.62 57 171 C40.5 171 24 171 7 171 C7 168.69 7 166.38 7 164 C2.38 164 -2.24 164 -7 164 C-7 161.69 -7 159.38 -7 157 C-11.95 157 -16.9 157 -22 157 C-22 154.69 -22 152.38 -22 150 C-24.31 150 -26.62 150 -29 150 C-29 147.69 -29 145.38 -29 143 C-31.31 143 -33.62 143 -36 143 C-36 138.05 -36 133.1 -36 128 C-38.31 128 -40.62 128 -43 128 C-43 121.07 -43 114.14 -43 107 C-45.31 107 -47.62 107 -50 107 C-50 92.81 -50 78.62 -50 64 C-47.69 64 -45.38 64 -43 64 C-43 54.76 -43 45.52 -43 36 C-40.69 36 -38.38 36 -36 36 C-36 33.36 -36 30.72 -36 28 C-33.69 28 -31.38 28 -29 28 C-29 25.69 -29 23.38 -29 21 C-26.69 21 -24.38 21 -22 21 C-22 18.69 -22 16.38 -22 14 C-19.36 14 -16.72 14 -14 14 C-14 11.69 -14 9.38 -14 7 C-9.38 7 -4.76 7 0 7 C0 4.69 0 2.38 0 0 Z " fill="#FEFEFE" transform="translate(93,43)"/>
<path d="M0 0 C2.31 0 4.62 0 7 0 C7 16.5 7 33 7 50 C16.24 50 25.48 50 35 50 C35 52.31 35 54.62 35 57 C32.69 57 30.38 57 28 57 C28 61.95 28 66.9 28 72 C25.69 72 23.38 72 21 72 C21 76.62 21 81.24 21 86 C18.69 86 16.38 86 14 86 C14 90.62 14 95.24 14 100 C11.69 100 9.38 100 7 100 C7 104.95 7 109.9 7 115 C4.69 115 2.38 115 0 115 C0 119.62 0 124.24 0 129 C-2.64 129 -5.28 129 -8 129 C-8 112.5 -8 96 -8 79 C-17.24 79 -26.48 79 -36 79 C-36 76.69 -36 74.38 -36 72 C-33.69 72 -31.38 72 -29 72 C-29 67.05 -29 62.1 -29 57 C-26.69 57 -24.38 57 -22 57 C-22 52.38 -22 47.76 -22 43 C-19.69 43 -17.38 43 -15 43 C-15 38.38 -15 33.76 -15 29 C-12.69 29 -10.38 29 -8 29 C-8 24.38 -8 19.76 -8 15 C-5.36 15 -2.72 15 0 15 C0 10.05 0 5.1 0 0 Z " fill="#049789" transform="translate(129,64)"/>
<path d="M0 0 C2.64 0 5.28 0 8 0 C8 9.24 8 18.48 8 28 C10.31 28 12.62 28 15 28 C15 30.64 15 33.28 15 36 C12.69 36 10.38 36 8 36 C8 40.62 8 45.24 8 50 C5.36 50 2.72 50 0 50 C0 33.5 0 17 0 0 Z " fill="#42B0A6" transform="translate(121,143)"/>
<path d="M0 0 C11.55 0 23.1 0 35 0 C35 2.31 35 4.62 35 7 C23.45 7 11.9 7 0 7 C0 4.69 0 2.38 0 0 Z " fill="#C0E5E1" transform="translate(136,107)"/>
<path d="M0 0 C2.31 0 4.62 0 7 0 C7 7.26 7 14.52 7 22 C4.69 22 2.38 22 0 22 C0 14.74 0 7.48 0 0 Z " fill="#36ABA0" transform="translate(36,114)"/>
<path d="M0 0 C7.26 0 14.52 0 22 0 C22 2.31 22 4.62 22 7 C14.74 7 7.48 7 0 7 C0 4.69 0 2.38 0 0 Z " fill="#36ABA0" transform="translate(114,36)"/>
<path d="M0 0 C4.95 0 9.9 0 15 0 C15 2.31 15 4.62 15 7 C10.05 7 5.1 7 0 7 C0 4.69 0 2.38 0 0 Z " fill="#1DA195" transform="translate(164,200)"/>
<path d="M0 0 C2.31 0 4.62 0 7 0 C7 4.95 7 9.9 7 15 C4.69 15 2.38 15 0 15 C0 10.05 0 5.1 0 0 Z " fill="#1DA195" transform="translate(200,164)"/>
<path d="M0 0 C4.62 0 9.24 0 14 0 C14 2.31 14 4.62 14 7 C9.38 7 4.76 7 0 7 C0 4.69 0 2.38 0 0 Z " fill="#179F92" transform="translate(150,207)"/>
<path d="M0 0 C4.62 0 9.24 0 14 0 C14 2.31 14 4.62 14 7 C9.38 7 4.76 7 0 7 C0 4.69 0 2.38 0 0 Z " fill="#ADDDD9" transform="translate(136,207)"/>
<path d="M0 0 C4.62 0 9.24 0 14 0 C14 2.31 14 4.62 14 7 C9.38 7 4.76 7 0 7 C0 4.69 0 2.38 0 0 Z " fill="#C0E5E1" transform="translate(100,207)"/>
<path d="M0 0 C2.31 0 4.62 0 7 0 C7 4.62 7 9.24 7 14 C4.69 14 2.38 14 0 14 C0 9.38 0 4.76 0 0 Z " fill="#4BB4AA" transform="translate(43,150)"/>
<path d="M0 0 C2.31 0 4.62 0 7 0 C7 4.62 7 9.24 7 14 C4.69 14 2.38 14 0 14 C0 9.38 0 4.76 0 0 Z " fill="#56B9AF" transform="translate(207,143)"/>
<path d="M0 0 C2.31 0 4.62 0 7 0 C7 4.62 7 9.24 7 14 C4.69 14 2.38 14 0 14 C0 9.38 0 4.76 0 0 Z " fill="#C0E5E1" transform="translate(207,100)"/>
<path d="M0 0 C2.31 0 4.62 0 7 0 C7 4.62 7 9.24 7 14 C4.69 14 2.38 14 0 14 C0 9.38 0 4.76 0 0 Z " fill="#A1D8D3" transform="translate(43,93)"/>
<path d="M0 0 C2.31 0 4.62 0 7 0 C7 4.62 7 9.24 7 14 C4.69 14 2.38 14 0 14 C0 9.38 0 4.76 0 0 Z " fill="#D7EEEC" transform="translate(50,79)"/>
<path d="M0 0 C4.62 0 9.24 0 14 0 C14 2.31 14 4.62 14 7 C9.38 7 4.76 7 0 7 C0 4.69 0 2.38 0 0 Z " fill="#D7EEEC" transform="translate(79,50)"/>
<path d="M0 0 C4.62 0 9.24 0 14 0 C14 2.31 14 4.62 14 7 C9.38 7 4.76 7 0 7 C0 4.69 0 2.38 0 0 Z " fill="#4DB5AB" transform="translate(150,43)"/>
<path d="M0 0 C4.62 0 9.24 0 14 0 C14 2.31 14 4.62 14 7 C9.38 7 4.76 7 0 7 C0 4.69 0 2.38 0 0 Z " fill="#B0DEDA" transform="translate(93,43)"/>
<path d="M0 0 C2.64 0 5.28 0 8 0 C8 2.64 8 5.28 8 8 C5.36 8 2.72 8 0 8 C0 5.36 0 2.72 0 0 Z " fill="#D6EEEC" transform="translate(121,71)"/>
<path d="M0 0 C2.31 0 4.62 0 7 0 C7 2.64 7 5.28 7 8 C4.69 8 2.38 8 0 8 C0 5.36 0 2.72 0 0 Z " fill="#009999" transform="translate(0,221)"/>
<path d="M0 0 C2.64 0 5.28 0 8 0 C8 2.31 8 4.62 8 7 C5.36 7 2.72 7 0 7 C0 4.69 0 2.38 0 0 Z " fill="#D9EFED" transform="translate(171,193)"/>
<path d="M0 0 C2.64 0 5.28 0 8 0 C8 2.31 8 4.62 8 7 C5.36 7 2.72 7 0 7 C0 4.69 0 2.38 0 0 Z " fill="#BDE4E0" transform="translate(121,193)"/>
<path d="M0 0 C2.64 0 5.28 0 8 0 C8 2.31 8 4.62 8 7 C5.36 7 2.72 7 0 7 C0 4.69 0 2.38 0 0 Z " fill="#81CBC4" transform="translate(71,193)"/>
<path d="M0 0 C2.31 0 4.62 0 7 0 C7 2.64 7 5.28 7 8 C4.69 8 2.38 8 0 8 C0 5.36 0 2.72 0 0 Z " fill="#E1F3F1" transform="translate(193,171)"/>
<path d="M0 0 C2.31 0 4.62 0 7 0 C7 2.64 7 5.28 7 8 C4.69 8 2.38 8 0 8 C0 5.36 0 2.72 0 0 Z " fill="#4FB6AC" transform="translate(50,171)"/>
<path d="M0 0 C2.31 0 4.62 0 7 0 C7 2.64 7 5.28 7 8 C4.69 8 2.38 8 0 8 C0 5.36 0 2.72 0 0 Z " fill="#A5DAD5" transform="translate(157,121)"/>
<path d="M0 0 C2.31 0 4.62 0 7 0 C7 2.64 7 5.28 7 8 C4.69 8 2.38 8 0 8 C0 5.36 0 2.72 0 0 Z " fill="#48B3A9" transform="translate(100,121)"/>
<path d="M0 0 C2.64 0 5.28 0 8 0 C8 2.31 8 4.62 8 7 C5.36 7 2.72 7 0 7 C0 4.69 0 2.38 0 0 Z " fill="#59BAB1" transform="translate(121,79)"/>
<path d="M0 0 C2.31 0 4.62 0 7 0 C7 2.64 7 5.28 7 8 C4.69 8 2.38 8 0 8 C0 5.36 0 2.72 0 0 Z " fill="#9CD6D0" transform="translate(193,71)"/>
<path d="M0 0 C2.31 0 4.62 0 7 0 C7 2.64 7 5.28 7 8 C4.69 8 2.38 8 0 8 C0 5.36 0 2.72 0 0 Z " fill="#CAE9E6" transform="translate(57,71)"/>
<path d="M0 0 C2.64 0 5.28 0 8 0 C8 2.31 8 4.62 8 7 C5.36 7 2.72 7 0 7 C0 4.69 0 2.38 0 0 Z " fill="#ABDCD8" transform="translate(71,57)"/>
<path d="M0 0 C2.64 0 5.28 0 8 0 C8 2.31 8 4.62 8 7 C5.36 7 2.72 7 0 7 C0 4.69 0 2.38 0 0 Z " fill="#4FB6AC" transform="translate(171,50)"/>
<path d="M0 0 C2.64 0 5.28 0 8 0 C8 2.31 8 4.62 8 7 C5.36 7 2.72 7 0 7 C0 4.69 0 2.38 0 0 Z " fill="#009999" transform="translate(221,0)"/>
<path d="M0 0 C2.31 0 4.62 0 7 0 C7 2.31 7 4.62 7 7 C4.69 7 2.38 7 0 7 C0 4.69 0 2.38 0 0 Z " fill="#62BEB5" transform="translate(150,207)"/>
<path d="M0 0 C2.31 0 4.62 0 7 0 C7 2.31 7 4.62 7 7 C4.69 7 2.38 7 0 7 C0 4.69 0 2.38 0 0 Z " fill="#D3EDEA" transform="translate(136,207)"/>
<path d="M0 0 C2.31 0 4.62 0 7 0 C7 2.31 7 4.62 7 7 C4.69 7 2.38 7 0 7 C0 4.69 0 2.38 0 0 Z " fill="#ECF7F6" transform="translate(129,207)"/>
<path d="M0 0 C2.31 0 4.62 0 7 0 C7 2.31 7 4.62 7 7 C4.69 7 2.38 7 0 7 C0 4.69 0 2.38 0 0 Z " fill="#DCF1EF" transform="translate(114,207)"/>
<path d="M0 0 C2.31 0 4.62 0 7 0 C7 2.31 7 4.62 7 7 C4.69 7 2.38 7 0 7 C0 4.69 0 2.38 0 0 Z " fill="#75C6BE" transform="translate(100,207)"/>
<path d="M0 0 C2.31 0 4.62 0 7 0 C7 2.31 7 4.62 7 7 C4.69 7 2.38 7 0 7 C0 4.69 0 2.38 0 0 Z " fill="#2AA79B" transform="translate(93,207)"/>
<path d="M0 0 C2.31 0 4.62 0 7 0 C7 2.31 7 4.62 7 7 C4.69 7 2.38 7 0 7 C0 4.69 0 2.38 0 0 Z " fill="#81CBC4" transform="translate(164,200)"/>
<path d="M0 0 C2.31 0 4.62 0 7 0 C7 2.31 7 4.62 7 7 C4.69 7 2.38 7 0 7 C0 4.69 0 2.38 0 0 Z " fill="#E6F5F3" transform="translate(157,200)"/>
<path d="M0 0 C2.31 0 4.62 0 7 0 C7 2.31 7 4.62 7 7 C4.69 7 2.38 7 0 7 C0 4.69 0 2.38 0 0 Z " fill="#A4D9D4" transform="translate(86,200)"/>
<path d="M0 0 C2.31 0 4.62 0 7 0 C7 2.31 7 4.62 7 7 C4.69 7 2.38 7 0 7 C0 4.69 0 2.38 0 0 Z " fill="#48B3A9" transform="translate(79,200)"/>
<path d="M0 0 C2.31 0 4.62 0 7 0 C7 2.31 7 4.62 7 7 C4.69 7 2.38 7 0 7 C0 4.69 0 2.38 0 0 Z " fill="#40B0A5" transform="translate(179,193)"/>
<path d="M0 0 C2.31 0 4.62 0 7 0 C7 2.31 7 4.62 7 7 C4.69 7 2.38 7 0 7 C0 4.69 0 2.38 0 0 Z " fill="#81CBC4" transform="translate(186,186)"/>
<path d="M0 0 C2.31 0 4.62 0 7 0 C7 2.31 7 4.62 7 7 C4.69 7 2.38 7 0 7 C0 4.69 0 2.38 0 0 Z " fill="#B6E1DD" transform="translate(64,186)"/>
<path d="M0 0 C2.31 0 4.62 0 7 0 C7 2.31 7 4.62 7 7 C4.69 7 2.38 7 0 7 C0 4.69 0 2.38 0 0 Z " fill="#60BDB4" transform="translate(193,179)"/>
<path d="M0 0 C2.31 0 4.62 0 7 0 C7 2.31 7 4.62 7 7 C4.69 7 2.38 7 0 7 C0 4.69 0 2.38 0 0 Z " fill="#B7E1DD" transform="translate(129,179)"/>
<path d="M0 0 C2.31 0 4.62 0 7 0 C7 2.31 7 4.62 7 7 C4.69 7 2.38 7 0 7 C0 4.69 0 2.38 0 0 Z " fill="#99D5CF" transform="translate(57,179)"/>
<path d="M0 0 C2.31 0 4.62 0 7 0 C7 2.31 7 4.62 7 7 C4.69 7 2.38 7 0 7 C0 4.69 0 2.38 0 0 Z " fill="#81CBC4" transform="translate(200,164)"/>
<path d="M0 0 C2.31 0 4.62 0 7 0 C7 2.31 7 4.62 7 7 C4.69 7 2.38 7 0 7 C0 4.69 0 2.38 0 0 Z " fill="#B2DFDB" transform="translate(136,164)"/>
<path d="M0 0 C2.31 0 4.62 0 7 0 C7 2.31 7 4.62 7 7 C4.69 7 2.38 7 0 7 C0 4.69 0 2.38 0 0 Z " fill="#B4E0DC" transform="translate(50,164)"/>
<path d="M0 0 C2.31 0 4.62 0 7 0 C7 2.31 7 4.62 7 7 C4.69 7 2.38 7 0 7 C0 4.69 0 2.38 0 0 Z " fill="#149E91" transform="translate(207,157)"/>
<path d="M0 0 C2.31 0 4.62 0 7 0 C7 2.31 7 4.62 7 7 C4.69 7 2.38 7 0 7 C0 4.69 0 2.38 0 0 Z " fill="#E6F5F3" transform="translate(200,157)"/>
<path d="M0 0 C2.31 0 4.62 0 7 0 C7 2.31 7 4.62 7 7 C4.69 7 2.38 7 0 7 C0 4.69 0 2.38 0 0 Z " fill="#36ACA0" transform="translate(136,157)"/>
<path d="M0 0 C2.31 0 4.62 0 7 0 C7 2.31 7 4.62 7 7 C4.69 7 2.38 7 0 7 C0 4.69 0 2.38 0 0 Z " fill="#AEDDD9" transform="translate(143,150)"/>
<path d="M0 0 C2.31 0 4.62 0 7 0 C7 2.31 7 4.62 7 7 C4.69 7 2.38 7 0 7 C0 4.69 0 2.38 0 0 Z " fill="#8CD0C9" transform="translate(43,150)"/>
<path d="M0 0 C2.31 0 4.62 0 7 0 C7 2.31 7 4.62 7 7 C4.69 7 2.38 7 0 7 C0 4.69 0 2.38 0 0 Z " fill="#A9DBD6" transform="translate(207,143)"/>
<path d="M0 0 C2.31 0 4.62 0 7 0 C7 2.31 7 4.62 7 7 C4.69 7 2.38 7 0 7 C0 4.69 0 2.38 0 0 Z " fill="#2FA99D" transform="translate(143,143)"/>
<path d="M0 0 C2.31 0 4.62 0 7 0 C7 2.31 7 4.62 7 7 C4.69 7 2.38 7 0 7 C0 4.69 0 2.38 0 0 Z " fill="#E7F5F4" transform="translate(43,143)"/>
<path d="M0 0 C2.31 0 4.62 0 7 0 C7 2.31 7 4.62 7 7 C4.69 7 2.38 7 0 7 C0 4.69 0 2.38 0 0 Z " fill="#D3EDEA" transform="translate(207,136)"/>
<path d="M0 0 C2.31 0 4.62 0 7 0 C7 2.31 7 4.62 7 7 C4.69 7 2.38 7 0 7 C0 4.69 0 2.38 0 0 Z " fill="#A9DCD7" transform="translate(150,136)"/>
<path d="M0 0 C2.31 0 4.62 0 7 0 C7 2.31 7 4.62 7 7 C4.69 7 2.38 7 0 7 C0 4.69 0 2.38 0 0 Z " fill="#43B1A7" transform="translate(93,136)"/>
<path d="M0 0 C2.31 0 4.62 0 7 0 C7 2.31 7 4.62 7 7 C4.69 7 2.38 7 0 7 C0 4.69 0 2.38 0 0 Z " fill="#179F92" transform="translate(36,136)"/>
<path d="M0 0 C2.31 0 4.62 0 7 0 C7 2.31 7 4.62 7 7 C4.69 7 2.38 7 0 7 C0 4.69 0 2.38 0 0 Z " fill="#ECF7F6" transform="translate(207,129)"/>
<path d="M0 0 C2.31 0 4.62 0 7 0 C7 2.31 7 4.62 7 7 C4.69 7 2.38 7 0 7 C0 4.69 0 2.38 0 0 Z " fill="#29A69A" transform="translate(150,129)"/>
<path d="M0 0 C2.31 0 4.62 0 7 0 C7 2.31 7 4.62 7 7 C4.69 7 2.38 7 0 7 C0 4.69 0 2.38 0 0 Z " fill="#C4E7E3" transform="translate(93,129)"/>
<path d="M0 0 C2.31 0 4.62 0 7 0 C7 2.31 7 4.62 7 7 C4.69 7 2.38 7 0 7 C0 4.69 0 2.38 0 0 Z " fill="#DCF1EF" transform="translate(207,114)"/>
<path d="M0 0 C2.31 0 4.62 0 7 0 C7 2.31 7 4.62 7 7 C4.69 7 2.38 7 0 7 C0 4.69 0 2.38 0 0 Z " fill="#24A498" transform="translate(157,114)"/>
<path d="M0 0 C2.31 0 4.62 0 7 0 C7 2.31 7 4.62 7 7 C4.69 7 2.38 7 0 7 C0 4.69 0 2.38 0 0 Z " fill="#C9E8E5" transform="translate(100,114)"/>
<path d="M0 0 C2.31 0 4.62 0 7 0 C7 2.31 7 4.62 7 7 C4.69 7 2.38 7 0 7 C0 4.69 0 2.38 0 0 Z " fill="#20A396" transform="translate(36,114)"/>
<path d="M0 0 C2.31 0 4.62 0 7 0 C7 2.31 7 4.62 7 7 C4.69 7 2.38 7 0 7 C0 4.69 0 2.38 0 0 Z " fill="#4CB5AB" transform="translate(107,107)"/>
<path d="M0 0 C2.31 0 4.62 0 7 0 C7 2.31 7 4.62 7 7 C4.69 7 2.38 7 0 7 C0 4.69 0 2.38 0 0 Z " fill="#66C0B7" transform="translate(207,100)"/>
<path d="M0 0 C2.31 0 4.62 0 7 0 C7 2.31 7 4.62 7 7 C4.69 7 2.38 7 0 7 C0 4.69 0 2.38 0 0 Z " fill="#CDEAE7" transform="translate(107,100)"/>
<path d="M0 0 C2.31 0 4.62 0 7 0 C7 2.31 7 4.62 7 7 C4.69 7 2.38 7 0 7 C0 4.69 0 2.38 0 0 Z " fill="#25A598" transform="translate(207,93)"/>
<path d="M0 0 C2.31 0 4.62 0 7 0 C7 2.31 7 4.62 7 7 C4.69 7 2.38 7 0 7 C0 4.69 0 2.38 0 0 Z " fill="#53B8AE" transform="translate(114,93)"/>
<path d="M0 0 C2.31 0 4.62 0 7 0 C7 2.31 7 4.62 7 7 C4.69 7 2.38 7 0 7 C0 4.69 0 2.38 0 0 Z " fill="#5BBBB2" transform="translate(43,93)"/>
<path d="M0 0 C2.31 0 4.62 0 7 0 C7 2.31 7 4.62 7 7 C4.69 7 2.38 7 0 7 C0 4.69 0 2.38 0 0 Z " fill="#A4D9D4" transform="translate(200,86)"/>
<path d="M0 0 C2.31 0 4.62 0 7 0 C7 2.31 7 4.62 7 7 C4.69 7 2.38 7 0 7 C0 4.69 0 2.38 0 0 Z " fill="#D1ECEA" transform="translate(114,86)"/>
<path d="M0 0 C2.31 0 4.62 0 7 0 C7 2.31 7 4.62 7 7 C4.69 7 2.38 7 0 7 C0 4.69 0 2.38 0 0 Z " fill="#48B3A9" transform="translate(200,79)"/>
<path d="M0 0 C2.31 0 4.62 0 7 0 C7 2.31 7 4.62 7 7 C4.69 7 2.38 7 0 7 C0 4.69 0 2.38 0 0 Z " fill="#7CC9C1" transform="translate(50,79)"/>
<path d="M0 0 C2.31 0 4.62 0 7 0 C7 2.31 7 4.62 7 7 C4.69 7 2.38 7 0 7 C0 4.69 0 2.38 0 0 Z " fill="#C0E5E1" transform="translate(186,64)"/>
<path d="M0 0 C2.31 0 4.62 0 7 0 C7 2.31 7 4.62 7 7 C4.69 7 2.38 7 0 7 C0 4.69 0 2.38 0 0 Z " fill="#60BDB4" transform="translate(129,64)"/>
<path d="M0 0 C2.31 0 4.62 0 7 0 C7 2.31 7 4.62 7 7 C4.69 7 2.38 7 0 7 C0 4.69 0 2.38 0 0 Z " fill="#6CC2BA" transform="translate(179,57)"/>
<path d="M0 0 C2.31 0 4.62 0 7 0 C7 2.31 7 4.62 7 7 C4.69 7 2.38 7 0 7 C0 4.69 0 2.38 0 0 Z " fill="#DAF0EE" transform="translate(129,57)"/>
<path d="M0 0 C2.31 0 4.62 0 7 0 C7 2.31 7 4.62 7 7 C4.69 7 2.38 7 0 7 C0 4.69 0 2.38 0 0 Z " fill="#B4E0DC" transform="translate(164,50)"/>
<path d="M0 0 C2.31 0 4.62 0 7 0 C7 2.31 7 4.62 7 7 C4.69 7 2.38 7 0 7 C0 4.69 0 2.38 0 0 Z " fill="#7CC9C1" transform="translate(79,50)"/>
<path d="M0 0 C2.31 0 4.62 0 7 0 C7 2.31 7 4.62 7 7 C4.69 7 2.38 7 0 7 C0 4.69 0 2.38 0 0 Z " fill="#9CD6D0" transform="translate(150,43)"/>
<path d="M0 0 C2.31 0 4.62 0 7 0 C7 2.31 7 4.62 7 7 C4.69 7 2.38 7 0 7 C0 4.69 0 2.38 0 0 Z " fill="#EBF7F6" transform="translate(143,43)"/>
<path d="M0 0 C2.31 0 4.62 0 7 0 C7 2.31 7 4.62 7 7 C4.69 7 2.38 7 0 7 C0 4.69 0 2.38 0 0 Z " fill="#60BDB4" transform="translate(93,43)"/>
<path d="M0 0 C2.31 0 4.62 0 7 0 C7 2.31 7 4.62 7 7 C4.69 7 2.38 7 0 7 C0 4.69 0 2.38 0 0 Z " fill="#179F92" transform="translate(136,36)"/>
<path d="M0 0 C2.31 0 4.62 0 7 0 C7 2.31 7 4.62 7 7 C4.69 7 2.38 7 0 7 C0 4.69 0 2.38 0 0 Z " fill="#20A396" transform="translate(114,36)"/>
</svg>
