<svg version="1.1" id="Layer_1" xmlns="http://www.w3.org/2000/svg" xmlns:xlink="http://www.w3.org/1999/xlink" x="0px" y="0px"
	 width="100%" viewBox="0 0 256 256" enable-background="new 0 0 256 256" xml:space="preserve">
<path fill="#953CAD" opacity="1.000000" stroke="none" 
	d="
M1.000000,226.000000 
	C1.000000,161.645767 1.000000,97.291542 1.436677,32.468605 
	C3.476731,31.920198 5.080107,31.840508 6.679666,31.761005 
	C6.955150,29.663462 7.183306,27.926268 7.410044,26.199879 
	C9.336728,26.038179 10.945168,25.903187 13.079757,25.724039 
	C13.079757,21.468992 13.079757,17.400429 13.079757,12.829178 
	C17.685593,12.829178 21.750092,12.829178 25.763819,12.829178 
	C25.961918,10.674528 26.110760,9.055629 26.276014,7.258215 
	C28.212626,7.066755 29.957743,6.894226 32.000000,6.692321 
	C32.000000,4.606036 32.000000,2.803018 32.000000,1.000000 
	C96.354225,1.000000 160.708450,1.000000 225.532532,1.436593 
	C226.002380,3.454694 226.002380,5.036202 226.002380,6.706990 
	C228.259186,6.936001 229.980957,7.110717 231.698807,7.285038 
	C231.947479,9.324897 232.157547,11.047985 232.374527,12.827874 
	C234.429703,12.952111 236.212830,13.059902 237.997208,13.584177 
	C237.232056,19.468781 240.385345,20.473253 244.901016,20.434803 
	C245.044479,22.453548 245.120636,24.040434 245.201675,25.729477 
	C247.257324,25.933432 248.980148,26.104366 250.703293,26.275331 
	C250.949158,28.318092 251.156754,30.042986 251.392303,32.000000 
	C253.431259,32.000000 255.215637,32.000000 257.000000,32.000000 
	C257.000000,96.354225 257.000000,160.708450 256.563660,225.536163 
	C254.545715,226.009628 252.964081,226.009628 251.296616,226.009628 
	C251.065277,228.264771 250.888702,229.985977 250.712784,231.700928 
	C248.673294,231.949677 246.950378,232.159821 245.172165,232.376694 
	C245.048172,234.434097 244.940735,236.217041 244.403824,238.000015 
	C242.116638,238.000046 240.258926,238.000046 237.999985,238.000046 
	C237.999985,240.727692 237.999985,242.780487 237.567902,244.900558 
	C235.549194,245.042145 233.962555,245.116455 232.264465,245.195999 
	C232.063843,247.250793 231.895706,248.972885 231.727325,250.697510 
	C229.687027,250.945633 227.964539,251.155106 226.000000,251.394012 
	C226.000000,253.432678 226.000000,255.216339 226.000000,257.000000 
	C161.645767,257.000000 97.291542,257.000000 32.471985,256.563202 
	C31.936832,254.540970 31.867008,252.955536 31.792854,251.271759 
	C29.744097,251.066757 28.019360,250.894180 26.296852,250.721817 
	C26.049730,248.681030 25.840935,246.956757 25.625122,245.174530 
	C23.569584,245.049911 21.786232,244.941803 20.001707,244.417145 
	C20.767555,238.534470 17.617846,237.525284 13.100693,237.563995 
	C12.958037,235.545670 12.882382,233.959213 12.801673,232.266754 
	C10.750255,232.063629 9.026524,231.892960 7.302856,231.722290 
	C7.054677,229.681610 6.845119,227.958496 6.606934,226.000000 
	C4.570221,226.000000 2.785110,226.000000 1.000000,226.000000 
M200.996124,75.942459 
	C200.996124,75.942459 201.001663,75.998604 201.010422,75.143806 
	C200.917969,73.577736 200.825531,72.011665 200.720459,70.231804 
	C198.589447,70.111404 196.837265,70.012405 195.008774,69.916641 
	C195.008774,69.916641 195.011673,69.992950 195.002853,69.108360 
	C195.002853,67.196045 195.002853,65.283730 195.002853,62.920506 
	C192.268921,62.920506 190.161499,62.920506 188.004379,62.971458 
	C188.004379,62.971458 188.072845,62.952110 188.015839,62.093163 
	C187.927444,60.503555 187.839066,58.913952 187.731094,56.972248 
	C185.593063,56.972248 183.804916,56.972248 182.076569,56.990993 
	C182.076569,56.990993 182.082779,56.928627 182.018188,56.080956 
	C181.913406,54.513245 181.808609,52.945534 181.679398,51.012497 
	C179.519974,51.012497 177.755554,51.012497 176.050064,51.017925 
	C176.050064,51.017925 176.041046,50.959446 175.993546,50.116913 
	C176.868378,44.909195 173.725449,44.607754 169.880005,44.992130 
	C169.880005,44.992130 170.019791,44.965065 170.007996,44.111267 
	C170.812897,38.324165 167.408691,37.534256 162.022522,38.045433 
	C160.321121,38.075623 158.619720,38.105816 156.072037,38.026409 
	C154.364594,38.046108 152.657135,38.065811 151.020569,38.003120 
	C151.020569,38.003120 151.059830,37.901775 151.025024,37.082886 
	C151.527298,32.341084 148.760315,31.600071 144.088623,32.044033 
	C142.040527,32.076195 139.992447,32.108356 137.092667,32.057228 
	C135.378952,32.093815 133.665253,32.130398 131.102203,32.060482 
	C129.391144,32.093884 127.680092,32.127289 125.126183,32.038193 
	C123.425110,32.075191 121.724045,32.112194 119.151527,32.036057 
	C117.107742,32.074745 115.063950,32.113438 112.167572,32.051899 
	C110.454887,32.089039 108.742210,32.126179 106.189430,32.066921 
	C104.501068,32.075989 102.812714,32.085052 100.281998,32.058720 
	C95.655334,31.398977 94.664474,34.064987 95.027283,37.991436 
	C95.027283,37.991436 95.063354,38.114265 94.191078,38.029140 
	C92.152740,38.068100 90.114410,38.107063 87.220024,38.062435 
	C81.092972,36.969257 81.938873,41.272163 81.911591,45.009602 
	C81.911591,45.009602 82.013252,45.021152 81.168396,44.988712 
	C79.480484,45.027771 77.792564,45.066830 75.258209,45.058353 
	C70.378784,44.226551 69.638275,47.110874 70.008957,50.998528 
	C70.008957,50.998528 70.040344,51.052860 69.163612,51.017754 
	C67.279861,51.017754 65.396118,51.017754 63.285519,51.017754 
	C63.136402,53.423420 63.028057,55.171276 62.918781,57.002747 
	C62.918781,57.002747 63.002388,57.004086 62.137623,57.005287 
	C60.544376,57.085487 58.951130,57.165691 56.952534,57.266300 
	C56.952534,59.402763 56.952534,61.186104 56.994717,62.940361 
	C56.994717,62.940361 56.945118,62.927433 56.086452,62.986843 
	C54.509975,63.087402 52.933495,63.187962 51.022110,63.309883 
	C51.022110,65.796387 51.022110,67.905174 51.011086,69.915947 
	C51.011086,69.915947 50.913017,69.926483 50.073044,69.953156 
	C44.911499,69.088448 44.579617,72.233414 44.973717,76.039528 
	C44.973717,76.039528 44.977436,75.982292 44.117573,75.994637 
	C39.399624,75.362808 37.177788,77.186394 38.010712,82.945908 
	C38.014187,84.635033 38.017666,86.324150 38.009495,87.911636 
	C38.009495,87.911636 37.907799,87.922775 37.066391,87.948456 
	C30.868979,87.174164 31.954338,91.427902 32.041668,95.918243 
	C32.080868,97.631729 32.120068,99.345207 32.033028,101.892586 
	C31.968464,103.576447 31.903898,105.260315 31.026890,106.962975 
	C26.226040,106.467125 25.624773,109.332352 26.054550,113.947983 
	C26.086645,115.985222 26.118742,118.022469 26.050779,120.909821 
	C26.084316,122.621231 26.117853,124.332649 26.035635,126.884857 
	C26.077318,128.579544 26.119001,130.274231 26.058483,132.820129 
	C26.094767,134.531296 26.131052,136.242447 26.066679,138.826721 
	C26.091162,140.865265 26.115644,142.903824 26.053371,145.801819 
	C26.077585,147.521194 26.101799,149.240585 26.078241,151.792252 
	C25.306511,156.554031 28.148834,157.313156 32.009769,157.015915 
	C32.009769,157.015915 32.093338,156.945694 32.028034,157.796021 
	C32.063694,159.498001 32.099358,161.199982 32.062073,163.775116 
	C32.062832,165.807129 32.063591,167.839157 32.044189,170.709442 
	C31.506802,175.071152 33.810883,176.386307 37.861671,176.827774 
	C37.120686,182.780685 41.325661,182.015167 45.001183,182.026352 
	C45.001183,182.026352 45.030140,181.976776 45.004940,182.833237 
	C45.093288,184.401001 45.181637,185.968750 45.281979,187.749374 
	C47.415955,187.876236 49.166603,187.980316 50.993721,188.081680 
	C50.993721,188.081680 50.991344,188.005188 50.997807,188.887238 
	C50.997807,190.806198 50.997807,192.725143 50.997807,195.050201 
	C53.400440,195.050201 55.183998,195.050201 56.938545,195.006454 
	C56.938545,195.006454 56.924816,195.057129 56.986126,195.910721 
	C57.083733,197.490677 57.181339,199.070648 57.297989,200.958862 
	C59.466763,200.958862 61.245918,200.958862 62.918617,200.974518 
	C62.918617,200.974518 62.933712,201.081039 62.973957,201.919678 
	C62.143871,208.055511 66.452835,207.000916 70.043259,207.012741 
	C70.043259,207.012741 69.995270,207.005783 70.000450,207.844193 
	C69.285065,212.854218 72.268845,213.388077 76.948853,212.977005 
	C78.645569,212.963516 80.342278,212.950012 81.947304,212.986450 
	C81.947304,212.986450 81.937561,213.090393 81.969826,213.941635 
	C81.380577,218.648575 83.212250,220.849854 88.974579,219.960480 
	C91.001465,219.943680 93.028351,219.926880 94.998444,219.994675 
	C94.998444,219.994675 94.947800,220.083069 94.977524,220.905090 
	C94.473549,225.694260 97.253868,226.416168 101.932961,225.909348 
	C103.634262,225.883469 105.335571,225.857590 107.888329,225.941666 
	C109.605652,225.911057 111.322983,225.880447 113.907097,225.955307 
	C115.948013,225.918930 117.988930,225.882568 120.872330,225.963715 
	C122.570732,225.922318 124.269142,225.880905 126.815781,225.941559 
	C128.521072,225.913940 130.226379,225.886322 132.788239,225.950638 
	C134.504913,225.927048 136.221588,225.903458 138.813919,225.938705 
	C140.849655,225.943436 142.885406,225.948166 145.758652,225.972946 
	C150.330185,226.535629 151.335571,223.895981 150.876114,220.043457 
	C150.876114,220.043457 150.920837,219.877426 151.772171,219.960556 
	C153.478683,219.934952 155.185211,219.909363 157.739746,219.933472 
	C163.631866,220.855331 163.010773,216.713715 163.025467,212.990036 
	C163.025467,212.990036 162.949524,212.914398 163.817307,212.974060 
	C165.840530,212.943039 167.863754,212.912018 170.736221,212.937744 
	C175.689743,213.800186 176.343201,210.843491 175.956696,207.012695 
	C175.956696,207.012695 175.966461,206.965195 176.812592,206.983688 
	C181.804245,207.900269 182.329483,204.841446 182.081436,200.974411 
	C182.081436,200.974411 181.974960,200.958847 182.838303,200.984512 
	C184.425659,200.906433 186.013016,200.828339 187.780472,200.741394 
	C187.890442,198.607620 187.981979,196.831589 188.060257,195.005615 
	C188.060257,195.005615 188.031235,195.048325 188.912109,195.008041 
	C190.823013,195.008041 192.733917,195.008041 195.001572,195.008041 
	C195.001572,192.229645 195.001572,190.115295 195.000549,188.077713 
	C195.000549,188.077713 195.077316,188.079086 195.920731,188.021271 
	C197.477295,187.905441 199.033859,187.789612 200.956909,187.646515 
	C200.956909,185.474503 200.956909,183.720932 200.985992,182.016861 
	C200.985992,182.016861 201.040939,182.033585 201.871460,182.004517 
	C206.648331,182.662155 207.472351,179.992493 206.901947,175.253342 
	C207.616760,170.344254 204.728638,169.662796 200.031494,170.040649 
	C198.337357,170.050705 196.643204,170.060760 194.977066,169.992813 
	C194.977066,169.992813 195.040710,169.939697 195.023468,169.083618 
	C194.782715,162.944504 194.782715,162.944504 187.038544,163.038651 
	C185.345459,163.046707 183.652359,163.054779 182.034805,163.009674 
	C182.034805,163.009674 182.056503,162.919891 182.035172,162.088516 
	C182.678436,157.129089 179.709610,156.599823 175.066315,157.001877 
	C173.372482,157.009354 171.678650,157.016830 170.093384,157.009247 
	C170.093384,157.009247 170.078842,156.900620 170.048996,156.064957 
	C170.807037,150.067322 166.746521,150.885773 162.237900,151.078629 
	C157.270111,150.329926 156.628220,153.252106 157.032288,157.956940 
	C157.008545,159.628250 156.984818,161.299576 157.000702,162.965652 
	C157.000702,162.965652 156.960052,162.950165 156.126633,162.986206 
	C154.458878,163.012619 152.791107,163.039017 150.280304,163.042267 
	C144.802277,162.364655 144.793686,165.968826 144.170410,169.925491 
	C142.154404,169.985428 140.138382,170.045364 137.254272,170.058243 
	C135.524872,170.067795 133.795471,170.077347 131.236740,170.062302 
	C126.697365,169.450516 125.669518,172.038757 125.130180,175.969299 
	C123.429756,175.923737 121.729324,175.878174 120.015327,175.020569 
	C120.481270,169.312790 116.528572,169.946121 112.067062,170.036636 
	C110.342018,170.063202 108.616974,170.089767 106.046326,170.037064 
	C104.345070,170.051971 102.643822,170.066879 100.959137,169.986359 
	C100.959137,169.986359 101.041092,169.934769 101.022034,169.083450 
	C101.603271,164.388428 99.653351,162.285080 94.007538,163.014938 
	C92.108902,163.014938 90.210274,163.014938 88.179420,163.014938 
	C88.070099,160.656647 87.988182,158.889572 87.948669,156.274170 
	C88.753830,151.432236 85.920746,150.624161 82.002617,151.007553 
	C82.002617,151.007553 81.940407,151.043671 81.980782,150.194977 
	C81.948433,148.499390 81.916084,146.803818 81.941216,144.226944 
	C81.933113,142.178726 81.925011,140.130524 81.951508,137.245895 
	C82.557259,132.706207 79.984337,131.654449 76.031342,131.131241 
	C76.076073,129.433273 76.120804,127.735313 76.974060,126.021179 
	C81.712761,126.486412 82.348549,123.635551 81.961449,119.048660 
	C81.924309,117.011703 81.887161,114.974739 81.939438,112.086494 
	C81.937675,110.371796 81.935921,108.657104 82.015320,106.934799 
	C82.015320,106.934799 82.023346,107.015923 82.854469,107.005089 
	C87.704155,107.573402 88.364014,104.679359 87.984962,100.018311 
	C88.071381,98.447922 88.157791,96.877541 88.267273,94.888000 
	C90.694771,94.888000 92.788239,94.888000 95.738274,94.936691 
	C101.828712,95.917114 101.012299,91.653786 100.968124,88.007339 
	C100.968124,88.007339 100.974777,87.973274 101.825760,87.987007 
	C103.525543,87.942215 105.225334,87.897430 107.782448,87.927628 
	C109.493675,87.917145 111.204910,87.906670 113.778053,87.935501 
	C118.241394,88.588013 120.609161,86.968872 120.876976,82.030998 
	C122.575203,82.075325 124.273430,82.119652 125.987686,82.972000 
	C125.535454,87.681305 128.389877,88.313576 132.937149,87.960510 
	C134.662064,87.935463 136.386963,87.910416 138.973724,87.963379 
	C140.997040,87.955719 143.020355,87.948067 145.007568,88.002609 
	C145.007568,88.002609 144.959671,88.056274 144.980240,88.911774 
	C144.363968,93.639473 146.254364,95.798668 151.971161,94.982086 
	C153.544846,95.066025 155.118546,95.149963 157.083176,95.254753 
	C157.083176,97.341293 157.083176,99.104362 157.064911,101.713753 
	C156.431915,106.542656 159.177994,107.398750 163.953125,106.948608 
	C165.925583,106.945068 167.898041,106.941528 170.706360,106.957687 
	C175.065933,107.498009 176.392609,105.204384 176.818848,101.144775 
	C181.435135,101.571663 182.459900,98.928696 181.981003,94.999947 
	C181.981003,94.999947 181.952850,94.937492 182.800049,94.968498 
	C184.492142,94.950691 186.184250,94.932877 188.746216,94.957634 
	C194.160385,95.861847 195.599075,93.028168 195.836075,88.114777 
	C197.514328,88.056145 199.192566,87.997520 201.716553,87.957642 
	C206.451920,88.525780 207.343124,85.768852 206.998276,81.069489 
	C207.971054,75.929413 204.747635,75.666557 200.996124,75.942459 
M200.966064,150.135056 
	C200.983276,148.492630 201.000473,146.850204 201.842682,145.083374 
	C203.507980,145.086288 205.173279,145.089218 206.943329,145.923447 
	C207.009674,147.596680 207.076019,149.269913 207.055420,151.788727 
	C206.170013,156.811264 209.014648,157.493011 213.840347,156.950211 
	C218.609283,157.716125 220.868423,155.965576 219.947861,150.115311 
	C220.010376,148.453857 220.072876,146.792389 220.959702,145.052017 
	C222.614899,144.985794 224.270081,144.919586 226.781982,144.922562 
	C233.687881,145.746414 231.607925,140.619781 232.000244,137.087051 
	C232.537857,132.245956 229.738220,131.593445 225.101273,132.058609 
	C223.445999,131.995453 221.790726,131.932281 220.053406,131.035156 
	C220.105713,129.360596 220.158035,127.686050 221.030334,126.007568 
	C222.671936,125.973717 224.313553,125.939865 226.789047,125.935997 
	C231.621323,126.556694 232.343002,123.706230 231.961639,119.024696 
	C232.801956,114.143776 230.833801,112.139740 225.096146,113.030403 
	C223.409592,112.957687 221.723053,112.884972 220.014404,111.914276 
	C220.009552,110.592743 220.003479,109.271217 220.000061,107.949684 
	C219.981720,100.848648 219.981949,100.848648 212.117416,101.058853 
	C210.540283,101.160767 208.963150,101.262680 206.955368,101.392426 
	C206.955368,105.563118 206.955368,109.199265 206.123108,112.963959 
	C204.441864,112.925804 202.760605,112.887642 201.042282,111.949898 
	C201.027603,110.315849 200.851120,108.663986 201.028824,107.051125 
	C201.548187,102.336906 199.627319,100.292343 194.004242,101.023361 
	C192.124985,101.023361 190.245743,101.023361 187.867752,101.023361 
	C187.867752,105.455345 187.867752,109.183762 186.963165,112.968147 
	C183.398636,112.968147 179.834122,112.968147 176.103271,112.968147 
	C176.103271,115.894043 176.103271,117.879929 176.066467,120.724724 
	C175.491196,124.915833 177.559723,126.310410 181.469162,126.024521 
	C183.580139,125.870140 185.715179,126.044640 187.959686,126.908424 
	C187.911575,128.598389 187.863480,130.288345 186.916412,131.986160 
	C175.473679,132.174866 176.129837,130.715424 176.025558,138.201523 
	C175.931335,144.964706 175.990250,144.966049 182.827484,145.002350 
	C184.490097,145.011185 186.152756,145.015381 187.954086,145.860962 
	C188.024719,147.557129 188.095337,149.253311 188.067291,151.804138 
	C188.141953,153.359161 188.216629,154.914169 188.312805,156.917114 
	C190.759796,156.917114 192.816238,156.917114 195.719818,156.956848 
	C200.492691,157.591309 201.412796,154.883820 200.966064,150.135056 
z"/>
<path fill="#000000" opacity="1.000000" stroke="none" 
	d="
M31.531342,1.000000 
	C32.000000,2.803018 32.000000,4.606036 32.000000,6.692321 
	C29.957743,6.894226 28.212626,7.066755 26.276014,7.258215 
	C26.110760,9.055629 25.961918,10.674528 25.763819,12.829178 
	C21.750092,12.829178 17.685593,12.829178 13.079757,12.829178 
	C13.079757,17.400429 13.079757,21.468992 13.079757,25.724039 
	C10.945168,25.903187 9.336728,26.038179 7.410044,26.199879 
	C7.183306,27.926268 6.955150,29.663462 6.679666,31.761005 
	C5.080107,31.840508 3.476731,31.920198 1.436677,31.999945 
	C1.000000,21.740147 1.000000,11.480293 1.000000,1.000000 
	C11.019819,1.000000 21.041252,1.000000 31.531342,1.000000 
z"/>
<path fill="#000000" opacity="1.000000" stroke="none" 
	d="
M237.995941,13.167693 
	C236.212830,13.059902 234.429703,12.952111 232.374527,12.827874 
	C232.157547,11.047985 231.947479,9.324897 231.698807,7.285038 
	C229.980957,7.110717 228.259186,6.936001 226.002380,6.706990 
	C226.002380,5.036202 226.002380,3.454694 226.001190,1.436593 
	C236.259857,1.000000 246.519714,1.000000 257.000000,1.000000 
	C257.000000,11.019819 257.000000,21.041252 257.000000,31.531342 
	C255.215637,32.000000 253.431259,32.000000 251.392303,32.000000 
	C251.156754,30.042986 250.949158,28.318092 250.703293,26.275331 
	C248.980148,26.104366 247.257324,25.933432 245.201675,25.729477 
	C245.120636,24.040434 245.044479,22.453548 244.968079,19.994450 
	C244.967834,17.191622 244.967834,15.261004 244.967834,13.167693 
	C242.254318,13.167693 240.125137,13.167693 237.995941,13.167693 
z"/>
<path fill="#000000" opacity="1.000000" stroke="none" 
	d="
M244.833282,237.999985 
	C244.940735,236.217041 245.048172,234.434097 245.172165,232.376694 
	C246.950378,232.159821 248.673294,231.949677 250.712784,231.700928 
	C250.888702,229.985977 251.065277,228.264771 251.296616,226.009628 
	C252.964081,226.009628 254.545715,226.009628 256.563660,226.004822 
	C257.000000,236.259857 257.000000,246.519714 257.000000,257.000000 
	C246.980179,257.000000 236.958755,257.000000 226.468658,257.000000 
	C226.000000,255.216339 226.000000,253.432678 226.000000,251.394012 
	C227.964539,251.155106 229.687027,250.945633 231.727325,250.697510 
	C231.895706,248.972885 232.063843,247.250793 232.264465,245.195999 
	C233.962555,245.116455 235.549194,245.042145 238.008881,244.969620 
	C240.818176,244.971420 242.754425,244.971420 244.833298,244.971420 
	C244.833298,242.269882 244.833298,240.134933 244.833282,237.999985 
z"/>
<path fill="#000000" opacity="1.000000" stroke="none" 
	d="
M1.000000,226.468658 
	C2.785110,226.000000 4.570221,226.000000 6.606934,226.000000 
	C6.845119,227.958496 7.054677,229.681610 7.302856,231.722290 
	C9.026524,231.892960 10.750255,232.063629 12.801673,232.266754 
	C12.882382,233.959213 12.958037,235.545670 13.033072,238.004395 
	C13.032452,240.807388 13.032452,242.738098 13.032452,244.833694 
	C15.744681,244.833694 17.873781,244.833694 20.002880,244.833694 
	C21.786232,244.941803 23.569584,245.049911 25.625122,245.174530 
	C25.840935,246.956757 26.049730,248.681030 26.296852,250.721817 
	C28.019360,250.894180 29.744097,251.066757 31.792854,251.271759 
	C31.867008,252.955536 31.936832,254.540970 32.003326,256.563202 
	C21.740145,257.000000 11.480290,257.000000 1.000000,257.000000 
	C1.000000,246.980179 1.000000,236.958755 1.000000,226.468658 
z"/>
<path fill="#FFFFFF" opacity="1.000000" stroke="none" 
	d="
M125.971657,82.163986 
	C124.273430,82.119652 122.575203,82.075325 120.022293,82.035210 
	C117.125862,82.079834 115.084106,82.120239 112.616829,82.105316 
	C110.478615,82.084946 108.765915,82.119888 106.629478,82.108597 
	C101.085381,81.044395 100.661362,84.182533 100.974777,87.973274 
	C100.974777,87.973274 100.968124,88.007339 100.557198,88.000473 
	C93.944267,86.895889 95.042900,91.372948 94.881706,94.888000 
	C92.788239,94.888000 90.694771,94.888000 88.267273,94.888000 
	C88.157791,96.877541 88.071381,98.447922 87.529785,100.492065 
	C85.503098,101.074524 83.931580,101.183212 82.023346,101.315193 
	C82.023346,103.476364 82.023346,105.246140 82.023346,107.015923 
	C82.023346,107.015923 82.015320,106.934799 81.555435,106.955582 
	C75.986160,106.186371 75.530083,109.177559 76.106224,113.484207 
	C76.090614,115.961006 76.128365,118.004448 76.105766,120.472397 
	C76.085457,122.610390 76.125496,124.323875 76.165527,126.037354 
	C76.120804,127.735313 76.076073,129.433273 76.034592,131.976044 
	C76.079094,134.534454 76.120346,136.248062 76.104317,138.393738 
	C76.072388,140.848999 76.097733,142.872162 76.093567,145.318817 
	C75.209061,150.628372 78.099792,151.362473 81.940407,151.043671 
	C81.940407,151.043671 82.002617,151.007553 82.010361,151.412567 
	C82.101059,153.388000 82.184013,154.958435 82.276810,156.715027 
	C84.404449,156.869034 86.155357,156.995758 87.906265,157.122498 
	C87.988182,158.889572 88.070099,160.656647 88.179420,163.014938 
	C90.210274,163.014938 92.108902,163.014938 94.486679,163.479523 
	C94.965828,165.838318 94.965828,167.732529 94.965828,169.934769 
	C97.493546,169.934769 99.267319,169.934769 101.041092,169.934769 
	C101.041092,169.934769 100.959137,169.986359 100.966705,170.448227 
	C100.361603,175.844284 103.304665,176.389633 107.527161,175.920532 
	C109.646515,175.920731 111.343620,175.877380 113.473907,175.895462 
	C115.947693,175.915451 117.988297,175.874039 120.028900,175.832611 
	C121.729324,175.878174 123.429756,175.923737 125.976395,175.968506 
	C128.539154,175.925278 130.255676,175.882812 132.392609,175.898285 
	C134.507156,175.931564 136.201294,175.906891 138.333405,175.914185 
	C140.808044,175.939117 142.844742,175.932083 145.304230,175.937073 
	C150.410507,176.532822 151.325623,173.804718 150.948792,169.976059 
	C150.915939,169.982056 150.909424,169.915588 151.333130,169.932404 
	C157.666534,170.720184 157.077133,166.659607 156.960052,162.950165 
	C156.960052,162.950165 157.000702,162.965652 157.396301,162.974396 
	C162.307861,163.583466 163.407944,161.086700 163.444733,157.159149 
	C165.947205,157.025742 168.013031,156.963181 170.078842,156.900604 
	C170.078842,156.900620 170.093384,157.009247 170.048065,157.430023 
	C169.498138,162.637543 172.355179,163.336014 176.565369,162.929199 
	C178.676422,162.945023 180.366455,162.932465 182.056503,162.919891 
	C182.056503,162.919891 182.034805,163.009674 182.003296,163.462646 
	C181.389771,168.612732 183.276871,170.774200 188.549393,169.934875 
	C191.000290,169.958862 193.020493,169.949280 195.040710,169.939697 
	C195.040710,169.939697 194.977066,169.992813 194.975418,170.445007 
	C194.278793,175.689957 197.188263,176.347672 200.951935,176.069794 
	C200.992966,176.067062 201.016418,175.988235 201.006958,176.419830 
	C201.011993,178.578827 201.026474,180.306198 201.040939,182.033585 
	C201.040939,182.033585 200.985992,182.016861 200.554504,181.999908 
	C195.181519,181.317078 194.617477,184.274353 195.077316,188.079086 
	C195.077316,188.079086 195.000549,188.077713 194.572281,188.039062 
	C188.423050,187.155060 187.534653,190.501083 188.031235,195.048325 
	C188.031235,195.048325 188.060257,195.005615 187.648331,195.019547 
	C182.546417,194.401428 181.647308,197.135483 181.974960,200.958847 
	C181.974960,200.958847 182.081436,200.974411 181.646973,201.003540 
	C176.109512,200.044006 175.646057,203.158020 175.966461,206.965195 
	C175.966461,206.965195 175.956696,207.012695 175.559479,207.007339 
	C173.480286,207.033661 171.798294,207.065338 169.681671,207.075684 
	C164.677292,206.352722 162.362366,208.074203 162.949524,212.914398 
	C162.949524,212.914398 163.025467,212.990036 162.617111,213.008499 
	C160.507401,213.059006 158.806046,213.091034 156.679199,213.093567 
	C150.298584,212.065414 151.011810,216.286148 150.920837,219.877426 
	C150.920837,219.877426 150.876114,220.043457 150.530991,220.035736 
	C148.473358,220.073959 146.760834,220.119919 144.612198,220.104828 
	C142.132324,220.085602 140.088577,220.127426 137.620392,220.122345 
	C135.492279,220.102798 133.788574,220.130157 131.654816,220.113342 
	C129.503067,220.092468 127.781395,220.115799 125.623489,220.111679 
	C123.435707,220.106537 121.684158,220.128845 119.499100,220.110321 
	C117.025261,220.102570 114.984917,220.135620 112.520531,220.120697 
	C110.387527,220.099686 108.678574,220.126633 106.543182,220.096558 
	C104.398514,220.075256 102.680290,220.110962 100.535522,220.092682 
	C98.388588,220.053467 96.668198,220.068268 94.947800,220.083069 
	C94.947800,220.083069 94.998444,219.994675 95.016144,219.526764 
	C94.765259,212.950439 94.765259,212.950439 87.466034,213.069214 
	C85.341034,213.052429 83.639297,213.071411 81.937561,213.090393 
	C81.937561,213.090393 81.947304,212.986450 81.980011,212.549591 
	C82.518997,207.318481 79.656433,206.649719 75.459404,207.067825 
	C73.359169,207.023773 71.677223,207.014786 69.995270,207.005783 
	C69.995270,207.005783 70.043259,207.012741 70.027435,206.564453 
	C70.925072,199.837265 66.554306,200.986404 62.933712,201.081039 
	C62.933712,201.081039 62.918617,200.974518 62.966496,200.553833 
	C63.534588,195.381912 60.713474,194.639160 56.924816,195.057129 
	C56.924816,195.057129 56.938545,195.006454 56.958389,194.598083 
	C57.572308,189.621277 55.758373,187.383881 50.991344,188.005188 
	C50.991344,188.005188 50.993721,188.081680 50.971786,187.660660 
	C51.751888,182.363693 48.857555,181.645477 45.030140,181.976776 
	C45.030140,181.976776 45.001183,182.026352 44.987167,181.612640 
	C44.957623,179.511032 44.942093,177.823120 44.938965,175.711380 
	C45.646938,169.657135 41.802761,169.884964 38.053131,170.025223 
	C38.029453,170.090210 37.892632,170.069901 37.928459,169.634430 
	C37.943085,167.170731 37.921883,165.142517 37.921909,162.692810 
	C38.664543,157.561829 35.935528,156.642380 32.093338,156.945694 
	C32.093338,156.945694 32.009769,157.015915 31.994123,156.605682 
	C31.928743,154.471802 31.879009,152.748154 31.880791,150.599335 
	C31.897852,148.465454 31.863398,146.756760 31.883324,144.611557 
	C31.910183,142.134705 31.882662,140.094345 31.896547,137.626678 
	C31.912949,135.486832 31.887943,133.774261 31.893566,131.622787 
	C31.900745,129.429077 31.877298,127.674278 31.895081,125.494728 
	C31.906025,123.358917 31.875738,121.647865 31.896362,119.504280 
	C31.911797,117.032410 31.876322,114.993057 31.898676,112.527527 
	C31.917448,110.382278 31.878391,108.663231 31.839334,106.944176 
	C31.903898,105.260315 31.968464,103.576447 32.502960,101.465446 
	C37.803967,101.547554 38.365284,98.644073 37.915176,94.468109 
	C37.937843,91.997032 37.922821,89.959908 37.907799,87.922775 
	C37.907799,87.922775 38.009495,87.911636 38.443005,87.960114 
	C43.546940,88.586166 45.690216,86.672501 44.945686,81.462555 
	C44.976322,79.355881 44.976879,77.669083 44.977440,75.982292 
	C44.977436,75.982292 44.973717,76.039528 45.420944,76.014160 
	C50.969303,76.813629 51.345634,73.706650 50.913017,69.926483 
	C50.913017,69.926483 51.011086,69.915947 51.432648,69.961792 
	C57.633255,70.582718 57.090389,66.612137 56.945118,62.927433 
	C56.945118,62.927433 56.994717,62.940361 57.389702,62.959354 
	C62.440331,63.534016 63.338844,60.808338 63.002388,57.004086 
	C63.002388,57.004086 62.918781,57.002747 63.354778,56.981453 
	C68.472595,57.740253 70.713577,55.938091 70.040344,51.052860 
	C70.040344,51.052860 70.008957,50.998528 70.409607,50.993080 
	C72.499878,50.964260 74.189484,50.940895 76.300873,50.933262 
	C81.436859,51.606537 82.354782,48.875877 82.013252,45.021152 
	C82.013252,45.021152 81.911591,45.009602 82.344131,44.987118 
	C84.482849,44.938293 86.189011,44.911949 88.330070,44.908546 
	C94.427521,45.951000 95.471710,42.703636 95.063354,38.114265 
	C95.063354,38.114265 95.027283,37.991436 95.411682,37.982773 
	C97.502853,37.936527 99.209618,37.898941 101.347656,37.903687 
	C103.508400,37.910381 105.237877,37.874756 107.394958,37.881920 
	C109.536865,37.891457 111.251167,37.858200 113.401428,37.867500 
	C115.871437,37.884953 117.905487,37.859844 120.376190,37.873837 
	C122.562462,37.896263 124.312080,37.879593 126.488113,37.901131 
	C128.627045,37.911064 130.339584,37.882786 132.478210,37.900459 
	C134.619598,37.907364 136.334900,37.868313 138.481903,37.882370 
	C140.950073,37.900017 142.986511,37.864563 145.450119,37.892693 
	C147.604797,37.938107 149.332321,37.919941 151.059830,37.901775 
	C151.059830,37.901775 151.020569,38.003120 151.000656,38.467381 
	C150.443863,43.570671 152.355988,45.690674 157.531921,44.927925 
	C159.661728,44.937370 161.368149,44.907997 163.504898,44.936226 
	C165.963425,44.984245 167.991608,44.974655 170.019791,44.965065 
	C170.019791,44.965065 169.880005,44.992130 169.898468,45.477608 
	C169.148743,51.072258 172.296494,51.381603 176.041046,50.959446 
	C176.041046,50.959446 176.050064,51.017925 176.022171,51.431717 
	C175.397583,56.685505 178.256500,57.386410 182.082779,56.928627 
	C182.082779,56.928627 182.076569,56.990993 182.046265,57.396862 
	C181.499313,62.501659 184.268280,63.335945 188.072845,62.952110 
	C188.072845,62.952110 188.004379,62.971458 188.019989,63.379356 
	C187.128448,69.489616 190.423080,70.468582 195.011673,69.992950 
	C195.011673,69.992950 195.008774,69.916641 195.033096,70.337357 
	C194.270172,75.645370 197.174988,76.344803 201.001663,75.998604 
	C201.001663,75.998604 200.996124,75.942459 201.018295,76.379654 
	C201.026688,78.544266 201.012909,80.271690 200.999298,81.999817 
	C200.999481,82.000519 201.002411,82.002602 200.581833,82.000237 
	C198.481354,82.019974 196.801468,82.042068 194.686310,82.052292 
	C189.703888,81.426773 187.390610,83.168503 188.043457,87.985382 
	C188.098267,87.990898 188.087799,88.100555 187.661133,88.070404 
	C181.147659,87.026459 182.007614,91.332207 181.952850,94.937492 
	C181.952850,94.937492 181.981003,94.999947 181.584152,95.006981 
	C179.497284,95.043640 177.807266,95.073273 175.694565,95.080635 
	C170.484390,94.310684 169.633682,97.100502 170.008728,100.969887 
	C170.046570,100.982048 170.048691,101.061501 169.605530,101.039383 
	C167.089264,101.056786 165.016159,101.096291 162.527420,101.079590 
	C160.435577,100.971405 158.759384,100.919411 157.083176,100.867424 
	C157.083176,99.104362 157.083176,97.341293 157.083176,95.254753 
	C155.118546,95.149963 153.544846,95.066025 151.504456,94.513939 
	C150.948868,92.160835 150.859985,90.275879 150.755310,88.056274 
	C148.478333,88.056274 146.719009,88.056274 144.959671,88.056274 
	C144.959671,88.056274 145.007568,88.002609 145.013153,87.553726 
	C145.668472,81.122787 141.576385,81.919708 137.476379,82.080299 
	C135.356232,82.077957 133.658264,82.119690 131.535950,82.099319 
	C129.398300,82.079468 127.684975,82.121727 125.971657,82.163986 
z"/>
<path fill="#C99CD6" opacity="1.000000" stroke="none" 
	d="
M187.815384,145.021698 
	C186.152756,145.015381 184.490097,145.011185 182.827484,145.002350 
	C175.990250,144.966049 175.931335,144.964706 176.025558,138.201523 
	C176.129837,130.715424 175.473679,132.174866 187.488129,131.962372 
	C188.059845,131.938568 188.303772,131.981567 188.216537,132.439362 
	C188.187454,136.937546 188.245605,140.977951 188.181793,145.039795 
	C188.059860,145.061249 187.815384,145.021698 187.815384,145.021698 
z"/>
<path fill="#E7D2EC" opacity="1.000000" stroke="none" 
	d="
M201.079361,112.849487 
	C202.760605,112.887642 204.441864,112.925804 206.547318,113.025726 
	C206.971527,113.087494 207.038696,113.330994 207.031525,113.743942 
	C207.010681,116.111458 206.997025,118.066017 206.561890,120.010590 
	C204.457352,120.044571 202.774261,120.088547 200.666733,120.105957 
	C198.553391,120.095726 196.864517,120.112053 195.081680,120.064514 
	C194.987732,120.000641 194.801147,119.870987 194.851440,119.455200 
	C194.845490,117.087341 194.789261,115.135277 194.834778,113.106613 
	C194.936523,113.030029 195.143723,112.881905 195.566376,112.905396 
	C197.685822,112.902428 199.382584,112.875961 201.079361,112.849487 
z"/>
<path fill="#E3CCEA" opacity="1.000000" stroke="none" 
	d="
M176.103271,119.865822 
	C176.103271,117.879929 176.103271,115.894043 176.103271,112.968147 
	C179.834122,112.968147 183.398636,112.968147 187.534790,113.003403 
	C188.106430,113.038651 188.335541,113.181694 188.264130,113.594452 
	C188.220963,115.958344 188.249222,117.909477 188.169342,119.925430 
	C188.061188,119.990242 187.839645,120.110695 187.391815,120.082817 
	C183.330414,119.991898 179.716843,119.928864 176.103271,119.865822 
z"/>
<path fill="#EBDAF0" opacity="1.000000" stroke="none" 
	d="
M187.937607,131.958435 
	C187.863480,130.288345 187.911575,128.598389 187.938858,126.064545 
	C187.891907,123.517334 187.865784,121.814018 187.839645,120.110695 
	C187.839645,120.110695 188.061188,119.990242 188.574249,119.957047 
	C190.991928,119.906227 192.896530,119.888603 194.801147,119.870987 
	C194.801147,119.870987 194.987732,120.000641 195.039612,120.486191 
	C195.109436,122.674034 195.127365,124.376328 195.099731,126.499573 
	C195.032013,128.616699 195.009827,130.312897 194.566589,132.007355 
	C192.198257,131.997604 190.251022,131.989594 188.303772,131.981567 
	C188.303772,131.981567 188.059845,131.938568 187.937607,131.958435 
z"/>
<path fill="#CA9ED6" opacity="1.000000" stroke="none" 
	d="
M212.972198,101.163849 
	C219.981949,100.848648 219.981720,100.848648 220.000061,107.949684 
	C220.003479,109.271217 220.009552,110.592743 220.022415,112.487045 
	C220.030426,113.059822 219.976196,113.301445 219.547592,113.223969 
	C217.092178,113.048660 215.065384,112.950829 213.031250,112.403610 
	C213.006683,108.357430 212.989441,104.760643 212.972198,101.163849 
z"/>
<path fill="#EBDAF0" opacity="1.000000" stroke="none" 
	d="
M187.987091,112.975410 
	C187.867752,109.183762 187.867752,105.455345 187.867752,101.023361 
	C190.245743,101.023361 192.124985,101.023361 194.479065,101.510315 
	C195.017151,105.625473 195.080429,109.253693 195.143707,112.881905 
	C195.143723,112.881905 194.936523,113.030029 194.437881,113.072083 
	C192.071335,113.136650 190.203445,113.159172 188.335541,113.181694 
	C188.335541,113.181694 188.106430,113.038651 187.987091,112.975410 
z"/>
<path fill="#CA9ED6" opacity="1.000000" stroke="none" 
	d="
M206.838577,145.092148 
	C205.173279,145.089218 203.507980,145.086288 201.431152,145.028656 
	C201.019623,144.973953 201.001266,144.740952 201.002045,144.299377 
	C201.002304,139.991562 201.001801,136.125305 201.013870,132.144333 
	C201.026459,132.029617 201.030579,131.798843 201.449554,131.859665 
	C203.561340,131.928116 205.254150,131.935760 206.954468,132.409348 
	C207.059479,136.876068 207.156982,140.876846 207.151978,144.934143 
	C207.049500,144.990677 206.838577,145.092148 206.838577,145.092148 
z"/>
<path fill="#CA9ED6" opacity="1.000000" stroke="none" 
	d="
M220.135452,131.869125 
	C221.790726,131.932281 223.445999,131.995453 225.529510,132.553497 
	C225.946915,136.983368 225.936096,140.918365 225.925278,144.853363 
	C224.270081,144.919586 222.614899,144.985794 220.460693,145.005920 
	C219.961700,144.959824 219.788086,144.788666 219.836578,144.345245 
	C219.852905,140.005173 219.820755,136.108505 219.875275,132.126129 
	C219.961975,132.040436 220.135452,131.869125 220.135452,131.869125 
z"/>
<path fill="#B87DC8" opacity="1.000000" stroke="none" 
	d="
M226.353638,144.887970 
	C225.936096,140.918365 225.946915,136.983368 225.941437,132.597488 
	C229.738220,131.593445 232.537857,132.245956 232.000244,137.087051 
	C231.607925,140.619781 233.687881,145.746414 226.353638,144.887970 
z"/>
<path fill="#AF6DC1" opacity="1.000000" stroke="none" 
	d="
M187.391815,120.082817 
	C187.865784,121.814018 187.891907,123.517334 187.878693,125.645714 
	C185.715179,126.044640 183.580139,125.870140 181.469162,126.024521 
	C177.559723,126.310410 175.491196,124.915833 176.084869,120.295273 
	C179.716843,119.928864 183.330414,119.991898 187.391815,120.082817 
z"/>
<path fill="#D3ADDD" opacity="1.000000" stroke="none" 
	d="
M212.544800,101.111351 
	C212.989441,104.760643 213.006683,108.357430 212.601593,112.440781 
	C210.465744,113.061890 208.752213,113.196442 207.038696,113.330994 
	C207.038696,113.330994 206.971527,113.087494 206.963440,112.961456 
	C206.955368,109.199265 206.955368,105.563118 206.955368,101.392426 
	C208.963150,101.262680 210.540283,101.160767 212.544800,101.111351 
z"/>
<path fill="#B271C3" opacity="1.000000" stroke="none" 
	d="
M195.566376,112.905396 
	C195.080429,109.253693 195.017151,105.625473 194.915405,101.545593 
	C199.627319,100.292343 201.548187,102.336906 201.028824,107.051125 
	C200.851120,108.663986 201.027603,110.315849 201.060822,112.399689 
	C199.382584,112.875961 197.685822,112.902428 195.566376,112.905396 
z"/>
<path fill="#0000FF" opacity="1.000000" stroke="none" 
	d="
M244.403839,238.000015 
	C244.833298,240.134933 244.833298,242.269882 244.833298,244.971420 
	C242.754425,244.971420 240.818176,244.971420 238.440948,244.902359 
	C237.999985,242.780487 237.999985,240.727692 237.999985,238.000046 
	C240.258926,238.000046 242.116638,238.000046 244.403839,238.000015 
z"/>
<path fill="#B475C5" opacity="1.000000" stroke="none" 
	d="
M195.032089,169.511658 
	C193.020493,169.949280 191.000290,169.958862 188.513275,169.511658 
	C187.991180,167.073853 187.935898,165.092850 187.880630,163.111832 
	C194.782715,162.944504 194.782715,162.944504 195.032089,169.511658 
z"/>
<path fill="#F3E9F6" opacity="1.000000" stroke="none" 
	d="
M188.471680,195.028183 
	C187.534653,190.501083 188.423050,187.155060 194.572784,188.000671 
	C195.001572,190.115295 195.001572,192.229645 195.001572,195.008041 
	C192.733917,195.008041 190.823013,195.008041 188.471680,195.028183 
z"/>
<path fill="#E3CCEA" opacity="1.000000" stroke="none" 
	d="
M87.889297,213.104965 
	C94.765259,212.950439 94.765259,212.950439 95.044540,219.484467 
	C93.028351,219.926880 91.001465,219.943680 88.516289,219.495605 
	C88.001762,217.055466 87.945534,215.080215 87.889297,213.104965 
z"/>
<path fill="#9F409F" opacity="1.000000" stroke="none" 
	d="
M20.001707,244.417145 
	C17.873781,244.833694 15.744681,244.833694 13.032452,244.833694 
	C13.032452,242.738098 13.032452,240.807388 13.100073,238.436279 
	C17.617846,237.525284 20.767555,238.534470 20.001707,244.417145 
z"/>
<path fill="#A75DBB" opacity="1.000000" stroke="none" 
	d="
M195.013901,88.291565 
	C195.599075,93.028168 194.160385,95.861847 188.349182,94.511902 
	C187.997375,92.077637 188.042572,90.089096 188.087799,88.100555 
	C188.087799,88.100555 188.098267,87.990898 188.480499,88.000366 
	C190.897415,87.943657 192.932098,87.877472 194.965881,87.932610 
	C194.964951,88.053925 195.013901,88.291565 195.013901,88.291565 
z"/>
<path fill="#9F409F" opacity="1.000000" stroke="none" 
	d="
M237.997208,13.584177 
	C240.125137,13.167693 242.254318,13.167693 244.967834,13.167693 
	C244.967834,15.261004 244.967834,17.191622 244.900757,19.562592 
	C240.385345,20.473253 237.232056,19.468781 237.997208,13.584177 
z"/>
<path fill="#A356B8" opacity="1.000000" stroke="none" 
	d="
M170.013885,44.538166 
	C167.991608,44.974655 165.963425,44.984245 163.479630,44.512260 
	C162.971405,42.052380 162.918793,40.074066 162.866180,38.095757 
	C167.408691,37.534256 170.812897,38.324165 170.013885,44.538166 
z"/>
<path fill="#E7D2EC" opacity="1.000000" stroke="none" 
	d="
M94.627213,38.071701 
	C95.471710,42.703636 94.427521,45.951000 88.355972,44.488670 
	C87.990013,42.079243 88.033043,40.112633 88.076073,38.146023 
	C90.114410,38.107063 92.152740,38.068100 94.627213,38.071701 
z"/>
<path fill="#F3E9F6" opacity="1.000000" stroke="none" 
	d="
M195.007263,69.550659 
	C190.423080,70.468582 187.128448,69.489616 188.044861,63.353882 
	C190.161499,62.920506 192.268921,62.920506 195.002853,62.920506 
	C195.002853,65.283730 195.002853,67.196045 195.007263,69.550659 
z"/>
<path fill="#C18DCF" opacity="1.000000" stroke="none" 
	d="
M37.900681,163.114304 
	C37.921883,165.142517 37.943085,167.170731 37.512119,169.613297 
	C35.394753,169.975479 33.729553,169.923325 32.064346,169.871170 
	C32.063591,167.839157 32.062832,165.807129 32.510101,163.360992 
	C34.605644,163.002670 36.253162,163.058487 37.900681,163.114304 
z"/>
<path fill="#C99CD6" opacity="1.000000" stroke="none" 
	d="
M225.933182,113.139618 
	C230.833801,112.139740 232.801956,114.143776 231.509430,119.481514 
	C229.349533,119.928650 227.641846,119.918961 225.953003,119.485611 
	C225.958969,117.087837 225.946075,115.113724 225.933182,113.139618 
z"/>
<path fill="#BA81CA" opacity="1.000000" stroke="none" 
	d="
M219.863831,150.942657 
	C220.868423,155.965576 218.609283,157.716125 213.416229,156.501495 
	C213.000626,154.413193 213.009125,152.773621 213.447083,151.110535 
	C215.872299,151.038895 217.868057,150.990784 219.863831,150.942657 
z"/>
<path fill="#D7B6E0" opacity="1.000000" stroke="none" 
	d="
M194.872681,156.917114 
	C192.816238,156.917114 190.759796,156.917114 188.312805,156.917114 
	C188.216629,154.914169 188.141953,153.359161 188.535767,151.384552 
	C190.965164,150.955444 192.926102,150.945938 194.921539,151.363403 
	C194.928253,153.499298 194.900467,155.208206 194.872681,156.917114 
z"/>
<path fill="#C798D4" opacity="1.000000" stroke="none" 
	d="
M170.063919,156.482788 
	C168.013031,156.963181 165.947205,157.025742 163.445282,157.042664 
	C163.009171,156.997040 163.001923,156.764191 163.002808,156.362503 
	C163.030487,154.354263 163.057266,152.747726 163.084061,151.141174 
	C166.746521,150.885773 170.807037,150.067322 170.063919,156.482788 
z"/>
<path fill="#CA9ED6" opacity="1.000000" stroke="none" 
	d="
M219.905853,150.528992 
	C217.868057,150.990784 215.872299,151.038895 213.440475,151.061523 
	C213.004425,151.036011 212.994431,150.937637 212.995972,150.522705 
	C213.012726,148.439636 213.027939,146.771500 213.465973,145.072098 
	C215.855209,144.956772 217.821655,144.872711 219.788086,144.788666 
	C219.788086,144.788666 219.961700,144.959824 220.048553,145.045380 
	C220.072876,146.792389 220.010376,148.453857 219.905853,150.528992 
z"/>
<path fill="#BA81CA" opacity="1.000000" stroke="none" 
	d="
M145.022949,37.829109 
	C142.986511,37.864563 140.950073,37.900017 138.474197,37.475811 
	C138.004623,35.390938 137.974487,33.765724 137.944351,32.140514 
	C139.992447,32.108356 142.040527,32.076195 144.534485,32.489853 
	C144.994553,34.566818 145.008759,36.197960 145.022949,37.829109 
z"/>
<path fill="#B475C5" opacity="1.000000" stroke="none" 
	d="
M76.123085,144.895340 
	C76.097733,142.872162 76.072388,140.848999 76.516357,138.401520 
	C78.629425,138.012253 80.273170,138.047272 81.916908,138.082306 
	C81.925011,140.130524 81.933113,142.178726 81.501816,144.639542 
	C79.415970,144.999878 77.769531,144.947601 76.123085,144.895340 
z"/>
<path fill="#C99CD6" opacity="1.000000" stroke="none" 
	d="
M31.855141,138.053986 
	C31.882662,140.094345 31.910183,142.134705 31.476467,144.604477 
	C29.390196,145.003387 27.765162,144.972885 26.140125,144.942368 
	C26.115644,142.903824 26.091162,140.865265 26.523399,138.398010 
	C28.605125,137.997543 30.230133,138.025757 31.855141,138.053986 
z"/>
<path fill="#CA9ED6" opacity="1.000000" stroke="none" 
	d="
M87.648048,38.104229 
	C88.033043,40.112633 87.990013,42.079243 87.921082,44.465729 
	C86.189011,44.911949 84.482849,44.938293 82.349655,44.936256 
	C81.938873,41.272163 81.092972,36.969257 87.648048,38.104229 
z"/>
<path fill="#E7D2EC" opacity="1.000000" stroke="none" 
	d="
M157.108505,44.889103 
	C152.355988,45.690674 150.443863,43.570671 150.965210,38.508575 
	C152.657135,38.065811 154.364594,38.046108 156.516937,38.503204 
	C157.010727,40.949699 157.059616,42.919403 157.108505,44.889103 
z"/>
<path fill="#C798D4" opacity="1.000000" stroke="none" 
	d="
M157.531921,44.927925 
	C157.059616,42.919403 157.010727,40.949699 156.940079,38.558006 
	C158.619720,38.105816 160.321121,38.075623 162.444351,38.070595 
	C162.918793,40.074066 162.971405,42.052380 163.049286,44.454659 
	C161.368149,44.907997 159.661728,44.937370 157.531921,44.927925 
z"/>
<path fill="#CA9ED6" opacity="1.000000" stroke="none" 
	d="
M220.210358,126.011497 
	C220.158035,127.686050 220.105713,129.360596 220.094421,131.452148 
	C220.135452,131.869125 219.961975,132.040436 219.459259,132.077942 
	C216.986282,132.042816 215.016022,131.970154 213.034332,131.481857 
	C213.021561,129.394989 213.020248,127.723763 213.442719,126.042633 
	C215.825226,126.024536 217.783966,126.016335 219.859573,126.013802 
	C219.976456,126.019470 220.210358,126.011497 220.210358,126.011497 
z"/>
<path fill="#EBDAF0" opacity="1.000000" stroke="none" 
	d="
M194.887024,150.936432 
	C192.926102,150.945938 190.965164,150.955444 188.585114,150.957214 
	C188.095337,149.253311 188.024719,147.557129 187.884735,145.441330 
	C187.815384,145.021698 188.059860,145.061249 188.595840,145.035583 
	C191.083740,145.003647 193.035645,144.997360 194.991486,145.423889 
	C195.030457,147.588989 195.065506,149.321289 195.051788,151.015915 
	C195.003006,150.978241 194.887024,150.936432 194.887024,150.936432 
z"/>
<path fill="#F3E9F6" opacity="1.000000" stroke="none" 
	d="
M50.994576,188.446213 
	C55.758373,187.383881 57.572308,189.621277 56.972893,194.619965 
	C55.183998,195.050201 53.400440,195.050201 50.997807,195.050201 
	C50.997807,192.725143 50.997807,190.806198 50.994576,188.446213 
z"/>
<path fill="#B271C3" opacity="1.000000" stroke="none" 
	d="
M138.044830,220.169250 
	C140.088577,220.127426 142.132324,220.085602 144.605286,220.518555 
	C144.996704,222.646515 144.958939,224.299713 144.921143,225.952896 
	C142.885406,225.948166 140.849655,225.943436 138.393600,225.502945 
	C137.997131,223.434540 138.020981,221.801895 138.044830,220.169250 
z"/>
<path fill="#D7B6E0" opacity="1.000000" stroke="none" 
	d="
M112.944580,220.168671 
	C114.984917,220.135620 117.025261,220.102570 119.512474,220.514282 
	C119.982849,222.588089 120.006348,224.217133 120.029846,225.846191 
	C117.988930,225.882568 115.948013,225.918930 113.462891,225.496353 
	C112.993980,223.414490 112.969276,221.791580 112.944580,220.168671 
z"/>
<path fill="#B475C5" opacity="1.000000" stroke="none" 
	d="
M157.104691,213.123077 
	C158.806046,213.091034 160.507401,213.059006 162.633606,213.059479 
	C163.010773,216.713715 163.631866,220.855331 157.343719,219.486832 
	C157.000031,217.067825 157.052368,215.095444 157.104691,213.123077 
z"/>
<path fill="#DABAE2" opacity="1.000000" stroke="none" 
	d="
M156.679199,213.093567 
	C157.052368,215.095444 157.000031,217.067825 156.919708,219.461975 
	C155.185211,219.909363 153.478683,219.934952 151.346497,219.918991 
	C151.011810,216.286148 150.298584,212.065414 156.679199,213.093567 
z"/>
<path fill="#DABAE2" opacity="1.000000" stroke="none" 
	d="
M119.939537,37.834740 
	C117.905487,37.859844 115.871437,37.884953 113.407288,37.464302 
	C112.991516,35.396408 113.005836,33.774265 113.020164,32.152126 
	C115.063950,32.113438 117.107742,32.074745 119.579430,32.500603 
	C119.984734,34.588345 119.962135,36.211540 119.939537,37.834740 
z"/>
<path fill="#BA81CA" opacity="1.000000" stroke="none" 
	d="
M87.466034,213.069214 
	C87.945534,215.080215 88.001762,217.055466 88.084900,219.453278 
	C83.212250,220.849854 81.380577,218.648575 81.953690,213.516022 
	C83.639297,213.071411 85.341034,213.052429 87.466034,213.069214 
z"/>
<path fill="#E7D2EC" opacity="1.000000" stroke="none" 
	d="
M163.383423,212.944229 
	C162.362366,208.074203 164.677292,206.352722 169.647614,207.487671 
	C169.994461,209.574326 169.940720,211.227661 169.886978,212.880997 
	C167.863754,212.912018 165.840530,212.943039 163.383423,212.944229 
z"/>
<path fill="#C798D4" opacity="1.000000" stroke="none" 
	d="
M62.953835,201.500366 
	C66.554306,200.986404 70.925072,199.837265 70.022598,206.540695 
	C66.452835,207.000916 62.143871,208.055511 62.953835,201.500366 
z"/>
<path fill="#AF6DC1" opacity="1.000000" stroke="none" 
	d="
M101.031563,169.509109 
	C99.267319,169.934769 97.493546,169.934769 94.965828,169.934769 
	C94.965828,167.732529 94.965828,165.838318 94.919876,163.511505 
	C99.653351,162.285080 101.603271,164.388428 101.031563,169.509109 
z"/>
<path fill="#C18DCF" opacity="1.000000" stroke="none" 
	d="
M44.926567,176.135208 
	C44.942093,177.823120 44.957623,179.511032 44.959740,181.621140 
	C41.325661,182.015167 37.120686,182.780685 37.898514,176.381866 
	C37.935356,175.935944 38.166348,175.970657 38.588600,175.981934 
	C40.982761,176.040558 42.954662,176.087891 44.926567,176.135208 
z"/>
<path fill="#DABAE2" opacity="1.000000" stroke="none" 
	d="
M144.881439,175.925049 
	C142.844742,175.932083 140.808044,175.939117 138.363098,175.502258 
	C138.010696,173.407333 138.066544,171.756317 138.122375,170.105316 
	C140.138382,170.045364 142.154404,169.985428 144.599869,169.951828 
	C145.029327,169.978165 144.985199,170.193268 144.984909,170.603210 
	C144.950226,172.650467 144.915833,174.287766 144.881439,175.925049 
z"/>
<path fill="#A356B8" opacity="1.000000" stroke="none" 
	d="
M120.022110,175.426590 
	C117.988297,175.874039 115.947693,175.915451 113.467430,175.483490 
	C112.993294,173.366547 112.958817,171.722961 112.924332,170.079391 
	C116.528572,169.946121 120.481270,169.312790 120.022110,175.426590 
z"/>
<path fill="#E3CCEA" opacity="1.000000" stroke="none" 
	d="
M187.459595,163.075241 
	C187.935898,165.092850 187.991180,167.073853 188.082581,169.478088 
	C183.276871,170.774200 181.389771,168.612732 181.965530,163.489243 
	C183.652359,163.054779 185.345459,163.046707 187.459595,163.075241 
z"/>
<path fill="#E3CCEA" opacity="1.000000" stroke="none" 
	d="
M156.543335,162.968185 
	C157.077133,166.659607 157.666534,170.720184 151.360291,169.504883 
	C151.016953,167.062180 151.070160,165.063797 151.123352,163.065430 
	C152.791107,163.039017 154.458878,163.012619 156.543335,162.968185 
z"/>
<path fill="#A356B8" opacity="1.000000" stroke="none" 
	d="
M150.701828,163.053848 
	C151.070160,165.063797 151.016953,167.062180 150.936584,169.488068 
	C150.909424,169.915588 150.915939,169.982056 150.519638,169.979858 
	C148.410629,170.049530 146.697906,170.121399 144.985199,170.193268 
	C144.985199,170.193268 145.029327,169.978165 145.025818,169.868439 
	C144.793686,165.968826 144.802277,162.364655 150.701828,163.053848 
z"/>
<path fill="#EBDAF0" opacity="1.000000" stroke="none" 
	d="
M44.915607,81.882431 
	C45.690216,86.672501 43.546940,88.586166 38.448830,88.010941 
	C38.017666,86.324150 38.014187,84.635033 38.482727,82.498482 
	C40.941696,81.994850 42.928654,81.938637 44.915607,81.882431 
z"/>
<path fill="#BA81CA" opacity="1.000000" stroke="none" 
	d="
M44.945686,81.462547 
	C42.928654,81.938637 40.941696,81.994850 38.529675,82.079170 
	C37.177788,77.186394 39.399624,75.362808 44.547508,75.988464 
	C44.976879,77.669083 44.976322,79.355881 44.945686,81.462547 
z"/>
<path fill="#E3CCEA" opacity="1.000000" stroke="none" 
	d="
M225.514664,113.085007 
	C225.946075,115.113724 225.958969,117.087837 225.964874,119.531723 
	C225.957886,120.001503 226.033020,120.060028 225.602203,120.047409 
	C223.449020,120.024925 221.726639,120.015076 220.004486,119.583160 
	C219.995209,117.207886 219.985703,115.254662 219.976196,113.301445 
	C219.976196,113.301445 220.030426,113.059822 220.033463,112.936035 
	C221.723053,112.884972 223.409592,112.957687 225.514664,113.085007 
z"/>
<path fill="#D7B6E0" opacity="1.000000" stroke="none" 
	d="
M187.661133,88.070404 
	C188.042572,90.089096 187.997375,92.077637 187.914246,94.490616 
	C186.184250,94.932877 184.492142,94.950691 182.376450,94.952995 
	C182.007614,91.332207 181.147659,87.026459 187.661133,88.070404 
z"/>
<path fill="#B87DC8" opacity="1.000000" stroke="none" 
	d="
M144.969955,88.484024 
	C146.719009,88.056274 148.478333,88.056274 150.755310,88.056274 
	C150.859985,90.275879 150.948868,92.160835 151.080261,94.476105 
	C146.254364,95.798668 144.363968,93.639473 144.969955,88.484024 
z"/>
<path fill="#C18DCF" opacity="1.000000" stroke="none" 
	d="
M95.309990,94.912346 
	C95.042900,91.372948 93.944267,86.895889 100.574394,87.998230 
	C101.012299,91.653786 101.828712,95.917114 95.309990,94.912346 
z"/>
<path fill="#C798D4" opacity="1.000000" stroke="none" 
	d="
M162.943054,101.135796 
	C165.016159,101.096291 167.089264,101.056786 169.590378,101.459366 
	C169.969086,103.580307 169.919800,105.259155 169.870499,106.937988 
	C167.898041,106.941528 165.925583,106.945068 163.513062,106.496132 
	C163.029678,104.407700 162.986359,102.771751 162.943054,101.135796 
z"/>
<path fill="#CA9ED6" opacity="1.000000" stroke="none" 
	d="
M37.487095,87.935616 
	C37.922821,89.959908 37.937843,91.997032 37.507572,94.492111 
	C35.425182,94.989403 33.788090,95.028748 32.150993,95.068085 
	C31.954338,91.427902 30.868979,87.174164 37.487095,87.935616 
z"/>
<path fill="#EBDAF0" opacity="1.000000" stroke="none" 
	d="
M56.515785,62.957138 
	C57.090389,66.612137 57.633255,70.582718 51.438160,70.010803 
	C51.022110,67.905174 51.022110,65.796387 51.022110,63.309883 
	C52.933495,63.187962 54.509975,63.087402 56.515785,62.957138 
z"/>
<path fill="#C18DCF" opacity="1.000000" stroke="none" 
	d="
M31.840847,112.953712 
	C31.876322,114.993057 31.911797,117.032410 31.489790,119.517387 
	C29.405151,119.995247 27.777994,120.027481 26.150837,120.059708 
	C26.118742,118.022469 26.086645,115.985222 26.497719,113.495796 
	C28.574207,113.013641 30.207527,112.983681 31.840847,112.953712 
z"/>
<path fill="#BA81CA" opacity="1.000000" stroke="none" 
	d="
M76.166107,120.047882 
	C76.128365,118.004448 76.090614,115.961006 76.512955,113.474052 
	C78.598694,112.999619 80.224350,112.968697 81.850014,112.937782 
	C81.887161,114.974739 81.924309,117.011703 81.527176,119.505966 
	C79.450630,119.991486 77.808372,120.019684 76.166107,120.047882 
z"/>
<path fill="#DABAE2" opacity="1.000000" stroke="none" 
	d="
M137.898575,82.124367 
	C141.576385,81.919708 145.668472,81.122787 145.031219,87.522629 
	C143.020355,87.948067 140.997040,87.955719 138.513748,87.513786 
	C138.002045,85.417587 137.950317,83.770973 137.898575,82.124367 
z"/>
<path fill="#A75DBB" opacity="1.000000" stroke="none" 
	d="
M113.042351,82.160645 
	C115.084106,82.120239 117.125862,82.079834 119.602051,82.100807 
	C120.609161,86.968872 118.241394,88.588013 113.367836,87.508781 
	C112.985863,85.441589 113.014107,83.801125 113.042351,82.160645 
z"/>
<path fill="#D7B6E0" opacity="1.000000" stroke="none" 
	d="
M69.601974,51.035309 
	C70.713577,55.938091 68.472595,57.740253 63.355247,56.939648 
	C63.028057,55.171276 63.136402,53.423420 63.285519,51.017754 
	C65.396118,51.017754 67.279861,51.017754 69.601974,51.035309 
z"/>
<path fill="#A356B8" opacity="1.000000" stroke="none" 
	d="
M131.972214,175.840363 
	C130.255676,175.882812 128.539154,175.925278 126.397369,175.903564 
	C125.669518,172.038757 126.697365,169.450516 131.635864,170.482788 
	C132.014053,172.548965 131.993134,174.194656 131.972214,175.840363 
z"/>
<path fill="#C18DCF" opacity="1.000000" stroke="none" 
	d="
M201.456207,182.019043 
	C201.026474,180.306198 201.011993,178.578827 201.424881,176.429184 
	C203.515640,176.037613 205.179031,176.068283 206.842422,176.098969 
	C207.472351,179.992493 206.648331,182.662155 201.456207,182.019043 
z"/>
<path fill="#C18DCF" opacity="1.000000" stroke="none" 
	d="
M137.620392,220.122345 
	C138.020981,221.801895 137.997131,223.434540 137.955780,225.473511 
	C136.221588,225.903458 134.504913,225.927048 132.378387,225.497650 
	C132.007309,223.415604 132.046097,221.786560 132.084885,220.157516 
	C133.788574,220.130157 135.492279,220.102798 137.620392,220.122345 
z"/>
<path fill="#AF6DC1" opacity="1.000000" stroke="none" 
	d="
M206.872192,175.676147 
	C205.179031,176.068283 203.515640,176.037613 201.434326,175.997589 
	C201.016418,175.988235 200.992966,176.067062 200.967438,175.643677 
	C200.919159,173.518814 200.896408,171.817322 200.873657,170.115829 
	C204.728638,169.662796 207.616760,170.344254 206.872192,175.676147 
z"/>
<path fill="#DABAE2" opacity="1.000000" stroke="none" 
	d="
M200.452576,170.078247 
	C200.896408,171.817322 200.919159,173.518814 200.926407,175.646408 
	C197.188263,176.347672 194.278793,175.689957 194.961426,170.484009 
	C196.643204,170.060760 198.337357,170.050705 200.452576,170.078247 
z"/>
<path fill="#CA9ED6" opacity="1.000000" stroke="none" 
	d="
M101.400269,87.980141 
	C100.661362,84.182533 101.085381,81.044395 106.617752,82.515945 
	C106.994888,84.597252 106.959999,86.224945 106.925110,87.852646 
	C105.225334,87.897430 103.525543,87.942215 101.400269,87.980141 
z"/>
<path fill="#9C49B2" opacity="1.000000" stroke="none" 
	d="
M145.339905,225.962921 
	C144.958939,224.299713 144.996704,222.646515 145.041412,220.579620 
	C146.760834,220.119919 148.473358,220.073959 150.613800,220.058838 
	C151.335571,223.895981 150.330185,226.535629 145.339905,225.962921 
z"/>
<path fill="#AF6DC1" opacity="1.000000" stroke="none" 
	d="
M132.392609,175.898300 
	C131.993134,174.194656 132.014053,172.548965 132.050522,170.495087 
	C133.795471,170.077347 135.524872,170.067795 137.688324,170.081772 
	C138.066544,171.756317 138.010696,173.407333 137.925140,175.470291 
	C136.201294,175.906891 134.507156,175.931564 132.392609,175.898300 
z"/>
<path fill="#DABAE2" opacity="1.000000" stroke="none" 
	d="
M195.499023,188.050171 
	C194.617477,184.274353 195.181519,181.317078 200.539948,181.975143 
	C200.956909,183.720932 200.956909,185.474503 200.956909,187.646515 
	C199.033859,187.789612 197.477295,187.905441 195.499023,188.050171 
z"/>
<path fill="#D3ADDD" opacity="1.000000" stroke="none" 
	d="
M112.593872,32.102013 
	C113.005836,33.774265 112.991516,35.396408 112.971329,37.421745 
	C111.251167,37.858200 109.536865,37.891457 107.401901,37.477402 
	C106.997322,35.407837 107.013420,33.785580 107.029526,32.163322 
	C108.742210,32.126179 110.454887,32.089039 112.593872,32.102013 
z"/>
<path fill="#B475C5" opacity="1.000000" stroke="none" 
	d="
M112.495697,170.058014 
	C112.958817,171.722961 112.993294,173.366547 113.034241,175.422089 
	C111.343620,175.877380 109.646515,175.920731 107.500084,175.509705 
	C106.997810,173.408997 106.944870,171.762665 106.891930,170.116333 
	C108.616974,170.089767 110.342018,170.063202 112.495697,170.058014 
z"/>
<path fill="#DABAE2" opacity="1.000000" stroke="none" 
	d="
M106.469131,170.076691 
	C106.944870,171.762665 106.997810,173.408997 107.077820,175.466156 
	C103.304665,176.389633 100.361603,175.844284 100.958420,170.495941 
	C102.643822,170.066879 104.345070,170.051971 106.469131,170.076691 
z"/>
<path fill="#CA9ED6" opacity="1.000000" stroke="none" 
	d="
M106.609474,32.115120 
	C107.013420,33.785580 106.997322,35.407837 106.974289,37.434612 
	C105.237877,37.874756 103.508400,37.910381 101.369392,37.491768 
	C101.014694,35.389725 101.069519,33.741920 101.124344,32.094120 
	C102.812714,32.085052 104.501068,32.075989 106.609474,32.115120 
z"/>
<path fill="#A75DBB" opacity="1.000000" stroke="none" 
	d="
M100.703171,32.076420 
	C101.069519,33.741920 101.014694,35.389725 100.938126,37.449440 
	C99.209618,37.898941 97.502853,37.936527 95.370369,37.933884 
	C94.664474,34.064987 95.655334,31.398977 100.703171,32.076420 
z"/>
<path fill="#9C49B2" opacity="1.000000" stroke="none" 
	d="
M32.054268,170.290314 
	C33.729553,169.923325 35.394753,169.975479 37.476295,170.048767 
	C37.892632,170.069901 38.029453,170.090210 38.027107,170.454559 
	C38.071953,172.536163 38.119148,174.253418 38.166344,175.970657 
	C38.166348,175.970657 37.935356,175.935944 37.822044,175.964294 
	C33.810883,176.386307 31.506802,175.071152 32.054268,170.290314 
z"/>
<path fill="#D7B6E0" opacity="1.000000" stroke="none" 
	d="
M132.052124,37.854507 
	C130.339584,37.882786 128.627045,37.911064 126.474121,37.496330 
	C126.012169,35.422443 125.990601,33.791569 125.969040,32.160694 
	C127.680092,32.127289 129.391144,32.093884 131.535187,32.520058 
	C131.996155,34.604588 132.024139,36.229549 132.052124,37.854507 
z"/>
<path fill="#AF6DC1" opacity="1.000000" stroke="none" 
	d="
M82.438904,107.010506 
	C82.023346,105.246140 82.023346,103.476364 82.023346,101.315193 
	C83.931580,101.183212 85.503098,101.074524 87.497833,100.919907 
	C88.364014,104.679359 87.704155,107.573402 82.438904,107.010506 
z"/>
<path fill="#E7D2EC" opacity="1.000000" stroke="none" 
	d="
M75.877686,207.102890 
	C79.656433,206.649719 82.518997,207.318481 82.025864,212.524628 
	C80.342278,212.950012 78.645569,212.963516 76.494324,212.520905 
	C75.985748,210.410828 75.931717,208.756866 75.877686,207.102890 
z"/>
<path fill="#C18DCF" opacity="1.000000" stroke="none" 
	d="
M100.962067,220.146667 
	C102.680290,220.110962 104.398514,220.075256 106.550751,220.502365 
	C107.002129,222.587357 107.019501,224.209534 107.036880,225.831726 
	C105.335571,225.857590 103.634262,225.883469 101.494110,225.469299 
	C101.024193,223.401718 100.993126,221.774200 100.962067,220.146667 
z"/>
<path fill="#A356B8" opacity="1.000000" stroke="none" 
	d="
M125.979675,82.567993 
	C127.684975,82.121727 129.398300,82.079468 131.544006,82.511238 
	C132.011307,84.628189 132.046219,86.271118 132.081131,87.914047 
	C128.389877,88.313576 125.535454,87.681305 125.979675,82.567993 
z"/>
<path fill="#B475C5" opacity="1.000000" stroke="none" 
	d="
M132.509140,87.937279 
	C132.046219,86.271118 132.011307,84.628189 131.968353,82.573334 
	C133.658264,82.119690 135.356232,82.077957 137.476379,82.080299 
	C137.950317,83.770973 138.002045,85.417587 138.082825,87.474785 
	C136.386963,87.910416 134.662064,87.935463 132.509140,87.937279 
z"/>
<path fill="#CA9ED6" opacity="1.000000" stroke="none" 
	d="
M107.462601,225.886688 
	C107.019501,224.209534 107.002129,222.587357 106.977188,220.559387 
	C108.678574,220.126633 110.387527,220.099686 112.520531,220.120697 
	C112.969276,221.791580 112.993980,223.414490 113.029495,225.443619 
	C111.322983,225.880447 109.605652,225.911057 107.462601,225.886688 
z"/>
<path fill="#BA81CA" opacity="1.000000" stroke="none" 
	d="
M170.311600,212.909363 
	C169.940720,211.227661 169.994461,209.574326 170.082260,207.509003 
	C171.798294,207.065338 173.480286,207.033661 175.583481,207.003891 
	C176.343201,210.843491 175.689743,213.800186 170.311600,212.909363 
z"/>
<path fill="#B87DC8" opacity="1.000000" stroke="none" 
	d="
M107.353775,87.890137 
	C106.959999,86.224945 106.994888,84.597252 107.041496,82.562195 
	C108.765915,82.119888 110.478615,82.084946 112.616829,82.105324 
	C113.014107,83.801125 112.985863,85.441589 112.936874,87.489120 
	C111.204910,87.906670 109.493675,87.917145 107.353775,87.890137 
z"/>
<path fill="#E3CCEA" opacity="1.000000" stroke="none" 
	d="
M120.451088,225.904953 
	C120.006348,224.217133 119.982849,222.588089 119.945984,220.555084 
	C121.684158,220.128845 123.435707,220.106537 125.610077,220.516357 
	C126.011116,222.578812 125.989326,224.209167 125.967545,225.839508 
	C124.269142,225.880905 122.570732,225.922318 120.451088,225.904953 
z"/>
<path fill="#D7B6E0" opacity="1.000000" stroke="none" 
	d="
M126.391663,225.890533 
	C125.989326,224.209167 126.011116,222.578812 126.046310,220.543793 
	C127.781395,220.115799 129.503067,220.092468 131.654816,220.113342 
	C132.046097,221.786560 132.007309,223.415604 131.950104,225.451675 
	C130.226379,225.886322 128.521072,225.913940 126.391663,225.890533 
z"/>
<path fill="#DABAE2" opacity="1.000000" stroke="none" 
	d="
M45.017540,182.404999 
	C48.857555,181.645477 51.751888,182.363693 50.933548,187.662018 
	C49.166603,187.980316 47.415955,187.876236 45.281979,187.749374 
	C45.181637,185.968750 45.093288,184.401001 45.017540,182.404999 
z"/>
<path fill="#BA81CA" opacity="1.000000" stroke="none" 
	d="
M75.459404,207.067825 
	C75.931717,208.756866 75.985748,210.410828 76.072746,212.477234 
	C72.268845,213.388077 69.285065,212.854218 69.997864,207.424988 
	C71.677223,207.014786 73.359169,207.023773 75.459404,207.067825 
z"/>
<path fill="#C798D4" opacity="1.000000" stroke="none" 
	d="
M176.389526,206.974442 
	C175.646057,203.158020 176.109512,200.044006 181.639465,201.056824 
	C182.329483,204.841446 181.804245,207.900269 176.389526,206.974442 
z"/>
<path fill="#C99CD6" opacity="1.000000" stroke="none" 
	d="
M195.121567,82.064163 
	C196.801468,82.042068 198.481354,82.019974 200.579361,82.424835 
	C200.955246,84.547501 200.913025,86.243195 200.870819,87.938889 
	C199.192566,87.997520 197.514328,88.056145 195.424988,88.203171 
	C195.013901,88.291565 194.964951,88.053925 194.973831,87.522186 
	C195.028992,85.348358 195.075287,83.706261 195.121567,82.064163 
z"/>
<path fill="#EBDAF0" opacity="1.000000" stroke="none" 
	d="
M182.406631,200.971680 
	C181.647308,197.135483 182.546417,194.401428 187.654953,195.044525 
	C187.981979,196.831589 187.890442,198.607620 187.780472,200.741394 
	C186.013016,200.828339 184.425659,200.906433 182.406631,200.971680 
z"/>
<path fill="#EBDAF0" opacity="1.000000" stroke="none" 
	d="
M56.955471,195.483917 
	C60.713474,194.639160 63.534588,195.381912 63.019722,200.546021 
	C61.245918,200.958862 59.466763,200.958862 57.297989,200.958862 
	C57.181339,199.070648 57.083733,197.490677 56.955471,195.483917 
z"/>
<path fill="#E3CCEA" opacity="1.000000" stroke="none" 
	d="
M125.547607,32.099442 
	C125.990601,33.791569 126.012169,35.422443 126.047714,37.458118 
	C124.312080,37.879593 122.562462,37.896263 120.376190,37.873837 
	C119.962135,36.211540 119.984734,34.588345 120.015152,32.557171 
	C121.724045,32.112194 123.425110,32.075191 125.547607,32.099442 
z"/>
<path fill="#9C49B2" opacity="1.000000" stroke="none" 
	d="
M201.293671,87.948265 
	C200.913025,86.243195 200.955246,84.547501 200.999939,82.427200 
	C201.002411,82.002602 200.999481,82.000519 201.424988,82.008911 
	C203.551331,81.979424 205.252182,81.941536 206.953033,81.903656 
	C207.343124,85.768852 206.451920,88.525780 201.293671,87.948265 
z"/>
<path fill="#B271C3" opacity="1.000000" stroke="none" 
	d="
M100.535522,220.092682 
	C100.993126,221.774200 101.024193,223.401718 101.070107,225.433044 
	C97.253868,226.416168 94.473549,225.694260 94.962662,220.494080 
	C96.668198,220.068268 98.388588,220.053467 100.535522,220.092682 
z"/>
<path fill="#B271C3" opacity="1.000000" stroke="none" 
	d="
M145.450119,37.892693 
	C145.008759,36.197960 144.994553,34.566818 144.969391,32.530613 
	C148.760315,31.600071 151.527298,32.341084 151.042419,37.492332 
	C149.332321,37.919941 147.604797,37.938107 145.450119,37.892693 
z"/>
<path fill="#CA9ED6" opacity="1.000000" stroke="none" 
	d="
M81.894730,112.512138 
	C80.224350,112.968697 78.598694,112.999619 76.566299,113.040695 
	C75.530083,109.177559 75.986160,106.186371 81.514862,106.959381 
	C81.935921,108.657104 81.937675,110.371796 81.894730,112.512138 
z"/>
<path fill="#F5EDF7" opacity="1.000000" stroke="none" 
	d="
M188.044342,62.522636 
	C184.268280,63.335945 181.499313,62.501659 182.016373,57.387489 
	C183.804916,56.972248 185.593063,56.972248 187.731094,56.972248 
	C187.839066,58.913952 187.927444,60.503555 188.044342,62.522636 
z"/>
<path fill="#F3E9F6" opacity="1.000000" stroke="none" 
	d="
M62.570007,57.004684 
	C63.338844,60.808338 62.440331,63.534016 57.368607,62.973896 
	C56.952534,61.186104 56.952534,59.402763 56.952534,57.266300 
	C58.951130,57.165691 60.544376,57.085487 62.570007,57.004684 
z"/>
<path fill="#BA81CA" opacity="1.000000" stroke="none" 
	d="
M75.879097,50.917526 
	C74.189484,50.940895 72.499878,50.964260 70.387726,50.970604 
	C69.638275,47.110874 70.378784,44.226551 75.654037,45.496681 
	C75.992943,47.595844 75.936020,49.256687 75.879097,50.917526 
z"/>
<path fill="#A356B8" opacity="1.000000" stroke="none" 
	d="
M81.934204,137.664093 
	C80.273170,138.047272 78.629425,138.012253 76.573639,137.969452 
	C76.120346,136.248062 76.079094,134.534454 76.100906,132.396179 
	C79.984337,131.654449 82.557259,132.706207 81.934204,137.664093 
z"/>
<path fill="#D7B6E0" opacity="1.000000" stroke="none" 
	d="
M31.896547,137.626678 
	C30.230133,138.025757 28.605125,137.997543 26.573727,137.961456 
	C26.131052,136.242447 26.094767,134.531296 26.518101,132.401184 
	C28.606125,132.008713 30.234531,132.035202 31.862938,132.061707 
	C31.887943,133.774261 31.912949,135.486832 31.896547,137.626678 
z"/>
<path fill="#E3CCEA" opacity="1.000000" stroke="none" 
	d="
M182.050476,56.504791 
	C178.256500,57.386410 175.397583,56.685505 175.992706,51.429001 
	C177.755554,51.012497 179.519974,51.012497 181.679398,51.012497 
	C181.808609,52.945534 181.913406,54.513245 182.050476,56.504791 
z"/>
<path fill="#AF6DC1" opacity="1.000000" stroke="none" 
	d="
M31.898674,112.527527 
	C30.207527,112.983681 28.574207,113.013641 26.535046,113.063065 
	C25.624773,109.332352 26.226040,106.467125 31.433113,106.953575 
	C31.878391,108.663231 31.917448,110.382278 31.898674,112.527527 
z"/>
<path fill="#E3CCEA" opacity="1.000000" stroke="none" 
	d="
M31.893566,131.622772 
	C30.234531,132.035202 28.606125,132.008713 26.569202,131.975571 
	C26.119001,130.274231 26.077318,128.579544 26.502113,126.452667 
	C28.597012,125.986816 30.225431,125.953148 31.853849,125.919479 
	C31.877298,127.674278 31.900745,129.429077 31.893566,131.622772 
z"/>
<path fill="#A75DBB" opacity="1.000000" stroke="none" 
	d="
M225.946014,119.955383 
	C227.641846,119.918961 229.349533,119.928650 231.481384,119.907639 
	C232.343002,123.706230 231.621323,126.556694 226.383347,125.506256 
	C225.996109,123.404350 226.014572,121.732185 226.033020,120.060028 
	C226.033020,120.060028 225.957886,120.001503 225.946014,119.955383 
z"/>
<path fill="#AF6DC1" opacity="1.000000" stroke="none" 
	d="
M225.602203,120.047409 
	C226.014572,121.732185 225.996109,123.404350 225.966400,125.491257 
	C224.313553,125.939865 222.671936,125.973717 220.620346,126.009537 
	C220.210358,126.011497 219.976456,126.019470 219.931137,125.593285 
	C219.944901,123.465897 220.003983,121.764694 220.065521,120.031616 
	C220.067978,119.999748 220.004272,120.005226 220.004272,120.005226 
	C221.726639,120.015076 223.449020,120.024925 225.602203,120.047409 
z"/>
<path fill="#EBDAF0" opacity="1.000000" stroke="none" 
	d="
M76.300873,50.933258 
	C75.936020,49.256687 75.992943,47.595844 76.077255,45.520447 
	C77.792564,45.066830 79.480484,45.027771 81.590820,45.004932 
	C82.354782,48.875877 81.436859,51.606537 76.300873,50.933258 
z"/>
<path fill="#D3ADDD" opacity="1.000000" stroke="none" 
	d="
M176.017303,50.538177 
	C172.296494,51.381603 169.148743,51.072258 169.911621,45.547577 
	C173.725449,44.607754 176.868378,44.909195 176.017303,50.538177 
z"/>
<path fill="#A75DBB" opacity="1.000000" stroke="none" 
	d="
M76.105759,120.472397 
	C77.808372,120.019684 79.450630,119.991486 81.500885,119.939377 
	C82.348549,123.635551 81.712761,126.486412 76.569794,126.029266 
	C76.125496,124.323875 76.085457,122.610390 76.105759,120.472397 
z"/>
<path fill="#D3ADDD" opacity="1.000000" stroke="none" 
	d="
M31.895081,125.494728 
	C30.225431,125.953148 28.597012,125.986816 26.559992,126.032272 
	C26.117853,124.332649 26.084316,122.621231 26.100807,120.484764 
	C27.777994,120.027481 29.405151,119.995247 31.438881,119.949913 
	C31.875738,121.647865 31.906025,123.358917 31.895081,125.494728 
z"/>
<path fill="#9C49B2" opacity="1.000000" stroke="none" 
	d="
M170.288422,106.947845 
	C169.919800,105.259155 169.969086,103.580307 170.033539,101.481483 
	C170.048691,101.061501 170.046570,100.982048 170.437256,100.983383 
	C172.539597,100.933197 174.251251,100.881676 175.956604,100.948235 
	C175.950272,101.066322 175.994095,101.298737 175.994095,101.298737 
	C176.392609,105.204384 175.065933,107.498009 170.288422,106.947845 
z"/>
<path fill="#B87DC8" opacity="1.000000" stroke="none" 
	d="
M176.117249,95.102905 
	C177.807266,95.073273 179.497284,95.043640 181.610062,95.029388 
	C182.459900,98.928696 181.435135,101.571663 176.406464,101.221756 
	C175.994095,101.298737 175.950272,101.066322 175.965607,100.539322 
	C176.026382,98.375847 176.071823,96.739372 176.117249,95.102905 
z"/>
<path fill="#BA81CA" opacity="1.000000" stroke="none" 
	d="
M182.045837,162.504211 
	C180.366455,162.932465 178.676422,162.945023 176.534271,162.515350 
	C176.023972,160.412872 175.965775,158.752655 175.907593,157.092422 
	C179.709610,156.599823 182.678436,157.129089 182.045837,162.504211 
z"/>
<path fill="#EBDAF0" opacity="1.000000" stroke="none" 
	d="
M175.486938,157.047150 
	C175.965775,158.752655 176.023972,160.412872 176.113266,162.486969 
	C172.355179,163.336014 169.498138,162.637543 169.993774,157.437561 
	C171.678650,157.016830 173.372482,157.009354 175.486938,157.047150 
z"/>
<path fill="#C99CD6" opacity="1.000000" stroke="none" 
	d="
M132.478210,37.900459 
	C132.024139,36.229549 131.996155,34.604588 131.959869,32.573303 
	C133.665253,32.130398 135.378952,32.093815 137.518509,32.098869 
	C137.974487,33.765724 138.004623,35.390938 138.042480,37.422707 
	C136.334900,37.868313 134.619598,37.907364 132.478210,37.900459 
z"/>
<path fill="#E7D2EC" opacity="1.000000" stroke="none" 
	d="
M163.008636,157.113525 
	C163.407944,161.086700 162.307861,163.583466 157.376495,162.977020 
	C156.984818,161.299576 157.008545,159.628250 157.490128,157.508179 
	C159.632614,156.961029 161.317276,156.862610 163.001923,156.764191 
	C163.001923,156.764191 163.009171,156.997040 163.008636,157.113525 
z"/>
<path fill="#E7D2EC" opacity="1.000000" stroke="none" 
	d="
M37.921909,162.692810 
	C36.253162,163.058487 34.605644,163.002670 32.546570,162.924408 
	C32.099358,161.199982 32.063694,159.498001 32.060684,157.370850 
	C35.935528,156.642380 38.664543,157.561829 37.921909,162.692810 
z"/>
<path fill="#AF6DC1" opacity="1.000000" stroke="none" 
	d="
M162.527420,101.079590 
	C162.986359,102.771751 163.029678,104.407700 163.092773,106.450600 
	C159.177994,107.398750 156.431915,106.542656 157.074036,101.290588 
	C158.759384,100.919411 160.435577,100.971405 162.527420,101.079590 
z"/>
<path fill="#C18DCF" opacity="1.000000" stroke="none" 
	d="
M213.011032,151.085022 
	C213.009125,152.773621 213.000626,154.413193 212.983795,156.464294 
	C209.014648,157.493011 206.170013,156.811264 207.515961,151.381577 
	C209.649139,150.962158 211.321777,150.949905 212.994431,150.937637 
	C212.994431,150.937637 213.004425,151.036011 213.011032,151.085022 
z"/>
<path fill="#A75DBB" opacity="1.000000" stroke="none" 
	d="
M195.296249,156.936981 
	C194.900467,155.208206 194.928253,153.499298 194.921539,151.363403 
	C194.887024,150.936432 195.003006,150.978241 195.468689,151.008392 
	C197.598068,151.010864 199.261780,150.983185 200.925476,150.955505 
	C201.412796,154.883820 200.492691,157.591309 195.296249,156.936981 
z"/>
<path fill="#E3CCEA" opacity="1.000000" stroke="none" 
	d="
M32.096329,95.493164 
	C33.788090,95.028748 35.425182,94.989403 37.469883,94.926056 
	C38.365284,98.644073 37.803967,101.547554 32.566082,101.048500 
	C32.120068,99.345207 32.080868,97.631729 32.096329,95.493164 
z"/>
<path fill="#B475C5" opacity="1.000000" stroke="none" 
	d="
M163.002808,156.362503 
	C161.317276,156.862610 159.632614,156.961029 157.527435,157.092316 
	C156.628220,153.252106 157.270111,150.329926 162.660980,151.109894 
	C163.057266,152.747726 163.030487,154.354263 163.002808,156.362503 
z"/>
<path fill="#B87DC8" opacity="1.000000" stroke="none" 
	d="
M87.927467,156.698334 
	C86.155357,156.995758 84.404449,156.869034 82.276810,156.715027 
	C82.184013,154.958435 82.101059,153.388000 82.037178,151.388611 
	C85.920746,150.624161 88.753830,151.432236 87.927467,156.698334 
z"/>
<path fill="#B271C3" opacity="1.000000" stroke="none" 
	d="
M31.829275,151.024521 
	C31.879009,152.748154 31.928743,154.471802 31.943443,156.625916 
	C28.148834,157.313156 25.306511,156.554031 26.507326,151.386734 
	C28.567366,150.995651 30.198320,151.010086 31.829275,151.024521 
z"/>
<path fill="#DABAE2" opacity="1.000000" stroke="none" 
	d="
M201.006042,75.571205 
	C197.174988,76.344803 194.270172,75.645370 195.071259,70.335739 
	C196.837265,70.012405 198.589447,70.111404 200.720459,70.231804 
	C200.825531,72.011665 200.917969,73.577736 201.006042,75.571205 
z"/>
<path fill="#D3ADDD" opacity="1.000000" stroke="none" 
	d="
M212.995972,150.522705 
	C211.321777,150.949905 209.649139,150.962158 207.559418,150.958786 
	C207.076019,149.269913 207.009674,147.596680 206.890961,145.507797 
	C206.838577,145.092148 207.049500,144.990677 207.560257,144.966736 
	C209.728394,144.996307 211.385788,145.049835 213.043152,145.103363 
	C213.027939,146.771500 213.012726,148.439636 212.995972,150.522705 
z"/>
<path fill="#CA9ED6" opacity="1.000000" stroke="none" 
	d="
M50.493031,69.939819 
	C51.345634,73.706650 50.969303,76.813629 45.449005,76.008240 
	C44.579617,72.233414 44.911499,69.088448 50.493031,69.939819 
z"/>
<path fill="#B271C3" opacity="1.000000" stroke="none" 
	d="
M200.945770,150.545288 
	C199.261780,150.983185 197.598068,151.010864 195.517471,151.046066 
	C195.065506,149.321289 195.030457,147.588989 194.998474,145.465683 
	C195.001556,145.074677 195.086212,145.079163 195.508636,145.060913 
	C197.621124,144.942078 199.311188,144.841522 201.001266,144.740952 
	C201.001266,144.740952 201.019623,144.973953 201.018646,145.090866 
	C201.000473,146.850204 200.983276,148.492630 200.945770,150.545288 
z"/>
<path fill="#CA9ED6" opacity="1.000000" stroke="none" 
	d="
M206.975647,81.486572 
	C205.252182,81.941536 203.551331,81.979424 201.424805,82.008209 
	C201.012909,80.271690 201.026688,78.544266 201.045990,76.384979 
	C204.747635,75.666557 207.971054,75.929413 206.975647,81.486572 
z"/>
<path fill="#DABAE2" opacity="1.000000" stroke="none" 
	d="
M76.093567,145.318817 
	C77.769531,144.947601 79.415970,144.999878 81.473068,145.080185 
	C81.916084,146.803818 81.948433,148.499390 81.960594,150.619324 
	C78.099792,151.362473 75.209061,150.628372 76.093567,145.318817 
z"/>
<path fill="#BA81CA" opacity="1.000000" stroke="none" 
	d="
M31.880791,150.599335 
	C30.198320,151.010086 28.567366,150.995651 26.531212,150.970581 
	C26.101799,149.240585 26.077585,147.521194 26.096748,145.372101 
	C27.765162,144.972885 29.390196,145.003387 31.422089,145.040970 
	C31.863398,146.756760 31.897852,148.465454 31.880791,150.599335 
z"/>
<path fill="#F3E9F6" opacity="1.000000" stroke="none" 
	d="
M38.588600,175.981934 
	C38.119148,174.253418 38.071953,172.536163 38.050781,170.389587 
	C41.802761,169.884964 45.646938,169.657135 44.938965,175.711380 
	C42.954662,176.087891 40.982761,176.040558 38.588600,175.981934 
z"/>
<path fill="#F5EDF7" opacity="1.000000" stroke="none" 
	d="
M194.686310,82.052292 
	C195.075287,83.706261 195.028992,85.348358 194.974762,87.400879 
	C192.932098,87.877472 190.897415,87.943657 188.425690,87.994850 
	C187.390610,83.168503 189.703888,81.426773 194.686310,82.052292 
z"/>
<path fill="#F5EDF7" opacity="1.000000" stroke="none" 
	d="
M144.984909,170.603210 
	C146.697906,170.121399 148.410629,170.049530 150.552490,169.973862 
	C151.325623,173.804718 150.410507,176.532822 145.304230,175.937073 
	C144.915833,174.287766 144.950226,172.650467 144.984909,170.603210 
z"/>
<path fill="#E3CCEA" opacity="1.000000" stroke="none" 
	d="
M175.694565,95.080627 
	C176.071823,96.739372 176.026382,98.375847 175.971924,100.421234 
	C174.251251,100.881676 172.539597,100.933197 170.399414,100.971222 
	C169.633682,97.100502 170.484390,94.310684 175.694565,95.080627 
z"/>
<path fill="#F5EDF7" opacity="1.000000" stroke="none" 
	d="
M194.994568,145.032867 
	C193.035645,144.997360 191.083740,145.003647 188.717773,145.014130 
	C188.245605,140.977951 188.187454,136.937546 188.216537,132.439362 
	C190.251022,131.989594 192.198257,131.997604 194.573486,131.965454 
	C195.001450,131.925293 195.086258,131.920914 195.068420,132.389954 
	C195.062469,136.932388 195.074341,141.005783 195.086212,145.079163 
	C195.086212,145.079163 195.001556,145.074677 194.994568,145.032867 
z"/>
<path fill="#F3E9F6" opacity="1.000000" stroke="none" 
	d="
M219.547592,113.223969 
	C219.985703,115.254662 219.995209,117.207886 220.004486,119.583160 
	C220.004272,120.005226 220.067978,119.999748 219.624115,120.014954 
	C217.126144,120.072632 215.072052,120.115097 212.583023,120.127365 
	C210.405075,120.091026 208.662048,120.084892 206.918625,120.045990 
	C206.918213,120.013206 206.983368,120.020584 206.983368,120.020584 
	C206.997025,118.066017 207.010681,116.111458 207.031525,113.743942 
	C208.752213,113.196442 210.465744,113.061890 212.608917,112.890167 
	C215.065384,112.950829 217.092178,113.048660 219.547592,113.223969 
z"/>
<path fill="#FFFFFF" opacity="1.000000" stroke="none" 
	d="
M188.264130,113.594452 
	C190.203445,113.159172 192.071335,113.136650 194.336121,113.148666 
	C194.789261,115.135277 194.845490,117.087341 194.851440,119.455200 
	C192.896530,119.888603 190.991928,119.906227 188.682404,119.892227 
	C188.249222,117.909477 188.220963,115.958344 188.264130,113.594452 
z"/>
<path fill="#AF6DC1" opacity="1.000000" stroke="none" 
	d="
M201.091187,120.132515 
	C202.774261,120.088547 204.457352,120.044571 206.561890,120.010590 
	C206.983368,120.020584 206.918213,120.013206 206.929871,120.471931 
	C207.038330,122.634323 207.135147,124.337997 207.121185,126.039200 
	C207.010437,126.036728 206.793396,125.992210 206.388550,125.994812 
	C204.373123,126.039162 202.762543,126.080925 201.068634,126.054474 
	C200.985306,125.986267 200.819504,125.848816 200.854019,125.440994 
	C200.956085,123.399612 201.023636,121.766068 201.091187,120.132515 
z"/>
<path fill="#C798D4" opacity="1.000000" stroke="none" 
	d="
M200.666733,120.105957 
	C201.023636,121.766068 200.956085,123.399612 200.452820,125.474457 
	C198.393158,125.970047 196.769226,126.024345 195.145279,126.078629 
	C195.127365,124.376328 195.109436,122.674034 195.133575,120.550056 
	C196.864517,120.112053 198.553391,120.095726 200.666733,120.105957 
z"/>
<path fill="#B271C3" opacity="1.000000" stroke="none" 
	d="
M195.099731,126.499573 
	C196.769226,126.024345 198.393158,125.970047 200.418304,125.882286 
	C200.819504,125.848816 200.985306,125.986267 201.028549,126.456924 
	C201.058060,128.551346 201.044312,130.175095 201.030579,131.798843 
	C201.030579,131.798843 201.026459,132.029617 200.595490,132.072540 
	C198.471771,132.050629 196.779022,131.985764 195.086258,131.920914 
	C195.086258,131.920914 195.001450,131.925293 194.994553,131.967194 
	C195.009827,130.312897 195.032013,128.616699 195.099731,126.499573 
z"/>
<path fill="#E7D2EC" opacity="1.000000" stroke="none" 
	d="
M213.465973,145.072083 
	C211.385788,145.049835 209.728394,144.996307 207.662750,144.910202 
	C207.156982,140.876846 207.059479,136.876068 206.974747,132.409134 
	C206.987503,131.942978 206.975052,131.981506 207.408081,131.981659 
	C209.575989,131.953705 211.310867,131.925583 213.045761,131.897491 
	C215.016022,131.970154 216.986282,132.042816 219.372559,132.163651 
	C219.820755,136.108505 219.852905,140.005173 219.836578,144.345245 
	C217.821655,144.872711 215.855209,144.956772 213.465973,145.072083 
z"/>
<path fill="#D7B6E0" opacity="1.000000" stroke="none" 
	d="
M195.068420,132.389954 
	C196.779022,131.985764 198.471771,132.050629 200.582916,132.187256 
	C201.001801,136.125305 201.002304,139.991562 201.002045,144.299377 
	C199.311188,144.841522 197.621124,144.942078 195.508636,145.060913 
	C195.074341,141.005783 195.062469,136.932388 195.068420,132.389954 
z"/>
<path fill="#953CAD" opacity="1.000000" stroke="none" 
	d="
M201.449554,131.859665 
	C201.044312,130.175095 201.058060,128.551346 201.111877,126.525131 
	C202.762543,126.080925 204.373123,126.039162 206.455475,126.418541 
	C206.943176,128.553619 206.959122,130.267563 206.975052,131.981506 
	C206.975052,131.981506 206.987503,131.942978 206.967224,131.943192 
	C205.254150,131.935760 203.561340,131.928116 201.449554,131.859665 
z"/>
<path fill="#D7B6E0" opacity="1.000000" stroke="none" 
	d="
M213.017960,120.157570 
	C215.072052,120.115097 217.126144,120.072632 219.621643,120.046829 
	C220.003983,121.764694 219.944901,123.465897 219.814255,125.587616 
	C217.783966,126.016335 215.825226,126.024536 213.437012,126.023804 
	C213.007523,126.014870 212.999191,125.978897 213.000488,125.560913 
	C213.007187,123.481148 213.012573,121.819359 213.017960,120.157570 
z"/>
<path fill="#D3ADDD" opacity="1.000000" stroke="none" 
	d="
M207.408081,131.981659 
	C206.959122,130.267563 206.943176,128.553619 206.860321,126.415939 
	C206.793396,125.992210 207.010437,126.036728 207.531189,126.033279 
	C209.701035,126.012856 211.350113,125.995872 212.999191,125.978897 
	C212.999191,125.978897 213.007523,126.014870 213.013214,126.033699 
	C213.020248,127.723763 213.021561,129.394989 213.034332,131.481842 
	C211.310867,131.925583 209.575989,131.953705 207.408081,131.981659 
z"/>
<path fill="#DABAE2" opacity="1.000000" stroke="none" 
	d="
M213.000488,125.560913 
	C211.350113,125.995872 209.701035,126.012856 207.641953,126.035751 
	C207.135147,124.337997 207.038330,122.634323 206.930267,120.504715 
	C208.662048,120.084892 210.405075,120.091026 212.583023,120.127365 
	C213.012573,121.819359 213.007187,123.481148 213.000488,125.560913 
z"/>
</svg>