<?xml version="1.0" encoding="UTF-8"?>
<svg version="1.1" xmlns="http://www.w3.org/2000/svg" width="256" height="256">
<path d="M0 0 C66 0 132 0 200 0 C200 2.31 200 4.62 200 7 C202.31 7 204.62 7 207 7 C207 9.31 207 11.62 207 14 C209.31 14 211.62 14 214 14 C214 16.31 214 18.62 214 21 C216.31 21 218.62 21 221 21 C221 25.95 221 30.9 221 36 C222.98 36 224.96 36 227 36 C227 97.05 227 158.1 227 221 C225.02 221 223.04 221 221 221 C221 225.95 221 230.9 221 236 C218.69 236 216.38 236 214 236 C214 238.31 214 240.62 214 243 C211.69 243 209.38 243 207 243 C207 245.31 207 247.62 207 250 C202.05 250 197.1 250 192 250 C192 251.98 192 253.96 192 256 C130.95 256 69.9 256 7 256 C7 254.02 7 252.04 7 250 C2.05 250 -2.9 250 -8 250 C-8 247.69 -8 245.38 -8 243 C-10.31 243 -12.62 243 -15 243 C-15 240.69 -15 238.38 -15 236 C-17.31 236 -19.62 236 -22 236 C-22 233.69 -22 231.38 -22 229 C-24.31 229 -26.62 229 -29 229 C-29 163 -29 97 -29 29 C-26.69 29 -24.38 29 -22 29 C-22 26.36 -22 23.72 -22 21 C-19.69 21 -17.38 21 -15 21 C-15 18.69 -15 16.38 -15 14 C-12.69 14 -10.38 14 -8 14 C-8 11.69 -8 9.38 -8 7 C-5.36 7 -2.72 7 0 7 C0 4.69 0 2.38 0 0 Z " fill="#F03B2D" transform="translate(29,0)"/>
<path d="M0 0 C7.26 0 14.52 0 22 0 C22 2.31 22 4.62 22 7 C24.31 7 26.62 7 29 7 C29 9.31 29 11.62 29 14 C31.31 14 33.62 14 36 14 C36 16.31 36 18.62 36 21 C38.31 21 40.62 21 43 21 C43 23.31 43 25.62 43 28 C45.31 28 47.62 28 50 28 C50 30.31 50 32.62 50 35 C52.31 35 54.62 35 57 35 C57 37.31 57 39.62 57 42 C59.64 42 62.28 42 65 42 C65 44.64 65 47.28 65 50 C67.31 50 69.62 50 72 50 C72 52.31 72 54.62 72 57 C74.31 57 76.62 57 79 57 C79 59.31 79 61.62 79 64 C81.31 64 83.62 64 86 64 C86 66.31 86 68.62 86 71 C88.31 71 90.62 71 93 71 C93 73.31 93 75.62 93 78 C95.31 78 97.62 78 100 78 C100 80.31 100 82.62 100 85 C102.31 85 104.62 85 107 85 C107 87.31 107 89.62 107 92 C109.64 92 112.28 92 115 92 C115 96.95 115 101.9 115 107 C112.36 107 109.72 107 107 107 C107 109.31 107 111.62 107 114 C104.69 114 102.38 114 100 114 C100 116.31 100 118.62 100 121 C97.69 121 95.38 121 93 121 C93 123.31 93 125.62 93 128 C90.69 128 88.38 128 86 128 C86 130.31 86 132.62 86 135 C83.69 135 81.38 135 79 135 C79 137.31 79 139.62 79 142 C76.69 142 74.38 142 72 142 C72 144.64 72 147.28 72 150 C69.69 150 67.38 150 65 150 C65 152.31 65 154.62 65 157 C62.36 157 59.72 157 57 157 C57 159.31 57 161.62 57 164 C54.69 164 52.38 164 50 164 C50 166.31 50 168.62 50 171 C47.69 171 45.38 171 43 171 C43 173.31 43 175.62 43 178 C40.69 178 38.38 178 36 178 C36 180.31 36 182.62 36 185 C33.69 185 31.38 185 29 185 C29 187.31 29 189.62 29 192 C26.69 192 24.38 192 22 192 C22 194.64 22 197.28 22 200 C17.05 200 12.1 200 7 200 C7 197.36 7 194.72 7 192 C4.69 192 2.38 192 0 192 C0 189.69 0 187.38 0 185 C-2.31 185 -4.62 185 -7 185 C-7 182.69 -7 180.38 -7 178 C-9.31 178 -11.62 178 -14 178 C-14 175.69 -14 173.38 -14 171 C-16.31 171 -18.62 171 -21 171 C-21 168.69 -21 166.38 -21 164 C-23.31 164 -25.62 164 -28 164 C-28 161.69 -28 159.38 -28 157 C-30.31 157 -32.62 157 -35 157 C-35 154.69 -35 152.38 -35 150 C-37.64 150 -40.28 150 -43 150 C-43 147.36 -43 144.72 -43 142 C-45.31 142 -47.62 142 -50 142 C-50 139.69 -50 137.38 -50 135 C-52.31 135 -54.62 135 -57 135 C-57 132.69 -57 130.38 -57 128 C-59.31 128 -61.62 128 -64 128 C-64 125.69 -64 123.38 -64 121 C-66.31 121 -68.62 121 -71 121 C-71 118.69 -71 116.38 -71 114 C-73.31 114 -75.62 114 -78 114 C-78 111.69 -78 109.38 -78 107 C-80.31 107 -82.62 107 -85 107 C-85 99.74 -85 92.48 -85 85 C-82.69 85 -80.38 85 -78 85 C-78 82.69 -78 80.38 -78 78 C-75.69 78 -73.38 78 -71 78 C-71 75.69 -71 73.38 -71 71 C-68.69 71 -66.38 71 -64 71 C-64 68.69 -64 66.38 -64 64 C-61.69 64 -59.38 64 -57 64 C-57 61.69 -57 59.38 -57 57 C-54.69 57 -52.38 57 -50 57 C-50 54.69 -50 52.38 -50 50 C-47.69 50 -45.38 50 -43 50 C-43 47.36 -43 44.72 -43 42 C-40.36 42 -37.72 42 -35 42 C-35 39.69 -35 37.38 -35 35 C-28.07 35 -21.14 35 -14 35 C-14 37.31 -14 39.62 -14 42 C-11.69 42 -9.38 42 -7 42 C-7 44.64 -7 47.28 -7 50 C-4.69 50 -2.38 50 0 50 C0 56.93 0 63.86 0 71 C2.31 71 4.62 71 7 71 C7 89.81 7 108.62 7 128 C4.69 128 2.38 128 0 128 C0 137.57 0 147.14 0 157 C9.57 157 19.14 157 29 157 C29 147.43 29 137.86 29 128 C26.69 128 24.38 128 22 128 C22 111.5 22 95 22 78 C24.31 78 26.62 78 29 78 C29 80.31 29 82.62 29 85 C31.31 85 33.62 85 36 85 C36 87.31 36 89.62 36 92 C38.31 92 40.62 92 43 92 C43 99.26 43 106.52 43 114 C50.26 114 57.52 114 65 114 C65 111.69 65 109.38 65 107 C67.31 107 69.62 107 72 107 C72 102.05 72 97.1 72 92 C69.69 92 67.38 92 65 92 C65 89.69 65 87.38 65 85 C60.05 85 55.1 85 50 85 C50 82.69 50 80.38 50 78 C47.69 78 45.38 78 43 78 C43 75.69 43 73.38 43 71 C38.38 71 33.76 71 29 71 C29 64.07 29 57.14 29 50 C26.69 50 24.38 50 22 50 C22 47.36 22 44.72 22 42 C17.05 42 12.1 42 7 42 C7 39.69 7 37.38 7 35 C4.69 35 2.38 35 0 35 C0 32.69 0 30.38 0 28 C-2.31 28 -4.62 28 -7 28 C-7 21.07 -7 14.14 -7 7 C-4.69 7 -2.38 7 0 7 C0 4.69 0 2.38 0 0 Z " fill="#FFFFFF" transform="translate(114,29)"/>
<path d="M0 0 C2.31 0 4.62 0 7 0 C7 4.62 7 9.24 7 14 C9.31 14 11.62 14 14 14 C14 16.31 14 18.62 14 21 C16.31 21 18.62 21 21 21 C21 23.31 21 25.62 21 28 C25.95 28 30.9 28 36 28 C36 30.64 36 33.28 36 36 C38.31 36 40.62 36 43 36 C43 42.93 43 49.86 43 57 C47.62 57 52.24 57 57 57 C57 59.31 57 61.62 57 64 C59.31 64 61.62 64 64 64 C64 66.31 64 68.62 64 71 C68.95 71 73.9 71 79 71 C79 73.31 79 75.62 79 78 C81.31 78 83.62 78 86 78 C86 82.95 86 87.9 86 93 C83.69 93 81.38 93 79 93 C79 95.31 79 97.62 79 100 C71.74 100 64.48 100 57 100 C57 92.74 57 85.48 57 78 C54.69 78 52.38 78 50 78 C50 75.69 50 73.38 50 71 C47.69 71 45.38 71 43 71 C43 68.69 43 66.38 43 64 C40.69 64 38.38 64 36 64 C36 80.5 36 97 36 114 C38.31 114 40.62 114 43 114 C43 123.57 43 133.14 43 143 C33.43 143 23.86 143 14 143 C14 133.43 14 123.86 14 114 C16.31 114 18.62 114 21 114 C21 95.19 21 76.38 21 57 C18.69 57 16.38 57 14 57 C14 50.07 14 43.14 14 36 C11.69 36 9.38 36 7 36 C7 33.36 7 30.72 7 28 C4.69 28 2.38 28 0 28 C0 25.69 0 23.38 0 21 C-4.62 21 -9.24 21 -14 21 C-14 18.69 -14 16.38 -14 14 C-9.38 14 -4.76 14 0 14 C0 9.38 0 4.76 0 0 Z " fill="#F03C2E" transform="translate(100,43)"/>
<path d="M0 0 C7.26 0 14.52 0 22 0 C22 2.31 22 4.62 22 7 C24.31 7 26.62 7 29 7 C29 11.95 29 16.9 29 22 C26.69 22 24.38 22 22 22 C22 24.31 22 26.62 22 29 C14.74 29 7.48 29 0 29 C0 19.43 0 9.86 0 0 Z " fill="#F03C2E" transform="translate(157,114)"/>
<path d="M0 0 C2.31 0 4.62 0 7 0 C7 4.62 7 9.24 7 14 C9.31 14 11.62 14 14 14 C14 16.31 14 18.62 14 21 C16.31 21 18.62 21 21 21 C21 23.31 21 25.62 21 28 C18.69 28 16.38 28 14 28 C14 30.64 14 33.28 14 36 C11.69 36 9.38 36 7 36 C7 33.36 7 30.72 7 28 C4.69 28 2.38 28 0 28 C0 25.69 0 23.38 0 21 C-4.62 21 -9.24 21 -14 21 C-14 18.69 -14 16.38 -14 14 C-9.38 14 -4.76 14 0 14 C0 9.38 0 4.76 0 0 Z " fill="#F35D51" transform="translate(100,43)"/>
<path d="M0 0 C2.64 0 5.28 0 8 0 C8 18.81 8 37.62 8 57 C5.36 57 2.72 57 0 57 C0 38.19 0 19.38 0 0 Z " fill="#F46D62" transform="translate(121,100)"/>
<path d="M0 0 C4.62 0 9.24 0 14 0 C14 2.31 14 4.62 14 7 C11.69 7 9.38 7 7 7 C7 9.64 7 12.28 7 15 C4.69 15 2.38 15 0 15 C0 10.05 0 5.1 0 0 Z " fill="#F35D51" transform="translate(107,64)"/>
<path d="M0 0 C4.95 0 9.9 0 15 0 C15 2.64 15 5.28 15 8 C10.05 8 5.1 8 0 8 C0 5.36 0 2.72 0 0 Z " fill="#FBCAC6" transform="translate(121,221)"/>
<path d="M0 0 C2.64 0 5.28 0 8 0 C8 4.95 8 9.9 8 15 C5.36 15 2.72 15 0 15 C0 10.05 0 5.1 0 0 Z " fill="#FBCCC8" transform="translate(221,121)"/>
<path d="M0 0 C4.95 0 9.9 0 15 0 C15 2.64 15 5.28 15 8 C10.05 8 5.1 8 0 8 C0 5.36 0 2.72 0 0 Z " fill="#F46D62" transform="translate(121,71)"/>
<path d="M0 0 C2.31 0 4.62 0 7 0 C7 4.95 7 9.9 7 15 C4.69 15 2.38 15 0 15 C0 10.05 0 5.1 0 0 Z " fill="#FDE6E5" transform="translate(143,164)"/>
<path d="M0 0 C2.31 0 4.62 0 7 0 C7 4.95 7 9.9 7 15 C4.69 15 2.38 15 0 15 C0 10.05 0 5.1 0 0 Z " fill="#FDE4E2" transform="translate(107,164)"/>
<path d="M0 0 C4.95 0 9.9 0 15 0 C15 2.31 15 4.62 15 7 C10.05 7 5.1 7 0 7 C0 4.69 0 2.38 0 0 Z " fill="#FDEBEA" transform="translate(164,143)"/>
<path d="M0 0 C2.31 0 4.62 0 7 0 C7 4.95 7 9.9 7 15 C4.69 15 2.38 15 0 15 C0 10.05 0 5.1 0 0 Z " fill="#F3675C" transform="translate(179,121)"/>
<path d="M0 0 C2.31 0 4.62 0 7 0 C7 4.95 7 9.9 7 15 C4.69 15 2.38 15 0 15 C0 10.05 0 5.1 0 0 Z " fill="#FBCECB" transform="translate(150,121)"/>
<path d="M0 0 C2.31 0 4.62 0 7 0 C7 4.62 7 9.24 7 14 C4.69 14 2.38 14 0 14 C0 9.38 0 4.76 0 0 Z " fill="#F89D96" transform="translate(100,43)"/>
<path d="M0 0 C2.64 0 5.28 0 8 0 C8 2.64 8 5.28 8 8 C5.36 8 2.72 8 0 8 C0 5.36 0 2.72 0 0 Z " fill="#F89D96" transform="translate(71,71)"/>
<path d="M0 0 C2.31 0 4.62 0 7 0 C7 2.64 7 5.28 7 8 C4.69 8 2.38 8 0 8 C0 5.36 0 2.72 0 0 Z " fill="#F5786E" transform="translate(136,221)"/>
<path d="M0 0 C2.31 0 4.62 0 7 0 C7 2.64 7 5.28 7 8 C4.69 8 2.38 8 0 8 C0 5.36 0 2.72 0 0 Z " fill="#F5786E" transform="translate(114,221)"/>
<path d="M0 0 C2.31 0 4.62 0 7 0 C7 2.64 7 5.28 7 8 C4.69 8 2.38 8 0 8 C0 5.36 0 2.72 0 0 Z " fill="#CC3333" transform="translate(0,221)"/>
<path d="M0 0 C2.64 0 5.28 0 8 0 C8 2.31 8 4.62 8 7 C5.36 7 2.72 7 0 7 C0 4.69 0 2.38 0 0 Z " fill="#F57D74" transform="translate(171,186)"/>
<path d="M0 0 C2.64 0 5.28 0 8 0 C8 2.31 8 4.62 8 7 C5.36 7 2.72 7 0 7 C0 4.69 0 2.38 0 0 Z " fill="#F57D74" transform="translate(71,179)"/>
<path d="M0 0 C2.31 0 4.62 0 7 0 C7 2.64 7 5.28 7 8 C4.69 8 2.38 8 0 8 C0 5.36 0 2.72 0 0 Z " fill="#F57D74" transform="translate(186,171)"/>
<path d="M0 0 C2.31 0 4.62 0 7 0 C7 2.64 7 5.28 7 8 C4.69 8 2.38 8 0 8 C0 5.36 0 2.72 0 0 Z " fill="#F57D74" transform="translate(64,171)"/>
<path d="M0 0 C2.64 0 5.28 0 8 0 C8 2.31 8 4.62 8 7 C5.36 7 2.72 7 0 7 C0 4.69 0 2.38 0 0 Z " fill="#F5786E" transform="translate(221,136)"/>
<path d="M0 0 C2.64 0 5.28 0 8 0 C8 2.31 8 4.62 8 7 C5.36 7 2.72 7 0 7 C0 4.69 0 2.38 0 0 Z " fill="#F5786E" transform="translate(221,114)"/>
<path d="M0 0 C2.64 0 5.28 0 8 0 C8 2.31 8 4.62 8 7 C5.36 7 2.72 7 0 7 C0 4.69 0 2.38 0 0 Z " fill="#F25448" transform="translate(171,114)"/>
<path d="M0 0 C2.31 0 4.62 0 7 0 C7 2.64 7 5.28 7 8 C4.69 8 2.38 8 0 8 C0 5.36 0 2.72 0 0 Z " fill="#F57D74" transform="translate(179,71)"/>
<path d="M0 0 C2.31 0 4.62 0 7 0 C7 2.64 7 5.28 7 8 C4.69 8 2.38 8 0 8 C0 5.36 0 2.72 0 0 Z " fill="#FDE2E0" transform="translate(136,71)"/>
<path d="M0 0 C2.31 0 4.62 0 7 0 C7 2.64 7 5.28 7 8 C4.69 8 2.38 8 0 8 C0 5.36 0 2.72 0 0 Z " fill="#FDDEDC" transform="translate(100,71)"/>
<path d="M0 0 C2.64 0 5.28 0 8 0 C8 2.31 8 4.62 8 7 C5.36 7 2.72 7 0 7 C0 4.69 0 2.38 0 0 Z " fill="#F57D74" transform="translate(171,64)"/>
<path d="M0 0 C2.64 0 5.28 0 8 0 C8 2.31 8 4.62 8 7 C5.36 7 2.72 7 0 7 C0 4.69 0 2.38 0 0 Z " fill="#CC3333" transform="translate(221,0)"/>
<path d="M0 0 C2.31 0 4.62 0 7 0 C7 2.31 7 4.62 7 7 C4.69 7 2.38 7 0 7 C0 4.69 0 2.38 0 0 Z " fill="#F57D74" transform="translate(143,214)"/>
<path d="M0 0 C2.31 0 4.62 0 7 0 C7 2.31 7 4.62 7 7 C4.69 7 2.38 7 0 7 C0 4.69 0 2.38 0 0 Z " fill="#F57D74" transform="translate(107,214)"/>
<path d="M0 0 C2.31 0 4.62 0 7 0 C7 2.31 7 4.62 7 7 C4.69 7 2.38 7 0 7 C0 4.69 0 2.38 0 0 Z " fill="#F57D74" transform="translate(150,207)"/>
<path d="M0 0 C2.31 0 4.62 0 7 0 C7 2.31 7 4.62 7 7 C4.69 7 2.38 7 0 7 C0 4.69 0 2.38 0 0 Z " fill="#F57D74" transform="translate(100,207)"/>
<path d="M0 0 C2.31 0 4.62 0 7 0 C7 2.31 7 4.62 7 7 C4.69 7 2.38 7 0 7 C0 4.69 0 2.38 0 0 Z " fill="#F57D74" transform="translate(157,200)"/>
<path d="M0 0 C2.31 0 4.62 0 7 0 C7 2.31 7 4.62 7 7 C4.69 7 2.38 7 0 7 C0 4.69 0 2.38 0 0 Z " fill="#F57D74" transform="translate(93,200)"/>
<path d="M0 0 C2.31 0 4.62 0 7 0 C7 2.31 7 4.62 7 7 C4.69 7 2.38 7 0 7 C0 4.69 0 2.38 0 0 Z " fill="#F57D74" transform="translate(164,193)"/>
<path d="M0 0 C2.31 0 4.62 0 7 0 C7 2.31 7 4.62 7 7 C4.69 7 2.38 7 0 7 C0 4.69 0 2.38 0 0 Z " fill="#F57D74" transform="translate(86,193)"/>
<path d="M0 0 C2.31 0 4.62 0 7 0 C7 2.31 7 4.62 7 7 C4.69 7 2.38 7 0 7 C0 4.69 0 2.38 0 0 Z " fill="#F57D74" transform="translate(79,186)"/>
<path d="M0 0 C2.31 0 4.62 0 7 0 C7 2.31 7 4.62 7 7 C4.69 7 2.38 7 0 7 C0 4.69 0 2.38 0 0 Z " fill="#F57D74" transform="translate(179,179)"/>
<path d="M0 0 C2.31 0 4.62 0 7 0 C7 2.31 7 4.62 7 7 C4.69 7 2.38 7 0 7 C0 4.69 0 2.38 0 0 Z " fill="#F89D96" transform="translate(136,179)"/>
<path d="M0 0 C2.31 0 4.62 0 7 0 C7 2.31 7 4.62 7 7 C4.69 7 2.38 7 0 7 C0 4.69 0 2.38 0 0 Z " fill="#F89D96" transform="translate(114,179)"/>
<path d="M0 0 C2.31 0 4.62 0 7 0 C7 2.31 7 4.62 7 7 C4.69 7 2.38 7 0 7 C0 4.69 0 2.38 0 0 Z " fill="#F57D74" transform="translate(193,164)"/>
<path d="M0 0 C2.31 0 4.62 0 7 0 C7 2.31 7 4.62 7 7 C4.69 7 2.38 7 0 7 C0 4.69 0 2.38 0 0 Z " fill="#F57D74" transform="translate(57,164)"/>
<path d="M0 0 C2.31 0 4.62 0 7 0 C7 2.31 7 4.62 7 7 C4.69 7 2.38 7 0 7 C0 4.69 0 2.38 0 0 Z " fill="#F57D74" transform="translate(200,157)"/>
<path d="M0 0 C2.31 0 4.62 0 7 0 C7 2.31 7 4.62 7 7 C4.69 7 2.38 7 0 7 C0 4.69 0 2.38 0 0 Z " fill="#F89D96" transform="translate(136,157)"/>
<path d="M0 0 C2.31 0 4.62 0 7 0 C7 2.31 7 4.62 7 7 C4.69 7 2.38 7 0 7 C0 4.69 0 2.38 0 0 Z " fill="#F89D96" transform="translate(114,157)"/>
<path d="M0 0 C2.31 0 4.62 0 7 0 C7 2.31 7 4.62 7 7 C4.69 7 2.38 7 0 7 C0 4.69 0 2.38 0 0 Z " fill="#F57D74" transform="translate(50,157)"/>
<path d="M0 0 C2.31 0 4.62 0 7 0 C7 2.31 7 4.62 7 7 C4.69 7 2.38 7 0 7 C0 4.69 0 2.38 0 0 Z " fill="#F57D74" transform="translate(207,150)"/>
<path d="M0 0 C2.31 0 4.62 0 7 0 C7 2.31 7 4.62 7 7 C4.69 7 2.38 7 0 7 C0 4.69 0 2.38 0 0 Z " fill="#F57D74" transform="translate(43,150)"/>
<path d="M0 0 C2.31 0 4.62 0 7 0 C7 2.31 7 4.62 7 7 C4.69 7 2.38 7 0 7 C0 4.69 0 2.38 0 0 Z " fill="#F57D74" transform="translate(214,143)"/>
<path d="M0 0 C2.31 0 4.62 0 7 0 C7 2.31 7 4.62 7 7 C4.69 7 2.38 7 0 7 C0 4.69 0 2.38 0 0 Z " fill="#FDDEDC" transform="translate(164,143)"/>
<path d="M0 0 C2.31 0 4.62 0 7 0 C7 2.31 7 4.62 7 7 C4.69 7 2.38 7 0 7 C0 4.69 0 2.38 0 0 Z " fill="#F57D74" transform="translate(36,143)"/>
<path d="M0 0 C2.31 0 4.62 0 7 0 C7 2.31 7 4.62 7 7 C4.69 7 2.38 7 0 7 C0 4.69 0 2.38 0 0 Z " fill="#FABEB9" transform="translate(179,136)"/>
<path d="M0 0 C2.31 0 4.62 0 7 0 C7 2.31 7 4.62 7 7 C4.69 7 2.38 7 0 7 C0 4.69 0 2.38 0 0 Z " fill="#F58077" transform="translate(157,136)"/>
<path d="M0 0 C2.31 0 4.62 0 7 0 C7 2.31 7 4.62 7 7 C4.69 7 2.38 7 0 7 C0 4.69 0 2.38 0 0 Z " fill="#F57D74" transform="translate(29,136)"/>
<path d="M0 0 C2.31 0 4.62 0 7 0 C7 2.31 7 4.62 7 7 C4.69 7 2.38 7 0 7 C0 4.69 0 2.38 0 0 Z " fill="#F35D51" transform="translate(179,129)"/>
<path d="M0 0 C2.31 0 4.62 0 7 0 C7 2.31 7 4.62 7 7 C4.69 7 2.38 7 0 7 C0 4.69 0 2.38 0 0 Z " fill="#FDE7E5" transform="translate(29,129)"/>
<path d="M0 0 C2.31 0 4.62 0 7 0 C7 2.31 7 4.62 7 7 C4.69 7 2.38 7 0 7 C0 4.69 0 2.38 0 0 Z " fill="#FBC4C0" transform="translate(179,114)"/>
<path d="M0 0 C2.31 0 4.62 0 7 0 C7 2.31 7 4.62 7 7 C4.69 7 2.38 7 0 7 C0 4.69 0 2.38 0 0 Z " fill="#F36156" transform="translate(150,114)"/>
<path d="M0 0 C2.31 0 4.62 0 7 0 C7 2.31 7 4.62 7 7 C4.69 7 2.38 7 0 7 C0 4.69 0 2.38 0 0 Z " fill="#FDEAE9" transform="translate(143,114)"/>
<path d="M0 0 C2.31 0 4.62 0 7 0 C7 2.31 7 4.62 7 7 C4.69 7 2.38 7 0 7 C0 4.69 0 2.38 0 0 Z " fill="#F89D96" transform="translate(29,114)"/>
<path d="M0 0 C2.31 0 4.62 0 7 0 C7 2.31 7 4.62 7 7 C4.69 7 2.38 7 0 7 C0 4.69 0 2.38 0 0 Z " fill="#F57D74" transform="translate(214,107)"/>
<path d="M0 0 C2.31 0 4.62 0 7 0 C7 2.31 7 4.62 7 7 C4.69 7 2.38 7 0 7 C0 4.69 0 2.38 0 0 Z " fill="#F89D96" transform="translate(157,107)"/>
<path d="M0 0 C2.31 0 4.62 0 7 0 C7 2.31 7 4.62 7 7 C4.69 7 2.38 7 0 7 C0 4.69 0 2.38 0 0 Z " fill="#F46A5F" transform="translate(143,107)"/>
<path d="M0 0 C2.31 0 4.62 0 7 0 C7 2.31 7 4.62 7 7 C4.69 7 2.38 7 0 7 C0 4.69 0 2.38 0 0 Z " fill="#F89D96" transform="translate(36,107)"/>
<path d="M0 0 C2.31 0 4.62 0 7 0 C7 2.31 7 4.62 7 7 C4.69 7 2.38 7 0 7 C0 4.69 0 2.38 0 0 Z " fill="#F57D74" transform="translate(207,100)"/>
<path d="M0 0 C2.31 0 4.62 0 7 0 C7 2.31 7 4.62 7 7 C4.69 7 2.38 7 0 7 C0 4.69 0 2.38 0 0 Z " fill="#F89D96" transform="translate(150,100)"/>
<path d="M0 0 C2.31 0 4.62 0 7 0 C7 2.31 7 4.62 7 7 C4.69 7 2.38 7 0 7 C0 4.69 0 2.38 0 0 Z " fill="#F47268" transform="translate(136,100)"/>
<path d="M0 0 C2.31 0 4.62 0 7 0 C7 2.31 7 4.62 7 7 C4.69 7 2.38 7 0 7 C0 4.69 0 2.38 0 0 Z " fill="#F89D96" transform="translate(43,100)"/>
<path d="M0 0 C2.31 0 4.62 0 7 0 C7 2.31 7 4.62 7 7 C4.69 7 2.38 7 0 7 C0 4.69 0 2.38 0 0 Z " fill="#F57D74" transform="translate(200,93)"/>
<path d="M0 0 C2.31 0 4.62 0 7 0 C7 2.31 7 4.62 7 7 C4.69 7 2.38 7 0 7 C0 4.69 0 2.38 0 0 Z " fill="#F89D96" transform="translate(143,93)"/>
<path d="M0 0 C2.31 0 4.62 0 7 0 C7 2.31 7 4.62 7 7 C4.69 7 2.38 7 0 7 C0 4.69 0 2.38 0 0 Z " fill="#F6857C" transform="translate(114,93)"/>
<path d="M0 0 C2.31 0 4.62 0 7 0 C7 2.31 7 4.62 7 7 C4.69 7 2.38 7 0 7 C0 4.69 0 2.38 0 0 Z " fill="#F89D96" transform="translate(50,93)"/>
<path d="M0 0 C2.31 0 4.62 0 7 0 C7 2.31 7 4.62 7 7 C4.69 7 2.38 7 0 7 C0 4.69 0 2.38 0 0 Z " fill="#F57D74" transform="translate(193,86)"/>
<path d="M0 0 C2.31 0 4.62 0 7 0 C7 2.31 7 4.62 7 7 C4.69 7 2.38 7 0 7 C0 4.69 0 2.38 0 0 Z " fill="#F89D96" transform="translate(57,86)"/>
<path d="M0 0 C2.31 0 4.62 0 7 0 C7 2.31 7 4.62 7 7 C4.69 7 2.38 7 0 7 C0 4.69 0 2.38 0 0 Z " fill="#F57D74" transform="translate(186,79)"/>
<path d="M0 0 C2.31 0 4.62 0 7 0 C7 2.31 7 4.62 7 7 C4.69 7 2.38 7 0 7 C0 4.69 0 2.38 0 0 Z " fill="#F14C3F" transform="translate(136,79)"/>
<path d="M0 0 C2.31 0 4.62 0 7 0 C7 2.31 7 4.62 7 7 C4.69 7 2.38 7 0 7 C0 4.69 0 2.38 0 0 Z " fill="#FDDEDC" transform="translate(107,79)"/>
<path d="M0 0 C2.31 0 4.62 0 7 0 C7 2.31 7 4.62 7 7 C4.69 7 2.38 7 0 7 C0 4.69 0 2.38 0 0 Z " fill="#F89D96" transform="translate(64,79)"/>
<path d="M0 0 C2.31 0 4.62 0 7 0 C7 2.31 7 4.62 7 7 C4.69 7 2.38 7 0 7 C0 4.69 0 2.38 0 0 Z " fill="#F89D96" transform="translate(114,64)"/>
<path d="M0 0 C2.31 0 4.62 0 7 0 C7 2.31 7 4.62 7 7 C4.69 7 2.38 7 0 7 C0 4.69 0 2.38 0 0 Z " fill="#F03C2E" transform="translate(107,64)"/>
<path d="M0 0 C2.31 0 4.62 0 7 0 C7 2.31 7 4.62 7 7 C4.69 7 2.38 7 0 7 C0 4.69 0 2.38 0 0 Z " fill="#FDDEDC" transform="translate(93,64)"/>
<path d="M0 0 C2.31 0 4.62 0 7 0 C7 2.31 7 4.62 7 7 C4.69 7 2.38 7 0 7 C0 4.69 0 2.38 0 0 Z " fill="#F89D96" transform="translate(79,64)"/>
<path d="M0 0 C2.31 0 4.62 0 7 0 C7 2.31 7 4.62 7 7 C4.69 7 2.38 7 0 7 C0 4.69 0 2.38 0 0 Z " fill="#F57D74" transform="translate(164,57)"/>
<path d="M0 0 C2.31 0 4.62 0 7 0 C7 2.31 7 4.62 7 7 C4.69 7 2.38 7 0 7 C0 4.69 0 2.38 0 0 Z " fill="#F89D96" transform="translate(107,57)"/>
<path d="M0 0 C2.31 0 4.62 0 7 0 C7 2.31 7 4.62 7 7 C4.69 7 2.38 7 0 7 C0 4.69 0 2.38 0 0 Z " fill="#F03C2E" transform="translate(100,57)"/>
<path d="M0 0 C2.31 0 4.62 0 7 0 C7 2.31 7 4.62 7 7 C4.69 7 2.38 7 0 7 C0 4.69 0 2.38 0 0 Z " fill="#F89D96" transform="translate(86,57)"/>
<path d="M0 0 C2.31 0 4.62 0 7 0 C7 2.31 7 4.62 7 7 C4.69 7 2.38 7 0 7 C0 4.69 0 2.38 0 0 Z " fill="#F57D74" transform="translate(157,50)"/>
<path d="M0 0 C2.31 0 4.62 0 7 0 C7 2.31 7 4.62 7 7 C4.69 7 2.38 7 0 7 C0 4.69 0 2.38 0 0 Z " fill="#F57D74" transform="translate(150,43)"/>
<path d="M0 0 C2.31 0 4.62 0 7 0 C7 2.31 7 4.62 7 7 C4.69 7 2.38 7 0 7 C0 4.69 0 2.38 0 0 Z " fill="#F57D74" transform="translate(143,36)"/>
<path d="M0 0 C2.31 0 4.62 0 7 0 C7 2.31 7 4.62 7 7 C4.69 7 2.38 7 0 7 C0 4.69 0 2.38 0 0 Z " fill="#F89D96" transform="translate(107,36)"/>
<path d="M0 0 C2.31 0 4.62 0 7 0 C7 2.31 7 4.62 7 7 C4.69 7 2.38 7 0 7 C0 4.69 0 2.38 0 0 Z " fill="#F57D74" transform="translate(136,29)"/>
<path d="M0 0 C2.31 0 4.62 0 7 0 C7 2.31 7 4.62 7 7 C4.69 7 2.38 7 0 7 C0 4.69 0 2.38 0 0 Z " fill="#FDE7E5" transform="translate(129,29)"/>
<path d="M0 0 C2.31 0 4.62 0 7 0 C7 2.31 7 4.62 7 7 C4.69 7 2.38 7 0 7 C0 4.69 0 2.38 0 0 Z " fill="#F89D96" transform="translate(114,29)"/>
</svg>
