<?xml version="1.0" encoding="UTF-8"?>
<svg version="1.1" xmlns="http://www.w3.org/2000/svg" width="256" height="256">
<path d="M0 0 C66 0 132 0 200 0 C200 2.31 200 4.62 200 7 C202.31 7 204.62 7 207 7 C207 9.31 207 11.62 207 14 C209.31 14 211.62 14 214 14 C214 16.31 214 18.62 214 21 C216.31 21 218.62 21 221 21 C221 25.95 221 30.9 221 36 C222.98 36 224.96 36 227 36 C227 97.05 227 158.1 227 221 C225.02 221 223.04 221 221 221 C221 225.95 221 230.9 221 236 C218.69 236 216.38 236 214 236 C214 238.31 214 240.62 214 243 C211.69 243 209.38 243 207 243 C207 245.31 207 247.62 207 250 C202.05 250 197.1 250 192 250 C192 251.98 192 253.96 192 256 C130.95 256 69.9 256 7 256 C7 254.02 7 252.04 7 250 C2.05 250 -2.9 250 -8 250 C-8 247.69 -8 245.38 -8 243 C-10.31 243 -12.62 243 -15 243 C-15 240.69 -15 238.38 -15 236 C-17.31 236 -19.62 236 -22 236 C-22 233.69 -22 231.38 -22 229 C-24.31 229 -26.62 229 -29 229 C-29 163 -29 97 -29 29 C-26.69 29 -24.38 29 -22 29 C-22 26.36 -22 23.72 -22 21 C-19.69 21 -17.38 21 -15 21 C-15 18.69 -15 16.38 -15 14 C-12.69 14 -10.38 14 -8 14 C-8 11.69 -8 9.38 -8 7 C-5.36 7 -2.72 7 0 7 C0 4.69 0 2.38 0 0 Z " fill="#E04E1D" transform="translate(29,0)"/>
<path d="M0 0 C51.81 0 103.62 0 157 0 C157 11.55 157 23.1 157 35 C117.07 35 77.14 35 36 35 C36 44.57 36 54.14 36 64 C73.62 64 111.24 64 150 64 C150 78.19 150 92.38 150 107 C147.69 107 145.38 107 143 107 C143 125.81 143 144.62 143 164 C140.69 164 138.38 164 136 164 C136 166.31 136 168.62 136 171 C128.74 171 121.48 171 114 171 C114 173.31 114 175.62 114 178 C107.07 178 100.14 178 93 178 C93 180.31 93 182.62 93 185 C83.43 185 73.86 185 64 185 C64 182.69 64 180.38 64 178 C57.07 178 50.14 178 43 178 C43 175.69 43 173.38 43 171 C33.43 171 23.86 171 14 171 C14 168.69 14 166.38 14 164 C11.69 164 9.38 164 7 164 C7 147.5 7 131 7 114 C18.88 114 30.76 114 43 114 C43 123.57 43 133.14 43 143 C52.24 143 61.48 143 71 143 C71 145.31 71 147.62 71 150 C80.57 150 90.14 150 100 150 C100 147.69 100 145.38 100 143 C104.62 143 109.24 143 114 143 C114 128.81 114 114.62 114 100 C78.69 100 43.38 100 7 100 C7 88.12 7 76.24 7 64 C4.69 64 2.38 64 0 64 C0 42.88 0 21.76 0 0 Z " fill="#EBEAEA" transform="translate(50,36)"/>
<path d="M0 0 C23.43 0 46.86 0 71 0 C71 11.88 71 23.76 71 36 C68.69 36 66.38 36 64 36 C64 54.81 64 73.62 64 93 C61.69 93 59.38 93 57 93 C57 95.31 57 97.62 57 100 C49.74 100 42.48 100 35 100 C35 102.31 35 104.62 35 107 C28.07 107 21.14 107 14 107 C14 109.31 14 111.62 14 114 C4.43 114 -5.14 114 -15 114 C-15 111.69 -15 109.38 -15 107 C-21.93 107 -28.86 107 -36 107 C-36 104.69 -36 102.38 -36 100 C-45.57 100 -55.14 100 -65 100 C-65 97.69 -65 95.38 -65 93 C-67.31 93 -69.62 93 -72 93 C-72 76.5 -72 60 -72 43 C-60.12 43 -48.24 43 -36 43 C-36 52.57 -36 62.14 -36 72 C-26.76 72 -17.52 72 -8 72 C-8 74.31 -8 76.62 -8 79 C1.57 79 11.14 79 21 79 C21 76.69 21 74.38 21 72 C25.62 72 30.24 72 35 72 C35 67.05 35 62.1 35 57 C37.31 57 39.62 57 42 57 C42 45.45 42 33.9 42 22 C28.14 22 14.28 22 0 22 C0 14.74 0 7.48 0 0 Z " fill="#FEFEFE" transform="translate(129,107)"/>
<path d="M0 0 C11.88 0 23.76 0 36 0 C36 9.57 36 19.14 36 29 C45.24 29 54.48 29 64 29 C64 31.31 64 33.62 64 36 C66.64 36 69.28 36 72 36 C72 45.24 72 54.48 72 64 C76.62 64 81.24 64 86 64 C86 66.31 86 68.62 86 71 C76.43 71 66.86 71 57 71 C57 68.69 57 66.38 57 64 C50.07 64 43.14 64 36 64 C36 61.69 36 59.38 36 57 C26.43 57 16.86 57 7 57 C7 54.69 7 52.38 7 50 C4.69 50 2.38 50 0 50 C0 33.5 0 17 0 0 Z " fill="#EBEBEA" transform="translate(57,150)"/>
<path d="M0 0 C25.74 0 51.48 0 78 0 C78 2.31 78 4.62 78 7 C75.69 7 73.38 7 71 7 C71 11.62 71 16.24 71 21 C47.57 21 24.14 21 0 21 C0 14.07 0 7.14 0 0 Z " fill="#FFFFFF" transform="translate(129,43)"/>
<path d="M0 0 C51.81 0 103.62 0 157 0 C157 2.31 157 4.62 157 7 C105.19 7 53.38 7 0 7 C0 4.69 0 2.38 0 0 Z " fill="#EEE5E2" transform="translate(50,36)"/>
<path d="M0 0 C37.62 0 75.24 0 114 0 C114 11.55 114 23.1 114 35 C111.69 35 109.38 35 107 35 C107 25.76 107 16.52 107 7 C71.69 7 36.38 7 0 7 C0 4.69 0 2.38 0 0 Z " fill="#EEE5E2" transform="translate(57,129)"/>
<path d="M0 0 C2.31 0 4.62 0 7 0 C7 6.93 7 13.86 7 21 C-18.74 21 -44.48 21 -71 21 C-71 18.69 -71 16.38 -71 14 C-47.57 14 -24.14 14 0 14 C0 9.38 0 4.76 0 0 Z " fill="#F7D3C7" transform="translate(200,50)"/>
<path d="M0 0 C25.74 0 51.48 0 78 0 C78 2.31 78 4.62 78 7 C52.26 7 26.52 7 0 7 C0 4.69 0 2.38 0 0 Z " fill="#F7D3C7" transform="translate(129,36)"/>
<path d="M0 0 C23.43 0 46.86 0 71 0 C71 2.31 71 4.62 71 7 C47.57 7 24.14 7 0 7 C0 4.69 0 2.38 0 0 Z " fill="#F7D3C7" transform="translate(129,100)"/>
<path d="M0 0 C13.86 0 27.72 0 42 0 C42 11.55 42 23.1 42 35 C39.69 35 37.38 35 35 35 C35 25.76 35 16.52 35 7 C23.45 7 11.9 7 0 7 C0 4.69 0 2.38 0 0 Z " fill="#F7D3C7" transform="translate(129,129)"/>
<path d="M0 0 C16.5 0 33 0 50 0 C50 2.31 50 4.62 50 7 C35.81 7 21.62 7 7 7 C7 11.95 7 16.9 7 22 C4.69 22 2.38 22 0 22 C0 14.74 0 7.48 0 0 Z " fill="#EEE5E2" transform="translate(79,64)"/>
<path d="M0 0 C2.31 0 4.62 0 7 0 C7 11.88 7 23.76 7 36 C4.69 36 2.38 36 0 36 C0 24.12 0 12.24 0 0 Z " fill="#ED9375" transform="translate(193,143)"/>
<path d="M0 0 C9.57 0 19.14 0 29 0 C29 2.31 29 4.62 29 7 C19.43 7 9.86 7 0 7 C0 4.69 0 2.38 0 0 Z " fill="#EED6CD" transform="translate(114,214)"/>
<path d="M0 0 C9.57 0 19.14 0 29 0 C29 2.31 29 4.62 29 7 C19.43 7 9.86 7 0 7 C0 4.69 0 2.38 0 0 Z " fill="#E6744E" transform="translate(121,179)"/>
<path d="M0 0 C2.31 0 4.62 0 7 0 C7 9.57 7 19.14 7 29 C4.69 29 2.38 29 0 29 C0 19.43 0 9.86 0 0 Z " fill="#EED3CA" transform="translate(57,171)"/>
<path d="M0 0 C2.31 0 4.62 0 7 0 C7 9.57 7 19.14 7 29 C4.69 29 2.38 29 0 29 C0 19.43 0 9.86 0 0 Z " fill="#E67954" transform="translate(50,100)"/>
<path d="M0 0 C2.31 0 4.62 0 7 0 C7 9.57 7 19.14 7 29 C4.69 29 2.38 29 0 29 C0 19.43 0 9.86 0 0 Z " fill="#EEE5E2" transform="translate(50,71)"/>
<path d="M0 0 C2.31 0 4.62 0 7 0 C7 9.24 7 18.48 7 28 C4.69 28 2.38 28 0 28 C0 18.76 0 9.52 0 0 Z " fill="#F9DACF" transform="translate(164,136)"/>
<path d="M0 0 C4.95 0 9.9 0 15 0 C15 2.31 15 4.62 15 7 C10.05 7 5.1 7 0 7 C0 4.69 0 2.38 0 0 Z " fill="#F7D0C3" transform="translate(171,200)"/>
<path d="M0 0 C4.95 0 9.9 0 15 0 C15 2.31 15 4.62 15 7 C10.05 7 5.1 7 0 7 C0 4.69 0 2.38 0 0 Z " fill="#EECEC3" transform="translate(64,200)"/>
<path d="M0 0 C2.31 0 4.62 0 7 0 C7 4.95 7 9.9 7 15 C4.69 15 2.38 15 0 15 C0 10.05 0 5.1 0 0 Z " fill="#FDF5F2" transform="translate(164,164)"/>
<path d="M0 0 C2.31 0 4.62 0 7 0 C7 4.95 7 9.9 7 15 C4.69 15 2.38 15 0 15 C0 10.05 0 5.1 0 0 Z " fill="#EED4CB" transform="translate(79,71)"/>
<path d="M0 0 C4.62 0 9.24 0 14 0 C14 2.31 14 4.62 14 7 C9.38 7 4.76 7 0 7 C0 4.69 0 2.38 0 0 Z " fill="#EE9D82" transform="translate(150,207)"/>
<path d="M0 0 C4.62 0 9.24 0 14 0 C14 2.31 14 4.62 14 7 C9.38 7 4.76 7 0 7 C0 4.69 0 2.38 0 0 Z " fill="#EEE4E0" transform="translate(93,207)"/>
<path d="M0 0 C2.31 0 4.62 0 7 0 C7 4.62 7 9.24 7 14 C4.69 14 2.38 14 0 14 C0 9.38 0 4.76 0 0 Z " fill="#EAA48C" transform="translate(57,186)"/>
<path d="M0 0 C2.31 0 4.62 0 7 0 C7 4.62 7 9.24 7 14 C4.69 14 2.38 14 0 14 C0 9.38 0 4.76 0 0 Z " fill="#E66A40" transform="translate(193,179)"/>
<path d="M0 0 C4.62 0 9.24 0 14 0 C14 2.31 14 4.62 14 7 C9.38 7 4.76 7 0 7 C0 4.69 0 2.38 0 0 Z " fill="#F4C1AF" transform="translate(136,179)"/>
<path d="M0 0 C2.31 0 4.62 0 7 0 C7 4.62 7 9.24 7 14 C4.69 14 2.38 14 0 14 C0 9.38 0 4.76 0 0 Z " fill="#EEE1DD" transform="translate(86,150)"/>
<path d="M0 0 C2.31 0 4.62 0 7 0 C7 4.62 7 9.24 7 14 C4.69 14 2.38 14 0 14 C0 9.38 0 4.76 0 0 Z " fill="#F1AF99" transform="translate(193,143)"/>
<path d="M0 0 C2.31 0 4.62 0 7 0 C7 4.62 7 9.24 7 14 C4.69 14 2.38 14 0 14 C0 9.38 0 4.76 0 0 Z " fill="#F4BEAC" transform="translate(164,136)"/>
<path d="M0 0 C2.31 0 4.62 0 7 0 C7 4.62 7 9.24 7 14 C4.69 14 2.38 14 0 14 C0 9.38 0 4.76 0 0 Z " fill="#F8D5C9" transform="translate(193,129)"/>
<path d="M0 0 C2.31 0 4.62 0 7 0 C7 4.62 7 9.24 7 14 C4.69 14 2.38 14 0 14 C0 9.38 0 4.76 0 0 Z " fill="#E45F32" transform="translate(200,100)"/>
<path d="M0 0 C2.31 0 4.62 0 7 0 C7 4.62 7 9.24 7 14 C4.69 14 2.38 14 0 14 C0 9.38 0 4.76 0 0 Z " fill="#EAA289" transform="translate(50,100)"/>
<path d="M0 0 C2.31 0 4.62 0 7 0 C7 4.62 7 9.24 7 14 C4.69 14 2.38 14 0 14 C0 9.38 0 4.76 0 0 Z " fill="#EDC2B3" transform="translate(50,86)"/>
<path d="M0 0 C2.31 0 4.62 0 7 0 C7 4.62 7 9.24 7 14 C4.69 14 2.38 14 0 14 C0 9.38 0 4.76 0 0 Z " fill="#F9DAD0" transform="translate(200,50)"/>
<path d="M0 0 C2.31 0 4.62 0 7 0 C7 4.62 7 9.24 7 14 C4.69 14 2.38 14 0 14 C0 9.38 0 4.76 0 0 Z " fill="#E56B43" transform="translate(43,36)"/>
<path d="M0 0 C2.31 0 4.62 0 7 0 C7 2.64 7 5.28 7 8 C4.69 8 2.38 8 0 8 C0 5.36 0 2.72 0 0 Z " fill="#CC3333" transform="translate(0,221)"/>
<path d="M0 0 C2.31 0 4.62 0 7 0 C7 2.64 7 5.28 7 8 C4.69 8 2.38 8 0 8 C0 5.36 0 2.72 0 0 Z " fill="#EA8564" transform="translate(193,171)"/>
<path d="M0 0 C2.31 0 4.62 0 7 0 C7 2.64 7 5.28 7 8 C4.69 8 2.38 8 0 8 C0 5.36 0 2.72 0 0 Z " fill="#E7724B" transform="translate(157,171)"/>
<path d="M0 0 C2.31 0 4.62 0 7 0 C7 2.64 7 5.28 7 8 C4.69 8 2.38 8 0 8 C0 5.36 0 2.72 0 0 Z " fill="#E77E5B" transform="translate(93,171)"/>
<path d="M0 0 C2.64 0 5.28 0 8 0 C8 2.31 8 4.62 8 7 C5.36 7 2.72 7 0 7 C0 4.69 0 2.38 0 0 Z " fill="#CC3333" transform="translate(221,0)"/>
<path d="M0 0 C2.31 0 4.62 0 7 0 C7 2.31 7 4.62 7 7 C4.69 7 2.38 7 0 7 C0 4.69 0 2.38 0 0 Z " fill="#EA8664" transform="translate(136,214)"/>
<path d="M0 0 C2.31 0 4.62 0 7 0 C7 2.31 7 4.62 7 7 C4.69 7 2.38 7 0 7 C0 4.69 0 2.38 0 0 Z " fill="#F3B9A6" transform="translate(129,214)"/>
<path d="M0 0 C2.31 0 4.62 0 7 0 C7 2.31 7 4.62 7 7 C4.69 7 2.38 7 0 7 C0 4.69 0 2.38 0 0 Z " fill="#EBA892" transform="translate(114,214)"/>
<path d="M0 0 C2.31 0 4.62 0 7 0 C7 2.31 7 4.62 7 7 C4.69 7 2.38 7 0 7 C0 4.69 0 2.38 0 0 Z " fill="#E25C2F" transform="translate(107,214)"/>
<path d="M0 0 C2.31 0 4.62 0 7 0 C7 2.31 7 4.62 7 7 C4.69 7 2.38 7 0 7 C0 4.69 0 2.38 0 0 Z " fill="#E66A41" transform="translate(164,207)"/>
<path d="M0 0 C2.31 0 4.62 0 7 0 C7 2.31 7 4.62 7 7 C4.69 7 2.38 7 0 7 C0 4.69 0 2.38 0 0 Z " fill="#F6CCBE" transform="translate(150,207)"/>
<path d="M0 0 C2.31 0 4.62 0 7 0 C7 2.31 7 4.62 7 7 C4.69 7 2.38 7 0 7 C0 4.69 0 2.38 0 0 Z " fill="#EDC2B3" transform="translate(93,207)"/>
<path d="M0 0 C2.31 0 4.62 0 7 0 C7 2.31 7 4.62 7 7 C4.69 7 2.38 7 0 7 C0 4.69 0 2.38 0 0 Z " fill="#E77F5C" transform="translate(86,207)"/>
<path d="M0 0 C2.31 0 4.62 0 7 0 C7 2.31 7 4.62 7 7 C4.69 7 2.38 7 0 7 C0 4.69 0 2.38 0 0 Z " fill="#E87954" transform="translate(186,200)"/>
<path d="M0 0 C2.31 0 4.62 0 7 0 C7 2.31 7 4.62 7 7 C4.69 7 2.38 7 0 7 C0 4.69 0 2.38 0 0 Z " fill="#F0A58B" transform="translate(179,200)"/>
<path d="M0 0 C2.31 0 4.62 0 7 0 C7 2.31 7 4.62 7 7 C4.69 7 2.38 7 0 7 C0 4.69 0 2.38 0 0 Z " fill="#EA9A80" transform="translate(64,200)"/>
<path d="M0 0 C2.31 0 4.62 0 7 0 C7 2.31 7 4.62 7 7 C4.69 7 2.38 7 0 7 C0 4.69 0 2.38 0 0 Z " fill="#E35A2C" transform="translate(57,200)"/>
<path d="M0 0 C2.31 0 4.62 0 7 0 C7 2.31 7 4.62 7 7 C4.69 7 2.38 7 0 7 C0 4.69 0 2.38 0 0 Z " fill="#E35C2F" transform="translate(193,193)"/>
<path d="M0 0 C2.31 0 4.62 0 7 0 C7 2.31 7 4.62 7 7 C4.69 7 2.38 7 0 7 C0 4.69 0 2.38 0 0 Z " fill="#ECB6A4" transform="translate(57,186)"/>
<path d="M0 0 C2.31 0 4.62 0 7 0 C7 2.31 7 4.62 7 7 C4.69 7 2.38 7 0 7 C0 4.69 0 2.38 0 0 Z " fill="#E87752" transform="translate(193,179)"/>
<path d="M0 0 C2.31 0 4.62 0 7 0 C7 2.31 7 4.62 7 7 C4.69 7 2.38 7 0 7 C0 4.69 0 2.38 0 0 Z " fill="#FAE1D9" transform="translate(150,179)"/>
<path d="M0 0 C2.31 0 4.62 0 7 0 C7 2.31 7 4.62 7 7 C4.69 7 2.38 7 0 7 C0 4.69 0 2.38 0 0 Z " fill="#EE987B" transform="translate(136,179)"/>
<path d="M0 0 C2.31 0 4.62 0 7 0 C7 2.31 7 4.62 7 7 C4.69 7 2.38 7 0 7 C0 4.69 0 2.38 0 0 Z " fill="#E5673C" transform="translate(129,179)"/>
<path d="M0 0 C2.31 0 4.62 0 7 0 C7 2.31 7 4.62 7 7 C4.69 7 2.38 7 0 7 C0 4.69 0 2.38 0 0 Z " fill="#EDB5A3" transform="translate(114,179)"/>
<path d="M0 0 C2.31 0 4.62 0 7 0 C7 2.31 7 4.62 7 7 C4.69 7 2.38 7 0 7 C0 4.69 0 2.38 0 0 Z " fill="#EFDAD3" transform="translate(107,179)"/>
<path d="M0 0 C2.31 0 4.62 0 7 0 C7 2.31 7 4.62 7 7 C4.69 7 2.38 7 0 7 C0 4.69 0 2.38 0 0 Z " fill="#EEC6B9" transform="translate(57,179)"/>
<path d="M0 0 C2.31 0 4.62 0 7 0 C7 2.31 7 4.62 7 7 C4.69 7 2.38 7 0 7 C0 4.69 0 2.38 0 0 Z " fill="#FBE7E1" transform="translate(164,164)"/>
<path d="M0 0 C2.31 0 4.62 0 7 0 C7 2.31 7 4.62 7 7 C4.69 7 2.38 7 0 7 C0 4.69 0 2.38 0 0 Z " fill="#EFE1DC" transform="translate(57,164)"/>
<path d="M0 0 C2.31 0 4.62 0 7 0 C7 2.31 7 4.62 7 7 C4.69 7 2.38 7 0 7 C0 4.69 0 2.38 0 0 Z " fill="#EFA187" transform="translate(193,157)"/>
<path d="M0 0 C2.31 0 4.62 0 7 0 C7 2.31 7 4.62 7 7 C4.69 7 2.38 7 0 7 C0 4.69 0 2.38 0 0 Z " fill="#F6CCBE" transform="translate(164,150)"/>
<path d="M0 0 C2.31 0 4.62 0 7 0 C7 2.31 7 4.62 7 7 C4.69 7 2.38 7 0 7 C0 4.69 0 2.38 0 0 Z " fill="#EDD6CE" transform="translate(86,150)"/>
<path d="M0 0 C2.31 0 4.62 0 7 0 C7 2.31 7 4.62 7 7 C4.69 7 2.38 7 0 7 C0 4.69 0 2.38 0 0 Z " fill="#F5C1B0" transform="translate(193,143)"/>
<path d="M0 0 C2.31 0 4.62 0 7 0 C7 2.31 7 4.62 7 7 C4.69 7 2.38 7 0 7 C0 4.69 0 2.38 0 0 Z " fill="#F2B19B" transform="translate(164,136)"/>
<path d="M0 0 C2.31 0 4.62 0 7 0 C7 2.31 7 4.62 7 7 C4.69 7 2.38 7 0 7 C0 4.69 0 2.38 0 0 Z " fill="#FBE8E2" transform="translate(193,129)"/>
<path d="M0 0 C2.31 0 4.62 0 7 0 C7 2.31 7 4.62 7 7 C4.69 7 2.38 7 0 7 C0 4.69 0 2.38 0 0 Z " fill="#E36235" transform="translate(50,129)"/>
<path d="M0 0 C2.31 0 4.62 0 7 0 C7 2.31 7 4.62 7 7 C4.69 7 2.38 7 0 7 C0 4.69 0 2.38 0 0 Z " fill="#E98F70" transform="translate(50,114)"/>
<path d="M0 0 C2.31 0 4.62 0 7 0 C7 2.31 7 4.62 7 7 C4.69 7 2.38 7 0 7 C0 4.69 0 2.38 0 0 Z " fill="#E77149" transform="translate(200,100)"/>
<path d="M0 0 C2.31 0 4.62 0 7 0 C7 2.31 7 4.62 7 7 C4.69 7 2.38 7 0 7 C0 4.69 0 2.38 0 0 Z " fill="#ECB3A0" transform="translate(50,100)"/>
<path d="M0 0 C2.31 0 4.62 0 7 0 C7 2.31 7 4.62 7 7 C4.69 7 2.38 7 0 7 C0 4.69 0 2.38 0 0 Z " fill="#EECEC4" transform="translate(50,86)"/>
<path d="M0 0 C2.31 0 4.62 0 7 0 C7 2.31 7 4.62 7 7 C4.69 7 2.38 7 0 7 C0 4.69 0 2.38 0 0 Z " fill="#EEDFDA" transform="translate(79,79)"/>
<path d="M0 0 C2.31 0 4.62 0 7 0 C7 2.31 7 4.62 7 7 C4.69 7 2.38 7 0 7 C0 4.69 0 2.38 0 0 Z " fill="#EEDBD5" transform="translate(50,79)"/>
<path d="M0 0 C2.31 0 4.62 0 7 0 C7 2.31 7 4.62 7 7 C4.69 7 2.38 7 0 7 C0 4.69 0 2.38 0 0 Z " fill="#FBE7E1" transform="translate(200,50)"/>
<path d="M0 0 C2.31 0 4.62 0 7 0 C7 2.31 7 4.62 7 7 C4.69 7 2.38 7 0 7 C0 4.69 0 2.38 0 0 Z " fill="#FDF5F2" transform="translate(200,43)"/>
<path d="M0 0 C2.31 0 4.62 0 7 0 C7 2.31 7 4.62 7 7 C4.69 7 2.38 7 0 7 C0 4.69 0 2.38 0 0 Z " fill="#E88868" transform="translate(43,36)"/>
</svg>
