<?xml version="1.0" encoding="UTF-8"?>
<svg version="1.1" xmlns="http://www.w3.org/2000/svg" width="256" height="256">
<path d="M0 0 C66 0 132 0 200 0 C200 2.31 200 4.62 200 7 C202.31 7 204.62 7 207 7 C207 9.31 207 11.62 207 14 C209.31 14 211.62 14 214 14 C214 16.31 214 18.62 214 21 C216.31 21 218.62 21 221 21 C221 25.95 221 30.9 221 36 C222.98 36 224.96 36 227 36 C227 97.05 227 158.1 227 221 C225.02 221 223.04 221 221 221 C221 225.95 221 230.9 221 236 C218.69 236 216.38 236 214 236 C214 238.31 214 240.62 214 243 C211.69 243 209.38 243 207 243 C207 245.31 207 247.62 207 250 C202.05 250 197.1 250 192 250 C192 251.98 192 253.96 192 256 C130.95 256 69.9 256 7 256 C7 254.02 7 252.04 7 250 C2.05 250 -2.9 250 -8 250 C-8 247.69 -8 245.38 -8 243 C-10.31 243 -12.62 243 -15 243 C-15 240.69 -15 238.38 -15 236 C-17.31 236 -19.62 236 -22 236 C-22 233.69 -22 231.38 -22 229 C-24.31 229 -26.62 229 -29 229 C-29 163 -29 97 -29 29 C-26.69 29 -24.38 29 -22 29 C-22 26.36 -22 23.72 -22 21 C-19.69 21 -17.38 21 -15 21 C-15 18.69 -15 16.38 -15 14 C-12.69 14 -10.38 14 -8 14 C-8 11.69 -8 9.38 -8 7 C-5.36 7 -2.72 7 0 7 C0 4.69 0 2.38 0 0 Z " fill="#F0DA4E" transform="translate(29,0)"/>
<path d="M0 0 C6.93 0 13.86 0 21 0 C21 2.31 21 4.62 21 7 C27.93 7 34.86 7 42 7 C42 14.26 42 21.52 42 29 C39.69 29 37.38 29 35 29 C35 31.31 35 33.62 35 36 C32.69 36 30.38 36 28 36 C28 31.38 28 26.76 28 22 C21.07 22 14.14 22 7 22 C7 28.93 7 35.86 7 43 C9.31 43 11.62 43 14 43 C14 45.31 14 47.62 14 50 C18.62 50 23.24 50 28 50 C28 52.31 28 54.62 28 57 C32.62 57 37.24 57 42 57 C42 59.64 42 62.28 42 65 C44.64 65 47.28 65 50 65 C50 67.31 50 69.62 50 72 C52.31 72 54.62 72 57 72 C57 83.55 57 95.1 57 107 C54.69 107 52.38 107 50 107 C50 109.64 50 112.28 50 115 C45.05 115 40.1 115 35 115 C35 117.31 35 119.62 35 122 C20.81 122 6.62 122 -8 122 C-8 119.69 -8 117.38 -8 115 C-10.31 115 -12.62 115 -15 115 C-15 112.36 -15 109.72 -15 107 C-17.31 107 -19.62 107 -22 107 C-22 104.69 -22 102.38 -22 100 C-24.31 100 -26.62 100 -29 100 C-29 97.69 -29 95.38 -29 93 C-24.38 93 -19.76 93 -15 93 C-15 90.69 -15 88.38 -15 86 C-10.05 86 -5.1 86 0 86 C0 90.62 0 95.24 0 100 C9.24 100 18.48 100 28 100 C28 97.69 28 95.38 28 93 C30.31 93 32.62 93 35 93 C35 90.69 35 88.38 35 86 C32.69 86 30.38 86 28 86 C28 83.69 28 81.38 28 79 C23.38 79 18.76 79 14 79 C14 76.69 14 74.38 14 72 C11.69 72 9.38 72 7 72 C7 69.69 7 67.38 7 65 C2.05 65 -2.9 65 -8 65 C-8 62.36 -8 59.72 -8 57 C-10.31 57 -12.62 57 -15 57 C-15 54.69 -15 52.38 -15 50 C-17.31 50 -19.62 50 -22 50 C-22 40.76 -22 31.52 -22 22 C-19.69 22 -17.38 22 -15 22 C-15 19.69 -15 17.38 -15 15 C-12.69 15 -10.38 15 -8 15 C-8 12.36 -8 9.72 -8 7 C-5.36 7 -2.72 7 0 7 C0 4.69 0 2.38 0 0 Z " fill="#323330" transform="translate(179,114)"/>
<path d="M0 0 C9.57 0 19.14 0 29 0 C29 30.69 29 61.38 29 93 C26.69 93 24.38 93 22 93 C22 97.62 22 102.24 22 107 C19.69 107 17.38 107 15 107 C15 109.64 15 112.28 15 115 C12.36 115 9.72 115 7 115 C7 117.31 7 119.62 7 122 C-4.55 122 -16.1 122 -28 122 C-28 119.69 -28 117.38 -28 115 C-30.31 115 -32.62 115 -35 115 C-35 112.36 -35 109.72 -35 107 C-37.64 107 -40.28 107 -43 107 C-43 104.69 -43 102.38 -43 100 C-40.36 100 -37.72 100 -35 100 C-35 97.69 -35 95.38 -35 93 C-30.38 93 -25.76 93 -21 93 C-21 95.31 -21 97.62 -21 100 C-14.07 100 -7.14 100 0 100 C0 67 0 34 0 0 Z " fill="#323330" transform="translate(114,114)"/>
<path d="M0 0 C9.57 0 19.14 0 29 0 C29 30.69 29 61.38 29 93 C26.69 93 24.38 93 22 93 C22 64.62 22 36.24 22 7 C14.74 7 7.48 7 0 7 C0 4.69 0 2.38 0 0 Z " fill="#91873F" transform="translate(114,114)"/>
<path d="M0 0 C2.31 0 4.62 0 7 0 C7 28.38 7 56.76 7 86 C4.69 86 2.38 86 0 86 C0 57.62 0 29.24 0 0 Z " fill="#625D38" transform="translate(114,121)"/>
<path d="M0 0 C2.31 0 4.62 0 7 0 C7 9.24 7 18.48 7 28 C4.69 28 2.38 28 0 28 C0 18.76 0 9.52 0 0 Z " fill="#6D683A" transform="translate(157,136)"/>
<path d="M0 0 C7.26 0 14.52 0 22 0 C22 2.31 22 4.62 22 7 C14.74 7 7.48 7 0 7 C0 4.69 0 2.38 0 0 Z " fill="#484734" transform="translate(171,229)"/>
<path d="M0 0 C4.95 0 9.9 0 15 0 C15 2.31 15 4.62 15 7 C12.36 7 9.72 7 7 7 C7 9.31 7 11.62 7 14 C4.69 14 2.38 14 0 14 C0 9.38 0 4.76 0 0 Z " fill="#C1B147" transform="translate(64,207)"/>
<path d="M0 0 C6.93 0 13.86 0 21 0 C21 2.31 21 4.62 21 7 C14.07 7 7.14 7 0 7 C0 4.69 0 2.38 0 0 Z " fill="#D8C64B" transform="translate(93,207)"/>
<path d="M0 0 C6.93 0 13.86 0 21 0 C21 2.31 21 4.62 21 7 C14.07 7 7.14 7 0 7 C0 4.69 0 2.38 0 0 Z " fill="#B9AA46" transform="translate(186,136)"/>
<path d="M0 0 C6.93 0 13.86 0 21 0 C21 2.31 21 4.62 21 7 C14.07 7 7.14 7 0 7 C0 4.69 0 2.38 0 0 Z " fill="#736C3A" transform="translate(179,114)"/>
<path d="M0 0 C2.64 0 5.28 0 8 0 C8 4.62 8 9.24 8 14 C5.36 14 2.72 14 0 14 C0 9.38 0 4.76 0 0 Z " fill="#B6A745" transform="translate(221,129)"/>
<path d="M0 0 C4.95 0 9.9 0 15 0 C15 2.31 15 4.62 15 7 C10.05 7 5.1 7 0 7 C0 4.69 0 2.38 0 0 Z " fill="#A49843" transform="translate(164,200)"/>
<path d="M0 0 C4.62 0 9.24 0 14 0 C14 2.31 14 4.62 14 7 C9.38 7 4.76 7 0 7 C0 4.69 0 2.38 0 0 Z " fill="#4F4D35" transform="translate(86,229)"/>
<path d="M0 0 C2.31 0 4.62 0 7 0 C7 4.62 7 9.24 7 14 C4.69 14 2.38 14 0 14 C0 9.38 0 4.76 0 0 Z " fill="#CEBD49" transform="translate(136,207)"/>
<path d="M0 0 C4.62 0 9.24 0 14 0 C14 2.31 14 4.62 14 7 C9.38 7 4.76 7 0 7 C0 4.69 0 2.38 0 0 Z " fill="#BAAB46" transform="translate(179,207)"/>
<path d="M0 0 C4.62 0 9.24 0 14 0 C14 2.31 14 4.62 14 7 C9.38 7 4.76 7 0 7 C0 4.69 0 2.38 0 0 Z " fill="#988D41" transform="translate(79,200)"/>
<path d="M0 0 C2.31 0 4.62 0 7 0 C7 4.62 7 9.24 7 14 C4.69 14 2.38 14 0 14 C0 9.38 0 4.76 0 0 Z " fill="#484634" transform="translate(229,186)"/>
<path d="M0 0 C4.62 0 9.24 0 14 0 C14 2.31 14 4.62 14 7 C9.38 7 4.76 7 0 7 C0 4.69 0 2.38 0 0 Z " fill="#645F38" transform="translate(193,186)"/>
<path d="M0 0 C4.62 0 9.24 0 14 0 C14 2.31 14 4.62 14 7 C9.38 7 4.76 7 0 7 C0 4.69 0 2.38 0 0 Z " fill="#DDCA4C" transform="translate(207,164)"/>
<path d="M0 0 C4.62 0 9.24 0 14 0 C14 2.31 14 4.62 14 7 C9.38 7 4.76 7 0 7 C0 4.69 0 2.38 0 0 Z " fill="#E2CF4D" transform="translate(193,157)"/>
<path d="M0 0 C4.62 0 9.24 0 14 0 C14 2.31 14 4.62 14 7 C9.38 7 4.76 7 0 7 C0 4.69 0 2.38 0 0 Z " fill="#D0BF4A" transform="translate(200,114)"/>
<path d="M0 0 C2.64 0 5.28 0 8 0 C8 2.64 8 5.28 8 8 C5.36 8 2.72 8 0 8 C0 5.36 0 2.72 0 0 Z " fill="#736C3B" transform="translate(221,221)"/>
<path d="M0 0 C2.64 0 5.28 0 8 0 C8 2.64 8 5.28 8 8 C5.36 8 2.72 8 0 8 C0 5.36 0 2.72 0 0 Z " fill="#3E3E32" transform="translate(121,221)"/>
<path d="M0 0 C2.64 0 5.28 0 8 0 C8 2.64 8 5.28 8 8 C5.36 8 2.72 8 0 8 C0 5.36 0 2.72 0 0 Z " fill="#9F9342" transform="translate(71,221)"/>
<path d="M0 0 C2.64 0 5.28 0 8 0 C8 2.64 8 5.28 8 8 C5.36 8 2.72 8 0 8 C0 5.36 0 2.72 0 0 Z " fill="#A79B43" transform="translate(221,171)"/>
<path d="M0 0 C2.64 0 5.28 0 8 0 C8 2.64 8 5.28 8 8 C5.36 8 2.72 8 0 8 C0 5.36 0 2.72 0 0 Z " fill="#6A6439" transform="translate(171,171)"/>
<path d="M0 0 C2.64 0 5.28 0 8 0 C8 2.31 8 4.62 8 7 C5.36 7 2.72 7 0 7 C0 4.69 0 2.38 0 0 Z " fill="#9C9141" transform="translate(171,229)"/>
<path d="M0 0 C2.64 0 5.28 0 8 0 C8 2.31 8 4.62 8 7 C5.36 7 2.72 7 0 7 C0 4.69 0 2.38 0 0 Z " fill="#CCBB49" transform="translate(121,229)"/>
<path d="M0 0 C2.31 0 4.62 0 7 0 C7 2.64 7 5.28 7 8 C4.69 8 2.38 8 0 8 C0 5.36 0 2.72 0 0 Z " fill="#524F35" transform="translate(164,221)"/>
<path d="M0 0 C2.31 0 4.62 0 7 0 C7 2.64 7 5.28 7 8 C4.69 8 2.38 8 0 8 C0 5.36 0 2.72 0 0 Z " fill="#D0BF4A" transform="translate(157,221)"/>
<path d="M0 0 C2.31 0 4.62 0 7 0 C7 2.64 7 5.28 7 8 C4.69 8 2.38 8 0 8 C0 5.36 0 2.72 0 0 Z " fill="#B9AA46" transform="translate(129,221)"/>
<path d="M0 0 C2.31 0 4.62 0 7 0 C7 2.64 7 5.28 7 8 C4.69 8 2.38 8 0 8 C0 5.36 0 2.72 0 0 Z " fill="#CCCC33" transform="translate(0,221)"/>
<path d="M0 0 C2.64 0 5.28 0 8 0 C8 2.31 8 4.62 8 7 C5.36 7 2.72 7 0 7 C0 4.69 0 2.38 0 0 Z " fill="#837B3D" transform="translate(71,207)"/>
<path d="M0 0 C2.31 0 4.62 0 7 0 C7 2.64 7 5.28 7 8 C4.69 8 2.38 8 0 8 C0 5.36 0 2.72 0 0 Z " fill="#484634" transform="translate(214,171)"/>
<path d="M0 0 C2.31 0 4.62 0 7 0 C7 2.64 7 5.28 7 8 C4.69 8 2.38 8 0 8 C0 5.36 0 2.72 0 0 Z " fill="#DAC74B" transform="translate(164,171)"/>
<path d="M0 0 C2.64 0 5.28 0 8 0 C8 2.31 8 4.62 8 7 C5.36 7 2.72 7 0 7 C0 4.69 0 2.38 0 0 Z " fill="#91873F" transform="translate(221,129)"/>
<path d="M0 0 C2.31 0 4.62 0 7 0 C7 2.64 7 5.28 7 8 C4.69 8 2.38 8 0 8 C0 5.36 0 2.72 0 0 Z " fill="#91873F" transform="translate(214,121)"/>
<path d="M0 0 C2.31 0 4.62 0 7 0 C7 2.64 7 5.28 7 8 C4.69 8 2.38 8 0 8 C0 5.36 0 2.72 0 0 Z " fill="#D0BF4A" transform="translate(164,121)"/>
<path d="M0 0 C2.64 0 5.28 0 8 0 C8 2.31 8 4.62 8 7 C5.36 7 2.72 7 0 7 C0 4.69 0 2.38 0 0 Z " fill="#DFCC4C" transform="translate(171,114)"/>
<path d="M0 0 C2.64 0 5.28 0 8 0 C8 2.31 8 4.62 8 7 C5.36 7 2.72 7 0 7 C0 4.69 0 2.38 0 0 Z " fill="#CCCC33" transform="translate(221,0)"/>
<path d="M0 0 C2.31 0 4.62 0 7 0 C7 2.31 7 4.62 7 7 C4.69 7 2.38 7 0 7 C0 4.69 0 2.38 0 0 Z " fill="#AB9E44" transform="translate(214,229)"/>
<path d="M0 0 C2.31 0 4.62 0 7 0 C7 2.31 7 4.62 7 7 C4.69 7 2.38 7 0 7 C0 4.69 0 2.38 0 0 Z " fill="#5F5B37" transform="translate(207,229)"/>
<path d="M0 0 C2.31 0 4.62 0 7 0 C7 2.31 7 4.62 7 7 C4.69 7 2.38 7 0 7 C0 4.69 0 2.38 0 0 Z " fill="#484734" transform="translate(200,229)"/>
<path d="M0 0 C2.31 0 4.62 0 7 0 C7 2.31 7 4.62 7 7 C4.69 7 2.38 7 0 7 C0 4.69 0 2.38 0 0 Z " fill="#5F5B37" transform="translate(179,229)"/>
<path d="M0 0 C2.31 0 4.62 0 7 0 C7 2.31 7 4.62 7 7 C4.69 7 2.38 7 0 7 C0 4.69 0 2.38 0 0 Z " fill="#DFCC4C" transform="translate(164,229)"/>
<path d="M0 0 C2.31 0 4.62 0 7 0 C7 2.31 7 4.62 7 7 C4.69 7 2.38 7 0 7 C0 4.69 0 2.38 0 0 Z " fill="#6D683A" transform="translate(114,229)"/>
<path d="M0 0 C2.31 0 4.62 0 7 0 C7 2.31 7 4.62 7 7 C4.69 7 2.38 7 0 7 C0 4.69 0 2.38 0 0 Z " fill="#4B4934" transform="translate(107,229)"/>
<path d="M0 0 C2.31 0 4.62 0 7 0 C7 2.31 7 4.62 7 7 C4.69 7 2.38 7 0 7 C0 4.69 0 2.38 0 0 Z " fill="#7E763C" transform="translate(86,229)"/>
<path d="M0 0 C2.31 0 4.62 0 7 0 C7 2.31 7 4.62 7 7 C4.69 7 2.38 7 0 7 C0 4.69 0 2.38 0 0 Z " fill="#CAB949" transform="translate(79,229)"/>
<path d="M0 0 C2.31 0 4.62 0 7 0 C7 2.31 7 4.62 7 7 C4.69 7 2.38 7 0 7 C0 4.69 0 2.38 0 0 Z " fill="#8A813E" transform="translate(229,214)"/>
<path d="M0 0 C2.31 0 4.62 0 7 0 C7 2.31 7 4.62 7 7 C4.69 7 2.38 7 0 7 C0 4.69 0 2.38 0 0 Z " fill="#E2CF4D" transform="translate(150,214)"/>
<path d="M0 0 C2.31 0 4.62 0 7 0 C7 2.31 7 4.62 7 7 C4.69 7 2.38 7 0 7 C0 4.69 0 2.38 0 0 Z " fill="#464533" transform="translate(129,214)"/>
<path d="M0 0 C2.31 0 4.62 0 7 0 C7 2.31 7 4.62 7 7 C4.69 7 2.38 7 0 7 C0 4.69 0 2.38 0 0 Z " fill="#545136" transform="translate(229,207)"/>
<path d="M0 0 C2.31 0 4.62 0 7 0 C7 2.31 7 4.62 7 7 C4.69 7 2.38 7 0 7 C0 4.69 0 2.38 0 0 Z " fill="#424133" transform="translate(207,207)"/>
<path d="M0 0 C2.31 0 4.62 0 7 0 C7 2.31 7 4.62 7 7 C4.69 7 2.38 7 0 7 C0 4.69 0 2.38 0 0 Z " fill="#A99C43" transform="translate(200,207)"/>
<path d="M0 0 C2.31 0 4.62 0 7 0 C7 2.31 7 4.62 7 7 C4.69 7 2.38 7 0 7 C0 4.69 0 2.38 0 0 Z " fill="#91873F" transform="translate(179,207)"/>
<path d="M0 0 C2.31 0 4.62 0 7 0 C7 2.31 7 4.62 7 7 C4.69 7 2.38 7 0 7 C0 4.69 0 2.38 0 0 Z " fill="#7E763C" transform="translate(150,207)"/>
<path d="M0 0 C2.31 0 4.62 0 7 0 C7 2.31 7 4.62 7 7 C4.69 7 2.38 7 0 7 C0 4.69 0 2.38 0 0 Z " fill="#B1A345" transform="translate(136,207)"/>
<path d="M0 0 C2.31 0 4.62 0 7 0 C7 2.31 7 4.62 7 7 C4.69 7 2.38 7 0 7 C0 4.69 0 2.38 0 0 Z " fill="#9B8F41" transform="translate(107,207)"/>
<path d="M0 0 C2.31 0 4.62 0 7 0 C7 2.31 7 4.62 7 7 C4.69 7 2.38 7 0 7 C0 4.69 0 2.38 0 0 Z " fill="#AC9F44" transform="translate(93,207)"/>
<path d="M0 0 C2.31 0 4.62 0 7 0 C7 2.31 7 4.62 7 7 C4.69 7 2.38 7 0 7 C0 4.69 0 2.38 0 0 Z " fill="#414032" transform="translate(86,207)"/>
<path d="M0 0 C2.31 0 4.62 0 7 0 C7 2.31 7 4.62 7 7 C4.69 7 2.38 7 0 7 C0 4.69 0 2.38 0 0 Z " fill="#D5C34B" transform="translate(64,207)"/>
<path d="M0 0 C2.31 0 4.62 0 7 0 C7 2.31 7 4.62 7 7 C4.69 7 2.38 7 0 7 C0 4.69 0 2.38 0 0 Z " fill="#C1B147" transform="translate(207,200)"/>
<path d="M0 0 C2.31 0 4.62 0 7 0 C7 2.31 7 4.62 7 7 C4.69 7 2.38 7 0 7 C0 4.69 0 2.38 0 0 Z " fill="#6D683A" transform="translate(164,200)"/>
<path d="M0 0 C2.31 0 4.62 0 7 0 C7 2.31 7 4.62 7 7 C4.69 7 2.38 7 0 7 C0 4.69 0 2.38 0 0 Z " fill="#CAB949" transform="translate(157,200)"/>
<path d="M0 0 C2.31 0 4.62 0 7 0 C7 2.31 7 4.62 7 7 C4.69 7 2.38 7 0 7 C0 4.69 0 2.38 0 0 Z " fill="#9D9141" transform="translate(136,200)"/>
<path d="M0 0 C2.31 0 4.62 0 7 0 C7 2.31 7 4.62 7 7 C4.69 7 2.38 7 0 7 C0 4.69 0 2.38 0 0 Z " fill="#4A4834" transform="translate(114,200)"/>
<path d="M0 0 C2.31 0 4.62 0 7 0 C7 2.31 7 4.62 7 7 C4.69 7 2.38 7 0 7 C0 4.69 0 2.38 0 0 Z " fill="#BAAB46" transform="translate(79,200)"/>
<path d="M0 0 C2.31 0 4.62 0 7 0 C7 2.31 7 4.62 7 7 C4.69 7 2.38 7 0 7 C0 4.69 0 2.38 0 0 Z " fill="#625D38" transform="translate(207,193)"/>
<path d="M0 0 C2.31 0 4.62 0 7 0 C7 2.31 7 4.62 7 7 C4.69 7 2.38 7 0 7 C0 4.69 0 2.38 0 0 Z " fill="#6B6539" transform="translate(229,186)"/>
<path d="M0 0 C2.31 0 4.62 0 7 0 C7 2.31 7 4.62 7 7 C4.69 7 2.38 7 0 7 C0 4.69 0 2.38 0 0 Z " fill="#A79B43" transform="translate(193,186)"/>
<path d="M0 0 C2.31 0 4.62 0 7 0 C7 2.31 7 4.62 7 7 C4.69 7 2.38 7 0 7 C0 4.69 0 2.38 0 0 Z " fill="#B7A946" transform="translate(229,179)"/>
<path d="M0 0 C2.31 0 4.62 0 7 0 C7 2.31 7 4.62 7 7 C4.69 7 2.38 7 0 7 C0 4.69 0 2.38 0 0 Z " fill="#6A6439" transform="translate(186,179)"/>
<path d="M0 0 C2.31 0 4.62 0 7 0 C7 2.31 7 4.62 7 7 C4.69 7 2.38 7 0 7 C0 4.69 0 2.38 0 0 Z " fill="#ADA044" transform="translate(179,179)"/>
<path d="M0 0 C2.31 0 4.62 0 7 0 C7 2.31 7 4.62 7 7 C4.69 7 2.38 7 0 7 C0 4.69 0 2.38 0 0 Z " fill="#91873F" transform="translate(207,164)"/>
<path d="M0 0 C2.31 0 4.62 0 7 0 C7 2.31 7 4.62 7 7 C4.69 7 2.38 7 0 7 C0 4.69 0 2.38 0 0 Z " fill="#454433" transform="translate(200,164)"/>
<path d="M0 0 C2.31 0 4.62 0 7 0 C7 2.31 7 4.62 7 7 C4.69 7 2.38 7 0 7 C0 4.69 0 2.38 0 0 Z " fill="#6B6539" transform="translate(164,164)"/>
<path d="M0 0 C2.31 0 4.62 0 7 0 C7 2.31 7 4.62 7 7 C4.69 7 2.38 7 0 7 C0 4.69 0 2.38 0 0 Z " fill="#A09442" transform="translate(193,157)"/>
<path d="M0 0 C2.31 0 4.62 0 7 0 C7 2.31 7 4.62 7 7 C4.69 7 2.38 7 0 7 C0 4.69 0 2.38 0 0 Z " fill="#BBAC46" transform="translate(157,157)"/>
<path d="M0 0 C2.31 0 4.62 0 7 0 C7 2.31 7 4.62 7 7 C4.69 7 2.38 7 0 7 C0 4.69 0 2.38 0 0 Z " fill="#CCBB49" transform="translate(186,150)"/>
<path d="M0 0 C2.31 0 4.62 0 7 0 C7 2.31 7 4.62 7 7 C4.69 7 2.38 7 0 7 C0 4.69 0 2.38 0 0 Z " fill="#91873F" transform="translate(157,150)"/>
<path d="M0 0 C2.31 0 4.62 0 7 0 C7 2.31 7 4.62 7 7 C4.69 7 2.38 7 0 7 C0 4.69 0 2.38 0 0 Z " fill="#D3C14A" transform="translate(214,143)"/>
<path d="M0 0 C2.31 0 4.62 0 7 0 C7 2.31 7 4.62 7 7 C4.69 7 2.38 7 0 7 C0 4.69 0 2.38 0 0 Z " fill="#716B3A" transform="translate(207,143)"/>
<path d="M0 0 C2.31 0 4.62 0 7 0 C7 2.31 7 4.62 7 7 C4.69 7 2.38 7 0 7 C0 4.69 0 2.38 0 0 Z " fill="#565336" transform="translate(179,143)"/>
<path d="M0 0 C2.31 0 4.62 0 7 0 C7 2.31 7 4.62 7 7 C4.69 7 2.38 7 0 7 C0 4.69 0 2.38 0 0 Z " fill="#424133" transform="translate(214,136)"/>
<path d="M0 0 C2.31 0 4.62 0 7 0 C7 2.31 7 4.62 7 7 C4.69 7 2.38 7 0 7 C0 4.69 0 2.38 0 0 Z " fill="#91873F" transform="translate(200,136)"/>
<path d="M0 0 C2.31 0 4.62 0 7 0 C7 2.31 7 4.62 7 7 C4.69 7 2.38 7 0 7 C0 4.69 0 2.38 0 0 Z " fill="#A99C43" transform="translate(186,136)"/>
<path d="M0 0 C2.31 0 4.62 0 7 0 C7 2.31 7 4.62 7 7 C4.69 7 2.38 7 0 7 C0 4.69 0 2.38 0 0 Z " fill="#3E3E32" transform="translate(179,136)"/>
<path d="M0 0 C2.31 0 4.62 0 7 0 C7 2.31 7 4.62 7 7 C4.69 7 2.38 7 0 7 C0 4.69 0 2.38 0 0 Z " fill="#9F9342" transform="translate(157,136)"/>
<path d="M0 0 C2.31 0 4.62 0 7 0 C7 2.31 7 4.62 7 7 C4.69 7 2.38 7 0 7 C0 4.69 0 2.38 0 0 Z " fill="#524F35" transform="translate(164,129)"/>
<path d="M0 0 C2.31 0 4.62 0 7 0 C7 2.31 7 4.62 7 7 C4.69 7 2.38 7 0 7 C0 4.69 0 2.38 0 0 Z " fill="#A69A43" transform="translate(200,114)"/>
<path d="M0 0 C2.31 0 4.62 0 7 0 C7 2.31 7 4.62 7 7 C4.69 7 2.38 7 0 7 C0 4.69 0 2.38 0 0 Z " fill="#8C833F" transform="translate(179,114)"/>
</svg>
