<?xml version="1.0" encoding="UTF-8"?>
<svg version="1.1" xmlns="http://www.w3.org/2000/svg" width="256" height="256">
<path d="M0 0 C61.05 0 122.1 0 185 0 C185 2.31 185 4.62 185 7 C189.95 7 194.9 7 200 7 C200 9.31 200 11.62 200 14 C202.31 14 204.62 14 207 14 C207 16.31 207 18.62 207 21 C209.31 21 211.62 21 214 21 C214 25.95 214 30.9 214 36 C215.98 36 217.96 36 220 36 C220 97.05 220 158.1 220 221 C218.02 221 216.04 221 214 221 C214 225.95 214 230.9 214 236 C211.69 236 209.38 236 207 236 C207 238.31 207 240.62 207 243 C204.69 243 202.38 243 200 243 C200 245.31 200 247.62 200 250 C195.05 250 190.1 250 185 250 C185 251.98 185 253.96 185 256 C123.95 256 62.9 256 0 256 C0 254.02 0 252.04 0 250 C-4.95 250 -9.9 250 -15 250 C-15 247.69 -15 245.38 -15 243 C-17.31 243 -19.62 243 -22 243 C-22 240.69 -22 238.38 -22 236 C-24.31 236 -26.62 236 -29 236 C-29 231.05 -29 226.1 -29 221 C-31.31 221 -33.62 221 -36 221 C-36 159.95 -36 98.9 -36 36 C-33.69 36 -31.38 36 -29 36 C-29 31.05 -29 26.1 -29 21 C-26.69 21 -24.38 21 -22 21 C-22 18.69 -22 16.38 -22 14 C-19.69 14 -17.38 14 -15 14 C-15 11.69 -15 9.38 -15 7 C-10.05 7 -5.1 7 0 7 C0 4.69 0 2.38 0 0 Z " fill="#242938" transform="translate(36,0)"/>
<path d="M0 0 C7.26 0 14.52 0 22 0 C22 2.31 22 4.62 22 7 C24.31 7 26.62 7 29 7 C29 9.31 29 11.62 29 14 C31.31 14 33.62 14 36 14 C36 18.62 36 23.24 36 28 C38.31 28 40.62 28 43 28 C43 30.31 43 32.62 43 35 C45.31 35 47.62 35 50 35 C50 37.31 50 39.62 50 42 C52.64 42 55.28 42 58 42 C58 53.88 58 65.76 58 78 C60.31 78 62.62 78 65 78 C65 82.62 65 87.24 65 92 C67.31 92 69.62 92 72 92 C72 96.95 72 101.9 72 107 C74.31 107 76.62 107 79 107 C79 111.62 79 116.24 79 121 C81.31 121 83.62 121 86 121 C86 125.62 86 130.24 86 135 C83.69 135 81.38 135 79 135 C79 137.31 79 139.62 79 142 C76.69 142 74.38 142 72 142 C72 146.95 72 151.9 72 157 C69.69 157 67.38 157 65 157 C65 159.31 65 161.62 65 164 C62.69 164 60.38 164 58 164 C58 173.24 58 182.48 58 192 C55.36 192 52.72 192 50 192 C50 194.64 50 197.28 50 200 C40.76 200 31.52 200 22 200 C22 197.36 22 194.72 22 192 C10.12 192 -1.76 192 -14 192 C-14 189.69 -14 187.38 -14 185 C-20.93 185 -27.86 185 -35 185 C-35 182.69 -35 180.38 -35 178 C-37.31 178 -39.62 178 -42 178 C-42 175.69 -42 173.38 -42 171 C-44.64 171 -47.28 171 -50 171 C-50 168.69 -50 166.38 -50 164 C-52.31 164 -54.62 164 -57 164 C-57 161.69 -57 159.38 -57 157 C-59.31 157 -61.62 157 -64 157 C-64 154.69 -64 152.38 -64 150 C-66.31 150 -68.62 150 -71 150 C-71 140.43 -71 130.86 -71 121 C-68.69 121 -66.38 121 -64 121 C-64 116.38 -64 111.76 -64 107 C-61.69 107 -59.38 107 -57 107 C-57 102.05 -57 97.1 -57 92 C-54.69 92 -52.38 92 -50 92 C-50 80.45 -50 68.9 -50 57 C-47.36 57 -44.72 57 -42 57 C-42 52.05 -42 47.1 -42 42 C-39.69 42 -37.38 42 -35 42 C-35 39.69 -35 37.38 -35 35 C-32.69 35 -30.38 35 -28 35 C-28 32.69 -28 30.38 -28 28 C-25.69 28 -23.38 28 -21 28 C-21 25.69 -21 23.38 -21 21 C-18.69 21 -16.38 21 -14 21 C-14 18.69 -14 16.38 -14 14 C-11.69 14 -9.38 14 -7 14 C-7 11.69 -7 9.38 -7 7 C-4.69 7 -2.38 7 0 7 C0 4.69 0 2.38 0 0 Z " fill="#A47FED" transform="translate(121,29)"/>
<path d="M0 0 C2.64 0 5.28 0 8 0 C8 11.55 8 23.1 8 35 C12.62 35 17.24 35 22 35 C22 39.95 22 44.9 22 50 C24.31 50 26.62 50 29 50 C29 54.62 29 59.24 29 64 C45.5 64 62 64 79 64 C79 66.31 79 68.62 79 71 C83.62 71 88.24 71 93 71 C93 73.31 93 75.62 93 78 C95.31 78 97.62 78 100 78 C100 80.31 100 82.62 100 85 C102.64 85 105.28 85 108 85 C108 89.95 108 94.9 108 100 C110.31 100 112.62 100 115 100 C115 102.31 115 104.62 115 107 C112.69 107 110.38 107 108 107 C108 116.24 108 125.48 108 135 C105.36 135 102.72 135 100 135 C100 137.64 100 140.28 100 143 C90.76 143 81.52 143 72 143 C72 140.36 72 137.72 72 135 C60.12 135 48.24 135 36 135 C36 132.69 36 130.38 36 128 C29.07 128 22.14 128 15 128 C15 125.69 15 123.38 15 121 C12.69 121 10.38 121 8 121 C8 118.69 8 116.38 8 114 C5.36 114 2.72 114 0 114 C0 111.69 0 109.38 0 107 C-2.31 107 -4.62 107 -7 107 C-7 104.69 -7 102.38 -7 100 C-9.31 100 -11.62 100 -14 100 C-14 97.69 -14 95.38 -14 93 C-16.31 93 -18.62 93 -21 93 C-21 83.43 -21 73.86 -21 64 C-18.69 64 -16.38 64 -14 64 C-14 59.38 -14 54.76 -14 50 C-11.69 50 -9.38 50 -7 50 C-7 45.05 -7 40.1 -7 35 C-4.69 35 -2.38 35 0 35 C0 23.45 0 11.9 0 0 Z " fill="#6636C7" transform="translate(71,86)"/>
<path d="M0 0 C7.26 0 14.52 0 22 0 C22 9.24 22 18.48 22 28 C19.69 28 17.38 28 15 28 C15 32.62 15 37.24 15 42 C12.69 42 10.38 42 8 42 C8 63.45 8 84.9 8 107 C10.31 107 12.62 107 15 107 C15 109.31 15 111.62 15 114 C19.95 114 24.9 114 30 114 C29.67 116.31 29.34 118.62 29 121 C12.5 121 -4 121 -21 121 C-21 116.38 -21 111.76 -21 107 C-23.31 107 -25.62 107 -28 107 C-28 102.05 -28 97.1 -28 92 C-32.62 92 -37.24 92 -42 92 C-42 75.5 -42 59 -42 42 C-39.69 42 -37.38 42 -35 42 C-35 39.69 -35 37.38 -35 35 C-32.69 35 -30.38 35 -28 35 C-28 32.69 -28 30.38 -28 28 C-25.69 28 -23.38 28 -21 28 C-21 25.69 -21 23.38 -21 21 C-18.69 21 -16.38 21 -14 21 C-14 18.69 -14 16.38 -14 14 C-11.69 14 -9.38 14 -7 14 C-7 11.69 -7 9.38 -7 7 C-4.69 7 -2.38 7 0 7 C0 4.69 0 2.38 0 0 Z " fill="#C3ABF3" transform="translate(121,29)"/>
<path d="M0 0 C2.64 0 5.28 0 8 0 C8 4.95 8 9.9 8 15 C10.31 15 12.62 15 15 15 C15 17.31 15 19.62 15 22 C12.69 22 10.38 22 8 22 C8 31.24 8 40.48 8 50 C5.36 50 2.72 50 0 50 C0 52.64 0 55.28 0 58 C-9.24 58 -18.48 58 -28 58 C-28 55.36 -28 52.72 -28 50 C-35.26 50 -42.52 50 -50 50 C-50 47.69 -50 45.38 -50 43 C-52.31 43 -54.62 43 -57 43 C-57 38.38 -57 33.76 -57 29 C-54.69 29 -52.38 29 -50 29 C-50 26.69 -50 24.38 -50 22 C-47.36 22 -44.72 22 -42 22 C-42 17.38 -42 12.76 -42 8 C-28.14 8 -14.28 8 0 8 C0 5.36 0 2.72 0 0 Z " fill="#6A41BD" transform="translate(171,171)"/>
<path d="M0 0 C14.19 0 28.38 0 43 0 C43 2.31 43 4.62 43 7 C47.62 7 52.24 7 57 7 C57 9.31 57 11.62 57 14 C59.31 14 61.62 14 64 14 C64 18.95 64 23.9 64 29 C50.14 29 36.28 29 22 29 C22 33.62 22 38.24 22 43 C19.36 43 16.72 43 14 43 C14 45.31 14 47.62 14 50 C11.69 50 9.38 50 7 50 C7 54.62 7 59.24 7 64 C9.31 64 11.62 64 14 64 C14 66.31 14 68.62 14 71 C9.38 71 4.76 71 0 71 C0 68.69 0 66.38 0 64 C-4.62 64 -9.24 64 -14 64 C-14 61.69 -14 59.38 -14 57 C-11.69 57 -9.38 57 -7 57 C-7 50.07 -7 43.14 -7 36 C-4.69 36 -2.38 36 0 36 C0 24.12 0 12.24 0 0 Z " fill="#542BA8" transform="translate(107,150)"/>
<path d="M0 0 C2.31 0 4.62 0 7 0 C7 11.88 7 23.76 7 36 C4.69 36 2.38 36 0 36 C0 42.93 0 49.86 0 57 C-2.31 57 -4.62 57 -7 57 C-7 59.31 -7 61.62 -7 64 C-9.31 64 -11.62 64 -14 64 C-14 61.69 -14 59.38 -14 57 C-16.31 57 -18.62 57 -21 57 C-21 54.69 -21 52.38 -21 50 C-23.64 50 -26.28 50 -29 50 C-29 47.69 -29 45.38 -29 43 C-31.31 43 -33.62 43 -36 43 C-36 35.74 -36 28.48 -36 21 C-24.12 21 -12.24 21 0 21 C0 14.07 0 7.14 0 0 Z " fill="#7146C9" transform="translate(100,150)"/>
<path d="M0 0 C1.77206192 0.00015919 3.54412846 0.00585754 5.31616211 0.01586914 C6.24698105 0.01728409 7.17779999 0.01869904 8.13682556 0.02015686 C11.12241777 0.02577367 14.10793615 0.03832899 17.09350586 0.05102539 C19.11238499 0.05603823 21.13126529 0.06060151 23.15014648 0.06469727 C28.11048456 0.07489952 33.07066216 0.09447157 38.03100586 0.11352539 C38.03100586 7.04352539 38.03100586 13.97352539 38.03100586 21.11352539 C35.39100586 21.11352539 32.75100586 21.11352539 30.03100586 21.11352539 C30.03100586 23.75352539 30.03100586 26.39352539 30.03100586 29.11352539 C20.79100586 29.11352539 11.55100586 29.11352539 2.03100586 29.11352539 C2.03100586 26.47352539 2.03100586 23.83352539 2.03100586 21.11352539 C-0.27899414 21.11352539 -2.58899414 21.11352539 -4.96899414 21.11352539 C-4.99787561 17.80104352 -5.01575213 14.48859372 -5.03149414 11.17602539 C-5.03987305 10.23049805 -5.04825195 9.2849707 -5.05688477 8.31079102 C-5.06010742 7.41166992 -5.06333008 6.51254883 -5.06665039 5.58618164 C-5.07188721 4.75352783 -5.07712402 3.92087402 -5.08251953 3.06298828 C-4.86888283 -0.60559032 -3.85877397 0.11037276 0 0 Z " fill="#7F56D3" transform="translate(140.968994140625,199.886474609375)"/>
<path d="M0 0 C4.95 0 9.9 0 15 0 C15 4.62 15 9.24 15 14 C12.36 14 9.72 14 7 14 C7 16.31 7 18.62 7 21 C4.69 21 2.38 21 0 21 C0 25.62 0 30.24 0 35 C2.31 35 4.62 35 7 35 C7 37.31 7 39.62 7 42 C2.38 42 -2.24 42 -7 42 C-7 39.69 -7 37.38 -7 35 C-11.62 35 -16.24 35 -21 35 C-21 32.69 -21 30.38 -21 28 C-18.69 28 -16.38 28 -14 28 C-14 21.07 -14 14.14 -14 7 C-9.38 7 -4.76 7 0 7 C0 4.69 0 2.38 0 0 Z " fill="#5F35B2" transform="translate(114,179)"/>
<path d="M0 0 C0.86825912 0.00222061 1.73651825 0.00444122 2.63108826 0.00672913 C3.61202957 0.00680466 4.59297089 0.00688019 5.6036377 0.00695801 C6.6702916 0.01211929 7.7369455 0.01728058 8.83592224 0.02259827 C10.46520912 0.02472069 10.46520912 0.02472069 12.12741089 0.02688599 C15.61230674 0.03250403 19.09713941 0.04505959 22.58201599 0.05775452 C24.93813486 0.06276719 27.29425473 0.0673305 29.65037537 0.07142639 C35.44011063 0.08247933 41.2298088 0.09923501 47.01951599 0.12025452 C47.01951599 2.43025452 47.01951599 4.74025452 47.01951599 7.12025452 C26.22951599 7.61525452 26.22951599 7.61525452 5.01951599 8.12025452 C4.68951599 14.72025452 4.35951599 21.32025452 4.01951599 28.12025452 C-0.93048401 28.12025452 -5.88048401 28.12025452 -10.98048401 28.12025452 C-11.00731837 24.80770126 -11.02724181 21.49536269 -11.04298401 18.18275452 C-11.05136292 17.23722717 -11.05974182 16.29169983 -11.06837463 15.31752014 C-11.07159729 14.41839905 -11.07481995 13.51927795 -11.07814026 12.59291077 C-11.08337708 11.76025696 -11.08861389 10.92760315 -11.0940094 10.06971741 C-10.98048401 8.12025452 -10.98048401 8.12025452 -9.98048401 7.12025452 C-7.64750968 7.07932514 -5.31343176 7.07783728 -2.98048401 7.12025452 C-3.00110901 6.15087952 -3.02173401 5.18150452 -3.04298401 4.18275452 C-2.96129124 0.1798089 -2.96129124 0.1798089 0 0 Z " fill="#734AC6" transform="translate(131.98048400878906,192.87974548339844)"/>
<path d="M0 0 C6.93 0 13.86 0 21 0 C21 6.93 21 13.86 21 21 C18.69 21 16.38 21 14 21 C14 23.31 14 25.62 14 28 C11.69 28 9.38 28 7 28 C7 25.69 7 23.38 7 21 C4.69 21 2.38 21 0 21 C0 14.07 0 7.14 0 0 Z " fill="#8E67DC" transform="translate(79,186)"/>
<path d="M0 0 C9.57 0 19.14 0 29 0 C29 2.31 29 4.62 29 7 C22.07 7 15.14 7 8 7 C8 11.62 8 16.24 8 21 C5.36 21 2.72 21 0 21 C0 14.07 0 7.14 0 0 Z " fill="#7D53D1" transform="translate(71,179)"/>
<path d="M0 0 C6.93 0 13.86 0 21 0 C21 6.93 21 13.86 21 21 C18.69 21 16.38 21 14 21 C14 16.38 14 11.76 14 7 C9.38 7 4.76 7 0 7 C0 4.69 0 2.38 0 0 Z " fill="#855DD6" transform="translate(79,186)"/>
<path d="M0 0 C9.24 0 18.48 0 28 0 C28 2.64 28 5.28 28 8 C18.76 8 9.52 8 0 8 C0 5.36 0 2.72 0 0 Z " fill="#694DAC" transform="translate(143,221)"/>
<path d="M0 0 C2.64 0 5.28 0 8 0 C8 9.24 8 18.48 8 28 C5.36 28 2.72 28 0 28 C0 18.76 0 9.52 0 0 Z " fill="#886FC2" transform="translate(71,86)"/>
<path d="M0 0 C9.24 0 18.48 0 28 0 C28 2.31 28 4.62 28 7 C18.76 7 9.52 7 0 7 C0 4.69 0 2.38 0 0 Z " fill="#8B62DF" transform="translate(143,214)"/>
<path d="M0 0 C2.31 0 4.62 0 7 0 C7 9.24 7 18.48 7 28 C4.69 28 2.38 28 0 28 C0 18.76 0 9.52 0 0 Z " fill="#664F9F" transform="translate(179,79)"/>
<path d="M0 0 C7.26 0 14.52 0 22 0 C22 2.31 22 4.62 22 7 C14.74 7 7.48 7 0 7 C0 4.69 0 2.38 0 0 Z " fill="#896DC9" transform="translate(121,29)"/>
<path d="M0 0 C2.31 0 4.62 0 7 0 C7 2.31 7 4.62 7 7 C9.31 7 11.62 7 14 7 C14 9.31 14 11.62 14 14 C9.38 14 4.76 14 0 14 C0 9.38 0 4.76 0 0 Z " fill="#8756E8" transform="translate(143,36)"/>
<path d="M0 0 C4.62 0 9.24 0 14 0 C14 2.64 14 5.28 14 8 C9.38 8 4.76 8 0 8 C0 5.36 0 2.72 0 0 Z " fill="#5A4592" transform="translate(143,221)"/>
<path d="M0 0 C2.64 0 5.28 0 8 0 C8 4.62 8 9.24 8 14 C5.36 14 2.72 14 0 14 C0 9.38 0 4.76 0 0 Z " fill="#655497" transform="translate(71,86)"/>
<path d="M0 0 C4.62 0 9.24 0 14 0 C14 2.31 14 4.62 14 7 C9.38 7 4.76 7 0 7 C0 4.69 0 2.38 0 0 Z " fill="#4F378A" transform="translate(107,214)"/>
<path d="M0 0 C4.62 0 9.24 0 14 0 C14 2.31 14 4.62 14 7 C9.38 7 4.76 7 0 7 C0 4.69 0 2.38 0 0 Z " fill="#3C2F6A" transform="translate(93,214)"/>
<path d="M0 0 C2.31 0 4.62 0 7 0 C7 4.62 7 9.24 7 14 C4.69 14 2.38 14 0 14 C0 9.38 0 4.76 0 0 Z " fill="#3A355B" transform="translate(179,193)"/>
<path d="M0 0 C2.31 0 4.62 0 7 0 C7 4.62 7 9.24 7 14 C4.69 14 2.38 14 0 14 C0 9.38 0 4.76 0 0 Z " fill="#5432A2" transform="translate(50,150)"/>
<path d="M0 0 C2.31 0 4.62 0 7 0 C7 4.62 7 9.24 7 14 C4.69 14 2.38 14 0 14 C0 9.38 0 4.76 0 0 Z " fill="#5830AF" transform="translate(57,136)"/>
<path d="M0 0 C2.64 0 5.28 0 8 0 C8 2.64 8 5.28 8 8 C5.36 8 2.72 8 0 8 C0 5.36 0 2.72 0 0 Z " fill="#2E2D4A" transform="translate(171,221)"/>
<path d="M0 0 C2.64 0 5.28 0 8 0 C8 2.64 8 5.28 8 8 C5.36 8 2.72 8 0 8 C0 5.36 0 2.72 0 0 Z " fill="#7F57CF" transform="translate(171,171)"/>
<path d="M0 0 C2.64 0 5.28 0 8 0 C8 2.64 8 5.28 8 8 C5.36 8 2.72 8 0 8 C0 5.36 0 2.72 0 0 Z " fill="#7757BF" transform="translate(171,71)"/>
<path d="M0 0 C2.31 0 4.62 0 7 0 C7 2.64 7 5.28 7 8 C4.69 8 2.38 8 0 8 C0 5.36 0 2.72 0 0 Z " fill="#7457B8" transform="translate(157,221)"/>
<path d="M0 0 C2.31 0 4.62 0 7 0 C7 2.64 7 5.28 7 8 C4.69 8 2.38 8 0 8 C0 5.36 0 2.72 0 0 Z " fill="#41366A" transform="translate(143,221)"/>
<path d="M0 0 C2.64 0 5.28 0 8 0 C8 2.31 8 4.62 8 7 C5.36 7 2.72 7 0 7 C0 4.69 0 2.38 0 0 Z " fill="#6347A2" transform="translate(171,214)"/>
<path d="M0 0 C2.64 0 5.28 0 8 0 C8 2.31 8 4.62 8 7 C5.36 7 2.72 7 0 7 C0 4.69 0 2.38 0 0 Z " fill="#6040A6" transform="translate(121,214)"/>
<path d="M0 0 C2.64 0 5.28 0 8 0 C8 2.31 8 4.62 8 7 C5.36 7 2.72 7 0 7 C0 4.69 0 2.38 0 0 Z " fill="#7753C2" transform="translate(171,207)"/>
<path d="M0 0 C2.64 0 5.28 0 8 0 C8 2.31 8 4.62 8 7 C5.36 7 2.72 7 0 7 C0 4.69 0 2.38 0 0 Z " fill="#684BAD" transform="translate(71,193)"/>
<path d="M0 0 C2.31 0 4.62 0 7 0 C7 2.64 7 5.28 7 8 C4.69 8 2.38 8 0 8 C0 5.36 0 2.72 0 0 Z " fill="#4F4677" transform="translate(193,171)"/>
<path d="M0 0 C2.31 0 4.62 0 7 0 C7 2.64 7 5.28 7 8 C4.69 8 2.38 8 0 8 C0 5.36 0 2.72 0 0 Z " fill="#4F3394" transform="translate(50,171)"/>
<path d="M0 0 C2.31 0 4.62 0 7 0 C7 2.64 7 5.28 7 8 C4.69 8 2.38 8 0 8 C0 5.36 0 2.72 0 0 Z " fill="#715BAA" transform="translate(186,121)"/>
<path d="M0 0 C2.31 0 4.62 0 7 0 C7 2.64 7 5.28 7 8 C4.69 8 2.38 8 0 8 C0 5.36 0 2.72 0 0 Z " fill="#895FDD" transform="translate(86,121)"/>
<path d="M0 0 C2.31 0 4.62 0 7 0 C7 2.64 7 5.28 7 8 C4.69 8 2.38 8 0 8 C0 5.36 0 2.72 0 0 Z " fill="#452B8A" transform="translate(64,121)"/>
<path d="M0 0 C2.64 0 5.28 0 8 0 C8 2.31 8 4.62 8 7 C5.36 7 2.72 7 0 7 C0 4.69 0 2.38 0 0 Z " fill="#C6B0F4" transform="translate(121,114)"/>
<path d="M0 0 C2.64 0 5.28 0 8 0 C8 2.31 8 4.62 8 7 C5.36 7 2.72 7 0 7 C0 4.69 0 2.38 0 0 Z " fill="#B699F1" transform="translate(121,100)"/>
<path d="M0 0 C2.64 0 5.28 0 8 0 C8 2.31 8 4.62 8 7 C5.36 7 2.72 7 0 7 C0 4.69 0 2.38 0 0 Z " fill="#7A64B2" transform="translate(71,100)"/>
<path d="M0 0 C2.64 0 5.28 0 8 0 C8 2.31 8 4.62 8 7 C5.36 7 2.72 7 0 7 C0 4.69 0 2.38 0 0 Z " fill="#50457A" transform="translate(71,86)"/>
<path d="M0 0 C2.64 0 5.28 0 8 0 C8 2.31 8 4.62 8 7 C5.36 7 2.72 7 0 7 C0 4.69 0 2.38 0 0 Z " fill="#3A365A" transform="translate(71,79)"/>
<path d="M0 0 C2.31 0 4.62 0 7 0 C7 2.64 7 5.28 7 8 C4.69 8 2.38 8 0 8 C0 5.36 0 2.72 0 0 Z " fill="#AB88EF" transform="translate(129,71)"/>
<path d="M0 0 C2.31 0 4.62 0 7 0 C7 2.64 7 5.28 7 8 C4.69 8 2.38 8 0 8 C0 5.36 0 2.72 0 0 Z " fill="#A086D8" transform="translate(79,71)"/>
<path d="M0 0 C2.64 0 5.28 0 8 0 C8 2.31 8 4.62 8 7 C5.36 7 2.72 7 0 7 C0 4.69 0 2.38 0 0 Z " fill="#353253" transform="translate(171,64)"/>
<path d="M0 0 C2.64 0 5.28 0 8 0 C8 2.31 8 4.62 8 7 C5.36 7 2.72 7 0 7 C0 4.69 0 2.38 0 0 Z " fill="#6F59A5" transform="translate(121,29)"/>
<path d="M0 0 C2.64 0 5.28 0 8 0 C7.67 2.31 7.34 4.62 7 7 C4.69 7.33 2.38 7.66 0 8 C0 5.36 0 2.72 0 0 Z " fill="#8C5FE8" transform="translate(143,50)"/>
<path d="M0 0 C2.31 0 4.62 0 7 0 C7 2.31 7 4.62 7 7 C4.69 7.33 2.38 7.66 0 8 C0 5.36 0 2.72 0 0 Z " fill="#9971EB" transform="translate(129,86)"/>
<path d="M0 0 C2.31 0 4.62 0 7 0 C7 2.31 7 4.62 7 7 C4.69 7.33 2.38 7.66 0 8 C0 5.36 0 2.72 0 0 Z " fill="#966DEA" transform="translate(136,64)"/>
<path d="M0 0 C2.31 0 4.62 0 7 0 C7 2.31 7 4.62 7 7 C4.69 7 2.38 7 0 7 C0 4.69 0 2.38 0 0 Z " fill="#45327A" transform="translate(107,214)"/>
<path d="M0 0 C2.31 0 4.62 0 7 0 C7 2.31 7 4.62 7 7 C4.69 7 2.38 7 0 7 C0 4.69 0 2.38 0 0 Z " fill="#312A53" transform="translate(93,214)"/>
<path d="M0 0 C2.31 0 4.62 0 7 0 C7 2.31 7 4.62 7 7 C4.69 7 2.38 7 0 7 C0 4.69 0 2.38 0 0 Z " fill="#673DBB" transform="translate(93,207)"/>
<path d="M0 0 C2.31 0 4.62 0 7 0 C7 2.31 7 4.62 7 7 C4.69 7 2.38 7 0 7 C0 4.69 0 2.38 0 0 Z " fill="#7F63BE" transform="translate(86,207)"/>
<path d="M0 0 C2.31 0 4.62 0 7 0 C7 2.31 7 4.62 7 7 C4.69 7 2.38 7 0 7 C0 4.69 0 2.38 0 0 Z " fill="#7B54CA" transform="translate(93,200)"/>
<path d="M0 0 C2.31 0 4.62 0 7 0 C7 2.31 7 4.62 7 7 C4.69 7 2.38 7 0 7 C0 4.69 0 2.38 0 0 Z " fill="#9A75E5" transform="translate(86,200)"/>
<path d="M0 0 C2.31 0 4.62 0 7 0 C7 2.31 7 4.62 7 7 C4.69 7 2.38 7 0 7 C0 4.69 0 2.38 0 0 Z " fill="#7356B4" transform="translate(79,200)"/>
<path d="M0 0 C2.31 0 4.62 0 7 0 C7 2.31 7 4.62 7 7 C4.69 7 2.38 7 0 7 C0 4.69 0 2.38 0 0 Z " fill="#543E8B" transform="translate(179,193)"/>
<path d="M0 0 C2.31 0 4.62 0 7 0 C7 2.31 7 4.62 7 7 C4.69 7 2.38 7 0 7 C0 4.69 0 2.38 0 0 Z " fill="#343351" transform="translate(186,186)"/>
<path d="M0 0 C2.31 0 4.62 0 7 0 C7 2.31 7 4.62 7 7 C4.69 7 2.38 7 0 7 C0 4.69 0 2.38 0 0 Z " fill="#6F4DB7" transform="translate(179,186)"/>
<path d="M0 0 C2.31 0 4.62 0 7 0 C7 2.31 7 4.62 7 7 C4.69 7 2.38 7 0 7 C0 4.69 0 2.38 0 0 Z " fill="#673FB8" transform="translate(100,186)"/>
<path d="M0 0 C2.31 0 4.62 0 7 0 C7 2.31 7 4.62 7 7 C4.69 7 2.38 7 0 7 C0 4.69 0 2.38 0 0 Z " fill="#6142A6" transform="translate(64,186)"/>
<path d="M0 0 C2.31 0 4.62 0 7 0 C7 2.31 7 4.62 7 7 C4.69 7 2.38 7 0 7 C0 4.69 0 2.38 0 0 Z " fill="#7D67B2" transform="translate(186,179)"/>
<path d="M0 0 C2.31 0 4.62 0 7 0 C7 2.31 7 4.62 7 7 C4.69 7 2.38 7 0 7 C0 4.69 0 2.38 0 0 Z " fill="#9772E1" transform="translate(179,179)"/>
<path d="M0 0 C2.31 0 4.62 0 7 0 C7 2.31 7 4.62 7 7 C4.69 7 2.38 7 0 7 C0 4.69 0 2.38 0 0 Z " fill="#5939A2" transform="translate(57,179)"/>
<path d="M0 0 C2.31 0 4.62 0 7 0 C7 2.31 7 4.62 7 7 C4.69 7 2.38 7 0 7 C0 4.69 0 2.38 0 0 Z " fill="#9377D0" transform="translate(193,164)"/>
<path d="M0 0 C2.31 0 4.62 0 7 0 C7 2.31 7 4.62 7 7 C4.69 7 2.38 7 0 7 C0 4.69 0 2.38 0 0 Z " fill="#6A569E" transform="translate(200,157)"/>
<path d="M0 0 C2.31 0 4.62 0 7 0 C7 2.31 7 4.62 7 7 C4.69 7 2.38 7 0 7 C0 4.69 0 2.38 0 0 Z " fill="#C5AEF4" transform="translate(164,157)"/>
<path d="M0 0 C2.31 0 4.62 0 7 0 C7 2.31 7 4.62 7 7 C4.69 7 2.38 7 0 7 C0 4.69 0 2.38 0 0 Z " fill="#7955BE" transform="translate(157,157)"/>
<path d="M0 0 C2.31 0 4.62 0 7 0 C7 2.31 7 4.62 7 7 C4.69 7 2.38 7 0 7 C0 4.69 0 2.38 0 0 Z " fill="#8F73CE" transform="translate(200,150)"/>
<path d="M0 0 C2.31 0 4.62 0 7 0 C7 2.31 7 4.62 7 7 C4.69 7 2.38 7 0 7 C0 4.69 0 2.38 0 0 Z " fill="#BEA4F2" transform="translate(157,150)"/>
<path d="M0 0 C2.31 0 4.62 0 7 0 C7 2.31 7 4.62 7 7 C4.69 7 2.38 7 0 7 C0 4.69 0 2.38 0 0 Z " fill="#8F70D0" transform="translate(150,150)"/>
<path d="M0 0 C2.31 0 4.62 0 7 0 C7 2.31 7 4.62 7 7 C4.69 7 2.38 7 0 7 C0 4.69 0 2.38 0 0 Z " fill="#5F36B0" transform="translate(143,150)"/>
<path d="M0 0 C2.31 0 4.62 0 7 0 C7 2.31 7 4.62 7 7 C4.69 7 2.38 7 0 7 C0 4.69 0 2.38 0 0 Z " fill="#5B32AE" transform="translate(107,150)"/>
<path d="M0 0 C2.31 0 4.62 0 7 0 C7 2.31 7 4.62 7 7 C4.69 7 2.38 7 0 7 C0 4.69 0 2.38 0 0 Z " fill="#7850C9" transform="translate(100,150)"/>
<path d="M0 0 C2.31 0 4.62 0 7 0 C7 2.31 7 4.62 7 7 C4.69 7 2.38 7 0 7 C0 4.69 0 2.38 0 0 Z " fill="#3C2D6E" transform="translate(50,150)"/>
<path d="M0 0 C2.31 0 4.62 0 7 0 C7 2.31 7 4.62 7 7 C4.69 7 2.38 7 0 7 C0 4.69 0 2.38 0 0 Z " fill="#50457A" transform="translate(200,143)"/>
<path d="M0 0 C2.31 0 4.62 0 7 0 C7 2.31 7 4.62 7 7 C4.69 7 2.38 7 0 7 C0 4.69 0 2.38 0 0 Z " fill="#C8B3F1" transform="translate(114,143)"/>
<path d="M0 0 C2.31 0 4.62 0 7 0 C7 2.31 7 4.62 7 7 C4.69 7 2.38 7 0 7 C0 4.69 0 2.38 0 0 Z " fill="#B296EB" transform="translate(100,143)"/>
<path d="M0 0 C2.31 0 4.62 0 7 0 C7 2.31 7 4.62 7 7 C4.69 7 2.38 7 0 7 C0 4.69 0 2.38 0 0 Z " fill="#8066BB" transform="translate(193,136)"/>
<path d="M0 0 C2.31 0 4.62 0 7 0 C7 2.31 7 4.62 7 7 C4.69 7 2.38 7 0 7 C0 4.69 0 2.38 0 0 Z " fill="#C8B3F3" transform="translate(100,136)"/>
<path d="M0 0 C2.31 0 4.62 0 7 0 C7 2.31 7 4.62 7 7 C4.69 7 2.38 7 0 7 C0 4.69 0 2.38 0 0 Z " fill="#412C7C" transform="translate(57,136)"/>
<path d="M0 0 C2.31 0 4.62 0 7 0 C7 2.31 7 4.62 7 7 C4.69 7 2.38 7 0 7 C0 4.69 0 2.38 0 0 Z " fill="#413B64" transform="translate(193,129)"/>
<path d="M0 0 C2.31 0 4.62 0 7 0 C7 2.31 7 4.62 7 7 C4.69 7 2.38 7 0 7 C0 4.69 0 2.38 0 0 Z " fill="#A483E6" transform="translate(93,129)"/>
<path d="M0 0 C2.31 0 4.62 0 7 0 C7 2.31 7 4.62 7 7 C4.69 7 2.38 7 0 7 C0 4.69 0 2.38 0 0 Z " fill="#5C2DBB" transform="translate(64,129)"/>
<path d="M0 0 C2.31 0 4.62 0 7 0 C7 2.31 7 4.62 7 7 C4.69 7 2.38 7 0 7 C0 4.69 0 2.38 0 0 Z " fill="#3B385B" transform="translate(186,114)"/>
<path d="M0 0 C2.31 0 4.62 0 7 0 C7 2.31 7 4.62 7 7 C4.69 7 2.38 7 0 7 C0 4.69 0 2.38 0 0 Z " fill="#9A75E5" transform="translate(79,114)"/>
<path d="M0 0 C2.31 0 4.62 0 7 0 C7 2.31 7 4.62 7 7 C4.69 7 2.38 7 0 7 C0 4.69 0 2.38 0 0 Z " fill="#2F2A51" transform="translate(64,114)"/>
<path d="M0 0 C2.31 0 4.62 0 7 0 C7 2.31 7 4.62 7 7 C4.69 7 2.38 7 0 7 C0 4.69 0 2.38 0 0 Z " fill="#8D6ED0" transform="translate(179,107)"/>
<path d="M0 0 C2.31 0 4.62 0 7 0 C7 2.31 7 4.62 7 7 C4.69 7 2.38 7 0 7 C0 4.69 0 2.38 0 0 Z " fill="#4C3D7D" transform="translate(179,79)"/>
<path d="M0 0 C2.31 0 4.62 0 7 0 C7 2.31 7 4.62 7 7 C4.69 7 2.38 7 0 7 C0 4.69 0 2.38 0 0 Z " fill="#835BD5" transform="translate(164,64)"/>
<path d="M0 0 C2.31 0 4.62 0 7 0 C7 2.31 7 4.62 7 7 C4.69 7 2.38 7 0 7 C0 4.69 0 2.38 0 0 Z " fill="#5A4E85" transform="translate(79,64)"/>
<path d="M0 0 C2.31 0 4.62 0 7 0 C7 2.31 7 4.62 7 7 C4.69 7 2.38 7 0 7 C0 4.69 0 2.38 0 0 Z " fill="#42396A" transform="translate(164,57)"/>
<path d="M0 0 C2.31 0 4.62 0 7 0 C7 2.31 7 4.62 7 7 C4.69 7 2.38 7 0 7 C0 4.69 0 2.38 0 0 Z " fill="#AA8FE5" transform="translate(93,57)"/>
<path d="M0 0 C2.31 0 4.62 0 7 0 C7 2.31 7 4.62 7 7 C4.69 7 2.38 7 0 7 C0 4.69 0 2.38 0 0 Z " fill="#504677" transform="translate(86,57)"/>
<path d="M0 0 C2.31 0 4.62 0 7 0 C7 2.31 7 4.62 7 7 C4.69 7 2.38 7 0 7 C0 4.69 0 2.38 0 0 Z " fill="#4D3D80" transform="translate(157,50)"/>
<path d="M0 0 C2.31 0 4.62 0 7 0 C7 2.31 7 4.62 7 7 C4.69 7 2.38 7 0 7 C0 4.69 0 2.38 0 0 Z " fill="#9D80D7" transform="translate(100,50)"/>
<path d="M0 0 C2.31 0 4.62 0 7 0 C7 2.31 7 4.62 7 7 C4.69 7 2.38 7 0 7 C0 4.69 0 2.38 0 0 Z " fill="#403B60" transform="translate(93,50)"/>
<path d="M0 0 C2.31 0 4.62 0 7 0 C7 2.31 7 4.62 7 7 C4.69 7 2.38 7 0 7 C0 4.69 0 2.38 0 0 Z " fill="#5E42A4" transform="translate(150,43)"/>
<path d="M0 0 C2.31 0 4.62 0 7 0 C7 2.31 7 4.62 7 7 C4.69 7 2.38 7 0 7 C0 4.69 0 2.38 0 0 Z " fill="#8D74C9" transform="translate(107,43)"/>
<path d="M0 0 C2.31 0 4.62 0 7 0 C7 2.31 7 4.62 7 7 C4.69 7 2.38 7 0 7 C0 4.69 0 2.38 0 0 Z " fill="#2F304A" transform="translate(100,43)"/>
<path d="M0 0 C2.31 0 4.62 0 7 0 C7 2.31 7 4.62 7 7 C4.69 7 2.38 7 0 7 C0 4.69 0 2.38 0 0 Z " fill="#774BD2" transform="translate(143,36)"/>
<path d="M0 0 C2.31 0 4.62 0 7 0 C7 2.31 7 4.62 7 7 C4.69 7 2.38 7 0 7 C0 4.69 0 2.38 0 0 Z " fill="#7E66B7" transform="translate(114,36)"/>
<path d="M0 0 C2.31 0 4.62 0 7 0 C7 2.31 7 4.62 7 7 C4.69 7 2.38 7 0 7 C0 4.69 0 2.38 0 0 Z " fill="#A27CED" transform="translate(129,29)"/>
</svg>
