<?xml version="1.0" encoding="UTF-8"?>
<svg version="1.1" xmlns="http://www.w3.org/2000/svg" width="256" height="256">
<path d="M0 0 C66 0 132 0 200 0 C200 2.31 200 4.62 200 7 C202.31 7 204.62 7 207 7 C207 9.31 207 11.62 207 14 C209.31 14 211.62 14 214 14 C214 16.31 214 18.62 214 21 C216.31 21 218.62 21 221 21 C221 25.95 221 30.9 221 36 C222.98 36 224.96 36 227 36 C227 97.05 227 158.1 227 221 C225.02 221 223.04 221 221 221 C221 225.95 221 230.9 221 236 C218.69 236 216.38 236 214 236 C214 238.31 214 240.62 214 243 C211.69 243 209.38 243 207 243 C207 245.31 207 247.62 207 250 C202.05 250 197.1 250 192 250 C192 251.98 192 253.96 192 256 C130.95 256 69.9 256 7 256 C7 254.02 7 252.04 7 250 C2.05 250 -2.9 250 -8 250 C-8 247.69 -8 245.38 -8 243 C-10.31 243 -12.62 243 -15 243 C-15 240.69 -15 238.38 -15 236 C-17.31 236 -19.62 236 -22 236 C-22 233.69 -22 231.38 -22 229 C-24.31 229 -26.62 229 -29 229 C-29 163 -29 97 -29 29 C-26.69 29 -24.38 29 -22 29 C-22 26.36 -22 23.72 -22 21 C-19.69 21 -17.38 21 -15 21 C-15 18.69 -15 16.38 -15 14 C-12.69 14 -10.38 14 -8 14 C-8 11.69 -8 9.38 -8 7 C-5.36 7 -2.72 7 0 7 C0 4.69 0 2.38 0 0 Z " fill="#232938" transform="translate(29,0)"/>
<path d="M0 0 C42.57 0 85.14 0 129 0 C129 2.31 129 4.62 129 7 C131.31 7 133.62 7 136 7 C136 9.31 136 11.62 136 14 C138.31 14 140.62 14 143 14 C143 16.31 143 18.62 143 21 C145.31 21 147.62 21 150 21 C150 30.57 150 40.14 150 50 C147.69 50 145.38 50 143 50 C143 56.93 143 63.86 143 71 C140.69 71 138.38 71 136 71 C136 75.95 136 80.9 136 86 C133.69 86 131.38 86 129 86 C129 90.62 129 95.24 129 100 C135.93 100 142.86 100 150 100 C150 102.31 150 104.62 150 107 C147.69 107 145.38 107 143 107 C143 109.31 143 111.62 143 114 C140.69 114 138.38 114 136 114 C136 116.31 136 118.62 136 121 C129.07 121 122.14 121 115 121 C115 123.31 115 125.62 115 128 C112.36 128 109.72 128 107 128 C107 139.88 107 151.76 107 164 C104.69 164 102.38 164 100 164 C100 166.31 100 168.62 100 171 C88.45 171 76.9 171 65 171 C65 166.38 65 161.76 65 157 C62.36 157 59.72 157 57 157 C57 147.43 57 137.86 57 128 C47.76 128 38.52 128 29 128 C29 125.69 29 123.38 29 121 C26.69 121 24.38 121 22 121 C22 123.31 22 125.62 22 128 C17.05 128 12.1 128 7 128 C7 125.69 7 123.38 7 121 C4.69 121 2.38 121 0 121 C0 116.38 0 111.76 0 107 C-2.31 107 -4.62 107 -7 107 C-7 100.07 -7 93.14 -7 86 C-9.31 86 -11.62 86 -14 86 C-14 76.43 -14 66.86 -14 57 C-16.31 57 -18.62 57 -21 57 C-21 45.12 -21 33.24 -21 21 C-18.69 21 -16.38 21 -14 21 C-14 18.69 -14 16.38 -14 14 C-11.69 14 -9.38 14 -7 14 C-7 11.69 -7 9.38 -7 7 C-4.69 7 -2.38 7 0 7 C0 4.69 0 2.38 0 0 Z " fill="#A7BCCE" transform="translate(64,43)"/>
<path d="M0 0 C42.57 0 85.14 0 129 0 C129 2.31 129 4.62 129 7 C131.31 7 133.62 7 136 7 C136 9.31 136 11.62 136 14 C138.31 14 140.62 14 143 14 C143 16.31 143 18.62 143 21 C145.31 21 147.62 21 150 21 C150 30.57 150 40.14 150 50 C147.69 50 145.38 50 143 50 C143 56.93 143 63.86 143 71 C140.69 71 138.38 71 136 71 C136 75.95 136 80.9 136 86 C131.38 86 126.76 86 122 86 C122 69.5 122 53 122 36 C119.69 36 117.38 36 115 36 C115 31.05 115 26.1 115 21 C112.36 21 109.72 21 107 21 C107 18.69 107 16.38 107 14 C104.69 14 102.38 14 100 14 C100 18.62 100 23.24 100 28 C102.31 28 104.62 28 107 28 C107 30.64 107 33.28 107 36 C104.69 36 102.38 36 100 36 C100 38.31 100 40.62 100 43 C97.69 43 95.38 43 93 43 C93 52.24 93 61.48 93 71 C95.31 71 97.62 71 100 71 C100 78.26 100 85.52 100 93 C102.31 93 104.62 93 107 93 C107 97.62 107 102.24 107 107 C93.14 107 79.28 107 65 107 C65 104.69 65 102.38 65 100 C62.36 100 59.72 100 57 100 C57 97.69 57 95.38 57 93 C59.64 93 62.28 93 65 93 C65 76.5 65 60 65 43 C60.05 43 55.1 43 50 43 C50 31.12 50 19.24 50 7 C45.38 7 40.76 7 36 7 C36 11.62 36 16.24 36 21 C33.69 21 31.38 21 29 21 C29 49.38 29 77.76 29 107 C26.69 107 24.38 107 22 107 C22 109.31 22 111.62 22 114 C17.05 114 12.1 114 7 114 C7 109.38 7 104.76 7 100 C4.69 100 2.38 100 0 100 C0 92.74 0 85.48 0 78 C-2.31 78 -4.62 78 -7 78 C-7 54.57 -7 31.14 -7 7 C-4.69 7 -2.38 7 0 7 C0 4.69 0 2.38 0 0 Z " fill="#7E93A6" transform="translate(64,43)"/>
<path d="M0 0 C7.26 0 14.52 0 22 0 C22 2.31 22 4.62 22 7 C28.93 7 35.86 7 43 7 C43 11.62 43 16.24 43 21 C45.31 21 47.62 21 50 21 C50 23.64 50 26.28 50 29 C47.69 29 45.38 29 43 29 C43 31.31 43 33.62 43 36 C40.69 36 38.38 36 36 36 C36 45.24 36 54.48 36 64 C38.31 64 40.62 64 43 64 C43 71.26 43 78.52 43 86 C45.31 86 47.62 86 50 86 C50 90.62 50 95.24 50 100 C36.14 100 22.28 100 8 100 C8 97.69 8 95.38 8 93 C5.36 93 2.72 93 0 93 C0 90.69 0 88.38 0 86 C2.64 86 5.28 86 8 86 C8 69.5 8 53 8 36 C3.05 36 -1.9 36 -7 36 C-7 26.43 -7 16.86 -7 7 C-4.69 7 -2.38 7 0 7 C0 4.69 0 2.38 0 0 Z " fill="#336791" transform="translate(121,50)"/>
<path d="M0 0 C11.88 0 23.76 0 36 0 C36 30.69 36 61.38 36 93 C33.69 93 31.38 93 29 93 C29 95.31 29 97.62 29 100 C24.05 100 19.1 100 14 100 C14 95.38 14 90.76 14 86 C11.69 86 9.38 86 7 86 C7 78.74 7 71.48 7 64 C4.69 64 2.38 64 0 64 C0 42.88 0 21.76 0 0 Z " fill="#336791" transform="translate(57,57)"/>
<path d="M0 0 C6.93 0 13.86 0 21 0 C21 4.62 21 9.24 21 14 C23.64 14 26.28 14 29 14 C29 11.69 29 9.38 29 7 C42.86 7 56.72 7 71 7 C71 9.31 71 11.62 71 14 C73.64 14 76.28 14 79 14 C79 16.31 79 18.62 79 21 C76.36 21 73.72 21 71 21 C71 32.88 71 44.76 71 57 C68.69 57 66.38 57 64 57 C64 59.31 64 61.62 64 64 C52.45 64 40.9 64 29 64 C29 59.38 29 54.76 29 50 C26.36 50 23.72 50 21 50 C21 40.43 21 30.86 21 21 C11.76 21 2.52 21 -7 21 C-7 18.69 -7 16.38 -7 14 C-2.38 14 2.24 14 7 14 C7 11.69 7 9.38 7 7 C4.69 7 2.38 7 0 7 C0 4.69 0 2.38 0 0 Z " fill="#8094A7" transform="translate(100,150)"/>
<path d="M0 0 C4.62 0 9.24 0 14 0 C14 11.88 14 23.76 14 36 C18.95 36 23.9 36 29 36 C29 52.5 29 69 29 86 C24.05 86 19.1 86 14 86 C14 88.31 14 90.62 14 93 C11.69 93 9.38 93 7 93 C7 88.38 7 83.76 7 79 C2.38 79 -2.24 79 -7 79 C-7 57.55 -7 36.1 -7 14 C-4.69 14 -2.38 14 0 14 C0 9.38 0 4.76 0 0 Z " fill="#8FABC2" transform="translate(100,50)"/>
<path d="M0 0 C9.24 0 18.48 0 28 0 C28 14.19 28 28.38 28 43 C25.69 43 23.38 43 21 43 C21 45.31 21 47.62 21 50 C14.07 50 7.14 50 0 50 C0 33.5 0 17 0 0 Z " fill="#336791" transform="translate(136,157)"/>
<path d="M0 0 C2.31 0 4.62 0 7 0 C7 21.12 7 42.24 7 64 C9.31 64 11.62 64 14 64 C14 71.26 14 78.52 14 86 C16.31 86 18.62 86 21 86 C21 90.62 21 95.24 21 100 C25.95 100 30.9 100 36 100 C36 104.62 36 109.24 36 114 C31.05 114 26.1 114 21 114 C21 111.69 21 109.38 21 107 C18.69 107 16.38 107 14 107 C14 102.38 14 97.76 14 93 C11.69 93 9.38 93 7 93 C7 86.07 7 79.14 7 72 C4.69 72 2.38 72 0 72 C0 62.43 0 52.86 0 43 C-2.31 43 -4.62 43 -7 43 C-7 31.12 -7 19.24 -7 7 C-4.69 7 -2.38 7 0 7 C0 4.69 0 2.38 0 0 Z " fill="#7C9EB8" transform="translate(50,57)"/>
<path d="M0 0 C4.62 0 9.24 0 14 0 C14 4.62 14 9.24 14 14 C16.31 14 18.62 14 21 14 C21 11.69 21 9.38 21 7 C23.31 7 25.62 7 28 7 C28 9.31 28 11.62 28 14 C30.64 14 33.28 14 36 14 C36 16.31 36 18.62 36 21 C52.5 21 69 21 86 21 C86 23.31 86 25.62 86 28 C88.31 28 90.62 28 93 28 C93 30.31 93 32.62 93 35 C88.05 35 83.1 35 78 35 C78 32.69 78 30.38 78 28 C64.14 28 50.28 28 36 28 C36 30.31 36 32.62 36 35 C33.36 35 30.72 35 28 35 C28 30.38 28 25.76 28 21 C21.07 21 14.14 21 7 21 C7 23.31 7 25.62 7 28 C9.31 28 11.62 28 14 28 C14 30.31 14 32.62 14 35 C7.07 35 0.14 35 -7 35 C-7 30.38 -7 25.76 -7 21 C-4.69 21 -2.38 21 0 21 C0 14.07 0 7.14 0 0 Z " fill="#D7DEE3" transform="translate(93,129)"/>
<path d="M0 0 C7.26 0 14.52 0 22 0 C22 2.31 22 4.62 22 7 C24.31 7 26.62 7 29 7 C29 9.31 29 11.62 29 14 C31.31 14 33.62 14 36 14 C36 25.88 36 37.76 36 50 C33.69 50 31.38 50 29 50 C29 56.93 29 63.86 29 71 C26.69 71 24.38 71 22 71 C22 57.14 22 43.28 22 29 C19.69 29 17.38 29 15 29 C15 24.05 15 19.1 15 14 C12.36 14 9.72 14 7 14 C7 11.69 7 9.38 7 7 C4.69 7 2.38 7 0 7 C0 4.69 0 2.38 0 0 Z " fill="#336791" transform="translate(164,50)"/>
<path d="M0 0 C18.81 0 37.62 0 57 0 C57 4.62 57 9.24 57 14 C54.69 14 52.38 14 50 14 C50 11.69 50 9.38 50 7 C45.38 7 40.76 7 36 7 C36 11.62 36 16.24 36 21 C33.69 21 31.38 21 29 21 C29 18.69 29 16.38 29 14 C17.12 14 5.24 14 -7 14 C-7 11.69 -7 9.38 -7 7 C-4.69 7 -2.38 7 0 7 C0 4.69 0 2.38 0 0 Z " fill="#6987A1" transform="translate(64,43)"/>
<path d="M0 0 C2.31 0 4.62 0 7 0 C7 2.31 7 4.62 7 7 C9.64 7 12.28 7 15 7 C15 9.31 15 11.62 15 14 C12.36 14 9.72 14 7 14 C7 25.88 7 37.76 7 50 C4.69 50 2.38 50 0 50 C0 52.31 0 54.62 0 57 C-9.24 57 -18.48 57 -28 57 C-28 54.69 -28 52.38 -28 50 C-21.07 50 -14.14 50 -7 50 C-7 47.69 -7 45.38 -7 43 C-4.69 43 -2.38 43 0 43 C0 28.81 0 14.62 0 0 Z " fill="#81A1BB" transform="translate(164,157)"/>
<path d="M0 0 C21.45 0 42.9 0 65 0 C65 2.31 65 4.62 65 7 C57.74 7 50.48 7 43 7 C43 9.31 43 11.62 43 14 C36.07 14 29.14 14 22 14 C22 11.69 22 9.38 22 7 C14.74 7 7.48 7 0 7 C0 4.69 0 2.38 0 0 Z " fill="#C0C6CD" transform="translate(121,43)"/>
<path d="M0 0 C4.62 0 9.24 0 14 0 C14 4.62 14 9.24 14 14 C16.31 14 18.62 14 21 14 C21 16.31 21 18.62 21 21 C16.38 21 11.76 21 7 21 C7 23.31 7 25.62 7 28 C9.31 28 11.62 28 14 28 C14 30.31 14 32.62 14 35 C7.07 35 0.14 35 -7 35 C-7 30.38 -7 25.76 -7 21 C-4.69 21 -2.38 21 0 21 C0 14.07 0 7.14 0 0 Z " fill="#9DB6CA" transform="translate(93,129)"/>
<path d="M0 0 C4.62 0 9.24 0 14 0 C14 11.88 14 23.76 14 36 C11.69 36 9.38 36 7 36 C7 38.31 7 40.62 7 43 C4.69 43 2.38 43 0 43 C0 28.81 0 14.62 0 0 Z " fill="#4C7A9F" transform="translate(107,100)"/>
<path d="M0 0 C2.31 0 4.62 0 7 0 C7 14.19 7 28.38 7 43 C2.38 43 -2.24 43 -7 43 C-7 31.12 -7 19.24 -7 7 C-4.69 7 -2.38 7 0 7 C0 4.69 0 2.38 0 0 Z " fill="#7699B5" transform="translate(50,57)"/>
<path d="M0 0 C2.31 0 4.62 0 7 0 C7 2.31 7 4.62 7 7 C13.93 7 20.86 7 28 7 C28 9.31 28 11.62 28 14 C25.69 14 23.38 14 21 14 C21 16.31 21 18.62 21 21 C18.69 21 16.38 21 14 21 C14 23.31 14 25.62 14 28 C9.38 28 4.76 28 0 28 C0 25.69 0 23.38 0 21 C-2.31 21 -4.62 21 -7 21 C-7 18.69 -7 16.38 -7 14 C-4.69 14 -2.38 14 0 14 C0 9.38 0 4.76 0 0 Z " fill="#92AEC5" transform="translate(186,136)"/>
<path d="M0 0 C4.62 0 9.24 0 14 0 C14 11.88 14 23.76 14 36 C9.38 36 4.76 36 0 36 C0 24.12 0 12.24 0 0 Z " fill="#A5BCCE" transform="translate(100,50)"/>
<path d="M0 0 C2.31 0 4.62 0 7 0 C7 6.93 7 13.86 7 21 C9.31 21 11.62 21 14 21 C14 28.26 14 35.52 14 43 C11.69 43 9.38 43 7 43 C7 38.38 7 33.76 7 29 C4.69 29 2.38 29 0 29 C0 19.43 0 9.86 0 0 Z " fill="#6C92B0" transform="translate(50,100)"/>
<path d="M0 0 C2.31 0 4.62 0 7 0 C7 16.5 7 33 7 50 C4.69 50 2.38 50 0 50 C0 33.5 0 17 0 0 Z " fill="#5983A5" transform="translate(86,86)"/>
<path d="M0 0 C2.31 0 4.62 0 7 0 C7 7.26 7 14.52 7 22 C11.62 22 16.24 22 21 22 C21 24.31 21 26.62 21 29 C16.38 29 11.76 29 7 29 C7 31.31 7 33.62 7 36 C4.69 36 2.38 36 0 36 C0 24.12 0 12.24 0 0 Z " fill="#C9D7E2" transform="translate(93,64)"/>
<path d="M0 0 C2.64 0 5.28 0 8 0 C8 14.19 8 28.38 8 43 C5.36 43 2.72 43 0 43 C0 28.81 0 14.62 0 0 Z " fill="#BBCCDA" transform="translate(121,93)"/>
<path d="M0 0 C4.95 0 9.9 0 15 0 C15 9.24 15 18.48 15 28 C12.36 28 9.72 28 7 28 C7 23.38 7 18.76 7 14 C4.69 14 2.38 14 0 14 C0 9.38 0 4.76 0 0 Z " fill="#4F7C9F" transform="translate(164,93)"/>
<path d="M0 0 C4.62 0 9.24 0 14 0 C14 4.62 14 9.24 14 14 C16.64 14 19.28 14 22 14 C22 16.64 22 19.28 22 22 C19.36 22 16.72 22 14 22 C14 24.31 14 26.62 14 29 C11.69 29 9.38 29 7 29 C7 21.74 7 14.48 7 7 C4.69 7 2.38 7 0 7 C0 4.69 0 2.38 0 0 Z " fill="#9DB6CA" transform="translate(157,107)"/>
<path d="M0 0 C2.31 0 4.62 0 7 0 C7 2.31 7 4.62 7 7 C9.64 7 12.28 7 15 7 C15 9.31 15 11.62 15 14 C17.31 14 19.62 14 22 14 C22 16.31 22 18.62 22 21 C19.69 21 17.38 21 15 21 C15 23.31 15 25.62 15 28 C12.36 28 9.72 28 7 28 C7 23.38 7 18.76 7 14 C4.69 14 2.38 14 0 14 C0 9.38 0 4.76 0 0 Z " fill="#B4C7D6" transform="translate(114,136)"/>
<path d="M0 0 C4.95 0 9.9 0 15 0 C15 9.24 15 18.48 15 28 C12.69 28 10.38 28 8 28 C8 23.38 8 18.76 8 14 C5.36 14 2.72 14 0 14 C0 9.38 0 4.76 0 0 Z " fill="#747781" transform="translate(121,186)"/>
<path d="M0 0 C9.57 0 19.14 0 29 0 C29 2.31 29 4.62 29 7 C21.74 7 14.48 7 7 7 C7 9.31 7 11.62 7 14 C2.38 14 -2.24 14 -7 14 C-7 11.69 -7 9.38 -7 7 C-4.69 7 -2.38 7 0 7 C0 4.69 0 2.38 0 0 Z " fill="#778FA6" transform="translate(64,43)"/>
<path d="M0 0 C7.26 0 14.52 0 22 0 C22 2.31 22 4.62 22 7 C17.05 7 12.1 7 7 7 C7 11.62 7 16.24 7 21 C4.69 21 2.38 21 0 21 C0 14.07 0 7.14 0 0 Z " fill="#A2BACD" transform="translate(157,86)"/>
<path d="M0 0 C2.31 0 4.62 0 7 0 C7 4.62 7 9.24 7 14 C4.69 14 2.38 14 0 14 C0 18.95 0 23.9 0 29 C-2.31 29 -4.62 29 -7 29 C-7 21.74 -7 14.48 -7 7 C-4.69 7 -2.38 7 0 7 C0 4.69 0 2.38 0 0 Z " fill="#8C919A" transform="translate(50,57)"/>
<path d="M0 0 C4.62 0 9.24 0 14 0 C14 2.31 14 4.62 14 7 C16.31 7 18.62 7 21 7 C21 9.31 21 11.62 21 14 C14.07 14 7.14 14 0 14 C0 9.38 0 4.76 0 0 Z " fill="#C4CAD1" transform="translate(86,150)"/>
<path d="M0 0 C2.31 0 4.62 0 7 0 C7 2.31 7 4.62 7 7 C9.31 7 11.62 7 14 7 C14 9.31 14 11.62 14 14 C16.31 14 18.62 14 21 14 C21 16.31 21 18.62 21 21 C16.38 21 11.76 21 7 21 C7 18.69 7 16.38 7 14 C4.69 14 2.38 14 0 14 C0 9.38 0 4.76 0 0 Z " fill="#728BA2" transform="translate(186,43)"/>
<path d="M0 0 C2.31 0 4.62 0 7 0 C7 9.57 7 19.14 7 29 C4.69 29 2.38 29 0 29 C0 19.43 0 9.86 0 0 Z " fill="#346891" transform="translate(114,100)"/>
<path d="M0 0 C2.31 0 4.62 0 7 0 C7 9.57 7 19.14 7 29 C4.69 29 2.38 29 0 29 C0 19.43 0 9.86 0 0 Z " fill="#777A83" transform="translate(207,64)"/>
<path d="M0 0 C9.24 0 18.48 0 28 0 C28 2.31 28 4.62 28 7 C18.76 7 9.52 7 0 7 C0 4.69 0 2.38 0 0 Z " fill="#5B85A6" transform="translate(136,157)"/>
<path d="M0 0 C4.62 0 9.24 0 14 0 C14 2.31 14 4.62 14 7 C11.69 7 9.38 7 7 7 C7 9.31 7 11.62 7 14 C2.38 14 -2.24 14 -7 14 C-7 11.69 -7 9.38 -7 7 C-4.69 7 -2.38 7 0 7 C0 4.69 0 2.38 0 0 Z " fill="#BFC9D2" transform="translate(200,143)"/>
<path d="M0 0 C9.24 0 18.48 0 28 0 C28 2.31 28 4.62 28 7 C18.76 7 9.52 7 0 7 C0 4.69 0 2.38 0 0 Z " fill="#9FB8CB" transform="translate(136,150)"/>
<path d="M0 0 C4.62 0 9.24 0 14 0 C14 4.62 14 9.24 14 14 C9.38 14 4.76 14 0 14 C0 9.38 0 4.76 0 0 Z " fill="#BCCEDB" transform="translate(100,50)"/>
<path d="M0 0 C2.64 0 5.28 0 8 0 C8 7.26 8 14.52 8 22 C5.36 22 2.72 22 0 22 C0 14.74 0 7.48 0 0 Z " fill="#464A57" transform="translate(171,171)"/>
<path d="M0 0 C2.31 0 4.62 0 7 0 C7 2.31 7 4.62 7 7 C9.64 7 12.28 7 15 7 C15 9.31 15 11.62 15 14 C10.05 14 5.1 14 0 14 C0 9.38 0 4.76 0 0 Z " fill="#6F93B1" transform="translate(164,157)"/>
<path d="M0 0 C2.31 0 4.62 0 7 0 C7 7.26 7 14.52 7 22 C4.69 22 2.38 22 0 22 C0 14.74 0 7.48 0 0 Z " fill="#6E93B1" transform="translate(86,114)"/>
<path d="M0 0 C2.31 0 4.62 0 7 0 C7 7.26 7 14.52 7 22 C4.69 22 2.38 22 0 22 C0 14.74 0 7.48 0 0 Z " fill="#4C7A9E" transform="translate(129,107)"/>
<path d="M0 0 C2.31 0 4.62 0 7 0 C7 7.26 7 14.52 7 22 C4.69 22 2.38 22 0 22 C0 14.74 0 7.48 0 0 Z " fill="#698FAE" transform="translate(100,64)"/>
<path d="M0 0 C2.31 0 4.62 0 7 0 C7 7.26 7 14.52 7 22 C4.69 22 2.38 22 0 22 C0 14.74 0 7.48 0 0 Z " fill="#B3C6D6" transform="translate(93,64)"/>
<path d="M0 0 C7.26 0 14.52 0 22 0 C22 2.31 22 4.62 22 7 C14.74 7 7.48 7 0 7 C0 4.69 0 2.38 0 0 Z " fill="#46759B" transform="translate(121,50)"/>
<path d="M0 0 C7.26 0 14.52 0 22 0 C22 2.31 22 4.62 22 7 C14.74 7 7.48 7 0 7 C0 4.69 0 2.38 0 0 Z " fill="#50799B" transform="translate(71,50)"/>
<path d="M0 0 C7.26 0 14.52 0 22 0 C22 2.31 22 4.62 22 7 C14.74 7 7.48 7 0 7 C0 4.69 0 2.38 0 0 Z " fill="#A7ABB3" transform="translate(121,43)"/>
<path d="M0 0 C6.93 0 13.86 0 21 0 C21 2.31 21 4.62 21 7 C14.07 7 7.14 7 0 7 C0 4.69 0 2.38 0 0 Z " fill="#C0C8D1" transform="translate(136,207)"/>
<path d="M0 0 C4.62 0 9.24 0 14 0 C14 2.31 14 4.62 14 7 C11.69 7 9.38 7 7 7 C7 9.31 7 11.62 7 14 C4.69 14 2.38 14 0 14 C0 9.38 0 4.76 0 0 Z " fill="#80838B" transform="translate(157,200)"/>
<path d="M0 0 C2.31 0 4.62 0 7 0 C7 6.93 7 13.86 7 21 C4.69 21 2.38 21 0 21 C0 14.07 0 7.14 0 0 Z " fill="#A7ADB6" transform="translate(129,193)"/>
<path d="M0 0 C2.31 0 4.62 0 7 0 C7 2.31 7 4.62 7 7 C9.31 7 11.62 7 14 7 C14 9.31 14 11.62 14 14 C9.38 14 4.76 14 0 14 C0 9.38 0 4.76 0 0 Z " fill="#7D828D" transform="translate(186,136)"/>
<path d="M0 0 C4.62 0 9.24 0 14 0 C14 4.62 14 9.24 14 14 C11.69 14 9.38 14 7 14 C7 11.69 7 9.38 7 7 C4.69 7 2.38 7 0 7 C0 4.69 0 2.38 0 0 Z " fill="#9B9DA3" transform="translate(207,136)"/>
<path d="M0 0 C4.62 0 9.24 0 14 0 C14 4.62 14 9.24 14 14 C11.69 14 9.38 14 7 14 C7 11.69 7 9.38 7 7 C4.69 7 2.38 7 0 7 C0 4.69 0 2.38 0 0 Z " fill="#B8CAD9" transform="translate(93,129)"/>
<path d="M0 0 C2.31 0 4.62 0 7 0 C7 6.93 7 13.86 7 21 C4.69 21 2.38 21 0 21 C0 14.07 0 7.14 0 0 Z " fill="#B3C0CC" transform="translate(50,100)"/>
<path d="M0 0 C2.64 0 5.28 0 8 0 C8 4.62 8 9.24 8 14 C5.36 14 2.72 14 0 14 C0 9.38 0 4.76 0 0 Z " fill="#A6BDCF" transform="translate(171,136)"/>
<path d="M0 0 C4.95 0 9.9 0 15 0 C15 2.31 15 4.62 15 7 C10.05 7 5.1 7 0 7 C0 4.69 0 2.38 0 0 Z " fill="#A3A6AB" transform="translate(121,179)"/>
<path d="M0 0 C4.95 0 9.9 0 15 0 C15 2.31 15 4.62 15 7 C10.05 7 5.1 7 0 7 C0 4.69 0 2.38 0 0 Z " fill="#666A74" transform="translate(71,164)"/>
<path d="M0 0 C4.95 0 9.9 0 15 0 C15 2.31 15 4.62 15 7 C10.05 7 5.1 7 0 7 C0 4.69 0 2.38 0 0 Z " fill="#A4B7C7" transform="translate(71,157)"/>
<path d="M0 0 C4.95 0 9.9 0 15 0 C15 2.31 15 4.62 15 7 C10.05 7 5.1 7 0 7 C0 4.69 0 2.38 0 0 Z " fill="#C3D3DF" transform="translate(164,150)"/>
<path d="M0 0 C2.31 0 4.62 0 7 0 C7 4.95 7 9.9 7 15 C4.69 15 2.38 15 0 15 C0 10.05 0 5.1 0 0 Z " fill="#ACC1D2" transform="translate(100,114)"/>
<path d="M0 0 C2.31 0 4.62 0 7 0 C7 4.95 7 9.9 7 15 C4.69 15 2.38 15 0 15 C0 10.05 0 5.1 0 0 Z " fill="#89A7BF" transform="translate(93,114)"/>
<path d="M0 0 C2.31 0 4.62 0 7 0 C7 4.95 7 9.9 7 15 C4.69 15 2.38 15 0 15 C0 10.05 0 5.1 0 0 Z " fill="#C0D0DD" transform="translate(179,114)"/>
<path d="M0 0 C4.95 0 9.9 0 15 0 C15 2.31 15 4.62 15 7 C10.05 7 5.1 7 0 7 C0 4.69 0 2.38 0 0 Z " fill="#6A90AE" transform="translate(164,93)"/>
<path d="M0 0 C4.95 0 9.9 0 15 0 C15 2.31 15 4.62 15 7 C10.05 7 5.1 7 0 7 C0 4.69 0 2.38 0 0 Z " fill="#8AA8BF" transform="translate(164,79)"/>
<path d="M0 0 C2.31 0 4.62 0 7 0 C7 4.95 7 9.9 7 15 C4.69 15 2.38 15 0 15 C0 10.05 0 5.1 0 0 Z " fill="#6089A9" transform="translate(50,71)"/>
<path d="M0 0 C4.95 0 9.9 0 15 0 C15 2.31 15 4.62 15 7 C10.05 7 5.1 7 0 7 C0 4.69 0 2.38 0 0 Z " fill="#9EA7B1" transform="translate(171,43)"/>
<path d="M0 0 C4.95 0 9.9 0 15 0 C15 2.31 15 4.62 15 7 C10.05 7 5.1 7 0 7 C0 4.69 0 2.38 0 0 Z " fill="#484C58" transform="translate(164,36)"/>
<path d="M0 0 C2.31 0 4.62 0 7 0 C7 4.62 7 9.24 7 14 C4.69 14 2.38 14 0 14 C0 9.38 0 4.76 0 0 Z " fill="#8EA4B7" transform="translate(129,157)"/>
<path d="M0 0 C4.62 0 9.24 0 14 0 C14 2.31 14 4.62 14 7 C9.38 7 4.76 7 0 7 C0 4.69 0 2.38 0 0 Z " fill="#91A0AE" transform="translate(93,164)"/>
<path d="M0 0 C4.62 0 9.24 0 14 0 C14 2.31 14 4.62 14 7 C9.38 7 4.76 7 0 7 C0 4.69 0 2.38 0 0 Z " fill="#4B799E" transform="translate(136,157)"/>
<path d="M0 0 C4.62 0 9.24 0 14 0 C14 2.31 14 4.62 14 7 C9.38 7 4.76 7 0 7 C0 4.69 0 2.38 0 0 Z " fill="#B2C1CF" transform="translate(93,157)"/>
<path d="M0 0 C4.62 0 9.24 0 14 0 C14 2.31 14 4.62 14 7 C9.38 7 4.76 7 0 7 C0 4.69 0 2.38 0 0 Z " fill="#ABC0D2" transform="translate(136,150)"/>
<path d="M0 0 C4.62 0 9.24 0 14 0 C14 2.31 14 4.62 14 7 C9.38 7 4.76 7 0 7 C0 4.69 0 2.38 0 0 Z " fill="#96989F" transform="translate(100,150)"/>
<path d="M0 0 C4.62 0 9.24 0 14 0 C14 2.31 14 4.62 14 7 C9.38 7 4.76 7 0 7 C0 4.69 0 2.38 0 0 Z " fill="#D7D8DB" transform="translate(200,143)"/>
<path d="M0 0 C2.31 0 4.62 0 7 0 C7 4.62 7 9.24 7 14 C4.69 14 2.38 14 0 14 C0 9.38 0 4.76 0 0 Z " fill="#D8DDE2" transform="translate(114,136)"/>
<path d="M0 0 C4.62 0 9.24 0 14 0 C14 2.31 14 4.62 14 7 C9.38 7 4.76 7 0 7 C0 4.69 0 2.38 0 0 Z " fill="#789BB6" transform="translate(157,107)"/>
<path d="M0 0 C2.31 0 4.62 0 7 0 C7 4.62 7 9.24 7 14 C4.69 14 2.38 14 0 14 C0 9.38 0 4.76 0 0 Z " fill="#638BAB" transform="translate(107,100)"/>
<path d="M0 0 C2.31 0 4.62 0 7 0 C7 4.62 7 9.24 7 14 C4.69 14 2.38 14 0 14 C0 9.38 0 4.76 0 0 Z " fill="#9EB7CB" transform="translate(93,100)"/>
<path d="M0 0 C2.31 0 4.62 0 7 0 C7 4.62 7 9.24 7 14 C4.69 14 2.38 14 0 14 C0 9.38 0 4.76 0 0 Z " fill="#4D515E" transform="translate(43,100)"/>
<path d="M0 0 C2.31 0 4.62 0 7 0 C7 4.62 7 9.24 7 14 C4.69 14 2.38 14 0 14 C0 9.38 0 4.76 0 0 Z " fill="#989FA9" transform="translate(200,93)"/>
<path d="M0 0 C2.31 0 4.62 0 7 0 C7 4.62 7 9.24 7 14 C4.69 14 2.38 14 0 14 C0 9.38 0 4.76 0 0 Z " fill="#A9BFD1" transform="translate(157,93)"/>
<path d="M0 0 C2.31 0 4.62 0 7 0 C7 4.62 7 9.24 7 14 C4.69 14 2.38 14 0 14 C0 9.38 0 4.76 0 0 Z " fill="#7C9DB8" transform="translate(86,86)"/>
<path d="M0 0 C2.31 0 4.62 0 7 0 C7 4.62 7 9.24 7 14 C4.69 14 2.38 14 0 14 C0 9.38 0 4.76 0 0 Z " fill="#757D89" transform="translate(43,86)"/>
<path d="M0 0 C2.31 0 4.62 0 7 0 C7 4.62 7 9.24 7 14 C4.69 14 2.38 14 0 14 C0 9.38 0 4.76 0 0 Z " fill="#E1E9EF" transform="translate(179,79)"/>
<path d="M0 0 C2.31 0 4.62 0 7 0 C7 4.62 7 9.24 7 14 C4.69 14 2.38 14 0 14 C0 9.38 0 4.76 0 0 Z " fill="#809AB0" transform="translate(50,57)"/>
<path d="M0 0 C2.31 0 4.62 0 7 0 C7 4.62 7 9.24 7 14 C4.69 14 2.38 14 0 14 C0 9.38 0 4.76 0 0 Z " fill="#AEC3D3" transform="translate(100,50)"/>
<path d="M0 0 C4.62 0 9.24 0 14 0 C14 2.31 14 4.62 14 7 C9.38 7 4.76 7 0 7 C0 4.69 0 2.38 0 0 Z " fill="#9EB7CB" transform="translate(143,50)"/>
<path d="M0 0 C2.31 0 4.62 0 7 0 C7 4.62 7 9.24 7 14 C4.69 14 2.38 14 0 14 C0 9.38 0 4.76 0 0 Z " fill="#67849E" transform="translate(114,43)"/>
<path d="M0 0 C4.62 0 9.24 0 14 0 C14 2.31 14 4.62 14 7 C9.38 7 4.76 7 0 7 C0 4.69 0 2.38 0 0 Z " fill="#A6A8AE" transform="translate(79,43)"/>
<path d="M0 0 C2.64 0 5.28 0 8 0 C8 2.64 8 5.28 8 8 C5.36 8 2.72 8 0 8 C0 5.36 0 2.72 0 0 Z " fill="#6C707A" transform="translate(171,171)"/>
<path d="M0 0 C2.64 0 5.28 0 8 0 C8 2.64 8 5.28 8 8 C5.36 8 2.72 8 0 8 C0 5.36 0 2.72 0 0 Z " fill="#7EA0BA" transform="translate(171,121)"/>
<path d="M0 0 C2.64 0 5.28 0 8 0 C8 2.64 8 5.28 8 8 C5.36 8 2.72 8 0 8 C0 5.36 0 2.72 0 0 Z " fill="#A2BACD" transform="translate(171,71)"/>
<path d="M0 0 C2.31 0 4.62 0 7 0 C7 2.64 7 5.28 7 8 C4.69 8 2.38 8 0 8 C0 5.36 0 2.72 0 0 Z " fill="#333333" transform="translate(0,221)"/>
<path d="M0 0 C2.64 0 5.28 0 8 0 C8 2.31 8 4.62 8 7 C5.36 7 2.72 7 0 7 C0 4.69 0 2.38 0 0 Z " fill="#343948" transform="translate(121,200)"/>
<path d="M0 0 C2.64 0 5.28 0 8 0 C8 2.31 8 4.62 8 7 C5.36 7 2.72 7 0 7 C0 4.69 0 2.38 0 0 Z " fill="#353A47" transform="translate(171,193)"/>
<path d="M0 0 C2.64 0 5.28 0 8 0 C8 2.31 8 4.62 8 7 C5.36 7 2.72 7 0 7 C0 4.69 0 2.38 0 0 Z " fill="#595D68" transform="translate(171,179)"/>
<path d="M0 0 C2.31 0 4.62 0 7 0 C7 2.64 7 5.28 7 8 C4.69 8 2.38 8 0 8 C0 5.36 0 2.72 0 0 Z " fill="#6B88A1" transform="translate(129,171)"/>
<path d="M0 0 C2.64 0 5.28 0 8 0 C8 2.31 8 4.62 8 7 C5.36 7 2.72 7 0 7 C0 4.69 0 2.38 0 0 Z " fill="#828A95" transform="translate(171,164)"/>
<path d="M0 0 C2.64 0 5.28 0 8 0 C8 2.31 8 4.62 8 7 C5.36 7 2.72 7 0 7 C0 4.69 0 2.38 0 0 Z " fill="#B3B5BA" transform="translate(121,164)"/>
<path d="M0 0 C2.64 0 5.28 0 8 0 C8 2.31 8 4.62 8 7 C5.36 7 2.72 7 0 7 C0 4.69 0 2.38 0 0 Z " fill="#D7DEE4" transform="translate(121,157)"/>
<path d="M0 0 C2.64 0 5.28 0 8 0 C8 2.31 8 4.62 8 7 C5.36 7 2.72 7 0 7 C0 4.69 0 2.38 0 0 Z " fill="#44739A" transform="translate(71,150)"/>
<path d="M0 0 C2.64 0 5.28 0 8 0 C8 2.31 8 4.62 8 7 C5.36 7 2.72 7 0 7 C0 4.69 0 2.38 0 0 Z " fill="#A8BED0" transform="translate(121,143)"/>
<path d="M0 0 C2.64 0 5.28 0 8 0 C8 2.31 8 4.62 8 7 C5.36 7 2.72 7 0 7 C0 4.69 0 2.38 0 0 Z " fill="#96B1C6" transform="translate(171,136)"/>
<path d="M0 0 C2.64 0 5.28 0 8 0 C8 2.31 8 4.62 8 7 C5.36 7 2.72 7 0 7 C0 4.69 0 2.38 0 0 Z " fill="#537FA3" transform="translate(121,136)"/>
<path d="M0 0 C2.64 0 5.28 0 8 0 C8 2.31 8 4.62 8 7 C5.36 7 2.72 7 0 7 C0 4.69 0 2.38 0 0 Z " fill="#98B3C8" transform="translate(121,129)"/>
<path d="M0 0 C2.31 0 4.62 0 7 0 C7 2.64 7 5.28 7 8 C4.69 8 2.38 8 0 8 C0 5.36 0 2.72 0 0 Z " fill="#829FB6" transform="translate(186,121)"/>
<path d="M0 0 C2.31 0 4.62 0 7 0 C7 2.64 7 5.28 7 8 C4.69 8 2.38 8 0 8 C0 5.36 0 2.72 0 0 Z " fill="#44749A" transform="translate(129,121)"/>
<path d="M0 0 C2.31 0 4.62 0 7 0 C7 2.64 7 5.28 7 8 C4.69 8 2.38 8 0 8 C0 5.36 0 2.72 0 0 Z " fill="#9DA1A9" transform="translate(50,121)"/>
<path d="M0 0 C2.64 0 5.28 0 8 0 C8 2.31 8 4.62 8 7 C5.36 7 2.72 7 0 7 C0 4.69 0 2.38 0 0 Z " fill="#356892" transform="translate(171,114)"/>
<path d="M0 0 C2.64 0 5.28 0 8 0 C8 2.31 8 4.62 8 7 C5.36 7 2.72 7 0 7 C0 4.69 0 2.38 0 0 Z " fill="#ABC0D2" transform="translate(121,93)"/>
<path d="M0 0 C2.64 0 5.28 0 8 0 C8 2.31 8 4.62 8 7 C5.36 7 2.72 7 0 7 C0 4.69 0 2.38 0 0 Z " fill="#9AB3C9" transform="translate(171,86)"/>
<path d="M0 0 C2.64 0 5.28 0 8 0 C8 2.31 8 4.62 8 7 C5.36 7 2.72 7 0 7 C0 4.69 0 2.38 0 0 Z " fill="#799BB7" transform="translate(121,86)"/>
<path d="M0 0 C2.31 0 4.62 0 7 0 C7 2.64 7 5.28 7 8 C4.69 8 2.38 8 0 8 C0 5.36 0 2.72 0 0 Z " fill="#668DAC" transform="translate(179,71)"/>
<path d="M0 0 C2.64 0 5.28 0 8 0 C8 2.31 8 4.62 8 7 C5.36 7 2.72 7 0 7 C0 4.69 0 2.38 0 0 Z " fill="#94AFC5" transform="translate(171,64)"/>
<path d="M0 0 C2.64 0 5.28 0 8 0 C8 2.31 8 4.62 8 7 C5.36 7 2.72 7 0 7 C0 4.69 0 2.38 0 0 Z " fill="#5480A3" transform="translate(171,57)"/>
<path d="M0 0 C2.64 0 5.28 0 8 0 C8 2.31 8 4.62 8 7 C5.36 7 2.72 7 0 7 C0 4.69 0 2.38 0 0 Z " fill="#9EA0A7" transform="translate(71,43)"/>
<path d="M0 0 C2.64 0 5.28 0 8 0 C8 2.31 8 4.62 8 7 C5.36 7 2.72 7 0 7 C0 4.69 0 2.38 0 0 Z " fill="#333333" transform="translate(221,0)"/>
<path d="M0 0 C2.31 0 4.62 0 7 0 C7 2.31 7 4.62 7 7 C4.69 7 2.38 7 0 7 C0 4.69 0 2.38 0 0 Z " fill="#3B3F4D" transform="translate(143,214)"/>
<path d="M0 0 C2.31 0 4.62 0 7 0 C7 2.31 7 4.62 7 7 C4.69 7 2.38 7 0 7 C0 4.69 0 2.38 0 0 Z " fill="#2D3240" transform="translate(136,214)"/>
<path d="M0 0 C2.31 0 4.62 0 7 0 C7 2.31 7 4.62 7 7 C4.69 7 2.38 7 0 7 C0 4.69 0 2.38 0 0 Z " fill="#70747D" transform="translate(157,207)"/>
<path d="M0 0 C2.31 0 4.62 0 7 0 C7 2.31 7 4.62 7 7 C4.69 7 2.38 7 0 7 C0 4.69 0 2.38 0 0 Z " fill="#A7AEB7" transform="translate(150,207)"/>
<path d="M0 0 C2.31 0 4.62 0 7 0 C7 2.31 7 4.62 7 7 C4.69 7 2.38 7 0 7 C0 4.69 0 2.38 0 0 Z " fill="#B1B9C2" transform="translate(136,207)"/>
<path d="M0 0 C2.31 0 4.62 0 7 0 C7 2.31 7 4.62 7 7 C4.69 7 2.38 7 0 7 C0 4.69 0 2.38 0 0 Z " fill="#777A84" transform="translate(129,207)"/>
<path d="M0 0 C2.31 0 4.62 0 7 0 C7 2.31 7 4.62 7 7 C4.69 7 2.38 7 0 7 C0 4.69 0 2.38 0 0 Z " fill="#91A3B4" transform="translate(157,200)"/>
<path d="M0 0 C2.31 0 4.62 0 7 0 C7 2.31 7 4.62 7 7 C4.69 7 2.38 7 0 7 C0 4.69 0 2.38 0 0 Z " fill="#4C7A9F" transform="translate(150,200)"/>
<path d="M0 0 C2.31 0 4.62 0 7 0 C7 2.31 7 4.62 7 7 C4.69 7 2.38 7 0 7 C0 4.69 0 2.38 0 0 Z " fill="#5882A5" transform="translate(136,200)"/>
<path d="M0 0 C2.31 0 4.62 0 7 0 C7 2.31 7 4.62 7 7 C4.69 7 2.38 7 0 7 C0 4.69 0 2.38 0 0 Z " fill="#BABFC6" transform="translate(164,193)"/>
<path d="M0 0 C2.31 0 4.62 0 7 0 C7 2.31 7 4.62 7 7 C4.69 7 2.38 7 0 7 C0 4.69 0 2.38 0 0 Z " fill="#9BA9B7" transform="translate(129,193)"/>
<path d="M0 0 C2.31 0 4.62 0 7 0 C7 2.31 7 4.62 7 7 C4.69 7 2.38 7 0 7 C0 4.69 0 2.38 0 0 Z " fill="#A1AFBC" transform="translate(164,186)"/>
<path d="M0 0 C2.31 0 4.62 0 7 0 C7 2.31 7 4.62 7 7 C4.69 7 2.38 7 0 7 C0 4.69 0 2.38 0 0 Z " fill="#758CA1" transform="translate(129,186)"/>
<path d="M0 0 C2.31 0 4.62 0 7 0 C7 2.31 7 4.62 7 7 C4.69 7 2.38 7 0 7 C0 4.69 0 2.38 0 0 Z " fill="#91A7BB" transform="translate(164,179)"/>
<path d="M0 0 C2.31 0 4.62 0 7 0 C7 2.31 7 4.62 7 7 C4.69 7 2.38 7 0 7 C0 4.69 0 2.38 0 0 Z " fill="#9EB0C1" transform="translate(129,179)"/>
<path d="M0 0 C2.31 0 4.62 0 7 0 C7 2.31 7 4.62 7 7 C4.69 7 2.38 7 0 7 C0 4.69 0 2.38 0 0 Z " fill="#909AA6" transform="translate(114,164)"/>
<path d="M0 0 C2.31 0 4.62 0 7 0 C7 2.31 7 4.62 7 7 C4.69 7 2.38 7 0 7 C0 4.69 0 2.38 0 0 Z " fill="#A5B1BD" transform="translate(107,164)"/>
<path d="M0 0 C2.31 0 4.62 0 7 0 C7 2.31 7 4.62 7 7 C4.69 7 2.38 7 0 7 C0 4.69 0 2.38 0 0 Z " fill="#686F7B" transform="translate(93,164)"/>
<path d="M0 0 C2.31 0 4.62 0 7 0 C7 2.31 7 4.62 7 7 C4.69 7 2.38 7 0 7 C0 4.69 0 2.38 0 0 Z " fill="#474B58" transform="translate(86,164)"/>
<path d="M0 0 C2.31 0 4.62 0 7 0 C7 2.31 7 4.62 7 7 C4.69 7 2.38 7 0 7 C0 4.69 0 2.38 0 0 Z " fill="#787F8A" transform="translate(79,164)"/>
<path d="M0 0 C2.31 0 4.62 0 7 0 C7 2.31 7 4.62 7 7 C4.69 7 2.38 7 0 7 C0 4.69 0 2.38 0 0 Z " fill="#3F4451" transform="translate(200,157)"/>
<path d="M0 0 C2.31 0 4.62 0 7 0 C7 2.31 7 4.62 7 7 C4.69 7 2.38 7 0 7 C0 4.69 0 2.38 0 0 Z " fill="#7B8695" transform="translate(193,157)"/>
<path d="M0 0 C2.31 0 4.62 0 7 0 C7 2.31 7 4.62 7 7 C4.69 7 2.38 7 0 7 C0 4.69 0 2.38 0 0 Z " fill="#A6AFBA" transform="translate(186,157)"/>
<path d="M0 0 C2.31 0 4.62 0 7 0 C7 2.31 7 4.62 7 7 C4.69 7 2.38 7 0 7 C0 4.69 0 2.38 0 0 Z " fill="#C0C9D0" transform="translate(179,157)"/>
<path d="M0 0 C2.31 0 4.62 0 7 0 C7 2.31 7 4.62 7 7 C4.69 7 2.38 7 0 7 C0 4.69 0 2.38 0 0 Z " fill="#8BA8BF" transform="translate(164,157)"/>
<path d="M0 0 C2.31 0 4.62 0 7 0 C7 2.31 7 4.62 7 7 C4.69 7 2.38 7 0 7 C0 4.69 0 2.38 0 0 Z " fill="#537FA2" transform="translate(150,157)"/>
<path d="M0 0 C2.31 0 4.62 0 7 0 C7 2.31 7 4.62 7 7 C4.69 7 2.38 7 0 7 C0 4.69 0 2.38 0 0 Z " fill="#43739A" transform="translate(136,157)"/>
<path d="M0 0 C2.31 0 4.62 0 7 0 C7 2.31 7 4.62 7 7 C4.69 7 2.38 7 0 7 C0 4.69 0 2.38 0 0 Z " fill="#7398B4" transform="translate(129,157)"/>
<path d="M0 0 C2.31 0 4.62 0 7 0 C7 2.31 7 4.62 7 7 C4.69 7 2.38 7 0 7 C0 4.69 0 2.38 0 0 Z " fill="#FAFBFB" transform="translate(93,157)"/>
<path d="M0 0 C2.31 0 4.62 0 7 0 C7 2.31 7 4.62 7 7 C4.69 7 2.38 7 0 7 C0 4.69 0 2.38 0 0 Z " fill="#C5CDD5" transform="translate(86,157)"/>
<path d="M0 0 C2.31 0 4.62 0 7 0 C7 2.31 7 4.62 7 7 C4.69 7 2.38 7 0 7 C0 4.69 0 2.38 0 0 Z " fill="#7D9EB9" transform="translate(79,157)"/>
<path d="M0 0 C2.31 0 4.62 0 7 0 C7 2.31 7 4.62 7 7 C4.69 7 2.38 7 0 7 C0 4.69 0 2.38 0 0 Z " fill="#6C737E" transform="translate(64,157)"/>
<path d="M0 0 C2.31 0 4.62 0 7 0 C7 2.31 7 4.62 7 7 C4.69 7 2.38 7 0 7 C0 4.69 0 2.38 0 0 Z " fill="#434855" transform="translate(207,150)"/>
<path d="M0 0 C2.31 0 4.62 0 7 0 C7 2.31 7 4.62 7 7 C4.69 7 2.38 7 0 7 C0 4.69 0 2.38 0 0 Z " fill="#C0D0DD" transform="translate(193,150)"/>
<path d="M0 0 C2.31 0 4.62 0 7 0 C7 2.31 7 4.62 7 7 C4.69 7 2.38 7 0 7 C0 4.69 0 2.38 0 0 Z " fill="#7F9FBA" transform="translate(179,150)"/>
<path d="M0 0 C2.31 0 4.62 0 7 0 C7 2.31 7 4.62 7 7 C4.69 7 2.38 7 0 7 C0 4.69 0 2.38 0 0 Z " fill="#B6C9D8" transform="translate(164,150)"/>
<path d="M0 0 C2.31 0 4.62 0 7 0 C7 2.31 7 4.62 7 7 C4.69 7 2.38 7 0 7 C0 4.69 0 2.38 0 0 Z " fill="#B3C6D6" transform="translate(136,150)"/>
<path d="M0 0 C2.31 0 4.62 0 7 0 C7 2.31 7 4.62 7 7 C4.69 7 2.38 7 0 7 C0 4.69 0 2.38 0 0 Z " fill="#DEE7EE" transform="translate(129,150)"/>
<path d="M0 0 C2.31 0 4.62 0 7 0 C7 2.31 7 4.62 7 7 C4.69 7 2.38 7 0 7 C0 4.69 0 2.38 0 0 Z " fill="#90A6B9" transform="translate(114,150)"/>
<path d="M0 0 C2.31 0 4.62 0 7 0 C7 2.31 7 4.62 7 7 C4.69 7 2.38 7 0 7 C0 4.69 0 2.38 0 0 Z " fill="#494D5A" transform="translate(100,150)"/>
<path d="M0 0 C2.31 0 4.62 0 7 0 C7 2.31 7 4.62 7 7 C4.69 7 2.38 7 0 7 C0 4.69 0 2.38 0 0 Z " fill="#85A4BD" transform="translate(86,150)"/>
<path d="M0 0 C2.31 0 4.62 0 7 0 C7 2.31 7 4.62 7 7 C4.69 7 2.38 7 0 7 C0 4.69 0 2.38 0 0 Z " fill="#C1CCD6" transform="translate(64,150)"/>
<path d="M0 0 C2.31 0 4.62 0 7 0 C7 2.31 7 4.62 7 7 C4.69 7 2.38 7 0 7 C0 4.69 0 2.38 0 0 Z " fill="#414552" transform="translate(57,150)"/>
<path d="M0 0 C2.31 0 4.62 0 7 0 C7 2.31 7 4.62 7 7 C4.69 7 2.38 7 0 7 C0 4.69 0 2.38 0 0 Z " fill="#6F737D" transform="translate(214,143)"/>
<path d="M0 0 C2.31 0 4.62 0 7 0 C7 2.31 7 4.62 7 7 C4.69 7 2.38 7 0 7 C0 4.69 0 2.38 0 0 Z " fill="#F6F7F8" transform="translate(200,143)"/>
<path d="M0 0 C2.31 0 4.62 0 7 0 C7 2.31 7 4.62 7 7 C4.69 7 2.38 7 0 7 C0 4.69 0 2.38 0 0 Z " fill="#8B919B" transform="translate(193,143)"/>
<path d="M0 0 C2.31 0 4.62 0 7 0 C7 2.31 7 4.62 7 7 C4.69 7 2.38 7 0 7 C0 4.69 0 2.38 0 0 Z " fill="#527EA2" transform="translate(164,143)"/>
<path d="M0 0 C2.31 0 4.62 0 7 0 C7 2.31 7 4.62 7 7 C4.69 7 2.38 7 0 7 C0 4.69 0 2.38 0 0 Z " fill="#48769C" transform="translate(129,143)"/>
<path d="M0 0 C2.31 0 4.62 0 7 0 C7 2.31 7 4.62 7 7 C4.69 7 2.38 7 0 7 C0 4.69 0 2.38 0 0 Z " fill="#B4B8C1" transform="translate(107,143)"/>
<path d="M0 0 C2.31 0 4.62 0 7 0 C7 2.31 7 4.62 7 7 C4.69 7 2.38 7 0 7 C0 4.69 0 2.38 0 0 Z " fill="#A5ACB3" transform="translate(100,143)"/>
<path d="M0 0 C2.31 0 4.62 0 7 0 C7 2.31 7 4.62 7 7 C4.69 7 2.38 7 0 7 C0 4.69 0 2.38 0 0 Z " fill="#7F8793" transform="translate(57,143)"/>
<path d="M0 0 C2.31 0 4.62 0 7 0 C7 2.31 7 4.62 7 7 C4.69 7 2.38 7 0 7 C0 4.69 0 2.38 0 0 Z " fill="#6D707A" transform="translate(207,136)"/>
<path d="M0 0 C2.31 0 4.62 0 7 0 C7 2.31 7 4.62 7 7 C4.69 7 2.38 7 0 7 C0 4.69 0 2.38 0 0 Z " fill="#737984" transform="translate(186,136)"/>
<path d="M0 0 C2.31 0 4.62 0 7 0 C7 2.31 7 4.62 7 7 C4.69 7 2.38 7 0 7 C0 4.69 0 2.38 0 0 Z " fill="#CFDBE4" transform="translate(179,136)"/>
<path d="M0 0 C2.31 0 4.62 0 7 0 C7 2.31 7 4.62 7 7 C4.69 7 2.38 7 0 7 C0 4.69 0 2.38 0 0 Z " fill="#C6D4E0" transform="translate(114,136)"/>
<path d="M0 0 C2.31 0 4.62 0 7 0 C7 2.31 7 4.62 7 7 C4.69 7 2.38 7 0 7 C0 4.69 0 2.38 0 0 Z " fill="#E1E8EF" transform="translate(100,136)"/>
<path d="M0 0 C2.31 0 4.62 0 7 0 C7 2.31 7 4.62 7 7 C4.69 7 2.38 7 0 7 C0 4.69 0 2.38 0 0 Z " fill="#8DAAC1" transform="translate(93,136)"/>
<path d="M0 0 C2.31 0 4.62 0 7 0 C7 2.31 7 4.62 7 7 C4.69 7 2.38 7 0 7 C0 4.69 0 2.38 0 0 Z " fill="#3D6E96" transform="translate(64,136)"/>
<path d="M0 0 C2.31 0 4.62 0 7 0 C7 2.31 7 4.62 7 7 C4.69 7 2.38 7 0 7 C0 4.69 0 2.38 0 0 Z " fill="#C8CFD6" transform="translate(57,136)"/>
<path d="M0 0 C2.31 0 4.62 0 7 0 C7 2.31 7 4.62 7 7 C4.69 7 2.38 7 0 7 C0 4.69 0 2.38 0 0 Z " fill="#383C4A" transform="translate(193,129)"/>
<path d="M0 0 C2.31 0 4.62 0 7 0 C7 2.31 7 4.62 7 7 C4.69 7 2.38 7 0 7 C0 4.69 0 2.38 0 0 Z " fill="#C1C9D1" transform="translate(186,129)"/>
<path d="M0 0 C2.31 0 4.62 0 7 0 C7 2.31 7 4.62 7 7 C4.69 7 2.38 7 0 7 C0 4.69 0 2.38 0 0 Z " fill="#7397B4" transform="translate(164,129)"/>
<path d="M0 0 C2.31 0 4.62 0 7 0 C7 2.31 7 4.62 7 7 C4.69 7 2.38 7 0 7 C0 4.69 0 2.38 0 0 Z " fill="#668EAC" transform="translate(114,129)"/>
<path d="M0 0 C2.31 0 4.62 0 7 0 C7 2.31 7 4.62 7 7 C4.69 7 2.38 7 0 7 C0 4.69 0 2.38 0 0 Z " fill="#3E6F97" transform="translate(107,129)"/>
<path d="M0 0 C2.31 0 4.62 0 7 0 C7 2.31 7 4.62 7 7 C4.69 7 2.38 7 0 7 C0 4.69 0 2.38 0 0 Z " fill="#AEC2D3" transform="translate(93,129)"/>
<path d="M0 0 C2.31 0 4.62 0 7 0 C7 2.31 7 4.62 7 7 C4.69 7 2.38 7 0 7 C0 4.69 0 2.38 0 0 Z " fill="#527EA2" transform="translate(86,129)"/>
<path d="M0 0 C2.31 0 4.62 0 7 0 C7 2.31 7 4.62 7 7 C4.69 7 2.38 7 0 7 C0 4.69 0 2.38 0 0 Z " fill="#9AAEBF" transform="translate(57,129)"/>
<path d="M0 0 C2.31 0 4.62 0 7 0 C7 2.31 7 4.62 7 7 C4.69 7 2.38 7 0 7 C0 4.69 0 2.38 0 0 Z " fill="#565A66" transform="translate(50,129)"/>
<path d="M0 0 C2.31 0 4.62 0 7 0 C7 2.31 7 4.62 7 7 C4.69 7 2.38 7 0 7 C0 4.69 0 2.38 0 0 Z " fill="#2F3342" transform="translate(200,114)"/>
<path d="M0 0 C2.31 0 4.62 0 7 0 C7 2.31 7 4.62 7 7 C4.69 7 2.38 7 0 7 C0 4.69 0 2.38 0 0 Z " fill="#BFC7CF" transform="translate(193,114)"/>
<path d="M0 0 C2.31 0 4.62 0 7 0 C7 2.31 7 4.62 7 7 C4.69 7 2.38 7 0 7 C0 4.69 0 2.38 0 0 Z " fill="#43739A" transform="translate(186,114)"/>
<path d="M0 0 C2.31 0 4.62 0 7 0 C7 2.31 7 4.62 7 7 C4.69 7 2.38 7 0 7 C0 4.69 0 2.38 0 0 Z " fill="#AEC2D3" transform="translate(164,114)"/>
<path d="M0 0 C2.31 0 4.62 0 7 0 C7 2.31 7 4.62 7 7 C4.69 7 2.38 7 0 7 C0 4.69 0 2.38 0 0 Z " fill="#5983A5" transform="translate(157,114)"/>
<path d="M0 0 C2.31 0 4.62 0 7 0 C7 2.31 7 4.62 7 7 C4.69 7 2.38 7 0 7 C0 4.69 0 2.38 0 0 Z " fill="#5781A4" transform="translate(107,114)"/>
<path d="M0 0 C2.31 0 4.62 0 7 0 C7 2.31 7 4.62 7 7 C4.69 7 2.38 7 0 7 C0 4.69 0 2.38 0 0 Z " fill="#A0B8CC" transform="translate(100,114)"/>
<path d="M0 0 C2.31 0 4.62 0 7 0 C7 2.31 7 4.62 7 7 C4.69 7 2.38 7 0 7 C0 4.69 0 2.38 0 0 Z " fill="#90ADC3" transform="translate(93,114)"/>
<path d="M0 0 C2.31 0 4.62 0 7 0 C7 2.31 7 4.62 7 7 C4.69 7 2.38 7 0 7 C0 4.69 0 2.38 0 0 Z " fill="#678DAD" transform="translate(86,114)"/>
<path d="M0 0 C2.31 0 4.62 0 7 0 C7 2.31 7 4.62 7 7 C4.69 7 2.38 7 0 7 C0 4.69 0 2.38 0 0 Z " fill="#4C799E" transform="translate(57,114)"/>
<path d="M0 0 C2.31 0 4.62 0 7 0 C7 2.31 7 4.62 7 7 C4.69 7 2.38 7 0 7 C0 4.69 0 2.38 0 0 Z " fill="#B2BAC3" transform="translate(50,114)"/>
<path d="M0 0 C2.31 0 4.62 0 7 0 C7 2.31 7 4.62 7 7 C4.69 7 2.38 7 0 7 C0 4.69 0 2.38 0 0 Z " fill="#666974" transform="translate(200,107)"/>
<path d="M0 0 C2.31 0 4.62 0 7 0 C7 2.31 7 4.62 7 7 C4.69 7 2.38 7 0 7 C0 4.69 0 2.38 0 0 Z " fill="#85A4BD" transform="translate(157,107)"/>
<path d="M0 0 C2.31 0 4.62 0 7 0 C7 2.31 7 4.62 7 7 C4.69 7 2.38 7 0 7 C0 4.69 0 2.38 0 0 Z " fill="#94AFC5" transform="translate(100,107)"/>
<path d="M0 0 C2.31 0 4.62 0 7 0 C7 2.31 7 4.62 7 7 C4.69 7 2.38 7 0 7 C0 4.69 0 2.38 0 0 Z " fill="#5F88A9" transform="translate(193,100)"/>
<path d="M0 0 C2.31 0 4.62 0 7 0 C7 2.31 7 4.62 7 7 C4.69 7 2.38 7 0 7 C0 4.69 0 2.38 0 0 Z " fill="#7296B3" transform="translate(107,100)"/>
<path d="M0 0 C2.31 0 4.62 0 7 0 C7 2.31 7 4.62 7 7 C4.69 7 2.38 7 0 7 C0 4.69 0 2.38 0 0 Z " fill="#A9BED1" transform="translate(93,100)"/>
<path d="M0 0 C2.31 0 4.62 0 7 0 C7 2.31 7 4.62 7 7 C4.69 7 2.38 7 0 7 C0 4.69 0 2.38 0 0 Z " fill="#648BAC" transform="translate(86,100)"/>
<path d="M0 0 C2.31 0 4.62 0 7 0 C7 2.31 7 4.62 7 7 C4.69 7 2.38 7 0 7 C0 4.69 0 2.38 0 0 Z " fill="#93ACC0" transform="translate(50,100)"/>
<path d="M0 0 C2.31 0 4.62 0 7 0 C7 2.31 7 4.62 7 7 C4.69 7 2.38 7 0 7 C0 4.69 0 2.38 0 0 Z " fill="#5A5D69" transform="translate(43,100)"/>
<path d="M0 0 C2.31 0 4.62 0 7 0 C7 2.31 7 4.62 7 7 C4.69 7 2.38 7 0 7 C0 4.69 0 2.38 0 0 Z " fill="#3B3F4D" transform="translate(207,93)"/>
<path d="M0 0 C2.31 0 4.62 0 7 0 C7 2.31 7 4.62 7 7 C4.69 7 2.38 7 0 7 C0 4.69 0 2.38 0 0 Z " fill="#C0C8D0" transform="translate(200,93)"/>
<path d="M0 0 C2.31 0 4.62 0 7 0 C7 2.31 7 4.62 7 7 C4.69 7 2.38 7 0 7 C0 4.69 0 2.38 0 0 Z " fill="#7D9EBA" transform="translate(164,93)"/>
<path d="M0 0 C2.31 0 4.62 0 7 0 C7 2.31 7 4.62 7 7 C4.69 7 2.38 7 0 7 C0 4.69 0 2.38 0 0 Z " fill="#B3C6D6" transform="translate(157,93)"/>
<path d="M0 0 C2.31 0 4.62 0 7 0 C7 2.31 7 4.62 7 7 C4.69 7 2.38 7 0 7 C0 4.69 0 2.38 0 0 Z " fill="#5580A3" transform="translate(150,93)"/>
<path d="M0 0 C2.31 0 4.62 0 7 0 C7 2.31 7 4.62 7 7 C4.69 7 2.38 7 0 7 C0 4.69 0 2.38 0 0 Z " fill="#AFC4D4" transform="translate(107,93)"/>
<path d="M0 0 C2.31 0 4.62 0 7 0 C7 2.31 7 4.62 7 7 C4.69 7 2.38 7 0 7 C0 4.69 0 2.38 0 0 Z " fill="#565A66" transform="translate(207,86)"/>
<path d="M0 0 C2.31 0 4.62 0 7 0 C7 2.31 7 4.62 7 7 C4.69 7 2.38 7 0 7 C0 4.69 0 2.38 0 0 Z " fill="#9EAFBE" transform="translate(200,86)"/>
<path d="M0 0 C2.31 0 4.62 0 7 0 C7 2.31 7 4.62 7 7 C4.69 7 2.38 7 0 7 C0 4.69 0 2.38 0 0 Z " fill="#AFC4D4" transform="translate(114,86)"/>
<path d="M0 0 C2.31 0 4.62 0 7 0 C7 2.31 7 4.62 7 7 C4.69 7 2.38 7 0 7 C0 4.69 0 2.38 0 0 Z " fill="#D0DCE5" transform="translate(107,86)"/>
<path d="M0 0 C2.31 0 4.62 0 7 0 C7 2.31 7 4.62 7 7 C4.69 7 2.38 7 0 7 C0 4.69 0 2.38 0 0 Z " fill="#C1D0DD" transform="translate(93,86)"/>
<path d="M0 0 C2.31 0 4.62 0 7 0 C7 2.31 7 4.62 7 7 C4.69 7 2.38 7 0 7 C0 4.69 0 2.38 0 0 Z " fill="#86A5BE" transform="translate(86,86)"/>
<path d="M0 0 C2.31 0 4.62 0 7 0 C7 2.31 7 4.62 7 7 C4.69 7 2.38 7 0 7 C0 4.69 0 2.38 0 0 Z " fill="#6D92B1" transform="translate(50,86)"/>
<path d="M0 0 C2.31 0 4.62 0 7 0 C7 2.31 7 4.62 7 7 C4.69 7 2.38 7 0 7 C0 4.69 0 2.38 0 0 Z " fill="#6C6F79" transform="translate(207,79)"/>
<path d="M0 0 C2.31 0 4.62 0 7 0 C7 2.31 7 4.62 7 7 C4.69 7 2.38 7 0 7 C0 4.69 0 2.38 0 0 Z " fill="#839EB5" transform="translate(200,79)"/>
<path d="M0 0 C2.31 0 4.62 0 7 0 C7 2.31 7 4.62 7 7 C4.69 7 2.38 7 0 7 C0 4.69 0 2.38 0 0 Z " fill="#BFCFDD" transform="translate(179,79)"/>
<path d="M0 0 C2.31 0 4.62 0 7 0 C7 2.31 7 4.62 7 7 C4.69 7 2.38 7 0 7 C0 4.69 0 2.38 0 0 Z " fill="#688EAD" transform="translate(164,79)"/>
<path d="M0 0 C2.31 0 4.62 0 7 0 C7 2.31 7 4.62 7 7 C4.69 7 2.38 7 0 7 C0 4.69 0 2.38 0 0 Z " fill="#44749A" transform="translate(157,79)"/>
<path d="M0 0 C2.31 0 4.62 0 7 0 C7 2.31 7 4.62 7 7 C4.69 7 2.38 7 0 7 C0 4.69 0 2.38 0 0 Z " fill="#5782A5" transform="translate(114,79)"/>
<path d="M0 0 C2.31 0 4.62 0 7 0 C7 2.31 7 4.62 7 7 C4.69 7 2.38 7 0 7 C0 4.69 0 2.38 0 0 Z " fill="#638BAB" transform="translate(100,79)"/>
<path d="M0 0 C2.31 0 4.62 0 7 0 C7 2.31 7 4.62 7 7 C4.69 7 2.38 7 0 7 C0 4.69 0 2.38 0 0 Z " fill="#547FA3" transform="translate(86,79)"/>
<path d="M0 0 C2.31 0 4.62 0 7 0 C7 2.31 7 4.62 7 7 C4.69 7 2.38 7 0 7 C0 4.69 0 2.38 0 0 Z " fill="#5681A4" transform="translate(50,79)"/>
<path d="M0 0 C2.31 0 4.62 0 7 0 C7 2.31 7 4.62 7 7 C4.69 7 2.38 7 0 7 C0 4.69 0 2.38 0 0 Z " fill="#959BA4" transform="translate(43,79)"/>
<path d="M0 0 C2.31 0 4.62 0 7 0 C7 2.31 7 4.62 7 7 C4.69 7 2.38 7 0 7 C0 4.69 0 2.38 0 0 Z " fill="#6F727C" transform="translate(207,64)"/>
<path d="M0 0 C2.31 0 4.62 0 7 0 C7 2.31 7 4.62 7 7 C4.69 7 2.38 7 0 7 C0 4.69 0 2.38 0 0 Z " fill="#8195A8" transform="translate(200,64)"/>
<path d="M0 0 C2.31 0 4.62 0 7 0 C7 2.31 7 4.62 7 7 C4.69 7 2.38 7 0 7 C0 4.69 0 2.38 0 0 Z " fill="#ACC2D3" transform="translate(107,64)"/>
<path d="M0 0 C2.31 0 4.62 0 7 0 C7 2.31 7 4.62 7 7 C4.69 7 2.38 7 0 7 C0 4.69 0 2.38 0 0 Z " fill="#7E9FBA" transform="translate(100,64)"/>
<path d="M0 0 C2.31 0 4.62 0 7 0 C7 2.31 7 4.62 7 7 C4.69 7 2.38 7 0 7 C0 4.69 0 2.38 0 0 Z " fill="#9AB3C8" transform="translate(93,64)"/>
<path d="M0 0 C2.31 0 4.62 0 7 0 C7 2.31 7 4.62 7 7 C4.69 7 2.38 7 0 7 C0 4.69 0 2.38 0 0 Z " fill="#71757E" transform="translate(43,64)"/>
<path d="M0 0 C2.31 0 4.62 0 7 0 C7 2.31 7 4.62 7 7 C4.69 7 2.38 7 0 7 C0 4.69 0 2.38 0 0 Z " fill="#434754" transform="translate(207,57)"/>
<path d="M0 0 C2.31 0 4.62 0 7 0 C7 2.31 7 4.62 7 7 C4.69 7 2.38 7 0 7 C0 4.69 0 2.38 0 0 Z " fill="#B4B9C0" transform="translate(200,57)"/>
<path d="M0 0 C2.31 0 4.62 0 7 0 C7 2.31 7 4.62 7 7 C4.69 7 2.38 7 0 7 C0 4.69 0 2.38 0 0 Z " fill="#6087A7" transform="translate(193,57)"/>
<path d="M0 0 C2.31 0 4.62 0 7 0 C7 2.31 7 4.62 7 7 C4.69 7 2.38 7 0 7 C0 4.69 0 2.38 0 0 Z " fill="#C2D1DE" transform="translate(164,57)"/>
<path d="M0 0 C2.31 0 4.62 0 7 0 C7 2.31 7 4.62 7 7 C4.69 7 2.38 7 0 7 C0 4.69 0 2.38 0 0 Z " fill="#5E87A8" transform="translate(157,57)"/>
<path d="M0 0 C2.31 0 4.62 0 7 0 C7 2.31 7 4.62 7 7 C4.69 7 2.38 7 0 7 C0 4.69 0 2.38 0 0 Z " fill="#5E87A8" transform="translate(93,57)"/>
<path d="M0 0 C2.31 0 4.62 0 7 0 C7 2.31 7 4.62 7 7 C4.69 7 2.38 7 0 7 C0 4.69 0 2.38 0 0 Z " fill="#BDC4CB" transform="translate(50,57)"/>
<path d="M0 0 C2.31 0 4.62 0 7 0 C7 2.31 7 4.62 7 7 C4.69 7 2.38 7 0 7 C0 4.69 0 2.38 0 0 Z " fill="#404451" transform="translate(43,57)"/>
<path d="M0 0 C2.31 0 4.62 0 7 0 C7 2.31 7 4.62 7 7 C4.69 7 2.38 7 0 7 C0 4.69 0 2.38 0 0 Z " fill="#4E525E" transform="translate(200,50)"/>
<path d="M0 0 C2.31 0 4.62 0 7 0 C7 2.31 7 4.62 7 7 C4.69 7 2.38 7 0 7 C0 4.69 0 2.38 0 0 Z " fill="#B7BEC5" transform="translate(193,50)"/>
<path d="M0 0 C2.31 0 4.62 0 7 0 C7 2.31 7 4.62 7 7 C4.69 7 2.38 7 0 7 C0 4.69 0 2.38 0 0 Z " fill="#5D86A8" transform="translate(164,50)"/>
<path d="M0 0 C2.31 0 4.62 0 7 0 C7 2.31 7 4.62 7 7 C4.69 7 2.38 7 0 7 C0 4.69 0 2.38 0 0 Z " fill="#B2C6D6" transform="translate(157,50)"/>
<path d="M0 0 C2.31 0 4.62 0 7 0 C7 2.31 7 4.62 7 7 C4.69 7 2.38 7 0 7 C0 4.69 0 2.38 0 0 Z " fill="#8FABC3" transform="translate(143,50)"/>
<path d="M0 0 C2.31 0 4.62 0 7 0 C7 2.31 7 4.62 7 7 C4.69 7 2.38 7 0 7 C0 4.69 0 2.38 0 0 Z " fill="#49779D" transform="translate(136,50)"/>
<path d="M0 0 C2.31 0 4.62 0 7 0 C7 2.31 7 4.62 7 7 C4.69 7 2.38 7 0 7 C0 4.69 0 2.38 0 0 Z " fill="#3D6E96" transform="translate(129,50)"/>
<path d="M0 0 C2.31 0 4.62 0 7 0 C7 2.31 7 4.62 7 7 C4.69 7 2.38 7 0 7 C0 4.69 0 2.38 0 0 Z " fill="#D9DCDF" transform="translate(107,50)"/>
<path d="M0 0 C2.31 0 4.62 0 7 0 C7 2.31 7 4.62 7 7 C4.69 7 2.38 7 0 7 C0 4.69 0 2.38 0 0 Z " fill="#C1CAD3" transform="translate(100,50)"/>
<path d="M0 0 C2.31 0 4.62 0 7 0 C7 2.31 7 4.62 7 7 C4.69 7 2.38 7 0 7 C0 4.69 0 2.38 0 0 Z " fill="#BFC4CB" transform="translate(57,50)"/>
<path d="M0 0 C2.31 0 4.62 0 7 0 C7 2.31 7 4.62 7 7 C4.69 7 2.38 7 0 7 C0 4.69 0 2.38 0 0 Z " fill="#5D616C" transform="translate(50,50)"/>
<path d="M0 0 C2.31 0 4.62 0 7 0 C7 2.31 7 4.62 7 7 C4.69 7 2.38 7 0 7 C0 4.69 0 2.38 0 0 Z " fill="#3D424F" transform="translate(193,43)"/>
<path d="M0 0 C2.31 0 4.62 0 7 0 C7 2.31 7 4.62 7 7 C4.69 7 2.38 7 0 7 C0 4.69 0 2.38 0 0 Z " fill="#8C8F96" transform="translate(186,43)"/>
<path d="M0 0 C2.31 0 4.62 0 7 0 C7 2.31 7 4.62 7 7 C4.69 7 2.38 7 0 7 C0 4.69 0 2.38 0 0 Z " fill="#B8BCC2" transform="translate(179,43)"/>
<path d="M0 0 C2.31 0 4.62 0 7 0 C7 2.31 7 4.62 7 7 C4.69 7 2.38 7 0 7 C0 4.69 0 2.38 0 0 Z " fill="#B7C0CA" transform="translate(164,43)"/>
<path d="M0 0 C2.31 0 4.62 0 7 0 C7 2.31 7 4.62 7 7 C4.69 7 2.38 7 0 7 C0 4.69 0 2.38 0 0 Z " fill="#CBCDD0" transform="translate(143,43)"/>
<path d="M0 0 C2.31 0 4.62 0 7 0 C7 2.31 7 4.62 7 7 C4.69 7 2.38 7 0 7 C0 4.69 0 2.38 0 0 Z " fill="#AFB5BD" transform="translate(129,43)"/>
<path d="M0 0 C2.31 0 4.62 0 7 0 C7 2.31 7 4.62 7 7 C4.69 7 2.38 7 0 7 C0 4.69 0 2.38 0 0 Z " fill="#8C8E96" transform="translate(114,43)"/>
<path d="M0 0 C2.31 0 4.62 0 7 0 C7 2.31 7 4.62 7 7 C4.69 7 2.38 7 0 7 C0 4.69 0 2.38 0 0 Z " fill="#61656F" transform="translate(107,43)"/>
<path d="M0 0 C2.31 0 4.62 0 7 0 C7 2.31 7 4.62 7 7 C4.69 7 2.38 7 0 7 C0 4.69 0 2.38 0 0 Z " fill="#767882" transform="translate(100,43)"/>
<path d="M0 0 C2.31 0 4.62 0 7 0 C7 2.31 7 4.62 7 7 C4.69 7 2.38 7 0 7 C0 4.69 0 2.38 0 0 Z " fill="#898B94" transform="translate(93,43)"/>
<path d="M0 0 C2.31 0 4.62 0 7 0 C7 2.31 7 4.62 7 7 C4.69 7 2.38 7 0 7 C0 4.69 0 2.38 0 0 Z " fill="#7C7F88" transform="translate(64,43)"/>
<path d="M0 0 C2.31 0 4.62 0 7 0 C7 2.31 7 4.62 7 7 C4.69 7 2.38 7 0 7 C0 4.69 0 2.38 0 0 Z " fill="#3E424F" transform="translate(57,43)"/>
<path d="M0 0 C2.31 0 4.62 0 7 0 C7 2.31 7 4.62 7 7 C4.69 7 2.38 7 0 7 C0 4.69 0 2.38 0 0 Z " fill="#313543" transform="translate(179,36)"/>
<path d="M0 0 C2.31 0 4.62 0 7 0 C7 2.31 7 4.62 7 7 C4.69 7 2.38 7 0 7 C0 4.69 0 2.38 0 0 Z " fill="#535863" transform="translate(164,36)"/>
</svg>
