<?xml version="1.0" encoding="UTF-8"?>
<svg version="1.1" xmlns="http://www.w3.org/2000/svg" width="256" height="256">
<path d="M0 0 C66 0 132 0 200 0 C200 2.31 200 4.62 200 7 C202.31 7 204.62 7 207 7 C207 9.31 207 11.62 207 14 C209.31 14 211.62 14 214 14 C214 16.31 214 18.62 214 21 C216.31 21 218.62 21 221 21 C221 25.95 221 30.9 221 36 C222.98 36 224.96 36 227 36 C227 97.05 227 158.1 227 221 C225.02 221 223.04 221 221 221 C221 225.95 221 230.9 221 236 C218.69 236 216.38 236 214 236 C214 238.31 214 240.62 214 243 C211.69 243 209.38 243 207 243 C207 245.31 207 247.62 207 250 C202.05 250 197.1 250 192 250 C192 251.98 192 253.96 192 256 C130.95 256 69.9 256 7 256 C7 254.02 7 252.04 7 250 C2.05 250 -2.9 250 -8 250 C-8 247.69 -8 245.38 -8 243 C-10.31 243 -12.62 243 -15 243 C-15 240.69 -15 238.38 -15 236 C-17.31 236 -19.62 236 -22 236 C-22 233.69 -22 231.38 -22 229 C-24.31 229 -26.62 229 -29 229 C-29 163 -29 97 -29 29 C-26.69 29 -24.38 29 -22 29 C-22 26.36 -22 23.72 -22 21 C-19.69 21 -17.38 21 -15 21 C-15 18.69 -15 16.38 -15 14 C-12.69 14 -10.38 14 -8 14 C-8 11.69 -8 9.38 -8 7 C-5.36 7 -2.72 7 0 7 C0 4.69 0 2.38 0 0 Z " fill="#232938" transform="translate(29,0)"/>
<path d="M0 0 C11.88 0 23.76 0 36 0 C36 2.31 36 4.62 36 7 C38.31 7 40.62 7 43 7 C43 9.31 43 11.62 43 14 C45.31 14 47.62 14 50 14 C50 16.31 50 18.62 50 21 C54.95 21 59.9 21 65 21 C65 18.69 65 16.38 65 14 C67.31 14 69.62 14 72 14 C72 11.69 72 9.38 72 7 C74.31 7 76.62 7 79 7 C79 4.69 79 2.38 79 0 C90.88 0 102.76 0 115 0 C115 2.31 115 4.62 115 7 C117.31 7 119.62 7 122 7 C122 23.5 122 40 122 57 C124.31 57 126.62 57 129 57 C129 59.31 129 61.62 129 64 C133.62 64 138.24 64 143 64 C143 66.31 143 68.62 143 71 C145.31 71 147.62 71 150 71 C150 73.31 150 75.62 150 78 C152.64 78 155.28 78 158 78 C158 87.57 158 97.14 158 107 C155.36 107 152.72 107 150 107 C150 109.31 150 111.62 150 114 C147.69 114 145.38 114 143 114 C143 116.31 143 118.62 143 121 C138.38 121 133.76 121 129 121 C129 123.31 129 125.62 129 128 C126.69 128 124.38 128 122 128 C122 142.19 122 156.38 122 171 C119.69 171 117.38 171 115 171 C115 175.62 115 180.24 115 185 C103.12 185 91.24 185 79 185 C79 182.69 79 180.38 79 178 C76.69 178 74.38 178 72 178 C72 175.69 72 173.38 72 171 C69.69 171 67.38 171 65 171 C65 168.69 65 166.38 65 164 C60.05 164 55.1 164 50 164 C50 166.31 50 168.62 50 171 C47.69 171 45.38 171 43 171 C43 173.31 43 175.62 43 178 C38.38 178 33.76 178 29 178 C29 180.31 29 182.62 29 185 C19.43 185 9.86 185 0 185 C0 182.69 0 180.38 0 178 C-2.31 178 -4.62 178 -7 178 C-7 161.5 -7 145 -7 128 C-9.31 128 -11.62 128 -14 128 C-14 125.69 -14 123.38 -14 121 C-18.62 121 -23.24 121 -28 121 C-28 118.69 -28 116.38 -28 114 C-30.31 114 -32.62 114 -35 114 C-35 111.69 -35 109.38 -35 107 C-37.31 107 -39.62 107 -42 107 C-42 104.69 -42 102.38 -42 100 C-44.64 100 -47.28 100 -50 100 C-50 92.74 -50 85.48 -50 78 C-45.05 78 -40.1 78 -35 78 C-35 75.69 -35 73.38 -35 71 C-32.69 71 -30.38 71 -28 71 C-28 68.69 -28 66.38 -28 64 C-23.38 64 -18.76 64 -14 64 C-14 61.69 -14 59.38 -14 57 C-11.69 57 -9.38 57 -7 57 C-7 40.5 -7 24 -7 7 C-4.69 7 -2.38 7 0 7 C0 4.69 0 2.38 0 0 Z " fill="#0C9BBA" transform="translate(71,36)"/>
<path d="M0 0 C9.24 0 18.48 0 28 0 C28 2.31 28 4.62 28 7 C30.31 7 32.62 7 35 7 C35 9.31 35 11.62 35 14 C37.31 14 39.62 14 42 14 C42 16.31 42 18.62 42 21 C39.69 21 37.38 21 35 21 C35 23.64 35 26.28 35 29 C32.69 29 30.38 29 28 29 C28 31.31 28 33.62 28 36 C25.69 36 23.38 36 21 36 C21 40.62 21 45.24 21 50 C23.31 50 25.62 50 28 50 C28 47.69 28 45.38 28 43 C39.88 43 51.76 43 64 43 C64 45.31 64 47.62 64 50 C66.31 50 68.62 50 71 50 C71 52.31 71 54.62 71 57 C73.31 57 75.62 57 78 57 C78 61.62 78 66.24 78 71 C80.31 71 82.62 71 85 71 C85 75.95 85 80.9 85 86 C82.69 86 80.38 86 78 86 C78 90.62 78 95.24 78 100 C75.69 100 73.38 100 71 100 C71 102.31 71 104.62 71 107 C68.69 107 66.38 107 64 107 C64 109.31 64 111.62 64 114 C52.12 114 40.24 114 28 114 C28 111.69 28 109.38 28 107 C25.69 107 23.38 107 21 107 C21 111.62 21 116.24 21 121 C23.31 121 25.62 121 28 121 C28 123.64 28 126.28 28 129 C30.31 129 32.62 129 35 129 C35 131.31 35 133.62 35 136 C37.31 136 39.62 136 42 136 C42 138.31 42 140.62 42 143 C39.69 143 37.38 143 35 143 C35 145.31 35 147.62 35 150 C32.69 150 30.38 150 28 150 C28 152.31 28 154.62 28 157 C23.38 157 18.76 157 14 157 C14 159.31 14 161.62 14 164 C9.38 164 4.76 164 0 164 C0 161.69 0 159.38 0 157 C-2.64 157 -5.28 157 -8 157 C-8 159.31 -8 161.62 -8 164 C-10.31 164 -12.62 164 -15 164 C-15 147.5 -15 131 -15 114 C-17.31 114 -19.62 114 -22 114 C-22 111.69 -22 109.38 -22 107 C-26.62 107 -31.24 107 -36 107 C-36 104.69 -36 102.38 -36 100 C-38.31 100 -40.62 100 -43 100 C-43 90.43 -43 80.86 -43 71 C-40.69 71 -38.38 71 -36 71 C-36 68.69 -36 66.38 -36 64 C-33.69 64 -31.38 64 -29 64 C-29 61.69 -29 59.38 -29 57 C-22.07 57 -15.14 57 -8 57 C-8 59.31 -8 61.62 -8 64 C-5.36 64 -2.72 64 0 64 C0 59.38 0 54.76 0 50 C2.31 50 4.62 50 7 50 C7 47.69 7 45.38 7 43 C4.69 43 2.38 43 0 43 C0 28.81 0 14.62 0 0 Z " fill="#0AA6C6" transform="translate(79,50)"/>
<path d="M0 0 C2.31 0 4.62 0 7 0 C7 2.31 7 4.62 7 7 C11.95 7 16.9 7 22 7 C22 16.57 22 26.14 22 36 C17.05 36 12.1 36 7 36 C7 40.62 7 45.24 7 50 C11.95 50 16.9 50 22 50 C22 47.69 22 45.38 22 43 C24.31 43 26.62 43 29 43 C29 45.31 29 47.62 29 50 C31.31 50 33.62 50 36 50 C36 66.5 36 83 36 100 C33.69 100 31.38 100 29 100 C29 104.62 29 109.24 29 114 C17.12 114 5.24 114 -7 114 C-7 111.69 -7 109.38 -7 107 C-9.31 107 -11.62 107 -14 107 C-14 104.69 -14 102.38 -14 100 C-16.31 100 -18.62 100 -21 100 C-21 97.69 -21 95.38 -21 93 C-25.95 93 -30.9 93 -36 93 C-36 95.31 -36 97.62 -36 100 C-38.31 100 -40.62 100 -43 100 C-43 102.31 -43 104.62 -43 107 C-47.62 107 -52.24 107 -57 107 C-57 109.31 -57 111.62 -57 114 C-66.57 114 -76.14 114 -86 114 C-86 109.38 -86 104.76 -86 100 C-83.36 100 -80.72 100 -78 100 C-78 102.31 -78 104.62 -78 107 C-73.38 107 -68.76 107 -64 107 C-64 104.69 -64 102.38 -64 100 C-59.38 100 -54.76 100 -50 100 C-50 97.69 -50 95.38 -50 93 C-47.69 93 -45.38 93 -43 93 C-43 90.69 -43 88.38 -43 86 C-40.69 86 -38.38 86 -36 86 C-36 83.69 -36 81.38 -36 79 C-38.31 79 -40.62 79 -43 79 C-43 76.69 -43 74.38 -43 72 C-45.31 72 -47.62 72 -50 72 C-50 69.36 -50 66.72 -50 64 C-52.31 64 -54.62 64 -57 64 C-57 59.38 -57 54.76 -57 50 C-54.69 50 -52.38 50 -50 50 C-50 52.31 -50 54.62 -50 57 C-38.12 57 -26.24 57 -14 57 C-14 54.69 -14 52.38 -14 50 C-11.69 50 -9.38 50 -7 50 C-7 47.69 -7 45.38 -7 43 C-4.69 43 -2.38 43 0 43 C0 38.38 0 33.76 0 29 C2.31 29 4.62 29 7 29 C7 24.05 7 19.1 7 14 C4.69 14 2.38 14 0 14 C0 9.38 0 4.76 0 0 Z " fill="#0D9AB9" transform="translate(157,107)"/>
<path d="M0 0 C11.88 0 23.76 0 36 0 C36 2.31 36 4.62 36 7 C38.31 7 40.62 7 43 7 C43 9.31 43 11.62 43 14 C45.31 14 47.62 14 50 14 C50 16.31 50 18.62 50 21 C54.95 21 59.9 21 65 21 C65 25.62 65 30.24 65 35 C67.31 35 69.62 35 72 35 C72 37.64 72 40.28 72 43 C74.31 43 76.62 43 79 43 C79 45.31 79 47.62 79 50 C83.62 50 88.24 50 93 50 C93 52.31 93 54.62 93 57 C90.69 57 88.38 57 86 57 C86 61.62 86 66.24 86 71 C83.69 71 81.38 71 79 71 C79 68.69 79 66.38 79 64 C76.69 64 74.38 64 72 64 C72 61.69 72 59.38 72 57 C60.12 57 48.24 57 36 57 C36 59.31 36 61.62 36 64 C33.69 64 31.38 64 29 64 C29 59.38 29 54.76 29 50 C31.31 50 33.62 50 36 50 C36 47.69 36 45.38 36 43 C38.31 43 40.62 43 43 43 C43 40.36 43 37.72 43 35 C45.31 35 47.62 35 50 35 C50 32.69 50 30.38 50 28 C47.69 28 45.38 28 43 28 C43 25.69 43 23.38 43 21 C40.69 21 38.38 21 36 21 C36 18.69 36 16.38 36 14 C26.76 14 17.52 14 8 14 C8 28.19 8 42.38 8 57 C10.31 57 12.62 57 15 57 C15 59.31 15 61.62 15 64 C12.69 64 10.38 64 8 64 C8 68.62 8 73.24 8 78 C5.36 78 2.72 78 0 78 C0 75.69 0 73.38 0 71 C-6.93 71 -13.86 71 -21 71 C-21 73.31 -21 75.62 -21 78 C-23.31 78 -25.62 78 -28 78 C-28 80.31 -28 82.62 -28 85 C-30.31 85 -32.62 85 -35 85 C-35 92.26 -35 99.52 -35 107 C-37.31 107 -39.62 107 -42 107 C-42 104.69 -42 102.38 -42 100 C-44.64 100 -47.28 100 -50 100 C-50 92.74 -50 85.48 -50 78 C-45.05 78 -40.1 78 -35 78 C-35 75.69 -35 73.38 -35 71 C-32.69 71 -30.38 71 -28 71 C-28 68.69 -28 66.38 -28 64 C-23.38 64 -18.76 64 -14 64 C-14 61.69 -14 59.38 -14 57 C-11.69 57 -9.38 57 -7 57 C-7 40.5 -7 24 -7 7 C-4.69 7 -2.38 7 0 7 C0 4.69 0 2.38 0 0 Z " fill="#0C9EBD" transform="translate(71,36)"/>
<path d="M0 0 C11.88 0 23.76 0 36 0 C36 2.31 36 4.62 36 7 C38.31 7 40.62 7 43 7 C43 9.31 43 11.62 43 14 C45.31 14 47.62 14 50 14 C50 18.62 50 23.24 50 28 C52.31 28 54.62 28 57 28 C57 32.95 57 37.9 57 43 C54.69 43 52.38 43 50 43 C50 47.62 50 52.24 50 57 C47.69 57 45.38 57 43 57 C43 59.31 43 61.62 43 64 C40.69 64 38.38 64 36 64 C36 66.31 36 68.62 36 71 C24.12 71 12.24 71 0 71 C0 66.38 0 61.76 0 57 C-2.31 57 -4.62 57 -7 57 C-7 52.38 -7 47.76 -7 43 C-9.31 43 -11.62 43 -14 43 C-14 38.05 -14 33.1 -14 28 C-11.69 28 -9.38 28 -7 28 C-7 23.38 -7 18.76 -7 14 C-4.69 14 -2.38 14 0 14 C0 9.38 0 4.76 0 0 Z " fill="#242938" transform="translate(107,93)"/>
<path d="M0 0 C2.31 0 4.62 0 7 0 C7 2.31 7 4.62 7 7 C11.95 7 16.9 7 22 7 C22 16.57 22 26.14 22 36 C17.05 36 12.1 36 7 36 C7 40.62 7 45.24 7 50 C11.95 50 16.9 50 22 50 C22 47.69 22 45.38 22 43 C24.31 43 26.62 43 29 43 C29 45.31 29 47.62 29 50 C31.31 50 33.62 50 36 50 C36 64.19 36 78.38 36 93 C33.69 93 31.38 93 29 93 C29 83.43 29 73.86 29 64 C26.69 64 24.38 64 22 64 C22 61.69 22 59.38 22 57 C19.36 57 16.72 57 14 57 C14 59.31 14 61.62 14 64 C7.07 64 0.14 64 -7 64 C-7 66.64 -7 69.28 -7 72 C-9.31 72 -11.62 72 -14 72 C-14 74.31 -14 76.62 -14 79 C-16.31 79 -18.62 79 -21 79 C-21 74.05 -21 69.1 -21 64 C-32.88 64 -44.76 64 -57 64 C-57 59.38 -57 54.76 -57 50 C-54.69 50 -52.38 50 -50 50 C-50 52.31 -50 54.62 -50 57 C-38.12 57 -26.24 57 -14 57 C-14 54.69 -14 52.38 -14 50 C-11.69 50 -9.38 50 -7 50 C-7 47.69 -7 45.38 -7 43 C-4.69 43 -2.38 43 0 43 C0 38.38 0 33.76 0 29 C2.31 29 4.62 29 7 29 C7 24.05 7 19.1 7 14 C4.69 14 2.38 14 0 14 C0 9.38 0 4.76 0 0 Z " fill="#07B3D5" transform="translate(157,107)"/>
<path d="M0 0 C4.62 0 9.24 0 14 0 C14 2.31 14 4.62 14 7 C16.31 7 18.62 7 21 7 C21 9.31 21 11.62 21 14 C25.95 14 30.9 14 36 14 C36 18.62 36 23.24 36 28 C38.31 28 40.62 28 43 28 C43 30.64 43 33.28 43 36 C45.31 36 47.62 36 50 36 C50 38.31 50 40.62 50 43 C54.62 43 59.24 43 64 43 C64 45.31 64 47.62 64 50 C61.69 50 59.38 50 57 50 C57 54.62 57 59.24 57 64 C54.69 64 52.38 64 50 64 C50 61.69 50 59.38 50 57 C47.69 57 45.38 57 43 57 C43 54.69 43 52.38 43 50 C31.12 50 19.24 50 7 50 C7 52.31 7 54.62 7 57 C4.69 57 2.38 57 0 57 C0 52.38 0 47.76 0 43 C2.31 43 4.62 43 7 43 C7 40.69 7 38.38 7 36 C9.31 36 11.62 36 14 36 C14 33.36 14 30.72 14 28 C16.31 28 18.62 28 21 28 C21 25.69 21 23.38 21 21 C18.69 21 16.38 21 14 21 C14 18.69 14 16.38 14 14 C11.69 14 9.38 14 7 14 C7 11.69 7 9.38 7 7 C4.69 7 2.38 7 0 7 C0 4.69 0 2.38 0 0 Z " fill="#03C7EC" transform="translate(100,43)"/>
<path d="M0 0 C4.62 0 9.24 0 14 0 C14 2.31 14 4.62 14 7 C18.62 7 23.24 7 28 7 C28 9.31 28 11.62 28 14 C30.31 14 32.62 14 35 14 C35 18.95 35 23.9 35 29 C32.69 29 30.38 29 28 29 C28 31.31 28 33.62 28 36 C25.69 36 23.38 36 21 36 C21 38.31 21 40.62 21 43 C11.76 43 2.52 43 -7 43 C-7 45.31 -7 47.62 -7 50 C-11.95 50 -16.9 50 -22 50 C-22 45.38 -22 40.76 -22 36 C-17.05 36 -12.1 36 -7 36 C-7 26.43 -7 16.86 -7 7 C-4.69 7 -2.38 7 0 7 C0 4.69 0 2.38 0 0 Z " fill="#232938" transform="translate(186,107)"/>
<path d="M0 0 C2.64 0 5.28 0 8 0 C8 2.31 8 4.62 8 7 C10.31 7 12.62 7 15 7 C15 16.57 15 26.14 15 36 C12.69 36 10.38 36 8 36 C8 38.31 8 40.62 8 43 C-1.57 43 -11.14 43 -21 43 C-21 40.69 -21 38.38 -21 36 C-23.31 36 -25.62 36 -28 36 C-28 33.69 -28 31.38 -28 29 C-30.31 29 -32.62 29 -35 29 C-35 26.69 -35 24.38 -35 22 C-32.69 22 -30.38 22 -28 22 C-28 19.69 -28 17.38 -28 15 C-25.69 15 -23.38 15 -21 15 C-21 12.36 -21 9.72 -21 7 C-14.07 7 -7.14 7 0 7 C0 4.69 0 2.38 0 0 Z " fill="#242938" transform="translate(171,164)"/>
<path d="M0 0 C6.93 0 13.86 0 21 0 C21 2.31 21 4.62 21 7 C23.64 7 26.28 7 29 7 C29 14.26 29 21.52 29 29 C26.36 29 23.72 29 21 29 C21 35.93 21 42.86 21 50 C18.69 50 16.38 50 14 50 C14 47.69 14 45.38 14 43 C9.38 43 4.76 43 0 43 C0 40.69 0 38.38 0 36 C-4.62 36 -9.24 36 -14 36 C-14 28.74 -14 21.48 -14 14 C-11.69 14 -9.38 14 -7 14 C-7 11.69 -7 9.38 -7 7 C-4.69 7 -2.38 7 0 7 C0 4.69 0 2.38 0 0 Z " fill="#232938" transform="translate(50,107)"/>
<path d="M0 0 C9.57 0 19.14 0 29 0 C29 14.19 29 28.38 29 43 C26.36 43 23.72 43 21 43 C21 40.69 21 38.38 21 36 C14.07 36 7.14 36 0 36 C0 33.69 0 31.38 0 29 C-2.31 29 -4.62 29 -7 29 C-7 26.36 -7 23.72 -7 21 C-9.31 21 -11.62 21 -14 21 C-14 18.69 -14 16.38 -14 14 C-11.69 14 -9.38 14 -7 14 C-7 11.69 -7 9.38 -7 7 C-4.69 7 -2.38 7 0 7 C0 4.69 0 2.38 0 0 Z " fill="#232938" transform="translate(150,50)"/>
<path d="M0 0 C9.24 0 18.48 0 28 0 C28 2.64 28 5.28 28 8 C30.31 8 32.62 8 35 8 C35 10.31 35 12.62 35 15 C37.31 15 39.62 15 42 15 C42 17.31 42 19.62 42 22 C39.69 22 37.38 22 35 22 C35 24.31 35 26.62 35 29 C32.69 29 30.38 29 28 29 C28 31.31 28 33.62 28 36 C23.38 36 18.76 36 14 36 C14 38.31 14 40.62 14 43 C9.38 43 4.76 43 0 43 C0 28.81 0 14.62 0 0 Z " fill="#242938" transform="translate(79,171)"/>
<path d="M0 0 C9.24 0 18.48 0 28 0 C28 2.31 28 4.62 28 7 C30.31 7 32.62 7 35 7 C35 9.31 35 11.62 35 14 C37.31 14 39.62 14 42 14 C42 16.31 42 18.62 42 21 C39.69 21 37.38 21 35 21 C35 23.64 35 26.28 35 29 C32.69 29 30.38 29 28 29 C28 31.31 28 33.62 28 36 C21.07 36 14.14 36 7 36 C7 38.31 7 40.62 7 43 C4.69 43 2.38 43 0 43 C0 28.81 0 14.62 0 0 Z " fill="#242938" transform="translate(79,50)"/>
<path d="M0 0 C4.95 0 9.9 0 15 0 C15 2.31 15 4.62 15 7 C17.31 7 19.62 7 22 7 C22 16.57 22 26.14 22 36 C19.69 36 17.38 36 15 36 C15 38.31 15 40.62 15 43 C10.05 43 5.1 43 0 43 C0 40.69 0 38.38 0 36 C-2.31 36 -4.62 36 -7 36 C-7 33.69 -7 31.38 -7 29 C-9.31 29 -11.62 29 -14 29 C-14 24.05 -14 19.1 -14 14 C-11.69 14 -9.38 14 -7 14 C-7 11.69 -7 9.38 -7 7 C-4.69 7 -2.38 7 0 7 C0 4.69 0 2.38 0 0 Z " fill="#00D7FE" transform="translate(121,107)"/>
<path d="M0 0 C11.88 0 23.76 0 36 0 C36 2.31 36 4.62 36 7 C33.69 7 31.38 7 29 7 C29 9.31 29 11.62 29 14 C22.07 14 15.14 14 8 14 C8 25.88 8 37.76 8 50 C3.05 50 -1.9 50 -7 50 C-7 35.81 -7 21.62 -7 7 C-4.69 7 -2.38 7 0 7 C0 4.69 0 2.38 0 0 Z " fill="#00D8FF" transform="translate(71,36)"/>
<path d="M0 0 C11.88 0 23.76 0 36 0 C36 2.31 36 4.62 36 7 C38.31 7 40.62 7 43 7 C43 9.31 43 11.62 43 14 C45.31 14 47.62 14 50 14 C50 16.31 50 18.62 50 21 C47.69 21 45.38 21 43 21 C43 28.26 43 35.52 43 43 C40.69 43 38.38 43 36 43 C36 35.74 36 28.48 36 21 C33.69 21 31.38 21 29 21 C29 18.69 29 16.38 29 14 C24.05 14 19.1 14 14 14 C14 16.31 14 18.62 14 21 C11.69 21 9.38 21 7 21 C7 23.31 7 25.62 7 28 C4.69 28 2.38 28 0 28 C0 18.76 0 9.52 0 0 Z " fill="#232938" transform="translate(107,93)"/>
<path d="M0 0 C11.88 0 23.76 0 36 0 C36 2.31 36 4.62 36 7 C38.31 7 40.62 7 43 7 C43 11.62 43 16.24 43 21 C40.69 21 38.38 21 36 21 C36 28.26 36 35.52 36 43 C33.69 43 31.38 43 29 43 C29 33.43 29 23.86 29 14 C19.43 14 9.86 14 0 14 C0 16.31 0 18.62 0 21 C-2.31 21 -4.62 21 -7 21 C-7 23.31 -7 25.62 -7 28 C-9.31 28 -11.62 28 -14 28 C-14 23.38 -14 18.76 -14 14 C-11.69 14 -9.38 14 -7 14 C-7 11.69 -7 9.38 -7 7 C-4.69 7 -2.38 7 0 7 C0 4.69 0 2.38 0 0 Z " fill="#0E96B4" transform="translate(150,36)"/>
<path d="M0 0 C2.31 0 4.62 0 7 0 C7 2.31 7 4.62 7 7 C23.5 7 40 7 57 7 C57 9.31 57 11.62 57 14 C54.69 14 52.38 14 50 14 C50 16.64 50 19.28 50 22 C47.69 22 45.38 22 43 22 C43 24.31 43 26.62 43 29 C40.69 29 38.38 29 36 29 C36 24.05 36 19.1 36 14 C24.12 14 12.24 14 0 14 C0 9.38 0 4.76 0 0 Z " fill="#01D2F9" transform="translate(100,157)"/>
<path d="M0 0 C4.62 0 9.24 0 14 0 C14 4.62 14 9.24 14 14 C16.31 14 18.62 14 21 14 C21 16.31 21 18.62 21 21 C18.69 21 16.38 21 14 21 C14 25.62 14 30.24 14 35 C11.69 35 9.38 35 7 35 C7 32.69 7 30.38 7 28 C2.38 28 -2.24 28 -7 28 C-7 23.38 -7 18.76 -7 14 C-4.69 14 -2.38 14 0 14 C0 9.38 0 4.76 0 0 Z " fill="#06B8DA" transform="translate(86,86)"/>
<path d="M0 0 C4.62 0 9.24 0 14 0 C14 2.31 14 4.62 14 7 C11.69 7 9.38 7 7 7 C7 11.62 7 16.24 7 21 C-4.88 21 -16.76 21 -29 21 C-29 18.69 -29 16.38 -29 14 C-26.69 14 -24.38 14 -22 14 C-22 11.69 -22 9.38 -22 7 C-14.74 7 -7.48 7 0 7 C0 4.69 0 2.38 0 0 Z " fill="#0D98B7" transform="translate(179,200)"/>
<path d="M0 0 C2.31 0 4.62 0 7 0 C7 2.31 7 4.62 7 7 C9.31 7 11.62 7 14 7 C14 21.19 14 35.38 14 50 C11.69 50 9.38 50 7 50 C7 40.43 7 30.86 7 21 C4.69 21 2.38 21 0 21 C0 18.69 0 16.38 0 14 C-2.64 14 -5.28 14 -8 14 C-8 11.69 -8 9.38 -8 7 C-5.36 7 -2.72 7 0 7 C0 4.69 0 2.38 0 0 Z " fill="#01D1F7" transform="translate(179,150)"/>
<path d="M0 0 C4.62 0 9.24 0 14 0 C14 2.31 14 4.62 14 7 C18.62 7 23.24 7 28 7 C28 9.31 28 11.62 28 14 C30.31 14 32.62 14 35 14 C35 11.69 35 9.38 35 7 C37.64 7 40.28 7 43 7 C43 9.31 43 11.62 43 14 C45.31 14 47.62 14 50 14 C50 16.31 50 18.62 50 21 C40.43 21 30.86 21 21 21 C21 18.69 21 16.38 21 14 C16.38 14 11.76 14 7 14 C7 11.69 7 9.38 7 7 C4.69 7 2.38 7 0 7 C0 4.69 0 2.38 0 0 Z " fill="#0C9EBD" transform="translate(36,143)"/>
<path d="M0 0 C2.31 0 4.62 0 7 0 C7 9.57 7 19.14 7 29 C9.31 29 11.62 29 14 29 C14 31.31 14 33.62 14 36 C11.69 36 9.38 36 7 36 C7 38.31 7 40.62 7 43 C4.69 43 2.38 43 0 43 C0 38.38 0 33.76 0 29 C-2.31 29 -4.62 29 -7 29 C-7 24.05 -7 19.1 -7 14 C-4.69 14 -2.38 14 0 14 C0 9.38 0 4.76 0 0 Z " fill="#232B3B" transform="translate(100,107)"/>
<path d="M0 0 C2.31 0 4.62 0 7 0 C7 4.62 7 9.24 7 14 C9.64 14 12.28 14 15 14 C15 16.31 15 18.62 15 21 C17.31 21 19.62 21 22 21 C22 23.31 22 25.62 22 28 C14.74 28 7.48 28 0 28 C0 25.69 0 23.38 0 21 C-2.31 21 -4.62 21 -7 21 C-7 16.38 -7 11.76 -7 7 C-4.69 7 -2.38 7 0 7 C0 4.69 0 2.38 0 0 Z " fill="#08B0D2" transform="translate(164,86)"/>
<path d="M0 0 C4.62 0 9.24 0 14 0 C14 2.31 14 4.62 14 7 C16.31 7 18.62 7 21 7 C21 9.31 21 11.62 21 14 C25.95 14 30.9 14 36 14 C36 18.62 36 23.24 36 28 C31.05 28 26.1 28 21 28 C21 25.69 21 23.38 21 21 C18.69 21 16.38 21 14 21 C14 18.69 14 16.38 14 14 C11.69 14 9.38 14 7 14 C7 11.69 7 9.38 7 7 C4.69 7 2.38 7 0 7 C0 4.69 0 2.38 0 0 Z " fill="#0F91AF" transform="translate(100,43)"/>
<path d="M0 0 C4.62 0 9.24 0 14 0 C14 9.57 14 19.14 14 29 C9.38 29 4.76 29 0 29 C0 19.43 0 9.86 0 0 Z " fill="#03C8ED" transform="translate(79,114)"/>
<path d="M0 0 C2.31 0 4.62 0 7 0 C7 4.62 7 9.24 7 14 C4.69 14 2.38 14 0 14 C0 16.31 0 18.62 0 21 C-4.62 21 -9.24 21 -14 21 C-14 23.31 -14 25.62 -14 28 C-16.31 28 -18.62 28 -21 28 C-21 25.69 -21 23.38 -21 21 C-23.31 21 -25.62 21 -28 21 C-28 18.69 -28 16.38 -28 14 C-21.07 14 -14.14 14 -7 14 C-7 11.69 -7 9.38 -7 7 C-4.69 7 -2.38 7 0 7 C0 4.69 0 2.38 0 0 Z " fill="#07B6D9" transform="translate(214,136)"/>
<path d="M0 0 C4.62 0 9.24 0 14 0 C14 2.31 14 4.62 14 7 C16.31 7 18.62 7 21 7 C21 11.62 21 16.24 21 21 C16.38 21 11.76 21 7 21 C7 18.69 7 16.38 7 14 C2.38 14 -2.24 14 -7 14 C-7 11.69 -7 9.38 -7 7 C-4.69 7 -2.38 7 0 7 C0 4.69 0 2.38 0 0 Z " fill="#0D98B6" transform="translate(150,150)"/>
<path d="M0 0 C9.57 0 19.14 0 29 0 C29 4.95 29 9.9 29 15 C21.74 15 14.48 15 7 15 C7 12.69 7 10.38 7 8 C4.69 8 2.38 8 0 8 C0 5.36 0 2.72 0 0 Z " fill="#0E95B3" transform="translate(107,171)"/>
<path d="M0 0 C2.64 0 5.28 0 8 0 C8 11.88 8 23.76 8 36 C5.36 36 2.72 36 0 36 C0 38.31 0 40.62 0 43 C-2.31 43 -4.62 43 -7 43 C-7 38.38 -7 33.76 -7 29 C-4.69 29 -2.38 29 0 29 C0 19.43 0 9.86 0 0 Z " fill="#137C97" transform="translate(71,171)"/>
<path d="M0 0 C7.26 0 14.52 0 22 0 C22 2.64 22 5.28 22 8 C24.31 8 26.62 8 29 8 C29 10.31 29 12.62 29 15 C19.43 15 9.86 15 0 15 C0 10.05 0 5.1 0 0 Z " fill="#08ADCE" transform="translate(121,71)"/>
<path d="M0 0 C2.31 0 4.62 0 7 0 C7 2.31 7 4.62 7 7 C9.31 7 11.62 7 14 7 C14 11.95 14 16.9 14 22 C11.69 22 9.38 22 7 22 C7 24.31 7 26.62 7 29 C2.38 29 -2.24 29 -7 29 C-7 26.69 -7 24.38 -7 22 C-4.69 22 -2.38 22 0 22 C0 14.74 0 7.48 0 0 Z " fill="#242938" transform="translate(150,114)"/>
<path d="M0 0 C2.64 0 5.28 0 8 0 C8 2.31 8 4.62 8 7 C12.62 7 17.24 7 22 7 C22 11.62 22 16.24 22 21 C17.38 21 12.76 21 8 21 C8 18.69 8 16.38 8 14 C5.36 14 2.72 14 0 14 C0 9.38 0 4.76 0 0 Z " fill="#0BA4C4" transform="translate(71,136)"/>
<path d="M0 0 C2.31 0 4.62 0 7 0 C7 2.31 7 4.62 7 7 C11.95 7 16.9 7 22 7 C22 9.31 22 11.62 22 14 C19.36 14 16.72 14 14 14 C14 18.95 14 23.9 14 29 C11.69 29 9.38 29 7 29 C7 24.05 7 19.1 7 14 C4.69 14 2.38 14 0 14 C0 9.38 0 4.76 0 0 Z " fill="#0BA0C0" transform="translate(157,107)"/>
<path d="M0 0 C2.31 0 4.62 0 7 0 C7 4.62 7 9.24 7 14 C4.69 14 2.38 14 0 14 C0 21.26 0 28.52 0 36 C-2.31 36 -4.62 36 -7 36 C-7 26.43 -7 16.86 -7 7 C-4.69 7 -2.38 7 0 7 C0 4.69 0 2.38 0 0 Z " fill="#0F8DAA" transform="translate(186,43)"/>
<path d="M0 0 C2.64 0 5.28 0 8 0 C8 11.88 8 23.76 8 36 C5.36 36 2.72 36 0 36 C0 24.12 0 12.24 0 0 Z " fill="#176980" transform="translate(71,50)"/>
<path d="M0 0 C7.26 0 14.52 0 22 0 C22 2.31 22 4.62 22 7 C19.69 7 17.38 7 15 7 C15 9.31 15 11.62 15 14 C10.05 14 5.1 14 0 14 C0 9.38 0 4.76 0 0 Z " fill="#0F8EAB" transform="translate(164,143)"/>
<path d="M0 0 C7.26 0 14.52 0 22 0 C22 2.31 22 4.62 22 7 C17.05 7 12.1 7 7 7 C7 9.31 7 11.62 7 14 C2.38 14 -2.24 14 -7 14 C-7 11.69 -7 9.38 -7 7 C-4.69 7 -2.38 7 0 7 C0 4.69 0 2.38 0 0 Z " fill="#0BA1C0" transform="translate(157,207)"/>
<path d="M0 0 C11.88 0 23.76 0 36 0 C36 2.31 36 4.62 36 7 C24.12 7 12.24 7 0 7 C0 4.69 0 2.38 0 0 Z " fill="#1A596F" transform="translate(107,157)"/>
<path d="M0 0 C11.88 0 23.76 0 36 0 C36 2.31 36 4.62 36 7 C24.12 7 12.24 7 0 7 C0 4.69 0 2.38 0 0 Z " fill="#1A596F" transform="translate(107,93)"/>
<path d="M0 0 C2.31 0 4.62 0 7 0 C7 2.31 7 4.62 7 7 C9.31 7 11.62 7 14 7 C14 9.31 14 11.62 14 14 C16.31 14 18.62 14 21 14 C21 16.31 21 18.62 21 21 C16.38 21 11.76 21 7 21 C7 18.69 7 16.38 7 14 C4.69 14 2.38 14 0 14 C0 9.38 0 4.76 0 0 Z " fill="#04C5E9" transform="translate(136,193)"/>
<path d="M0 0 C4.62 0 9.24 0 14 0 C14 2.31 14 4.62 14 7 C11.69 7 9.38 7 7 7 C7 11.62 7 16.24 7 21 C4.69 21 2.38 21 0 21 C0 18.69 0 16.38 0 14 C-2.31 14 -4.62 14 -7 14 C-7 11.69 -7 9.38 -7 7 C-4.69 7 -2.38 7 0 7 C0 4.69 0 2.38 0 0 Z " fill="#03C6EB" transform="translate(150,86)"/>
<path d="M0 0 C4.62 0 9.24 0 14 0 C14 2.31 14 4.62 14 7 C11.69 7 9.38 7 7 7 C7 9.31 7 11.62 7 14 C4.69 14 2.38 14 0 14 C0 16.31 0 18.62 0 21 C-2.31 21 -4.62 21 -7 21 C-7 16.38 -7 11.76 -7 7 C-4.69 7 -2.38 7 0 7 C0 4.69 0 2.38 0 0 Z " fill="#0B9FBE" transform="translate(143,43)"/>
<path d="M0 0 C4.62 0 9.24 0 14 0 C14 2.31 14 4.62 14 7 C11.69 7 9.38 7 7 7 C7 9.31 7 11.62 7 14 C0.07 14 -6.86 14 -14 14 C-14 11.69 -14 9.38 -14 7 C-9.38 7 -4.76 7 0 7 C0 4.69 0 2.38 0 0 Z " fill="#0F8FAC" transform="translate(93,36)"/>
<path d="M0 0 C2.64 0 5.28 0 8 0 C8 9.57 8 19.14 8 29 C5.36 29 2.72 29 0 29 C0 19.43 0 9.86 0 0 Z " fill="#03C9EE" transform="translate(221,114)"/>
<path d="M0 0 C4.95 0 9.9 0 15 0 C15 2.31 15 4.62 15 7 C12.69 7 10.38 7 8 7 C8 11.62 8 16.24 8 21 C5.36 21 2.72 21 0 21 C0 14.07 0 7.14 0 0 Z " fill="#00D8FF" transform="translate(71,93)"/>
<path d="M0 0 C4.95 0 9.9 0 15 0 C15 4.62 15 9.24 15 14 C10.05 14 5.1 14 0 14 C0 9.38 0 4.76 0 0 Z " fill="#01D2F9" transform="translate(121,186)"/>
<path d="M0 0 C2.64 0 5.28 0 8 0 C8 2.31 8 4.62 8 7 C10.31 7 12.62 7 15 7 C15 9.31 15 11.62 15 14 C7.74 14 0.48 14 -7 14 C-7 11.69 -7 9.38 -7 7 C-4.69 7 -2.38 7 0 7 C0 4.69 0 2.38 0 0 Z " fill="#00D6FD" transform="translate(71,150)"/>
<path d="M0 0 C4.95 0 9.9 0 15 0 C15 4.62 15 9.24 15 14 C10.05 14 5.1 14 0 14 C0 9.38 0 4.76 0 0 Z " fill="#00D6FD" transform="translate(121,57)"/>
<path d="M0 0 C2.31 0 4.62 0 7 0 C7 9.57 7 19.14 7 29 C4.69 29 2.38 29 0 29 C0 19.43 0 9.86 0 0 Z " fill="#147892" transform="translate(179,171)"/>
<path d="M0 0 C2.31 0 4.62 0 7 0 C7 9.57 7 19.14 7 29 C4.69 29 2.38 29 0 29 C0 19.43 0 9.86 0 0 Z " fill="#07B4D6" transform="translate(64,171)"/>
<path d="M0 0 C2.31 0 4.62 0 7 0 C7 2.31 7 4.62 7 7 C9.31 7 11.62 7 14 7 C14 9.31 14 11.62 14 14 C6.74 14 -0.52 14 -8 14 C-8 11.69 -8 9.38 -8 7 C-5.36 7 -2.72 7 0 7 C0 4.69 0 2.38 0 0 Z " fill="#01D2F9" transform="translate(179,150)"/>
<path d="M0 0 C2.31 0 4.62 0 7 0 C7 6.93 7 13.86 7 21 C4.69 21 2.38 21 0 21 C0 18.69 0 16.38 0 14 C-2.64 14 -5.28 14 -8 14 C-8 11.69 -8 9.38 -8 7 C-5.36 7 -2.72 7 0 7 C0 4.69 0 2.38 0 0 Z " fill="#01CFF5" transform="translate(179,86)"/>
<path d="M0 0 C9.57 0 19.14 0 29 0 C29 2.31 29 4.62 29 7 C19.43 7 9.86 7 0 7 C0 4.69 0 2.38 0 0 Z " fill="#01D0F6" transform="translate(121,86)"/>
<path d="M0 0 C2.31 0 4.62 0 7 0 C7 9.57 7 19.14 7 29 C4.69 29 2.38 29 0 29 C0 19.43 0 9.86 0 0 Z " fill="#04C4E8" transform="translate(64,57)"/>
<path d="M0 0 C7.26 0 14.52 0 22 0 C22 4.62 22 9.24 22 14 C19.69 14 17.38 14 15 14 C15 11.69 15 9.38 15 7 C10.05 7 5.1 7 0 7 C0 4.69 0 2.38 0 0 Z " fill="#06BBDE" transform="translate(164,36)"/>
<path d="M0 0 C2.31 0 4.62 0 7 0 C7 4.62 7 9.24 7 14 C4.69 14 2.38 14 0 14 C0 16.31 0 18.62 0 21 C-2.31 21 -4.62 21 -7 21 C-7 16.38 -7 11.76 -7 7 C-4.69 7 -2.38 7 0 7 C0 4.69 0 2.38 0 0 Z " fill="#06B9DC" transform="translate(114,193)"/>
<path d="M0 0 C2.31 0 4.62 0 7 0 C7 2.31 7 4.62 7 7 C11.62 7 16.24 7 21 7 C21 9.31 21 11.62 21 14 C14.07 14 7.14 14 0 14 C0 9.38 0 4.76 0 0 Z " fill="#02CDF2" transform="translate(100,157)"/>
<path d="M0 0 C2.31 0 4.62 0 7 0 C7 4.62 7 9.24 7 14 C4.69 14 2.38 14 0 14 C0 16.31 0 18.62 0 21 C-2.31 21 -4.62 21 -7 21 C-7 16.38 -7 11.76 -7 7 C-4.69 7 -2.38 7 0 7 C0 4.69 0 2.38 0 0 Z " fill="#0AA6C6" transform="translate(214,136)"/>
<path d="M0 0 C4.62 0 9.24 0 14 0 C14 4.62 14 9.24 14 14 C9.38 14 4.76 14 0 14 C0 9.38 0 4.76 0 0 Z " fill="#0F90AD" transform="translate(79,100)"/>
<path d="M0 0 C2.31 0 4.62 0 7 0 C7 4.62 7 9.24 7 14 C4.69 14 2.38 14 0 14 C0 16.31 0 18.62 0 21 C-2.31 21 -4.62 21 -7 21 C-7 16.38 -7 11.76 -7 7 C-4.69 7 -2.38 7 0 7 C0 4.69 0 2.38 0 0 Z " fill="#0E95B3" transform="translate(164,86)"/>
<path d="M0 0 C4.62 0 9.24 0 14 0 C14 2.31 14 4.62 14 7 C11.69 7 9.38 7 7 7 C7 9.31 7 11.62 7 14 C2.38 14 -2.24 14 -7 14 C-7 11.69 -7 9.38 -7 7 C-4.69 7 -2.38 7 0 7 C0 4.69 0 2.38 0 0 Z " fill="#0BA0BF" transform="translate(43,100)"/>
<path d="M0 0 C4.62 0 9.24 0 14 0 C14 4.62 14 9.24 14 14 C9.38 14 4.76 14 0 14 C0 9.38 0 4.76 0 0 Z " fill="#0D98B7" transform="translate(86,86)"/>
<path d="M0 0 C2.64 0 5.28 0 8 0 C8 7.26 8 14.52 8 22 C5.36 22 2.72 22 0 22 C0 14.74 0 7.48 0 0 Z " fill="#0E96B4" transform="translate(21,114)"/>
<path d="M0 0 C4.62 0 9.24 0 14 0 C14 2.64 14 5.28 14 8 C11.69 8 9.38 8 7 8 C7 10.31 7 12.62 7 15 C4.69 15 2.38 15 0 15 C0 10.05 0 5.1 0 0 Z " fill="#0BA1C0" transform="translate(136,171)"/>
<path d="M0 0 C4.95 0 9.9 0 15 0 C15 2.31 15 4.62 15 7 C12.36 7 9.72 7 7 7 C7 9.31 7 11.62 7 14 C4.69 14 2.38 14 0 14 C0 9.38 0 4.76 0 0 Z " fill="#12809B" transform="translate(64,200)"/>
<path d="M0 0 C2.31 0 4.62 0 7 0 C7 7.26 7 14.52 7 22 C4.69 22 2.38 22 0 22 C0 14.74 0 7.48 0 0 Z " fill="#05BFE3" transform="translate(114,71)"/>
<path d="M0 0 C2.31 0 4.62 0 7 0 C7 7.26 7 14.52 7 22 C4.69 22 2.38 22 0 22 C0 14.74 0 7.48 0 0 Z " fill="#01D1F7" transform="translate(186,57)"/>
<path d="M0 0 C4.62 0 9.24 0 14 0 C14 2.31 14 4.62 14 7 C11.69 7 9.38 7 7 7 C7 9.31 7 11.62 7 14 C4.69 14 2.38 14 0 14 C0 9.38 0 4.76 0 0 Z " fill="#0BA1C0" transform="translate(93,207)"/>
<path d="M0 0 C4.62 0 9.24 0 14 0 C14 4.62 14 9.24 14 14 C11.69 14 9.38 14 7 14 C7 11.69 7 9.38 7 7 C4.69 7 2.38 7 0 7 C0 4.69 0 2.38 0 0 Z " fill="#12809B" transform="translate(36,143)"/>
<path d="M0 0 C4.62 0 9.24 0 14 0 C14 2.31 14 4.62 14 7 C11.69 7 9.38 7 7 7 C7 9.31 7 11.62 7 14 C4.69 14 2.38 14 0 14 C0 9.38 0 4.76 0 0 Z " fill="#0AA9CA" transform="translate(157,136)"/>
<path d="M0 0 C4.62 0 9.24 0 14 0 C14 4.62 14 9.24 14 14 C11.69 14 9.38 14 7 14 C7 11.69 7 9.38 7 7 C4.69 7 2.38 7 0 7 C0 4.69 0 2.38 0 0 Z " fill="#04C3E8" transform="translate(207,107)"/>
<path d="M0 0 C2.31 0 4.62 0 7 0 C7 2.31 7 4.62 7 7 C9.31 7 11.62 7 14 7 C14 9.31 14 11.62 14 14 C9.38 14 4.76 14 0 14 C0 9.38 0 4.76 0 0 Z " fill="#0E94B1" transform="translate(57,93)"/>
<path d="M0 0 C4.95 0 9.9 0 15 0 C15 2.64 15 5.28 15 8 C10.05 8 5.1 8 0 8 C0 5.36 0 2.72 0 0 Z " fill="#242938" transform="translate(121,171)"/>
<path d="M0 0 C2.64 0 5.28 0 8 0 C8 4.95 8 9.9 8 15 C5.36 15 2.72 15 0 15 C0 10.05 0 5.1 0 0 Z " fill="#203A4C" transform="translate(71,114)"/>
<path d="M0 0 C2.64 0 5.28 0 8 0 C8 4.62 8 9.24 8 14 C5.36 14 2.72 14 0 14 C0 9.38 0 4.76 0 0 Z " fill="#18667D" transform="translate(71,186)"/>
<path d="M0 0 C2.64 0 5.28 0 8 0 C8 4.62 8 9.24 8 14 C5.36 14 2.72 14 0 14 C0 9.38 0 4.76 0 0 Z " fill="#176B83" transform="translate(71,50)"/>
<path d="M0 0 C4.95 0 9.9 0 15 0 C15 2.31 15 4.62 15 7 C10.05 7 5.1 7 0 7 C0 4.69 0 2.38 0 0 Z " fill="#06BDE0" transform="translate(164,214)"/>
<path d="M0 0 C4.95 0 9.9 0 15 0 C15 2.31 15 4.62 15 7 C10.05 7 5.1 7 0 7 C0 4.69 0 2.38 0 0 Z " fill="#12809B" transform="translate(164,207)"/>
<path d="M0 0 C4.95 0 9.9 0 15 0 C15 2.31 15 4.62 15 7 C10.05 7 5.1 7 0 7 C0 4.69 0 2.38 0 0 Z " fill="#1186A1" transform="translate(121,179)"/>
<path d="M0 0 C4.95 0 9.9 0 15 0 C15 2.31 15 4.62 15 7 C10.05 7 5.1 7 0 7 C0 4.69 0 2.38 0 0 Z " fill="#08B3D4" transform="translate(64,164)"/>
<path d="M0 0 C4.95 0 9.9 0 15 0 C15 2.31 15 4.62 15 7 C10.05 7 5.1 7 0 7 C0 4.69 0 2.38 0 0 Z " fill="#18637A" transform="translate(164,150)"/>
<path d="M0 0 C4.95 0 9.9 0 15 0 C15 2.31 15 4.62 15 7 C10.05 7 5.1 7 0 7 C0 4.69 0 2.38 0 0 Z " fill="#11809B" transform="translate(121,143)"/>
<path d="M0 0 C2.31 0 4.62 0 7 0 C7 4.95 7 9.9 7 15 C4.69 15 2.38 15 0 15 C0 10.05 0 5.1 0 0 Z " fill="#176B83" transform="translate(229,121)"/>
<path d="M0 0 C2.31 0 4.62 0 7 0 C7 4.95 7 9.9 7 15 C4.69 15 2.38 15 0 15 C0 10.05 0 5.1 0 0 Z " fill="#00D6FD" transform="translate(164,121)"/>
<path d="M0 0 C2.31 0 4.62 0 7 0 C7 4.95 7 9.9 7 15 C4.69 15 2.38 15 0 15 C0 10.05 0 5.1 0 0 Z " fill="#1E4558" transform="translate(157,121)"/>
<path d="M0 0 C2.31 0 4.62 0 7 0 C7 4.95 7 9.9 7 15 C4.69 15 2.38 15 0 15 C0 10.05 0 5.1 0 0 Z " fill="#137893" transform="translate(143,121)"/>
<path d="M0 0 C2.31 0 4.62 0 7 0 C7 4.95 7 9.9 7 15 C4.69 15 2.38 15 0 15 C0 10.05 0 5.1 0 0 Z " fill="#0E94B2" transform="translate(107,121)"/>
<path d="M0 0 C4.95 0 9.9 0 15 0 C15 2.31 15 4.62 15 7 C10.05 7 5.1 7 0 7 C0 4.69 0 2.38 0 0 Z " fill="#0F8DAA" transform="translate(121,107)"/>
<path d="M0 0 C4.95 0 9.9 0 15 0 C15 2.31 15 4.62 15 7 C10.05 7 5.1 7 0 7 C0 4.69 0 2.38 0 0 Z " fill="#242938" transform="translate(121,79)"/>
<path d="M0 0 C2.31 0 4.62 0 7 0 C7 4.95 7 9.9 7 15 C4.69 15 2.38 15 0 15 C0 10.05 0 5.1 0 0 Z " fill="#14758E" transform="translate(179,64)"/>
<path d="M0 0 C4.95 0 9.9 0 15 0 C15 2.31 15 4.62 15 7 C10.05 7 5.1 7 0 7 C0 4.69 0 2.38 0 0 Z " fill="#1D4B5F" transform="translate(121,50)"/>
<path d="M0 0 C4.62 0 9.24 0 14 0 C14 2.31 14 4.62 14 7 C9.38 7 4.76 7 0 7 C0 4.69 0 2.38 0 0 Z " fill="#00D8FF" transform="translate(79,214)"/>
<path d="M0 0 C4.62 0 9.24 0 14 0 C14 2.31 14 4.62 14 7 C9.38 7 4.76 7 0 7 C0 4.69 0 2.38 0 0 Z " fill="#1B556A" transform="translate(79,207)"/>
<path d="M0 0 C2.31 0 4.62 0 7 0 C7 4.62 7 9.24 7 14 C4.69 14 2.38 14 0 14 C0 9.38 0 4.76 0 0 Z " fill="#166E86" transform="translate(179,186)"/>
<path d="M0 0 C2.31 0 4.62 0 7 0 C7 4.62 7 9.24 7 14 C4.69 14 2.38 14 0 14 C0 9.38 0 4.76 0 0 Z " fill="#04C2E6" transform="translate(64,186)"/>
<path d="M0 0 C4.62 0 9.24 0 14 0 C14 2.31 14 4.62 14 7 C9.38 7 4.76 7 0 7 C0 4.69 0 2.38 0 0 Z " fill="#0C9CBB" transform="translate(179,164)"/>
<path d="M0 0 C4.62 0 9.24 0 14 0 C14 2.31 14 4.62 14 7 C9.38 7 4.76 7 0 7 C0 4.69 0 2.38 0 0 Z " fill="#0BA1C0" transform="translate(79,164)"/>
<path d="M0 0 C4.62 0 9.24 0 14 0 C14 2.31 14 4.62 14 7 C9.38 7 4.76 7 0 7 C0 4.69 0 2.38 0 0 Z " fill="#02CEF4" transform="translate(143,157)"/>
<path d="M0 0 C4.62 0 9.24 0 14 0 C14 2.31 14 4.62 14 7 C9.38 7 4.76 7 0 7 C0 4.69 0 2.38 0 0 Z " fill="#186279" transform="translate(107,157)"/>
<path d="M0 0 C2.31 0 4.62 0 7 0 C7 4.62 7 9.24 7 14 C4.69 14 2.38 14 0 14 C0 9.38 0 4.76 0 0 Z " fill="#195D74" transform="translate(164,100)"/>
<path d="M0 0 C2.31 0 4.62 0 7 0 C7 4.62 7 9.24 7 14 C4.69 14 2.38 14 0 14 C0 9.38 0 4.76 0 0 Z " fill="#0C9EBD" transform="translate(164,86)"/>
<path d="M0 0 C4.62 0 9.24 0 14 0 C14 2.31 14 4.62 14 7 C9.38 7 4.76 7 0 7 C0 4.69 0 2.38 0 0 Z " fill="#186279" transform="translate(107,93)"/>
<path d="M0 0 C4.62 0 9.24 0 14 0 C14 2.31 14 4.62 14 7 C9.38 7 4.76 7 0 7 C0 4.69 0 2.38 0 0 Z " fill="#0F8DAA" transform="translate(86,86)"/>
<path d="M0 0 C2.31 0 4.62 0 7 0 C7 4.62 7 9.24 7 14 C4.69 14 2.38 14 0 14 C0 9.38 0 4.76 0 0 Z " fill="#08B2D4" transform="translate(114,50)"/>
<path d="M0 0 C2.31 0 4.62 0 7 0 C7 4.62 7 9.24 7 14 C4.69 14 2.38 14 0 14 C0 9.38 0 4.76 0 0 Z " fill="#01CFF5" transform="translate(64,57)"/>
<path d="M0 0 C2.31 0 4.62 0 7 0 C7 4.62 7 9.24 7 14 C4.69 14 2.38 14 0 14 C0 9.38 0 4.76 0 0 Z " fill="#07B7DA" transform="translate(64,43)"/>
<path d="M0 0 C4.62 0 9.24 0 14 0 C14 2.31 14 4.62 14 7 C9.38 7 4.76 7 0 7 C0 4.69 0 2.38 0 0 Z " fill="#1B556A" transform="translate(79,43)"/>
<path d="M0 0 C2.64 0 5.28 0 8 0 C8 2.64 8 5.28 8 8 C5.36 8 2.72 8 0 8 C0 5.36 0 2.72 0 0 Z " fill="#12809B" transform="translate(121,71)"/>
<path d="M0 0 C2.31 0 4.62 0 7 0 C7 2.64 7 5.28 7 8 C4.69 8 2.38 8 0 8 C0 5.36 0 2.72 0 0 Z " fill="#333333" transform="translate(0,221)"/>
<path d="M0 0 C2.64 0 5.28 0 8 0 C8 2.31 8 4.62 8 7 C5.36 7 2.72 7 0 7 C0 4.69 0 2.38 0 0 Z " fill="#00D8FF" transform="translate(71,207)"/>
<path d="M0 0 C2.64 0 5.28 0 8 0 C8 2.31 8 4.62 8 7 C5.36 7 2.72 7 0 7 C0 4.69 0 2.38 0 0 Z " fill="#1A596F" transform="translate(71,186)"/>
<path d="M0 0 C2.64 0 5.28 0 8 0 C8 2.31 8 4.62 8 7 C5.36 7 2.72 7 0 7 C0 4.69 0 2.38 0 0 Z " fill="#176B83" transform="translate(71,179)"/>
<path d="M0 0 C2.31 0 4.62 0 7 0 C7 2.64 7 5.28 7 8 C4.69 8 2.38 8 0 8 C0 5.36 0 2.72 0 0 Z " fill="#07B6D9" transform="translate(186,171)"/>
<path d="M0 0 C2.64 0 5.28 0 8 0 C8 2.31 8 4.62 8 7 C5.36 7 2.72 7 0 7 C0 4.69 0 2.38 0 0 Z " fill="#186279" transform="translate(171,164)"/>
<path d="M0 0 C2.64 0 5.28 0 8 0 C8 2.31 8 4.62 8 7 C5.36 7 2.72 7 0 7 C0 4.69 0 2.38 0 0 Z " fill="#1C4F63" transform="translate(221,143)"/>
<path d="M0 0 C2.64 0 5.28 0 8 0 C8 2.31 8 4.62 8 7 C5.36 7 2.72 7 0 7 C0 4.69 0 2.38 0 0 Z " fill="#00D8FF" transform="translate(221,136)"/>
<path d="M0 0 C2.64 0 5.28 0 8 0 C8 2.31 8 4.62 8 7 C5.36 7 2.72 7 0 7 C0 4.69 0 2.38 0 0 Z " fill="#03C8EC" transform="translate(171,136)"/>
<path d="M0 0 C2.64 0 5.28 0 8 0 C8 2.31 8 4.62 8 7 C5.36 7 2.72 7 0 7 C0 4.69 0 2.38 0 0 Z " fill="#157088" transform="translate(71,136)"/>
<path d="M0 0 C2.64 0 5.28 0 8 0 C8 2.31 8 4.62 8 7 C5.36 7 2.72 7 0 7 C0 4.69 0 2.38 0 0 Z " fill="#1D4A5D" transform="translate(21,136)"/>
<path d="M0 0 C2.64 0 5.28 0 8 0 C8 2.31 8 4.62 8 7 C5.36 7 2.72 7 0 7 C0 4.69 0 2.38 0 0 Z " fill="#108BA8" transform="translate(21,129)"/>
<path d="M0 0 C2.64 0 5.28 0 8 0 C8 2.31 8 4.62 8 7 C5.36 7 2.72 7 0 7 C0 4.69 0 2.38 0 0 Z " fill="#00D8FF" transform="translate(221,114)"/>
<path d="M0 0 C2.64 0 5.28 0 8 0 C8 2.31 8 4.62 8 7 C5.36 7 2.72 7 0 7 C0 4.69 0 2.38 0 0 Z " fill="#00D8FF" transform="translate(171,114)"/>
<path d="M0 0 C2.64 0 5.28 0 8 0 C8 2.31 8 4.62 8 7 C5.36 7 2.72 7 0 7 C0 4.69 0 2.38 0 0 Z " fill="#12809B" transform="translate(71,114)"/>
<path d="M0 0 C2.64 0 5.28 0 8 0 C8 2.31 8 4.62 8 7 C5.36 7 2.72 7 0 7 C0 4.69 0 2.38 0 0 Z " fill="#17677F" transform="translate(21,114)"/>
<path d="M0 0 C2.64 0 5.28 0 8 0 C8 2.31 8 4.62 8 7 C5.36 7 2.72 7 0 7 C0 4.69 0 2.38 0 0 Z " fill="#1A596E" transform="translate(221,107)"/>
<path d="M0 0 C2.64 0 5.28 0 8 0 C8 2.31 8 4.62 8 7 C5.36 7 2.72 7 0 7 C0 4.69 0 2.38 0 0 Z " fill="#09ABCC" transform="translate(71,107)"/>
<path d="M0 0 C2.64 0 5.28 0 8 0 C8 2.31 8 4.62 8 7 C5.36 7 2.72 7 0 7 C0 4.69 0 2.38 0 0 Z " fill="#137B95" transform="translate(171,100)"/>
<path d="M0 0 C2.64 0 5.28 0 8 0 C8 2.31 8 4.62 8 7 C5.36 7 2.72 7 0 7 C0 4.69 0 2.38 0 0 Z " fill="#195D73" transform="translate(171,86)"/>
<path d="M0 0 C2.64 0 5.28 0 8 0 C8 2.31 8 4.62 8 7 C5.36 7 2.72 7 0 7 C0 4.69 0 2.38 0 0 Z " fill="#147992" transform="translate(71,79)"/>
<path d="M0 0 C2.31 0 4.62 0 7 0 C7 2.64 7 5.28 7 8 C4.69 8 2.38 8 0 8 C0 5.36 0 2.72 0 0 Z " fill="#07B6D9" transform="translate(186,71)"/>
<path d="M0 0 C2.31 0 4.62 0 7 0 C7 2.64 7 5.28 7 8 C4.69 8 2.38 8 0 8 C0 5.36 0 2.72 0 0 Z " fill="#00D8FF" transform="translate(114,71)"/>
<path d="M0 0 C2.31 0 4.62 0 7 0 C7 2.64 7 5.28 7 8 C4.69 8 2.38 8 0 8 C0 5.36 0 2.72 0 0 Z " fill="#18637A" transform="translate(107,71)"/>
<path d="M0 0 C2.64 0 5.28 0 8 0 C8 2.31 8 4.62 8 7 C5.36 7 2.72 7 0 7 C0 4.69 0 2.38 0 0 Z " fill="#1A596E" transform="translate(71,64)"/>
<path d="M0 0 C2.64 0 5.28 0 8 0 C8 2.31 8 4.62 8 7 C5.36 7 2.72 7 0 7 C0 4.69 0 2.38 0 0 Z " fill="#12809B" transform="translate(71,50)"/>
<path d="M0 0 C2.64 0 5.28 0 8 0 C8 2.31 8 4.62 8 7 C5.36 7 2.72 7 0 7 C0 4.69 0 2.38 0 0 Z " fill="#12809B" transform="translate(171,43)"/>
<path d="M0 0 C2.64 0 5.28 0 8 0 C8 2.31 8 4.62 8 7 C5.36 7 2.72 7 0 7 C0 4.69 0 2.38 0 0 Z " fill="#00D8FF" transform="translate(71,43)"/>
<path d="M0 0 C2.64 0 5.28 0 8 0 C8 2.31 8 4.62 8 7 C5.36 7 2.72 7 0 7 C0 4.69 0 2.38 0 0 Z " fill="#0C9CBB" transform="translate(71,36)"/>
<path d="M0 0 C2.64 0 5.28 0 8 0 C8 2.31 8 4.62 8 7 C5.36 7 2.72 7 0 7 C0 4.69 0 2.38 0 0 Z " fill="#333333" transform="translate(221,0)"/>
<path d="M0 0 C2.31 0 4.62 0 7 0 C7 2.31 7 4.62 7 7 C4.69 7 2.38 7 0 7 C0 4.69 0 2.38 0 0 Z " fill="#137C96" transform="translate(179,214)"/>
<path d="M0 0 C2.31 0 4.62 0 7 0 C7 2.31 7 4.62 7 7 C4.69 7 2.38 7 0 7 C0 4.69 0 2.38 0 0 Z " fill="#00D8FF" transform="translate(164,214)"/>
<path d="M0 0 C2.31 0 4.62 0 7 0 C7 2.31 7 4.62 7 7 C4.69 7 2.38 7 0 7 C0 4.69 0 2.38 0 0 Z " fill="#176981" transform="translate(150,214)"/>
<path d="M0 0 C2.31 0 4.62 0 7 0 C7 2.31 7 4.62 7 7 C4.69 7 2.38 7 0 7 C0 4.69 0 2.38 0 0 Z " fill="#176981" transform="translate(100,214)"/>
<path d="M0 0 C2.31 0 4.62 0 7 0 C7 2.31 7 4.62 7 7 C4.69 7 2.38 7 0 7 C0 4.69 0 2.38 0 0 Z " fill="#05C1E4" transform="translate(79,214)"/>
<path d="M0 0 C2.31 0 4.62 0 7 0 C7 2.31 7 4.62 7 7 C4.69 7 2.38 7 0 7 C0 4.69 0 2.38 0 0 Z " fill="#17677F" transform="translate(186,207)"/>
<path d="M0 0 C2.31 0 4.62 0 7 0 C7 2.31 7 4.62 7 7 C4.69 7 2.38 7 0 7 C0 4.69 0 2.38 0 0 Z " fill="#00D8FF" transform="translate(179,207)"/>
<path d="M0 0 C2.31 0 4.62 0 7 0 C7 2.31 7 4.62 7 7 C4.69 7 2.38 7 0 7 C0 4.69 0 2.38 0 0 Z " fill="#1A5C72" transform="translate(164,207)"/>
<path d="M0 0 C2.31 0 4.62 0 7 0 C7 2.31 7 4.62 7 7 C4.69 7 2.38 7 0 7 C0 4.69 0 2.38 0 0 Z " fill="#0F8DAA" transform="translate(157,207)"/>
<path d="M0 0 C2.31 0 4.62 0 7 0 C7 2.31 7 4.62 7 7 C4.69 7 2.38 7 0 7 C0 4.69 0 2.38 0 0 Z " fill="#00D8FF" transform="translate(150,207)"/>
<path d="M0 0 C2.31 0 4.62 0 7 0 C7 2.31 7 4.62 7 7 C4.69 7 2.38 7 0 7 C0 4.69 0 2.38 0 0 Z " fill="#0C9EBD" transform="translate(143,207)"/>
<path d="M0 0 C2.31 0 4.62 0 7 0 C7 2.31 7 4.62 7 7 C4.69 7 2.38 7 0 7 C0 4.69 0 2.38 0 0 Z " fill="#1F4355" transform="translate(136,207)"/>
<path d="M0 0 C2.31 0 4.62 0 7 0 C7 2.31 7 4.62 7 7 C4.69 7 2.38 7 0 7 C0 4.69 0 2.38 0 0 Z " fill="#108AA6" transform="translate(107,207)"/>
<path d="M0 0 C2.31 0 4.62 0 7 0 C7 2.31 7 4.62 7 7 C4.69 7 2.38 7 0 7 C0 4.69 0 2.38 0 0 Z " fill="#00D8FF" transform="translate(100,207)"/>
<path d="M0 0 C2.31 0 4.62 0 7 0 C7 2.31 7 4.62 7 7 C4.69 7 2.38 7 0 7 C0 4.69 0 2.38 0 0 Z " fill="#137A94" transform="translate(79,207)"/>
<path d="M0 0 C2.31 0 4.62 0 7 0 C7 2.31 7 4.62 7 7 C4.69 7 2.38 7 0 7 C0 4.69 0 2.38 0 0 Z " fill="#166C85" transform="translate(64,207)"/>
<path d="M0 0 C2.31 0 4.62 0 7 0 C7 2.31 7 4.62 7 7 C4.69 7 2.38 7 0 7 C0 4.69 0 2.38 0 0 Z " fill="#12809B" transform="translate(179,200)"/>
<path d="M0 0 C2.31 0 4.62 0 7 0 C7 2.31 7 4.62 7 7 C4.69 7 2.38 7 0 7 C0 4.69 0 2.38 0 0 Z " fill="#1B556A" transform="translate(150,200)"/>
<path d="M0 0 C2.31 0 4.62 0 7 0 C7 2.31 7 4.62 7 7 C4.69 7 2.38 7 0 7 C0 4.69 0 2.38 0 0 Z " fill="#09ACCD" transform="translate(143,200)"/>
<path d="M0 0 C2.31 0 4.62 0 7 0 C7 2.31 7 4.62 7 7 C4.69 7 2.38 7 0 7 C0 4.69 0 2.38 0 0 Z " fill="#186279" transform="translate(129,200)"/>
<path d="M0 0 C2.31 0 4.62 0 7 0 C7 2.31 7 4.62 7 7 C4.69 7 2.38 7 0 7 C0 4.69 0 2.38 0 0 Z " fill="#09ACCD" transform="translate(107,200)"/>
<path d="M0 0 C2.31 0 4.62 0 7 0 C7 2.31 7 4.62 7 7 C4.69 7 2.38 7 0 7 C0 4.69 0 2.38 0 0 Z " fill="#1B556A" transform="translate(100,200)"/>
<path d="M0 0 C2.31 0 4.62 0 7 0 C7 2.31 7 4.62 7 7 C4.69 7 2.38 7 0 7 C0 4.69 0 2.38 0 0 Z " fill="#0D98B7" transform="translate(64,200)"/>
<path d="M0 0 C2.31 0 4.62 0 7 0 C7 2.31 7 4.62 7 7 C4.69 7 2.38 7 0 7 C0 4.69 0 2.38 0 0 Z " fill="#04C2E6" transform="translate(186,193)"/>
<path d="M0 0 C2.31 0 4.62 0 7 0 C7 2.31 7 4.62 7 7 C4.69 7 2.38 7 0 7 C0 4.69 0 2.38 0 0 Z " fill="#12809B" transform="translate(136,193)"/>
<path d="M0 0 C2.31 0 4.62 0 7 0 C7 2.31 7 4.62 7 7 C4.69 7 2.38 7 0 7 C0 4.69 0 2.38 0 0 Z " fill="#12809B" transform="translate(114,193)"/>
<path d="M0 0 C2.31 0 4.62 0 7 0 C7 2.31 7 4.62 7 7 C4.69 7 2.38 7 0 7 C0 4.69 0 2.38 0 0 Z " fill="#1B556A" transform="translate(179,186)"/>
<path d="M0 0 C2.31 0 4.62 0 7 0 C7 2.31 7 4.62 7 7 C4.69 7 2.38 7 0 7 C0 4.69 0 2.38 0 0 Z " fill="#1E4558" transform="translate(136,186)"/>
<path d="M0 0 C2.31 0 4.62 0 7 0 C7 2.31 7 4.62 7 7 C4.69 7 2.38 7 0 7 C0 4.69 0 2.38 0 0 Z " fill="#1C5065" transform="translate(114,186)"/>
<path d="M0 0 C2.31 0 4.62 0 7 0 C7 2.31 7 4.62 7 7 C4.69 7 2.38 7 0 7 C0 4.69 0 2.38 0 0 Z " fill="#01D1F7" transform="translate(64,186)"/>
<path d="M0 0 C2.31 0 4.62 0 7 0 C7 2.31 7 4.62 7 7 C4.69 7 2.38 7 0 7 C0 4.69 0 2.38 0 0 Z " fill="#04C4E8" transform="translate(186,179)"/>
<path d="M0 0 C2.31 0 4.62 0 7 0 C7 2.31 7 4.62 7 7 C4.69 7 2.38 7 0 7 C0 4.69 0 2.38 0 0 Z " fill="#17667E" transform="translate(179,179)"/>
<path d="M0 0 C2.31 0 4.62 0 7 0 C7 2.31 7 4.62 7 7 C4.69 7 2.38 7 0 7 C0 4.69 0 2.38 0 0 Z " fill="#1E475A" transform="translate(143,179)"/>
<path d="M0 0 C2.31 0 4.62 0 7 0 C7 2.31 7 4.62 7 7 C4.69 7 2.38 7 0 7 C0 4.69 0 2.38 0 0 Z " fill="#05BFE3" transform="translate(136,179)"/>
<path d="M0 0 C2.31 0 4.62 0 7 0 C7 2.31 7 4.62 7 7 C4.69 7 2.38 7 0 7 C0 4.69 0 2.38 0 0 Z " fill="#0E95B3" transform="translate(129,179)"/>
<path d="M0 0 C2.31 0 4.62 0 7 0 C7 2.31 7 4.62 7 7 C4.69 7 2.38 7 0 7 C0 4.69 0 2.38 0 0 Z " fill="#05BFE3" transform="translate(114,179)"/>
<path d="M0 0 C2.31 0 4.62 0 7 0 C7 2.31 7 4.62 7 7 C4.69 7 2.38 7 0 7 C0 4.69 0 2.38 0 0 Z " fill="#1E475A" transform="translate(107,179)"/>
<path d="M0 0 C2.31 0 4.62 0 7 0 C7 2.31 7 4.62 7 7 C4.69 7 2.38 7 0 7 C0 4.69 0 2.38 0 0 Z " fill="#04C2E6" transform="translate(64,179)"/>
<path d="M0 0 C2.31 0 4.62 0 7 0 C7 2.31 7 4.62 7 7 C4.69 7 2.38 7 0 7 C0 4.69 0 2.38 0 0 Z " fill="#0BA5C5" transform="translate(179,164)"/>
<path d="M0 0 C2.31 0 4.62 0 7 0 C7 2.31 7 4.62 7 7 C4.69 7 2.38 7 0 7 C0 4.69 0 2.38 0 0 Z " fill="#108BA8" transform="translate(164,164)"/>
<path d="M0 0 C2.31 0 4.62 0 7 0 C7 2.31 7 4.62 7 7 C4.69 7 2.38 7 0 7 C0 4.69 0 2.38 0 0 Z " fill="#09AFD0" transform="translate(157,164)"/>
<path d="M0 0 C2.31 0 4.62 0 7 0 C7 2.31 7 4.62 7 7 C4.69 7 2.38 7 0 7 C0 4.69 0 2.38 0 0 Z " fill="#04C5E9" transform="translate(150,164)"/>
<path d="M0 0 C2.31 0 4.62 0 7 0 C7 2.31 7 4.62 7 7 C4.69 7 2.38 7 0 7 C0 4.69 0 2.38 0 0 Z " fill="#08B2D4" transform="translate(93,164)"/>
<path d="M0 0 C2.31 0 4.62 0 7 0 C7 2.31 7 4.62 7 7 C4.69 7 2.38 7 0 7 C0 4.69 0 2.38 0 0 Z " fill="#15728B" transform="translate(79,164)"/>
<path d="M0 0 C2.31 0 4.62 0 7 0 C7 2.31 7 4.62 7 7 C4.69 7 2.38 7 0 7 C0 4.69 0 2.38 0 0 Z " fill="#0E94B2" transform="translate(64,164)"/>
<path d="M0 0 C2.31 0 4.62 0 7 0 C7 2.31 7 4.62 7 7 C4.69 7 2.38 7 0 7 C0 4.69 0 2.38 0 0 Z " fill="#203A4C" transform="translate(200,157)"/>
<path d="M0 0 C2.31 0 4.62 0 7 0 C7 2.31 7 4.62 7 7 C4.69 7 2.38 7 0 7 C0 4.69 0 2.38 0 0 Z " fill="#12809B" transform="translate(193,157)"/>
<path d="M0 0 C2.31 0 4.62 0 7 0 C7 2.31 7 4.62 7 7 C4.69 7 2.38 7 0 7 C0 4.69 0 2.38 0 0 Z " fill="#04C2E6" transform="translate(186,157)"/>
<path d="M0 0 C2.31 0 4.62 0 7 0 C7 2.31 7 4.62 7 7 C4.69 7 2.38 7 0 7 C0 4.69 0 2.38 0 0 Z " fill="#0AA6C6" transform="translate(164,157)"/>
<path d="M0 0 C2.31 0 4.62 0 7 0 C7 2.31 7 4.62 7 7 C4.69 7 2.38 7 0 7 C0 4.69 0 2.38 0 0 Z " fill="#0F8BA8" transform="translate(157,157)"/>
<path d="M0 0 C2.31 0 4.62 0 7 0 C7 2.31 7 4.62 7 7 C4.69 7 2.38 7 0 7 C0 4.69 0 2.38 0 0 Z " fill="#0C9EBD" transform="translate(143,157)"/>
<path d="M0 0 C2.31 0 4.62 0 7 0 C7 2.31 7 4.62 7 7 C4.69 7 2.38 7 0 7 C0 4.69 0 2.38 0 0 Z " fill="#186379" transform="translate(136,157)"/>
<path d="M0 0 C2.31 0 4.62 0 7 0 C7 2.31 7 4.62 7 7 C4.69 7 2.38 7 0 7 C0 4.69 0 2.38 0 0 Z " fill="#1189A5" transform="translate(107,157)"/>
<path d="M0 0 C2.31 0 4.62 0 7 0 C7 2.31 7 4.62 7 7 C4.69 7 2.38 7 0 7 C0 4.69 0 2.38 0 0 Z " fill="#00D8FF" transform="translate(100,157)"/>
<path d="M0 0 C2.31 0 4.62 0 7 0 C7 2.31 7 4.62 7 7 C4.69 7 2.38 7 0 7 C0 4.69 0 2.38 0 0 Z " fill="#05C2E6" transform="translate(79,157)"/>
<path d="M0 0 C2.31 0 4.62 0 7 0 C7 2.31 7 4.62 7 7 C4.69 7 2.38 7 0 7 C0 4.69 0 2.38 0 0 Z " fill="#03CBF0" transform="translate(64,157)"/>
<path d="M0 0 C2.31 0 4.62 0 7 0 C7 2.31 7 4.62 7 7 C4.69 7 2.38 7 0 7 C0 4.69 0 2.38 0 0 Z " fill="#0E92AF" transform="translate(57,157)"/>
<path d="M0 0 C2.31 0 4.62 0 7 0 C7 2.31 7 4.62 7 7 C4.69 7 2.38 7 0 7 C0 4.69 0 2.38 0 0 Z " fill="#1D4C60" transform="translate(50,157)"/>
<path d="M0 0 C2.31 0 4.62 0 7 0 C7 2.31 7 4.62 7 7 C4.69 7 2.38 7 0 7 C0 4.69 0 2.38 0 0 Z " fill="#223141" transform="translate(214,150)"/>
<path d="M0 0 C2.31 0 4.62 0 7 0 C7 2.31 7 4.62 7 7 C4.69 7 2.38 7 0 7 C0 4.69 0 2.38 0 0 Z " fill="#12809B" transform="translate(207,150)"/>
<path d="M0 0 C2.31 0 4.62 0 7 0 C7 2.31 7 4.62 7 7 C4.69 7 2.38 7 0 7 C0 4.69 0 2.38 0 0 Z " fill="#04C6EB" transform="translate(200,150)"/>
<path d="M0 0 C2.31 0 4.62 0 7 0 C7 2.31 7 4.62 7 7 C4.69 7 2.38 7 0 7 C0 4.69 0 2.38 0 0 Z " fill="#12809B" transform="translate(186,150)"/>
<path d="M0 0 C2.31 0 4.62 0 7 0 C7 2.31 7 4.62 7 7 C4.69 7 2.38 7 0 7 C0 4.69 0 2.38 0 0 Z " fill="#02CCF1" transform="translate(179,150)"/>
<path d="M0 0 C2.31 0 4.62 0 7 0 C7 2.31 7 4.62 7 7 C4.69 7 2.38 7 0 7 C0 4.69 0 2.38 0 0 Z " fill="#242938" transform="translate(164,150)"/>
<path d="M0 0 C2.31 0 4.62 0 7 0 C7 2.31 7 4.62 7 7 C4.69 7 2.38 7 0 7 C0 4.69 0 2.38 0 0 Z " fill="#0AA9CA" transform="translate(150,150)"/>
<path d="M0 0 C2.31 0 4.62 0 7 0 C7 2.31 7 4.62 7 7 C4.69 7 2.38 7 0 7 C0 4.69 0 2.38 0 0 Z " fill="#1088A4" transform="translate(100,150)"/>
<path d="M0 0 C2.31 0 4.62 0 7 0 C7 2.31 7 4.62 7 7 C4.69 7 2.38 7 0 7 C0 4.69 0 2.38 0 0 Z " fill="#223343" transform="translate(86,150)"/>
<path d="M0 0 C2.31 0 4.62 0 7 0 C7 2.31 7 4.62 7 7 C4.69 7 2.38 7 0 7 C0 4.69 0 2.38 0 0 Z " fill="#17677E" transform="translate(79,150)"/>
<path d="M0 0 C2.31 0 4.62 0 7 0 C7 2.31 7 4.62 7 7 C4.69 7 2.38 7 0 7 C0 4.69 0 2.38 0 0 Z " fill="#15748E" transform="translate(64,150)"/>
<path d="M0 0 C2.31 0 4.62 0 7 0 C7 2.31 7 4.62 7 7 C4.69 7 2.38 7 0 7 C0 4.69 0 2.38 0 0 Z " fill="#00D8FF" transform="translate(50,150)"/>
<path d="M0 0 C2.31 0 4.62 0 7 0 C7 2.31 7 4.62 7 7 C4.69 7 2.38 7 0 7 C0 4.69 0 2.38 0 0 Z " fill="#0E92B0" transform="translate(43,150)"/>
<path d="M0 0 C2.31 0 4.62 0 7 0 C7 2.31 7 4.62 7 7 C4.69 7 2.38 7 0 7 C0 4.69 0 2.38 0 0 Z " fill="#1E485B" transform="translate(36,150)"/>
<path d="M0 0 C2.31 0 4.62 0 7 0 C7 2.31 7 4.62 7 7 C4.69 7 2.38 7 0 7 C0 4.69 0 2.38 0 0 Z " fill="#1A586E" transform="translate(200,143)"/>
<path d="M0 0 C2.31 0 4.62 0 7 0 C7 2.31 7 4.62 7 7 C4.69 7 2.38 7 0 7 C0 4.69 0 2.38 0 0 Z " fill="#195D74" transform="translate(164,143)"/>
<path d="M0 0 C2.31 0 4.62 0 7 0 C7 2.31 7 4.62 7 7 C4.69 7 2.38 7 0 7 C0 4.69 0 2.38 0 0 Z " fill="#00D8FF" transform="translate(157,143)"/>
<path d="M0 0 C2.31 0 4.62 0 7 0 C7 2.31 7 4.62 7 7 C4.69 7 2.38 7 0 7 C0 4.69 0 2.38 0 0 Z " fill="#1B5469" transform="translate(150,143)"/>
<path d="M0 0 C2.31 0 4.62 0 7 0 C7 2.31 7 4.62 7 7 C4.69 7 2.38 7 0 7 C0 4.69 0 2.38 0 0 Z " fill="#203D4F" transform="translate(136,143)"/>
<path d="M0 0 C2.31 0 4.62 0 7 0 C7 2.31 7 4.62 7 7 C4.69 7 2.38 7 0 7 C0 4.69 0 2.38 0 0 Z " fill="#1D4B5E" transform="translate(114,143)"/>
<path d="M0 0 C2.31 0 4.62 0 7 0 C7 2.31 7 4.62 7 7 C4.69 7 2.38 7 0 7 C0 4.69 0 2.38 0 0 Z " fill="#12809B" transform="translate(86,143)"/>
<path d="M0 0 C2.31 0 4.62 0 7 0 C7 2.31 7 4.62 7 7 C4.69 7 2.38 7 0 7 C0 4.69 0 2.38 0 0 Z " fill="#0E92AF" transform="translate(79,143)"/>
<path d="M0 0 C2.31 0 4.62 0 7 0 C7 2.31 7 4.62 7 7 C4.69 7 2.38 7 0 7 C0 4.69 0 2.38 0 0 Z " fill="#1E4659" transform="translate(50,143)"/>
<path d="M0 0 C2.31 0 4.62 0 7 0 C7 2.31 7 4.62 7 7 C4.69 7 2.38 7 0 7 C0 4.69 0 2.38 0 0 Z " fill="#04C3E8" transform="translate(36,143)"/>
<path d="M0 0 C2.31 0 4.62 0 7 0 C7 2.31 7 4.62 7 7 C4.69 7 2.38 7 0 7 C0 4.69 0 2.38 0 0 Z " fill="#1A596E" transform="translate(29,143)"/>
<path d="M0 0 C2.31 0 4.62 0 7 0 C7 2.31 7 4.62 7 7 C4.69 7 2.38 7 0 7 C0 4.69 0 2.38 0 0 Z " fill="#203F51" transform="translate(229,136)"/>
<path d="M0 0 C2.31 0 4.62 0 7 0 C7 2.31 7 4.62 7 7 C4.69 7 2.38 7 0 7 C0 4.69 0 2.38 0 0 Z " fill="#1185A1" transform="translate(214,136)"/>
<path d="M0 0 C2.31 0 4.62 0 7 0 C7 2.31 7 4.62 7 7 C4.69 7 2.38 7 0 7 C0 4.69 0 2.38 0 0 Z " fill="#1A5B71" transform="translate(179,136)"/>
<path d="M0 0 C2.31 0 4.62 0 7 0 C7 2.31 7 4.62 7 7 C4.69 7 2.38 7 0 7 C0 4.69 0 2.38 0 0 Z " fill="#0E95B3" transform="translate(157,136)"/>
<path d="M0 0 C2.31 0 4.62 0 7 0 C7 2.31 7 4.62 7 7 C4.69 7 2.38 7 0 7 C0 4.69 0 2.38 0 0 Z " fill="#203A4C" transform="translate(143,136)"/>
<path d="M0 0 C2.31 0 4.62 0 7 0 C7 2.31 7 4.62 7 7 C4.69 7 2.38 7 0 7 C0 4.69 0 2.38 0 0 Z " fill="#03C8EC" transform="translate(136,136)"/>
<path d="M0 0 C2.31 0 4.62 0 7 0 C7 2.31 7 4.62 7 7 C4.69 7 2.38 7 0 7 C0 4.69 0 2.38 0 0 Z " fill="#1C5267" transform="translate(107,136)"/>
<path d="M0 0 C2.31 0 4.62 0 7 0 C7 2.31 7 4.62 7 7 C4.69 7 2.38 7 0 7 C0 4.69 0 2.38 0 0 Z " fill="#15728B" transform="translate(93,136)"/>
<path d="M0 0 C2.31 0 4.62 0 7 0 C7 2.31 7 4.62 7 7 C4.69 7 2.38 7 0 7 C0 4.69 0 2.38 0 0 Z " fill="#176981" transform="translate(36,136)"/>
<path d="M0 0 C2.31 0 4.62 0 7 0 C7 2.31 7 4.62 7 7 C4.69 7 2.38 7 0 7 C0 4.69 0 2.38 0 0 Z " fill="#00D8FF" transform="translate(29,136)"/>
<path d="M0 0 C2.31 0 4.62 0 7 0 C7 2.31 7 4.62 7 7 C4.69 7 2.38 7 0 7 C0 4.69 0 2.38 0 0 Z " fill="#1B5367" transform="translate(157,129)"/>
<path d="M0 0 C2.31 0 4.62 0 7 0 C7 2.31 7 4.62 7 7 C4.69 7 2.38 7 0 7 C0 4.69 0 2.38 0 0 Z " fill="#203F51" transform="translate(229,114)"/>
<path d="M0 0 C2.31 0 4.62 0 7 0 C7 2.31 7 4.62 7 7 C4.69 7 2.38 7 0 7 C0 4.69 0 2.38 0 0 Z " fill="#108BA7" transform="translate(214,114)"/>
<path d="M0 0 C2.31 0 4.62 0 7 0 C7 2.31 7 4.62 7 7 C4.69 7 2.38 7 0 7 C0 4.69 0 2.38 0 0 Z " fill="#1A5A70" transform="translate(179,114)"/>
<path d="M0 0 C2.31 0 4.62 0 7 0 C7 2.31 7 4.62 7 7 C4.69 7 2.38 7 0 7 C0 4.69 0 2.38 0 0 Z " fill="#1F4153" transform="translate(143,114)"/>
<path d="M0 0 C2.31 0 4.62 0 7 0 C7 2.31 7 4.62 7 7 C4.69 7 2.38 7 0 7 C0 4.69 0 2.38 0 0 Z " fill="#1A596E" transform="translate(107,114)"/>
<path d="M0 0 C2.31 0 4.62 0 7 0 C7 2.31 7 4.62 7 7 C4.69 7 2.38 7 0 7 C0 4.69 0 2.38 0 0 Z " fill="#15718A" transform="translate(93,114)"/>
<path d="M0 0 C2.31 0 4.62 0 7 0 C7 2.31 7 4.62 7 7 C4.69 7 2.38 7 0 7 C0 4.69 0 2.38 0 0 Z " fill="#15718A" transform="translate(36,114)"/>
<path d="M0 0 C2.31 0 4.62 0 7 0 C7 2.31 7 4.62 7 7 C4.69 7 2.38 7 0 7 C0 4.69 0 2.38 0 0 Z " fill="#00D8FF" transform="translate(29,114)"/>
<path d="M0 0 C2.31 0 4.62 0 7 0 C7 2.31 7 4.62 7 7 C4.69 7 2.38 7 0 7 C0 4.69 0 2.38 0 0 Z " fill="#07B6D9" transform="translate(207,107)"/>
<path d="M0 0 C2.31 0 4.62 0 7 0 C7 2.31 7 4.62 7 7 C4.69 7 2.38 7 0 7 C0 4.69 0 2.38 0 0 Z " fill="#176A82" transform="translate(200,107)"/>
<path d="M0 0 C2.31 0 4.62 0 7 0 C7 2.31 7 4.62 7 7 C4.69 7 2.38 7 0 7 C0 4.69 0 2.38 0 0 Z " fill="#1187A3" transform="translate(179,107)"/>
<path d="M0 0 C2.31 0 4.62 0 7 0 C7 2.31 7 4.62 7 7 C4.69 7 2.38 7 0 7 C0 4.69 0 2.38 0 0 Z " fill="#00D8FF" transform="translate(157,107)"/>
<path d="M0 0 C2.31 0 4.62 0 7 0 C7 2.31 7 4.62 7 7 C4.69 7 2.38 7 0 7 C0 4.69 0 2.38 0 0 Z " fill="#1B566B" transform="translate(150,107)"/>
<path d="M0 0 C2.31 0 4.62 0 7 0 C7 2.31 7 4.62 7 7 C4.69 7 2.38 7 0 7 C0 4.69 0 2.38 0 0 Z " fill="#1E485B" transform="translate(136,107)"/>
<path d="M0 0 C2.31 0 4.62 0 7 0 C7 2.31 7 4.62 7 7 C4.69 7 2.38 7 0 7 C0 4.69 0 2.38 0 0 Z " fill="#1B566B" transform="translate(114,107)"/>
<path d="M0 0 C2.31 0 4.62 0 7 0 C7 2.31 7 4.62 7 7 C4.69 7 2.38 7 0 7 C0 4.69 0 2.38 0 0 Z " fill="#223343" transform="translate(100,107)"/>
<path d="M0 0 C2.31 0 4.62 0 7 0 C7 2.31 7 4.62 7 7 C4.69 7 2.38 7 0 7 C0 4.69 0 2.38 0 0 Z " fill="#127F99" transform="translate(86,107)"/>
<path d="M0 0 C2.31 0 4.62 0 7 0 C7 2.31 7 4.62 7 7 C4.69 7 2.38 7 0 7 C0 4.69 0 2.38 0 0 Z " fill="#1B576C" transform="translate(50,107)"/>
<path d="M0 0 C2.31 0 4.62 0 7 0 C7 2.31 7 4.62 7 7 C4.69 7 2.38 7 0 7 C0 4.69 0 2.38 0 0 Z " fill="#00D8FF" transform="translate(36,107)"/>
<path d="M0 0 C2.31 0 4.62 0 7 0 C7 2.31 7 4.62 7 7 C4.69 7 2.38 7 0 7 C0 4.69 0 2.38 0 0 Z " fill="#14758E" transform="translate(29,107)"/>
<path d="M0 0 C2.31 0 4.62 0 7 0 C7 2.31 7 4.62 7 7 C4.69 7 2.38 7 0 7 C0 4.69 0 2.38 0 0 Z " fill="#1E485B" transform="translate(214,100)"/>
<path d="M0 0 C2.31 0 4.62 0 7 0 C7 2.31 7 4.62 7 7 C4.69 7 2.38 7 0 7 C0 4.69 0 2.38 0 0 Z " fill="#1089A6" transform="translate(207,100)"/>
<path d="M0 0 C2.31 0 4.62 0 7 0 C7 2.31 7 4.62 7 7 C4.69 7 2.38 7 0 7 C0 4.69 0 2.38 0 0 Z " fill="#04C6EA" transform="translate(200,100)"/>
<path d="M0 0 C2.31 0 4.62 0 7 0 C7 2.31 7 4.62 7 7 C4.69 7 2.38 7 0 7 C0 4.69 0 2.38 0 0 Z " fill="#0AA7C7" transform="translate(193,100)"/>
<path d="M0 0 C2.31 0 4.62 0 7 0 C7 2.31 7 4.62 7 7 C4.69 7 2.38 7 0 7 C0 4.69 0 2.38 0 0 Z " fill="#166F87" transform="translate(186,100)"/>
<path d="M0 0 C2.31 0 4.62 0 7 0 C7 2.31 7 4.62 7 7 C4.69 7 2.38 7 0 7 C0 4.69 0 2.38 0 0 Z " fill="#05C0E3" transform="translate(179,100)"/>
<path d="M0 0 C2.31 0 4.62 0 7 0 C7 2.31 7 4.62 7 7 C4.69 7 2.38 7 0 7 C0 4.69 0 2.38 0 0 Z " fill="#242938" transform="translate(164,100)"/>
<path d="M0 0 C2.31 0 4.62 0 7 0 C7 2.31 7 4.62 7 7 C4.69 7 2.38 7 0 7 C0 4.69 0 2.38 0 0 Z " fill="#08AFD1" transform="translate(150,100)"/>
<path d="M0 0 C2.31 0 4.62 0 7 0 C7 2.31 7 4.62 7 7 C4.69 7 2.38 7 0 7 C0 4.69 0 2.38 0 0 Z " fill="#1088A4" transform="translate(100,100)"/>
<path d="M0 0 C2.31 0 4.62 0 7 0 C7 2.31 7 4.62 7 7 C4.69 7 2.38 7 0 7 C0 4.69 0 2.38 0 0 Z " fill="#223545" transform="translate(86,100)"/>
<path d="M0 0 C2.31 0 4.62 0 7 0 C7 2.31 7 4.62 7 7 C4.69 7 2.38 7 0 7 C0 4.69 0 2.38 0 0 Z " fill="#18637A" transform="translate(79,100)"/>
<path d="M0 0 C2.31 0 4.62 0 7 0 C7 2.31 7 4.62 7 7 C4.69 7 2.38 7 0 7 C0 4.69 0 2.38 0 0 Z " fill="#14738C" transform="translate(64,100)"/>
<path d="M0 0 C2.31 0 4.62 0 7 0 C7 2.31 7 4.62 7 7 C4.69 7 2.38 7 0 7 C0 4.69 0 2.38 0 0 Z " fill="#00D8FF" transform="translate(50,100)"/>
<path d="M0 0 C2.31 0 4.62 0 7 0 C7 2.31 7 4.62 7 7 C4.69 7 2.38 7 0 7 C0 4.69 0 2.38 0 0 Z " fill="#195D73" transform="translate(36,100)"/>
<path d="M0 0 C2.31 0 4.62 0 7 0 C7 2.31 7 4.62 7 7 C4.69 7 2.38 7 0 7 C0 4.69 0 2.38 0 0 Z " fill="#223546" transform="translate(200,93)"/>
<path d="M0 0 C2.31 0 4.62 0 7 0 C7 2.31 7 4.62 7 7 C4.69 7 2.38 7 0 7 C0 4.69 0 2.38 0 0 Z " fill="#15718A" transform="translate(193,93)"/>
<path d="M0 0 C2.31 0 4.62 0 7 0 C7 2.31 7 4.62 7 7 C4.69 7 2.38 7 0 7 C0 4.69 0 2.38 0 0 Z " fill="#09ADCD" transform="translate(186,93)"/>
<path d="M0 0 C2.31 0 4.62 0 7 0 C7 2.31 7 4.62 7 7 C4.69 7 2.38 7 0 7 C0 4.69 0 2.38 0 0 Z " fill="#1087A4" transform="translate(157,93)"/>
<path d="M0 0 C2.31 0 4.62 0 7 0 C7 2.31 7 4.62 7 7 C4.69 7 2.38 7 0 7 C0 4.69 0 2.38 0 0 Z " fill="#0AA6C6" transform="translate(143,93)"/>
<path d="M0 0 C2.31 0 4.62 0 7 0 C7 2.31 7 4.62 7 7 C4.69 7 2.38 7 0 7 C0 4.69 0 2.38 0 0 Z " fill="#186379" transform="translate(136,93)"/>
<path d="M0 0 C2.31 0 4.62 0 7 0 C7 2.31 7 4.62 7 7 C4.69 7 2.38 7 0 7 C0 4.69 0 2.38 0 0 Z " fill="#1189A5" transform="translate(107,93)"/>
<path d="M0 0 C2.31 0 4.62 0 7 0 C7 2.31 7 4.62 7 7 C4.69 7 2.38 7 0 7 C0 4.69 0 2.38 0 0 Z " fill="#00D8FF" transform="translate(100,93)"/>
<path d="M0 0 C2.31 0 4.62 0 7 0 C7 2.31 7 4.62 7 7 C4.69 7 2.38 7 0 7 C0 4.69 0 2.38 0 0 Z " fill="#05BEE1" transform="translate(79,93)"/>
<path d="M0 0 C2.31 0 4.62 0 7 0 C7 2.31 7 4.62 7 7 C4.69 7 2.38 7 0 7 C0 4.69 0 2.38 0 0 Z " fill="#06BBDE" transform="translate(64,93)"/>
<path d="M0 0 C2.31 0 4.62 0 7 0 C7 2.31 7 4.62 7 7 C4.69 7 2.38 7 0 7 C0 4.69 0 2.38 0 0 Z " fill="#1089A5" transform="translate(57,93)"/>
<path d="M0 0 C2.31 0 4.62 0 7 0 C7 2.31 7 4.62 7 7 C4.69 7 2.38 7 0 7 C0 4.69 0 2.38 0 0 Z " fill="#1C5064" transform="translate(50,93)"/>
<path d="M0 0 C2.31 0 4.62 0 7 0 C7 2.31 7 4.62 7 7 C4.69 7 2.38 7 0 7 C0 4.69 0 2.38 0 0 Z " fill="#12809B" transform="translate(186,86)"/>
<path d="M0 0 C2.31 0 4.62 0 7 0 C7 2.31 7 4.62 7 7 C4.69 7 2.38 7 0 7 C0 4.69 0 2.38 0 0 Z " fill="#06BBDF" transform="translate(179,86)"/>
<path d="M0 0 C2.31 0 4.62 0 7 0 C7 2.31 7 4.62 7 7 C4.69 7 2.38 7 0 7 C0 4.69 0 2.38 0 0 Z " fill="#0F91AE" transform="translate(164,86)"/>
<path d="M0 0 C2.31 0 4.62 0 7 0 C7 2.31 7 4.62 7 7 C4.69 7 2.38 7 0 7 C0 4.69 0 2.38 0 0 Z " fill="#08B1D2" transform="translate(157,86)"/>
<path d="M0 0 C2.31 0 4.62 0 7 0 C7 2.31 7 4.62 7 7 C4.69 7 2.38 7 0 7 C0 4.69 0 2.38 0 0 Z " fill="#00D8FF" transform="translate(143,86)"/>
<path d="M0 0 C2.31 0 4.62 0 7 0 C7 2.31 7 4.62 7 7 C4.69 7 2.38 7 0 7 C0 4.69 0 2.38 0 0 Z " fill="#147690" transform="translate(86,86)"/>
<path d="M0 0 C2.31 0 4.62 0 7 0 C7 2.31 7 4.62 7 7 C4.69 7 2.38 7 0 7 C0 4.69 0 2.38 0 0 Z " fill="#1C4E63" transform="translate(79,86)"/>
<path d="M0 0 C2.31 0 4.62 0 7 0 C7 2.31 7 4.62 7 7 C4.69 7 2.38 7 0 7 C0 4.69 0 2.38 0 0 Z " fill="#0E94B2" transform="translate(179,79)"/>
<path d="M0 0 C2.31 0 4.62 0 7 0 C7 2.31 7 4.62 7 7 C4.69 7 2.38 7 0 7 C0 4.69 0 2.38 0 0 Z " fill="#0F8DA9" transform="translate(143,79)"/>
<path d="M0 0 C2.31 0 4.62 0 7 0 C7 2.31 7 4.62 7 7 C4.69 7 2.38 7 0 7 C0 4.69 0 2.38 0 0 Z " fill="#06B9DC" transform="translate(136,79)"/>
<path d="M0 0 C2.31 0 4.62 0 7 0 C7 2.31 7 4.62 7 7 C4.69 7 2.38 7 0 7 C0 4.69 0 2.38 0 0 Z " fill="#203E4F" transform="translate(129,79)"/>
<path d="M0 0 C2.31 0 4.62 0 7 0 C7 2.31 7 4.62 7 7 C4.69 7 2.38 7 0 7 C0 4.69 0 2.38 0 0 Z " fill="#12809B" transform="translate(114,79)"/>
<path d="M0 0 C2.31 0 4.62 0 7 0 C7 2.31 7 4.62 7 7 C4.69 7 2.38 7 0 7 C0 4.69 0 2.38 0 0 Z " fill="#05C1E4" transform="translate(107,79)"/>
<path d="M0 0 C2.31 0 4.62 0 7 0 C7 2.31 7 4.62 7 7 C4.69 7 2.38 7 0 7 C0 4.69 0 2.38 0 0 Z " fill="#203C4E" transform="translate(100,79)"/>
<path d="M0 0 C2.31 0 4.62 0 7 0 C7 2.31 7 4.62 7 7 C4.69 7 2.38 7 0 7 C0 4.69 0 2.38 0 0 Z " fill="#07B6D9" transform="translate(64,79)"/>
<path d="M0 0 C2.31 0 4.62 0 7 0 C7 2.31 7 4.62 7 7 C4.69 7 2.38 7 0 7 C0 4.69 0 2.38 0 0 Z " fill="#1B556A" transform="translate(179,64)"/>
<path d="M0 0 C2.31 0 4.62 0 7 0 C7 2.31 7 4.62 7 7 C4.69 7 2.38 7 0 7 C0 4.69 0 2.38 0 0 Z " fill="#203A4C" transform="translate(136,64)"/>
<path d="M0 0 C2.31 0 4.62 0 7 0 C7 2.31 7 4.62 7 7 C4.69 7 2.38 7 0 7 C0 4.69 0 2.38 0 0 Z " fill="#18637A" transform="translate(114,64)"/>
<path d="M0 0 C2.31 0 4.62 0 7 0 C7 2.31 7 4.62 7 7 C4.69 7 2.38 7 0 7 C0 4.69 0 2.38 0 0 Z " fill="#05BEE1" transform="translate(186,57)"/>
<path d="M0 0 C2.31 0 4.62 0 7 0 C7 2.31 7 4.62 7 7 C4.69 7 2.38 7 0 7 C0 4.69 0 2.38 0 0 Z " fill="#166E86" transform="translate(179,57)"/>
<path d="M0 0 C2.31 0 4.62 0 7 0 C7 2.31 7 4.62 7 7 C4.69 7 2.38 7 0 7 C0 4.69 0 2.38 0 0 Z " fill="#12809B" transform="translate(136,57)"/>
<path d="M0 0 C2.31 0 4.62 0 7 0 C7 2.31 7 4.62 7 7 C4.69 7 2.38 7 0 7 C0 4.69 0 2.38 0 0 Z " fill="#1F4153" transform="translate(150,50)"/>
<path d="M0 0 C2.31 0 4.62 0 7 0 C7 2.31 7 4.62 7 7 C4.69 7 2.38 7 0 7 C0 4.69 0 2.38 0 0 Z " fill="#04C5E9" transform="translate(136,50)"/>
<path d="M0 0 C2.31 0 4.62 0 7 0 C7 2.31 7 4.62 7 7 C4.69 7 2.38 7 0 7 C0 4.69 0 2.38 0 0 Z " fill="#18637A" transform="translate(129,50)"/>
<path d="M0 0 C2.31 0 4.62 0 7 0 C7 2.31 7 4.62 7 7 C4.69 7 2.38 7 0 7 C0 4.69 0 2.38 0 0 Z " fill="#01D3F9" transform="translate(114,50)"/>
<path d="M0 0 C2.31 0 4.62 0 7 0 C7 2.31 7 4.62 7 7 C4.69 7 2.38 7 0 7 C0 4.69 0 2.38 0 0 Z " fill="#06BBDE" transform="translate(107,50)"/>
<path d="M0 0 C2.31 0 4.62 0 7 0 C7 2.31 7 4.62 7 7 C4.69 7 2.38 7 0 7 C0 4.69 0 2.38 0 0 Z " fill="#1E4659" transform="translate(100,50)"/>
<path d="M0 0 C2.31 0 4.62 0 7 0 C7 2.31 7 4.62 7 7 C4.69 7 2.38 7 0 7 C0 4.69 0 2.38 0 0 Z " fill="#17667E" transform="translate(186,43)"/>
<path d="M0 0 C2.31 0 4.62 0 7 0 C7 2.31 7 4.62 7 7 C4.69 7 2.38 7 0 7 C0 4.69 0 2.38 0 0 Z " fill="#00D8FF" transform="translate(179,43)"/>
<path d="M0 0 C2.31 0 4.62 0 7 0 C7 2.31 7 4.62 7 7 C4.69 7 2.38 7 0 7 C0 4.69 0 2.38 0 0 Z " fill="#1A5C72" transform="translate(164,43)"/>
<path d="M0 0 C2.31 0 4.62 0 7 0 C7 2.31 7 4.62 7 7 C4.69 7 2.38 7 0 7 C0 4.69 0 2.38 0 0 Z " fill="#1186A2" transform="translate(157,43)"/>
<path d="M0 0 C2.31 0 4.62 0 7 0 C7 2.31 7 4.62 7 7 C4.69 7 2.38 7 0 7 C0 4.69 0 2.38 0 0 Z " fill="#03C8EC" transform="translate(150,43)"/>
<path d="M0 0 C2.31 0 4.62 0 7 0 C7 2.31 7 4.62 7 7 C4.69 7 2.38 7 0 7 C0 4.69 0 2.38 0 0 Z " fill="#1F4355" transform="translate(136,43)"/>
<path d="M0 0 C2.31 0 4.62 0 7 0 C7 2.31 7 4.62 7 7 C4.69 7 2.38 7 0 7 C0 4.69 0 2.38 0 0 Z " fill="#03C9EE" transform="translate(100,43)"/>
<path d="M0 0 C2.31 0 4.62 0 7 0 C7 2.31 7 4.62 7 7 C4.69 7 2.38 7 0 7 C0 4.69 0 2.38 0 0 Z " fill="#147790" transform="translate(79,43)"/>
<path d="M0 0 C2.31 0 4.62 0 7 0 C7 2.31 7 4.62 7 7 C4.69 7 2.38 7 0 7 C0 4.69 0 2.38 0 0 Z " fill="#1187A3" transform="translate(64,43)"/>
<path d="M0 0 C2.31 0 4.62 0 7 0 C7 2.31 7 4.62 7 7 C4.69 7 2.38 7 0 7 C0 4.69 0 2.38 0 0 Z " fill="#137A94" transform="translate(179,36)"/>
<path d="M0 0 C2.31 0 4.62 0 7 0 C7 2.31 7 4.62 7 7 C4.69 7 2.38 7 0 7 C0 4.69 0 2.38 0 0 Z " fill="#00D8FF" transform="translate(164,36)"/>
<path d="M0 0 C2.31 0 4.62 0 7 0 C7 2.31 7 4.62 7 7 C4.69 7 2.38 7 0 7 C0 4.69 0 2.38 0 0 Z " fill="#17667D" transform="translate(150,36)"/>
<path d="M0 0 C2.31 0 4.62 0 7 0 C7 2.31 7 4.62 7 7 C4.69 7 2.38 7 0 7 C0 4.69 0 2.38 0 0 Z " fill="#176981" transform="translate(100,36)"/>
<path d="M0 0 C2.31 0 4.62 0 7 0 C7 2.31 7 4.62 7 7 C4.69 7 2.38 7 0 7 C0 4.69 0 2.38 0 0 Z " fill="#0BA1C0" transform="translate(93,36)"/>
<path d="M0 0 C2.31 0 4.62 0 7 0 C7 2.31 7 4.62 7 7 C4.69 7 2.38 7 0 7 C0 4.69 0 2.38 0 0 Z " fill="#05C1E4" transform="translate(79,36)"/>
</svg>
