<?xml version="1.0" encoding="UTF-8"?>
<svg version="1.1" xmlns="http://www.w3.org/2000/svg" width="256" height="256">
<path d="M0 0 C66 0 132 0 200 0 C200 2.31 200 4.62 200 7 C202.31 7 204.62 7 207 7 C207 9.31 207 11.62 207 14 C209.31 14 211.62 14 214 14 C214 16.31 214 18.62 214 21 C216.31 21 218.62 21 221 21 C221 25.95 221 30.9 221 36 C222.98 36 224.96 36 227 36 C227 97.05 227 158.1 227 221 C225.02 221 223.04 221 221 221 C221 225.95 221 230.9 221 236 C218.69 236 216.38 236 214 236 C214 238.31 214 240.62 214 243 C211.69 243 209.38 243 207 243 C207 245.31 207 247.62 207 250 C202.05 250 197.1 250 192 250 C192 251.98 192 253.96 192 256 C130.95 256 69.9 256 7 256 C7 254.02 7 252.04 7 250 C2.05 250 -2.9 250 -8 250 C-8 247.69 -8 245.38 -8 243 C-10.31 243 -12.62 243 -15 243 C-15 240.69 -15 238.38 -15 236 C-17.31 236 -19.62 236 -22 236 C-22 233.69 -22 231.38 -22 229 C-24.31 229 -26.62 229 -29 229 C-29 163 -29 97 -29 29 C-26.69 29 -24.38 29 -22 29 C-22 26.36 -22 23.72 -22 21 C-19.69 21 -17.38 21 -15 21 C-15 18.69 -15 16.38 -15 14 C-12.69 14 -10.38 14 -8 14 C-8 11.69 -8 9.38 -8 7 C-5.36 7 -2.72 7 0 7 C0 4.69 0 2.38 0 0 Z " fill="#242937" transform="translate(29,0)"/>
<path d="M0 0 C11.88 0 23.76 0 36 0 C36 2.31 36 4.62 36 7 C40.62 7 45.24 7 50 7 C50 9.31 50 11.62 50 14 C57.26 14 64.52 14 72 14 C72 16.31 72 18.62 72 21 C76.62 21 81.24 21 86 21 C86 23.31 86 25.62 86 28 C92.93 28 99.86 28 107 28 C107 30.64 107 33.28 107 36 C109.64 36 112.28 36 115 36 C115 42.93 115 49.86 115 57 C112.36 57 109.72 57 107 57 C107 61.62 107 66.24 107 71 C109.64 71 112.28 71 115 71 C115 78.26 115 85.52 115 93 C112.36 93 109.72 93 107 93 C107 95.31 107 97.62 107 100 C109.64 100 112.28 100 115 100 C115 109.24 115 118.48 115 128 C112.36 128 109.72 128 107 128 C107 130.64 107 133.28 107 136 C100.07 136 93.14 136 86 136 C86 138.31 86 140.62 86 143 C81.38 143 76.76 143 72 143 C72 145.31 72 147.62 72 150 C67.05 150 62.1 150 57 150 C57 152.31 57 154.62 57 157 C50.07 157 43.14 157 36 157 C36 159.31 36 161.62 36 164 C31.38 164 26.76 164 22 164 C22 166.31 22 168.62 22 171 C12.43 171 2.86 171 -7 171 C-7 168.69 -7 166.38 -7 164 C-11.62 164 -16.24 164 -21 164 C-21 161.69 -21 159.38 -21 157 C-23.31 157 -25.62 157 -28 157 C-28 154.69 -28 152.38 -28 150 C-35.26 150 -42.52 150 -50 150 C-50 147.69 -50 145.38 -50 143 C-56.93 143 -63.86 143 -71 143 C-71 140.69 -71 138.38 -71 136 C-73.31 136 -75.62 136 -78 136 C-78 133.36 -78 130.72 -78 128 C-80.31 128 -82.62 128 -85 128 C-85 109.19 -85 90.38 -85 71 C-82.69 71 -80.38 71 -78 71 C-78 68.69 -78 66.38 -78 64 C-80.31 64 -82.62 64 -85 64 C-85 54.76 -85 45.52 -85 36 C-82.69 36 -80.38 36 -78 36 C-78 33.36 -78 30.72 -78 28 C-71.07 28 -64.14 28 -57 28 C-57 25.69 -57 23.38 -57 21 C-52.38 21 -47.76 21 -43 21 C-43 18.69 -43 16.38 -43 14 C-35.74 14 -28.48 14 -21 14 C-21 11.69 -21 9.38 -21 7 C-14.07 7 -7.14 7 0 7 C0 4.69 0 2.38 0 0 Z " fill="#A51E11" transform="translate(114,43)"/>
<path d="M0 0 C4.62 0 9.24 0 14 0 C14 2.31 14 4.62 14 7 C16.64 7 19.28 7 22 7 C22 14.26 22 21.52 22 29 C19.36 29 16.72 29 14 29 C14 31.31 14 33.62 14 36 C16.64 36 19.28 36 22 36 C22 45.24 22 54.48 22 64 C19.36 64 16.72 64 14 64 C14 66.64 14 69.28 14 72 C7.07 72 0.14 72 -7 72 C-7 74.31 -7 76.62 -7 79 C-11.62 79 -16.24 79 -21 79 C-21 81.31 -21 83.62 -21 86 C-25.95 86 -30.9 86 -36 86 C-36 88.31 -36 90.62 -36 93 C-42.93 93 -49.86 93 -57 93 C-57 95.31 -57 97.62 -57 100 C-61.62 100 -66.24 100 -71 100 C-71 102.31 -71 104.62 -71 107 C-80.57 107 -90.14 107 -100 107 C-100 104.69 -100 102.38 -100 100 C-104.62 100 -109.24 100 -114 100 C-114 97.69 -114 95.38 -114 93 C-116.31 93 -118.62 93 -121 93 C-121 90.69 -121 88.38 -121 86 C-128.26 86 -135.52 86 -143 86 C-143 83.69 -143 81.38 -143 79 C-149.93 79 -156.86 79 -164 79 C-164 76.69 -164 74.38 -164 72 C-166.31 72 -168.62 72 -171 72 C-171 69.36 -171 66.72 -171 64 C-173.31 64 -175.62 64 -178 64 C-178 45.19 -178 26.38 -178 7 C-168.76 7 -159.52 7 -150 7 C-150 9.31 -150 11.62 -150 14 C-145.38 14 -140.76 14 -136 14 C-136 16.64 -136 19.28 -136 22 C-131.05 22 -126.1 22 -121 22 C-121 24.31 -121 26.62 -121 29 C-114.07 29 -107.14 29 -100 29 C-100 31.31 -100 33.62 -100 36 C-85.81 36 -71.62 36 -57 36 C-57 33.69 -57 31.38 -57 29 C-52.38 29 -47.76 29 -43 29 C-43 26.69 -43 24.38 -43 22 C-38.05 22 -33.1 22 -28 22 C-28 19.36 -28 16.72 -28 14 C-23.38 14 -18.76 14 -14 14 C-14 11.69 -14 9.38 -14 7 C-9.38 7 -4.76 7 0 7 C0 4.69 0 2.38 0 0 Z " fill="#A51E11" transform="translate(207,107)"/>
<path d="M0 0 C9.57 0 19.14 0 29 0 C29 2.31 29 4.62 29 7 C33.62 7 38.24 7 43 7 C43 11.95 43 16.9 43 22 C38.38 22 33.76 22 29 22 C29 24.31 29 26.62 29 29 C33.62 29 38.24 29 43 29 C43 31.31 43 33.62 43 36 C54.88 36 66.76 36 79 36 C79 38.31 79 40.62 79 43 C74.38 43 69.76 43 65 43 C65 45.31 65 47.62 65 50 C60.05 50 55.1 50 50 50 C50 52.31 50 54.62 50 57 C45.38 57 40.76 57 36 57 C36 59.31 36 61.62 36 64 C19.5 64 3 64 -14 64 C-14 61.69 -14 59.38 -14 57 C-18.62 57 -23.24 57 -28 57 C-28 54.69 -28 52.38 -28 50 C-35.26 50 -42.52 50 -50 50 C-50 47.69 -50 45.38 -50 43 C-54.62 43 -59.24 43 -64 43 C-64 40.69 -64 38.38 -64 36 C-66.31 36 -68.62 36 -71 36 C-71 33.69 -71 31.38 -71 29 C-73.31 29 -75.62 29 -78 29 C-78 24.05 -78 19.1 -78 14 C-54.57 14 -31.14 14 -7 14 C-7 11.69 -7 9.38 -7 7 C-4.69 7 -2.38 7 0 7 C0 4.69 0 2.38 0 0 Z " fill="#D72C20" transform="translate(114,57)"/>
<path d="M0 0 C2.31 0 4.62 0 7 0 C7 6.93 7 13.86 7 21 C9.31 21 11.62 21 14 21 C14 23.31 14 25.62 14 28 C18.62 28 23.24 28 28 28 C28 30.31 28 32.62 28 35 C35.26 35 42.52 35 50 35 C50 37.64 50 40.28 50 43 C54.62 43 59.24 43 64 43 C64 45.31 64 47.62 64 50 C68.62 50 73.24 50 78 50 C78 52.31 78 54.62 78 57 C89.88 57 101.76 57 114 57 C114 54.69 114 52.38 114 50 C118.62 50 123.24 50 128 50 C128 47.69 128 45.38 128 43 C135.26 43 142.52 43 150 43 C150 40.36 150 37.72 150 35 C154.62 35 159.24 35 164 35 C164 32.69 164 30.38 164 28 C168.62 28 173.24 28 178 28 C178 25.69 178 23.38 178 21 C182.62 21 187.24 21 192 21 C192 16.38 192 11.76 192 7 C194.64 7 197.28 7 200 7 C200 16.24 200 25.48 200 35 C197.36 35 194.72 35 192 35 C192 37.64 192 40.28 192 43 C185.07 43 178.14 43 171 43 C171 45.31 171 47.62 171 50 C166.38 50 161.76 50 157 50 C157 52.31 157 54.62 157 57 C152.05 57 147.1 57 142 57 C142 59.31 142 61.62 142 64 C135.07 64 128.14 64 121 64 C121 66.31 121 68.62 121 71 C116.38 71 111.76 71 107 71 C107 73.31 107 75.62 107 78 C97.43 78 87.86 78 78 78 C78 75.69 78 73.38 78 71 C73.38 71 68.76 71 64 71 C64 68.69 64 66.38 64 64 C61.69 64 59.38 64 57 64 C57 61.69 57 59.38 57 57 C49.74 57 42.48 57 35 57 C35 54.69 35 52.38 35 50 C28.07 50 21.14 50 14 50 C14 47.69 14 45.38 14 43 C11.69 43 9.38 43 7 43 C7 40.36 7 37.72 7 35 C4.69 35 2.38 35 0 35 C0 23.45 0 11.9 0 0 Z " fill="#A41E11" transform="translate(29,136)"/>
<path d="M0 0 C11.88 0 23.76 0 36 0 C36 2.31 36 4.62 36 7 C40.62 7 45.24 7 50 7 C50 9.31 50 11.62 50 14 C57.26 14 64.52 14 72 14 C72 16.31 72 18.62 72 21 C76.62 21 81.24 21 86 21 C86 23.31 86 25.62 86 28 C92.93 28 99.86 28 107 28 C107 30.64 107 33.28 107 36 C109.64 36 112.28 36 115 36 C115 38.31 115 40.62 115 43 C110.05 43 105.1 43 100 43 C100 45.31 100 47.62 100 50 C95.38 50 90.76 50 86 50 C86 52.31 86 54.62 86 57 C83.69 57 81.38 57 79 57 C79 54.69 79 52.38 79 50 C67.12 50 55.24 50 43 50 C43 47.69 43 45.38 43 43 C38.38 43 33.76 43 29 43 C29 40.69 29 38.38 29 36 C33.62 36 38.24 36 43 36 C43 31.05 43 26.1 43 21 C38.38 21 33.76 21 29 21 C29 18.69 29 16.38 29 14 C19.43 14 9.86 14 0 14 C0 16.31 0 18.62 0 21 C-2.31 21 -4.62 21 -7 21 C-7 23.31 -7 25.62 -7 28 C-23.5 28 -40 28 -57 28 C-57 25.69 -57 23.38 -57 21 C-52.38 21 -47.76 21 -43 21 C-43 18.69 -43 16.38 -43 14 C-35.74 14 -28.48 14 -21 14 C-21 11.69 -21 9.38 -21 7 C-14.07 7 -7.14 7 0 7 C0 4.69 0 2.38 0 0 Z " fill="#D82C20" transform="translate(114,43)"/>
<path d="M0 0 C4.62 0 9.24 0 14 0 C14 4.62 14 9.24 14 14 C11.69 14 9.38 14 7 14 C7 16.64 7 19.28 7 22 C2.38 22 -2.24 22 -7 22 C-7 24.31 -7 26.62 -7 29 C-13.93 29 -20.86 29 -28 29 C-28 31.31 -28 33.62 -28 36 C-32.95 36 -37.9 36 -43 36 C-43 38.31 -43 40.62 -43 43 C-47.62 43 -52.24 43 -57 43 C-57 45.31 -57 47.62 -57 50 C-73.5 50 -90 50 -107 50 C-107 47.69 -107 45.38 -107 43 C-111.62 43 -116.24 43 -121 43 C-121 40.69 -121 38.38 -121 36 C-125.95 36 -130.9 36 -136 36 C-136 33.69 -136 31.38 -136 29 C-140.62 29 -145.24 29 -150 29 C-150 26.69 -150 24.38 -150 22 C-156.93 22 -163.86 22 -171 22 C-171 19.36 -171 16.72 -171 14 C-173.31 14 -175.62 14 -178 14 C-178 11.69 -178 9.38 -178 7 C-168.76 7 -159.52 7 -150 7 C-150 9.31 -150 11.62 -150 14 C-145.38 14 -140.76 14 -136 14 C-136 16.64 -136 19.28 -136 22 C-131.05 22 -126.1 22 -121 22 C-121 24.31 -121 26.62 -121 29 C-114.07 29 -107.14 29 -100 29 C-100 31.31 -100 33.62 -100 36 C-85.81 36 -71.62 36 -57 36 C-57 33.69 -57 31.38 -57 29 C-52.38 29 -47.76 29 -43 29 C-43 26.69 -43 24.38 -43 22 C-38.05 22 -33.1 22 -28 22 C-28 19.36 -28 16.72 -28 14 C-23.38 14 -18.76 14 -14 14 C-14 11.69 -14 9.38 -14 7 C-9.38 7 -4.76 7 0 7 C0 4.69 0 2.38 0 0 Z " fill="#D22A1E" transform="translate(207,107)"/>
<path d="M0 0 C4.62 0 9.24 0 14 0 C14 4.62 14 9.24 14 14 C9.38 14 4.76 14 0 14 C0 16.31 0 18.62 0 21 C-4.62 21 -9.24 21 -14 21 C-14 23.31 -14 25.62 -14 28 C-18.62 28 -23.24 28 -28 28 C-28 30.64 -28 33.28 -28 36 C-35.26 36 -42.52 36 -50 36 C-50 38.31 -50 40.62 -50 43 C-54.62 43 -59.24 43 -64 43 C-64 45.31 -64 47.62 -64 50 C-75.88 50 -87.76 50 -100 50 C-100 47.69 -100 45.38 -100 43 C-104.62 43 -109.24 43 -114 43 C-114 40.69 -114 38.38 -114 36 C-118.62 36 -123.24 36 -128 36 C-128 33.36 -128 30.72 -128 28 C-135.26 28 -142.52 28 -150 28 C-150 25.69 -150 23.38 -150 21 C-154.62 21 -159.24 21 -164 21 C-164 18.69 -164 16.38 -164 14 C-166.31 14 -168.62 14 -171 14 C-171 11.69 -171 9.38 -171 7 C-164.07 7 -157.14 7 -150 7 C-150 9.31 -150 11.62 -150 14 C-142.74 14 -135.48 14 -128 14 C-128 16.31 -128 18.62 -128 21 C-123.38 21 -118.76 21 -114 21 C-114 23.31 -114 25.62 -114 28 C-109.38 28 -104.76 28 -100 28 C-100 30.64 -100 33.28 -100 36 C-88.12 36 -76.24 36 -64 36 C-64 33.36 -64 30.72 -64 28 C-59.38 28 -54.76 28 -50 28 C-50 25.69 -50 23.38 -50 21 C-45.38 21 -40.76 21 -36 21 C-36 18.69 -36 16.38 -36 14 C-28.74 14 -21.48 14 -14 14 C-14 11.69 -14 9.38 -14 7 C-9.38 7 -4.76 7 0 7 C0 4.69 0 2.38 0 0 Z " fill="#D32A1E" transform="translate(207,143)"/>
<path d="M0 0 C11.88 0 23.76 0 36 0 C36 2.31 36 4.62 36 7 C31.38 7 26.76 7 22 7 C22 9.31 22 11.62 22 14 C14.74 14 7.48 14 0 14 C0 16.31 0 18.62 0 21 C-2.31 21 -4.62 21 -7 21 C-7 23.31 -7 25.62 -7 28 C-23.5 28 -40 28 -57 28 C-57 25.69 -57 23.38 -57 21 C-52.38 21 -47.76 21 -43 21 C-43 18.69 -43 16.38 -43 14 C-35.74 14 -28.48 14 -21 14 C-21 11.69 -21 9.38 -21 7 C-14.07 7 -7.14 7 0 7 C0 4.69 0 2.38 0 0 Z " fill="#D72C20" transform="translate(114,43)"/>
<path d="M0 0 C9.57 0 19.14 0 29 0 C29 2.64 29 5.28 29 8 C33.62 8 38.24 8 43 8 C43 10.31 43 12.62 43 15 C38.38 15 33.76 15 29 15 C29 17.31 29 19.62 29 22 C19.43 22 9.86 22 0 22 C0 19.69 0 17.38 0 15 C-2.31 15 -4.62 15 -7 15 C-7 12.69 -7 10.38 -7 8 C-4.69 8 -2.38 8 0 8 C0 5.36 0 2.72 0 0 Z " fill="#FFFFFF" transform="translate(71,71)"/>
<path d="M0 0 C7.26 0 14.52 0 22 0 C22 2.64 22 5.28 22 8 C26.62 8 31.24 8 36 8 C36 10.31 36 12.62 36 15 C31.38 15 26.76 15 22 15 C22 17.31 22 19.62 22 22 C12.43 22 2.86 22 -7 22 C-7 19.69 -7 17.38 -7 15 C-11.62 15 -16.24 15 -21 15 C-21 12.69 -21 10.38 -21 8 C-14.07 8 -7.14 8 0 8 C0 5.36 0 2.72 0 0 Z " fill="#AB1F13" transform="translate(164,71)"/>
<path d="M0 0 C2.31 0 4.62 0 7 0 C7 2.31 7 4.62 7 7 C13.93 7 20.86 7 28 7 C28 9.64 28 12.28 28 15 C30.64 15 33.28 15 36 15 C36 17.31 36 19.62 36 22 C31.05 22 26.1 22 21 22 C21 24.31 21 26.62 21 29 C16.38 29 11.76 29 7 29 C7 31.31 7 33.62 7 36 C4.69 36 2.38 36 0 36 C0 33.69 0 31.38 0 29 C-2.31 29 -4.62 29 -7 29 C-7 26.69 -7 24.38 -7 22 C-2.38 22 2.24 22 7 22 C7 19.69 7 17.38 7 15 C2.38 15 -2.24 15 -7 15 C-7 12.36 -7 9.72 -7 7 C-4.69 7 -2.38 7 0 7 C0 4.69 0 2.38 0 0 Z " fill="#D42B1F" transform="translate(193,64)"/>
<path d="M0 0 C4.62 0 9.24 0 14 0 C14 2.31 14 4.62 14 7 C11.69 7 9.38 7 7 7 C7 11.62 7 16.24 7 21 C2.05 21 -2.9 21 -8 21 C-8 18.69 -8 16.38 -8 14 C-12.62 14 -17.24 14 -22 14 C-22 11.69 -22 9.38 -22 7 C-14.74 7 -7.48 7 0 7 C0 4.69 0 2.38 0 0 Z " fill="#FFFFFF" transform="translate(129,93)"/>
<path d="M0 0 C7.26 0 14.52 0 22 0 C22 2.31 22 4.62 22 7 C24.31 7 26.62 7 29 7 C29 9.31 29 11.62 29 14 C24.38 14 19.76 14 15 14 C15 16.64 15 19.28 15 22 C12.69 22 10.38 22 8 22 C8 17.05 8 12.1 8 7 C5.36 7 2.72 7 0 7 C0 4.69 0 2.38 0 0 Z " fill="#F9E3E2" transform="translate(121,57)"/>
<path d="M0 0 C2.31 0 4.62 0 7 0 C7 2.31 7 4.62 7 7 C14.26 7 21.52 7 29 7 C29 9.31 29 11.62 29 14 C21.74 14 14.48 14 7 14 C7 16.31 7 18.62 7 21 C4.69 21 2.38 21 0 21 C0 14.07 0 7.14 0 0 Z " fill="#DE5147" transform="translate(100,86)"/>
<path d="M0 0 C11.88 0 23.76 0 36 0 C36 2.31 36 4.62 36 7 C31.38 7 26.76 7 22 7 C22 9.31 22 11.62 22 14 C19.69 14 17.38 14 15 14 C15 11.69 15 9.38 15 7 C10.05 7 5.1 7 0 7 C0 4.69 0 2.38 0 0 Z " fill="#D82C20" transform="translate(114,43)"/>
<path d="M0 0 C9.57 0 19.14 0 29 0 C29 2.64 29 5.28 29 8 C19.43 8 9.86 8 0 8 C0 5.36 0 2.72 0 0 Z " fill="#F6CECC" transform="translate(71,71)"/>
<path d="M0 0 C9.57 0 19.14 0 29 0 C29 2.31 29 4.62 29 7 C19.43 7 9.86 7 0 7 C0 4.69 0 2.38 0 0 Z " fill="#8E1F17" transform="translate(107,207)"/>
<path d="M0 0 C9.57 0 19.14 0 29 0 C29 2.31 29 4.62 29 7 C19.43 7 9.86 7 0 7 C0 4.69 0 2.38 0 0 Z " fill="#F9DFDD" transform="translate(71,86)"/>
<path d="M0 0 C2.31 0 4.62 0 7 0 C7 2.64 7 5.28 7 8 C11.62 8 16.24 8 21 8 C21 10.31 21 12.62 21 15 C14.07 15 7.14 15 0 15 C0 10.05 0 5.1 0 0 Z " fill="#7A0C00" transform="translate(179,71)"/>
<path d="M0 0 C2.31 0 4.62 0 7 0 C7 2.31 7 4.62 7 7 C9.64 7 12.28 7 15 7 C15 9.31 15 11.62 15 14 C7.74 14 0.48 14 -7 14 C-7 11.69 -7 9.38 -7 7 C-4.69 7 -2.38 7 0 7 C0 4.69 0 2.38 0 0 Z " fill="#E67C74" transform="translate(114,57)"/>
<path d="M0 0 C7.26 0 14.52 0 22 0 C22 2.64 22 5.28 22 8 C14.74 8 7.48 8 0 8 C0 5.36 0 2.72 0 0 Z " fill="#BF2519" transform="translate(114,121)"/>
<path d="M0 0 C2.31 0 4.62 0 7 0 C7 2.31 7 4.62 7 7 C9.31 7 11.62 7 14 7 C14 9.31 14 11.62 14 14 C9.38 14 4.76 14 0 14 C0 9.38 0 4.76 0 0 Z " fill="#AF2114" transform="translate(29,79)"/>
<path d="M0 0 C4.62 0 9.24 0 14 0 C14 2.64 14 5.28 14 8 C9.38 8 4.76 8 0 8 C0 5.36 0 2.72 0 0 Z " fill="#AC2013" transform="translate(107,171)"/>
<path d="M0 0 C4.62 0 9.24 0 14 0 C14 2.64 14 5.28 14 8 C9.38 8 4.76 8 0 8 C0 5.36 0 2.72 0 0 Z " fill="#D82C20" transform="translate(186,121)"/>
<path d="M0 0 C2.64 0 5.28 0 8 0 C8 4.62 8 9.24 8 14 C5.36 14 2.72 14 0 14 C0 9.38 0 4.76 0 0 Z " fill="#6F292B" transform="translate(221,100)"/>
<path d="M0 0 C4.62 0 9.24 0 14 0 C14 2.64 14 5.28 14 8 C9.38 8 4.76 8 0 8 C0 5.36 0 2.72 0 0 Z " fill="#AC2B26" transform="translate(36,71)"/>
<path d="M0 0 C4.95 0 9.9 0 15 0 C15 2.31 15 4.62 15 7 C10.05 7 5.1 7 0 7 C0 4.69 0 2.38 0 0 Z " fill="#3D2731" transform="translate(71,193)"/>
<path d="M0 0 C4.95 0 9.9 0 15 0 C15 2.31 15 4.62 15 7 C10.05 7 5.1 7 0 7 C0 4.69 0 2.38 0 0 Z " fill="#B52216" transform="translate(121,157)"/>
<path d="M0 0 C4.95 0 9.9 0 15 0 C15 2.31 15 4.62 15 7 C10.05 7 5.1 7 0 7 C0 4.69 0 2.38 0 0 Z " fill="#E77B74" transform="translate(121,107)"/>
<path d="M0 0 C4.95 0 9.9 0 15 0 C15 2.31 15 4.62 15 7 C10.05 7 5.1 7 0 7 C0 4.69 0 2.38 0 0 Z " fill="#CE291D" transform="translate(64,100)"/>
<path d="M0 0 C4.95 0 9.9 0 15 0 C15 2.31 15 4.62 15 7 C10.05 7 5.1 7 0 7 C0 4.69 0 2.38 0 0 Z " fill="#EDA09A" transform="translate(114,93)"/>
<path d="M0 0 C4.95 0 9.9 0 15 0 C15 2.31 15 4.62 15 7 C10.05 7 5.1 7 0 7 C0 4.69 0 2.38 0 0 Z " fill="#CD2C21" transform="translate(171,57)"/>
<path d="M0 0 C4.95 0 9.9 0 15 0 C15 2.31 15 4.62 15 7 C10.05 7 5.1 7 0 7 C0 4.69 0 2.38 0 0 Z " fill="#5D2A30" transform="translate(71,57)"/>
<path d="M0 0 C4.95 0 9.9 0 15 0 C15 2.31 15 4.62 15 7 C10.05 7 5.1 7 0 7 C0 4.69 0 2.38 0 0 Z " fill="#382935" transform="translate(164,50)"/>
<path d="M0 0 C4.95 0 9.9 0 15 0 C15 2.31 15 4.62 15 7 C10.05 7 5.1 7 0 7 C0 4.69 0 2.38 0 0 Z " fill="#DB3E33" transform="translate(114,50)"/>
<path d="M0 0 C4.95 0 9.9 0 15 0 C15 2.31 15 4.62 15 7 C10.05 7 5.1 7 0 7 C0 4.69 0 2.38 0 0 Z " fill="#AB2B26" transform="translate(114,43)"/>
<path d="M0 0 C4.62 0 9.24 0 14 0 C14 2.31 14 4.62 14 7 C9.38 7 4.76 7 0 7 C0 4.69 0 2.38 0 0 Z " fill="#332834" transform="translate(136,207)"/>
<path d="M0 0 C4.62 0 9.24 0 14 0 C14 2.31 14 4.62 14 7 C9.38 7 4.76 7 0 7 C0 4.69 0 2.38 0 0 Z " fill="#742220" transform="translate(107,207)"/>
<path d="M0 0 C4.62 0 9.24 0 14 0 C14 2.31 14 4.62 14 7 C9.38 7 4.76 7 0 7 C0 4.69 0 2.38 0 0 Z " fill="#3F2730" transform="translate(150,200)"/>
<path d="M0 0 C4.62 0 9.24 0 14 0 C14 2.31 14 4.62 14 7 C9.38 7 4.76 7 0 7 C0 4.69 0 2.38 0 0 Z " fill="#892019" transform="translate(93,200)"/>
<path d="M0 0 C4.62 0 9.24 0 14 0 C14 2.31 14 4.62 14 7 C9.38 7 4.76 7 0 7 C0 4.69 0 2.38 0 0 Z " fill="#CE291D" transform="translate(107,186)"/>
<path d="M0 0 C4.62 0 9.24 0 14 0 C14 2.31 14 4.62 14 7 C9.38 7 4.76 7 0 7 C0 4.69 0 2.38 0 0 Z " fill="#352833" transform="translate(200,179)"/>
<path d="M0 0 C4.62 0 9.24 0 14 0 C14 2.31 14 4.62 14 7 C9.38 7 4.76 7 0 7 C0 4.69 0 2.38 0 0 Z " fill="#87211A" transform="translate(43,179)"/>
<path d="M0 0 C4.62 0 9.24 0 14 0 C14 2.31 14 4.62 14 7 C9.38 7 4.76 7 0 7 C0 4.69 0 2.38 0 0 Z " fill="#CA281C" transform="translate(100,150)"/>
<path d="M0 0 C4.62 0 9.24 0 14 0 C14 2.31 14 4.62 14 7 C9.38 7 4.76 7 0 7 C0 4.69 0 2.38 0 0 Z " fill="#D82C20" transform="translate(36,150)"/>
<path d="M0 0 C4.62 0 9.24 0 14 0 C14 2.31 14 4.62 14 7 C9.38 7 4.76 7 0 7 C0 4.69 0 2.38 0 0 Z " fill="#AE2114" transform="translate(36,143)"/>
<path d="M0 0 C2.31 0 4.62 0 7 0 C7 4.62 7 9.24 7 14 C4.69 14 2.38 14 0 14 C0 9.38 0 4.76 0 0 Z " fill="#79292A" transform="translate(29,136)"/>
<path d="M0 0 C4.62 0 9.24 0 14 0 C14 2.31 14 4.62 14 7 C9.38 7 4.76 7 0 7 C0 4.69 0 2.38 0 0 Z " fill="#D82C20" transform="translate(29,114)"/>
<path d="M0 0 C4.62 0 9.24 0 14 0 C14 2.31 14 4.62 14 7 C9.38 7 4.76 7 0 7 C0 4.69 0 2.38 0 0 Z " fill="#BA261B" transform="translate(207,107)"/>
<path d="M0 0 C4.62 0 9.24 0 14 0 C14 2.31 14 4.62 14 7 C9.38 7 4.76 7 0 7 C0 4.69 0 2.38 0 0 Z " fill="#AE2114" transform="translate(179,100)"/>
<path d="M0 0 C4.62 0 9.24 0 14 0 C14 2.31 14 4.62 14 7 C9.38 7 4.76 7 0 7 C0 4.69 0 2.38 0 0 Z " fill="#FDF4F4" transform="translate(107,100)"/>
<path d="M0 0 C4.62 0 9.24 0 14 0 C14 2.31 14 4.62 14 7 C9.38 7 4.76 7 0 7 C0 4.69 0 2.38 0 0 Z " fill="#F8D6D4" transform="translate(129,93)"/>
<path d="M0 0 C4.62 0 9.24 0 14 0 C14 2.31 14 4.62 14 7 C9.38 7 4.76 7 0 7 C0 4.69 0 2.38 0 0 Z " fill="#B62317" transform="translate(157,86)"/>
<path d="M0 0 C4.62 0 9.24 0 14 0 C14 2.31 14 4.62 14 7 C9.38 7 4.76 7 0 7 C0 4.69 0 2.38 0 0 Z " fill="#342936" transform="translate(200,64)"/>
<path d="M0 0 C4.62 0 9.24 0 14 0 C14 2.31 14 4.62 14 7 C9.38 7 4.76 7 0 7 C0 4.69 0 2.38 0 0 Z " fill="#BD2C24" transform="translate(57,64)"/>
<path d="M0 0 C4.62 0 9.24 0 14 0 C14 2.31 14 4.62 14 7 C9.38 7 4.76 7 0 7 C0 4.69 0 2.38 0 0 Z " fill="#DA362A" transform="translate(136,50)"/>
<path d="M0 0 C4.62 0 9.24 0 14 0 C14 2.31 14 4.62 14 7 C9.38 7 4.76 7 0 7 C0 4.69 0 2.38 0 0 Z " fill="#A62B27" transform="translate(93,50)"/>
<path d="M0 0 C2.64 0 5.28 0 8 0 C8 2.64 8 5.28 8 8 C5.36 8 2.72 8 0 8 C0 5.36 0 2.72 0 0 Z " fill="#BA2417" transform="translate(171,171)"/>
<path d="M0 0 C2.64 0 5.28 0 8 0 C8 2.64 8 5.28 8 8 C5.36 8 2.72 8 0 8 C0 5.36 0 2.72 0 0 Z " fill="#B92417" transform="translate(71,171)"/>
<path d="M0 0 C2.64 0 5.28 0 8 0 C8 2.64 8 5.28 8 8 C5.36 8 2.72 8 0 8 C0 5.36 0 2.72 0 0 Z " fill="#B32215" transform="translate(171,121)"/>
<path d="M0 0 C2.64 0 5.28 0 8 0 C8 2.64 8 5.28 8 8 C5.36 8 2.72 8 0 8 C0 5.36 0 2.72 0 0 Z " fill="#B32215" transform="translate(71,121)"/>
<path d="M0 0 C2.64 0 5.28 0 8 0 C8 2.64 8 5.28 8 8 C5.36 8 2.72 8 0 8 C0 5.36 0 2.72 0 0 Z " fill="#3A2935" transform="translate(221,71)"/>
<path d="M0 0 C2.64 0 5.28 0 8 0 C8 2.64 8 5.28 8 8 C5.36 8 2.72 8 0 8 C0 5.36 0 2.72 0 0 Z " fill="#EB948D" transform="translate(71,71)"/>
<path d="M0 0 C2.31 0 4.62 0 7 0 C7 2.64 7 5.28 7 8 C4.69 8 2.38 8 0 8 C0 5.36 0 2.72 0 0 Z " fill="#333333" transform="translate(0,221)"/>
<path d="M0 0 C2.64 0 5.28 0 8 0 C8 2.31 8 4.62 8 7 C5.36 7 2.72 7 0 7 C0 4.69 0 2.38 0 0 Z " fill="#4B262C" transform="translate(171,193)"/>
<path d="M0 0 C2.31 0 4.62 0 7 0 C7 2.64 7 5.28 7 8 C4.69 8 2.38 8 0 8 C0 5.36 0 2.72 0 0 Z " fill="#702321" transform="translate(214,171)"/>
<path d="M0 0 C2.31 0 4.62 0 7 0 C7 2.64 7 5.28 7 8 C4.69 8 2.38 8 0 8 C0 5.36 0 2.72 0 0 Z " fill="#D82C20" transform="translate(157,171)"/>
<path d="M0 0 C2.31 0 4.62 0 7 0 C7 2.64 7 5.28 7 8 C4.69 8 2.38 8 0 8 C0 5.36 0 2.72 0 0 Z " fill="#BD2518" transform="translate(143,171)"/>
<path d="M0 0 C2.31 0 4.62 0 7 0 C7 2.64 7 5.28 7 8 C4.69 8 2.38 8 0 8 C0 5.36 0 2.72 0 0 Z " fill="#BC2418" transform="translate(107,171)"/>
<path d="M0 0 C2.31 0 4.62 0 7 0 C7 2.64 7 5.28 7 8 C4.69 8 2.38 8 0 8 C0 5.36 0 2.72 0 0 Z " fill="#951F16" transform="translate(36,171)"/>
<path d="M0 0 C2.31 0 4.62 0 7 0 C7 2.64 7 5.28 7 8 C4.69 8 2.38 8 0 8 C0 5.36 0 2.72 0 0 Z " fill="#562529" transform="translate(29,171)"/>
<path d="M0 0 C2.64 0 5.28 0 8 0 C8 2.31 8 4.62 8 7 C5.36 7 2.72 7 0 7 C0 4.69 0 2.38 0 0 Z " fill="#8C2018" transform="translate(221,164)"/>
<path d="M0 0 C2.64 0 5.28 0 8 0 C8 2.31 8 4.62 8 7 C5.36 7 2.72 7 0 7 C0 4.69 0 2.38 0 0 Z " fill="#D82C20" transform="translate(171,164)"/>
<path d="M0 0 C2.64 0 5.28 0 8 0 C8 2.31 8 4.62 8 7 C5.36 7 2.72 7 0 7 C0 4.69 0 2.38 0 0 Z " fill="#B72317" transform="translate(171,157)"/>
<path d="M0 0 C2.64 0 5.28 0 8 0 C8 2.31 8 4.62 8 7 C5.36 7 2.72 7 0 7 C0 4.69 0 2.38 0 0 Z " fill="#BE2519" transform="translate(71,157)"/>
<path d="M0 0 C2.64 0 5.28 0 8 0 C8 2.31 8 4.62 8 7 C5.36 7 2.72 7 0 7 C0 4.69 0 2.38 0 0 Z " fill="#A22924" transform="translate(221,143)"/>
<path d="M0 0 C2.64 0 5.28 0 8 0 C8 2.31 8 4.62 8 7 C5.36 7 2.72 7 0 7 C0 4.69 0 2.38 0 0 Z " fill="#44262E" transform="translate(221,136)"/>
<path d="M0 0 C2.31 0 4.62 0 7 0 C7 2.64 7 5.28 7 8 C4.69 8 2.38 8 0 8 C0 5.36 0 2.72 0 0 Z " fill="#C02619" transform="translate(207,121)"/>
<path d="M0 0 C2.31 0 4.62 0 7 0 C7 2.64 7 5.28 7 8 C4.69 8 2.38 8 0 8 C0 5.36 0 2.72 0 0 Z " fill="#C5271A" transform="translate(64,121)"/>
<path d="M0 0 C2.31 0 4.62 0 7 0 C7 2.64 7 5.28 7 8 C4.69 8 2.38 8 0 8 C0 5.36 0 2.72 0 0 Z " fill="#BD2518" transform="translate(36,121)"/>
<path d="M0 0 C2.64 0 5.28 0 8 0 C8 2.31 8 4.62 8 7 C5.36 7 2.72 7 0 7 C0 4.69 0 2.38 0 0 Z " fill="#B92417" transform="translate(221,114)"/>
<path d="M0 0 C2.64 0 5.28 0 8 0 C8 2.31 8 4.62 8 7 C5.36 7 2.72 7 0 7 C0 4.69 0 2.38 0 0 Z " fill="#5C2427" transform="translate(221,100)"/>
<path d="M0 0 C2.64 0 5.28 0 8 0 C8 2.31 8 4.62 8 7 C5.36 7 2.72 7 0 7 C0 4.69 0 2.38 0 0 Z " fill="#EEA49E" transform="translate(71,86)"/>
<path d="M0 0 C2.64 0 5.28 0 8 0 C8 2.31 8 4.62 8 7 C5.36 7 2.72 7 0 7 C0 4.69 0 2.38 0 0 Z " fill="#B8271D" transform="translate(221,79)"/>
<path d="M0 0 C2.31 0 4.62 0 7 0 C7 2.64 7 5.28 7 8 C4.69 8 2.38 8 0 8 C0 5.36 0 2.72 0 0 Z " fill="#962A27" transform="translate(214,71)"/>
<path d="M0 0 C2.31 0 4.62 0 7 0 C7 2.64 7 5.28 7 8 C4.69 8 2.38 8 0 8 C0 5.36 0 2.72 0 0 Z " fill="#B52014" transform="translate(186,71)"/>
<path d="M0 0 C2.31 0 4.62 0 7 0 C7 2.64 7 5.28 7 8 C4.69 8 2.38 8 0 8 C0 5.36 0 2.72 0 0 Z " fill="#921408" transform="translate(179,71)"/>
<path d="M0 0 C2.31 0 4.62 0 7 0 C7 2.64 7 5.28 7 8 C4.69 8 2.38 8 0 8 C0 5.36 0 2.72 0 0 Z " fill="#B72317" transform="translate(164,71)"/>
<path d="M0 0 C2.31 0 4.62 0 7 0 C7 2.64 7 5.28 7 8 C4.69 8 2.38 8 0 8 C0 5.36 0 2.72 0 0 Z " fill="#C6281C" transform="translate(157,71)"/>
<path d="M0 0 C2.31 0 4.62 0 7 0 C7 2.64 7 5.28 7 8 C4.69 8 2.38 8 0 8 C0 5.36 0 2.72 0 0 Z " fill="#EC9A94" transform="translate(129,71)"/>
<path d="M0 0 C2.31 0 4.62 0 7 0 C7 2.64 7 5.28 7 8 C4.69 8 2.38 8 0 8 C0 5.36 0 2.72 0 0 Z " fill="#E46C64" transform="translate(100,71)"/>
<path d="M0 0 C2.31 0 4.62 0 7 0 C7 2.64 7 5.28 7 8 C4.69 8 2.38 8 0 8 C0 5.36 0 2.72 0 0 Z " fill="#EFA8A3" transform="translate(93,71)"/>
<path d="M0 0 C2.31 0 4.62 0 7 0 C7 2.64 7 5.28 7 8 C4.69 8 2.38 8 0 8 C0 5.36 0 2.72 0 0 Z " fill="#F4C5C2" transform="translate(79,71)"/>
<path d="M0 0 C2.31 0 4.62 0 7 0 C7 2.64 7 5.28 7 8 C4.69 8 2.38 8 0 8 C0 5.36 0 2.72 0 0 Z " fill="#DE4D43" transform="translate(64,71)"/>
<path d="M0 0 C2.31 0 4.62 0 7 0 C7 2.64 7 5.28 7 8 C4.69 8 2.38 8 0 8 C0 5.36 0 2.72 0 0 Z " fill="#742A2D" transform="translate(36,71)"/>
<path d="M0 0 C2.64 0 5.28 0 8 0 C8 2.31 8 4.62 8 7 C5.36 7 2.72 7 0 7 C0 4.69 0 2.38 0 0 Z " fill="#C32519" transform="translate(171,64)"/>
<path d="M0 0 C2.64 0 5.28 0 8 0 C8 2.31 8 4.62 8 7 C5.36 7 2.72 7 0 7 C0 4.69 0 2.38 0 0 Z " fill="#ED9C96" transform="translate(121,64)"/>
<path d="M0 0 C2.64 0 5.28 0 8 0 C8 2.31 8 4.62 8 7 C5.36 7 2.72 7 0 7 C0 4.69 0 2.38 0 0 Z " fill="#FFFDFD" transform="translate(121,57)"/>
<path d="M0 0 C2.64 0 5.28 0 8 0 C8 2.31 8 4.62 8 7 C5.36 7 2.72 7 0 7 C0 4.69 0 2.38 0 0 Z " fill="#333333" transform="translate(221,0)"/>
<path d="M0 0 C2.31 0 4.62 0 7 0 C7 2.31 7 4.62 7 7 C4.69 7 2.38 7 0 7 C0 4.69 0 2.38 0 0 Z " fill="#5B2427" transform="translate(136,207)"/>
<path d="M0 0 C2.31 0 4.62 0 7 0 C7 2.31 7 4.62 7 7 C4.69 7 2.38 7 0 7 C0 4.69 0 2.38 0 0 Z " fill="#4D252B" transform="translate(107,207)"/>
<path d="M0 0 C2.31 0 4.62 0 7 0 C7 2.31 7 4.62 7 7 C4.69 7 2.38 7 0 7 C0 4.69 0 2.38 0 0 Z " fill="#6D2322" transform="translate(150,200)"/>
<path d="M0 0 C2.31 0 4.62 0 7 0 C7 2.31 7 4.62 7 7 C4.69 7 2.38 7 0 7 C0 4.69 0 2.38 0 0 Z " fill="#5C2427" transform="translate(93,200)"/>
<path d="M0 0 C2.31 0 4.62 0 7 0 C7 2.31 7 4.62 7 7 C4.69 7 2.38 7 0 7 C0 4.69 0 2.38 0 0 Z " fill="#79221E" transform="translate(164,193)"/>
<path d="M0 0 C2.31 0 4.62 0 7 0 C7 2.31 7 4.62 7 7 C4.69 7 2.38 7 0 7 C0 4.69 0 2.38 0 0 Z " fill="#971F15" transform="translate(86,193)"/>
<path d="M0 0 C2.31 0 4.62 0 7 0 C7 2.31 7 4.62 7 7 C4.69 7 2.38 7 0 7 C0 4.69 0 2.38 0 0 Z " fill="#6A2323" transform="translate(79,193)"/>
<path d="M0 0 C2.31 0 4.62 0 7 0 C7 2.31 7 4.62 7 7 C4.69 7 2.38 7 0 7 C0 4.69 0 2.38 0 0 Z " fill="#572528" transform="translate(186,186)"/>
<path d="M0 0 C2.31 0 4.62 0 7 0 C7 2.31 7 4.62 7 7 C4.69 7 2.38 7 0 7 C0 4.69 0 2.38 0 0 Z " fill="#86211A" transform="translate(179,186)"/>
<path d="M0 0 C2.31 0 4.62 0 7 0 C7 2.31 7 4.62 7 7 C4.69 7 2.38 7 0 7 C0 4.69 0 2.38 0 0 Z " fill="#B42216" transform="translate(143,186)"/>
<path d="M0 0 C2.31 0 4.62 0 7 0 C7 2.31 7 4.62 7 7 C4.69 7 2.38 7 0 7 C0 4.69 0 2.38 0 0 Z " fill="#C3261A" transform="translate(136,186)"/>
<path d="M0 0 C2.31 0 4.62 0 7 0 C7 2.31 7 4.62 7 7 C4.69 7 2.38 7 0 7 C0 4.69 0 2.38 0 0 Z " fill="#BF2519" transform="translate(107,186)"/>
<path d="M0 0 C2.31 0 4.62 0 7 0 C7 2.31 7 4.62 7 7 C4.69 7 2.38 7 0 7 C0 4.69 0 2.38 0 0 Z " fill="#78221E" transform="translate(64,186)"/>
<path d="M0 0 C2.31 0 4.62 0 7 0 C7 2.31 7 4.62 7 7 C4.69 7 2.38 7 0 7 C0 4.69 0 2.38 0 0 Z " fill="#4B262C" transform="translate(57,186)"/>
<path d="M0 0 C2.31 0 4.62 0 7 0 C7 2.31 7 4.62 7 7 C4.69 7 2.38 7 0 7 C0 4.69 0 2.38 0 0 Z " fill="#632425" transform="translate(200,179)"/>
<path d="M0 0 C2.31 0 4.62 0 7 0 C7 2.31 7 4.62 7 7 C4.69 7 2.38 7 0 7 C0 4.69 0 2.38 0 0 Z " fill="#922017" transform="translate(193,179)"/>
<path d="M0 0 C2.31 0 4.62 0 7 0 C7 2.31 7 4.62 7 7 C4.69 7 2.38 7 0 7 C0 4.69 0 2.38 0 0 Z " fill="#B72317" transform="translate(157,179)"/>
<path d="M0 0 C2.31 0 4.62 0 7 0 C7 2.31 7 4.62 7 7 C4.69 7 2.38 7 0 7 C0 4.69 0 2.38 0 0 Z " fill="#C5271B" transform="translate(93,179)"/>
<path d="M0 0 C2.31 0 4.62 0 7 0 C7 2.31 7 4.62 7 7 C4.69 7 2.38 7 0 7 C0 4.69 0 2.38 0 0 Z " fill="#B32215" transform="translate(86,179)"/>
<path d="M0 0 C2.31 0 4.62 0 7 0 C7 2.31 7 4.62 7 7 C4.69 7 2.38 7 0 7 C0 4.69 0 2.38 0 0 Z " fill="#592428" transform="translate(43,179)"/>
<path d="M0 0 C2.31 0 4.62 0 7 0 C7 2.31 7 4.62 7 7 C4.69 7 2.38 7 0 7 C0 4.69 0 2.38 0 0 Z " fill="#BD2518" transform="translate(186,164)"/>
<path d="M0 0 C2.31 0 4.62 0 7 0 C7 2.31 7 4.62 7 7 C4.69 7 2.38 7 0 7 C0 4.69 0 2.38 0 0 Z " fill="#BA2417" transform="translate(157,164)"/>
<path d="M0 0 C2.31 0 4.62 0 7 0 C7 2.31 7 4.62 7 7 C4.69 7 2.38 7 0 7 C0 4.69 0 2.38 0 0 Z " fill="#B42216" transform="translate(93,164)"/>
<path d="M0 0 C2.31 0 4.62 0 7 0 C7 2.31 7 4.62 7 7 C4.69 7 2.38 7 0 7 C0 4.69 0 2.38 0 0 Z " fill="#C6271B" transform="translate(86,164)"/>
<path d="M0 0 C2.31 0 4.62 0 7 0 C7 2.31 7 4.62 7 7 C4.69 7 2.38 7 0 7 C0 4.69 0 2.38 0 0 Z " fill="#BE2519" transform="translate(57,164)"/>
<path d="M0 0 C2.31 0 4.62 0 7 0 C7 2.31 7 4.62 7 7 C4.69 7 2.38 7 0 7 C0 4.69 0 2.38 0 0 Z " fill="#C02619" transform="translate(200,157)"/>
<path d="M0 0 C2.31 0 4.62 0 7 0 C7 2.31 7 4.62 7 7 C4.69 7 2.38 7 0 7 C0 4.69 0 2.38 0 0 Z " fill="#C4271A" transform="translate(43,157)"/>
<path d="M0 0 C2.31 0 4.62 0 7 0 C7 2.31 7 4.62 7 7 C4.69 7 2.38 7 0 7 C0 4.69 0 2.38 0 0 Z " fill="#B22215" transform="translate(36,157)"/>
<path d="M0 0 C2.31 0 4.62 0 7 0 C7 2.31 7 4.62 7 7 C4.69 7 2.38 7 0 7 C0 4.69 0 2.38 0 0 Z " fill="#C3261A" transform="translate(214,150)"/>
<path d="M0 0 C2.31 0 4.62 0 7 0 C7 2.31 7 4.62 7 7 C4.69 7 2.38 7 0 7 C0 4.69 0 2.38 0 0 Z " fill="#B42216" transform="translate(186,150)"/>
<path d="M0 0 C2.31 0 4.62 0 7 0 C7 2.31 7 4.62 7 7 C4.69 7 2.38 7 0 7 C0 4.69 0 2.38 0 0 Z " fill="#BF2519" transform="translate(143,150)"/>
<path d="M0 0 C2.31 0 4.62 0 7 0 C7 2.31 7 4.62 7 7 C4.69 7 2.38 7 0 7 C0 4.69 0 2.38 0 0 Z " fill="#B82317" transform="translate(100,150)"/>
<path d="M0 0 C2.31 0 4.62 0 7 0 C7 2.31 7 4.62 7 7 C4.69 7 2.38 7 0 7 C0 4.69 0 2.38 0 0 Z " fill="#B62316" transform="translate(57,150)"/>
<path d="M0 0 C2.31 0 4.62 0 7 0 C7 2.31 7 4.62 7 7 C4.69 7 2.38 7 0 7 C0 4.69 0 2.38 0 0 Z " fill="#C8281B" transform="translate(50,150)"/>
<path d="M0 0 C2.31 0 4.62 0 7 0 C7 2.31 7 4.62 7 7 C4.69 7 2.38 7 0 7 C0 4.69 0 2.38 0 0 Z " fill="#BE2518" transform="translate(29,150)"/>
<path d="M0 0 C2.31 0 4.62 0 7 0 C7 2.31 7 4.62 7 7 C4.69 7 2.38 7 0 7 C0 4.69 0 2.38 0 0 Z " fill="#C5271B" transform="translate(207,143)"/>
<path d="M0 0 C2.31 0 4.62 0 7 0 C7 2.31 7 4.62 7 7 C4.69 7 2.38 7 0 7 C0 4.69 0 2.38 0 0 Z " fill="#B12215" transform="translate(200,143)"/>
<path d="M0 0 C2.31 0 4.62 0 7 0 C7 2.31 7 4.62 7 7 C4.69 7 2.38 7 0 7 C0 4.69 0 2.38 0 0 Z " fill="#B12215" transform="translate(164,143)"/>
<path d="M0 0 C2.31 0 4.62 0 7 0 C7 2.31 7 4.62 7 7 C4.69 7 2.38 7 0 7 C0 4.69 0 2.38 0 0 Z " fill="#C4271A" transform="translate(157,143)"/>
<path d="M0 0 C2.31 0 4.62 0 7 0 C7 2.31 7 4.62 7 7 C4.69 7 2.38 7 0 7 C0 4.69 0 2.38 0 0 Z " fill="#BE2518" transform="translate(86,143)"/>
<path d="M0 0 C2.31 0 4.62 0 7 0 C7 2.31 7 4.62 7 7 C4.69 7 2.38 7 0 7 C0 4.69 0 2.38 0 0 Z " fill="#B7251A" transform="translate(36,143)"/>
<path d="M0 0 C2.31 0 4.62 0 7 0 C7 2.31 7 4.62 7 7 C4.69 7 2.38 7 0 7 C0 4.69 0 2.38 0 0 Z " fill="#982017" transform="translate(214,136)"/>
<path d="M0 0 C2.31 0 4.62 0 7 0 C7 2.31 7 4.62 7 7 C4.69 7 2.38 7 0 7 C0 4.69 0 2.38 0 0 Z " fill="#B62316" transform="translate(179,136)"/>
<path d="M0 0 C2.31 0 4.62 0 7 0 C7 2.31 7 4.62 7 7 C4.69 7 2.38 7 0 7 C0 4.69 0 2.38 0 0 Z " fill="#BD2518" transform="translate(143,136)"/>
<path d="M0 0 C2.31 0 4.62 0 7 0 C7 2.31 7 4.62 7 7 C4.69 7 2.38 7 0 7 C0 4.69 0 2.38 0 0 Z " fill="#B12215" transform="translate(107,136)"/>
<path d="M0 0 C2.31 0 4.62 0 7 0 C7 2.31 7 4.62 7 7 C4.69 7 2.38 7 0 7 C0 4.69 0 2.38 0 0 Z " fill="#C3261A" transform="translate(100,136)"/>
<path d="M0 0 C2.31 0 4.62 0 7 0 C7 2.31 7 4.62 7 7 C4.69 7 2.38 7 0 7 C0 4.69 0 2.38 0 0 Z " fill="#B12115" transform="translate(64,136)"/>
<path d="M0 0 C2.31 0 4.62 0 7 0 C7 2.31 7 4.62 7 7 C4.69 7 2.38 7 0 7 C0 4.69 0 2.38 0 0 Z " fill="#79221E" transform="translate(29,136)"/>
<path d="M0 0 C2.31 0 4.62 0 7 0 C7 2.31 7 4.62 7 7 C4.69 7 2.38 7 0 7 C0 4.69 0 2.38 0 0 Z " fill="#BB2418" transform="translate(193,129)"/>
<path d="M0 0 C2.31 0 4.62 0 7 0 C7 2.31 7 4.62 7 7 C4.69 7 2.38 7 0 7 C0 4.69 0 2.38 0 0 Z " fill="#CB281C" transform="translate(164,129)"/>
<path d="M0 0 C2.31 0 4.62 0 7 0 C7 2.31 7 4.62 7 7 C4.69 7 2.38 7 0 7 C0 4.69 0 2.38 0 0 Z " fill="#B82317" transform="translate(157,129)"/>
<path d="M0 0 C2.31 0 4.62 0 7 0 C7 2.31 7 4.62 7 7 C4.69 7 2.38 7 0 7 C0 4.69 0 2.38 0 0 Z " fill="#BB2418" transform="translate(86,129)"/>
<path d="M0 0 C2.31 0 4.62 0 7 0 C7 2.31 7 4.62 7 7 C4.69 7 2.38 7 0 7 C0 4.69 0 2.38 0 0 Z " fill="#C9281C" transform="translate(57,129)"/>
<path d="M0 0 C2.31 0 4.62 0 7 0 C7 2.31 7 4.62 7 7 C4.69 7 2.38 7 0 7 C0 4.69 0 2.38 0 0 Z " fill="#B72316" transform="translate(50,129)"/>
<path d="M0 0 C2.31 0 4.62 0 7 0 C7 2.31 7 4.62 7 7 C4.69 7 2.38 7 0 7 C0 4.69 0 2.38 0 0 Z " fill="#C12619" transform="translate(193,114)"/>
<path d="M0 0 C2.31 0 4.62 0 7 0 C7 2.31 7 4.62 7 7 C4.69 7 2.38 7 0 7 C0 4.69 0 2.38 0 0 Z " fill="#B72316" transform="translate(150,114)"/>
<path d="M0 0 C2.31 0 4.62 0 7 0 C7 2.31 7 4.62 7 7 C4.69 7 2.38 7 0 7 C0 4.69 0 2.38 0 0 Z " fill="#CA281C" transform="translate(143,114)"/>
<path d="M0 0 C2.31 0 4.62 0 7 0 C7 2.31 7 4.62 7 7 C4.69 7 2.38 7 0 7 C0 4.69 0 2.38 0 0 Z " fill="#C2261A" transform="translate(100,114)"/>
<path d="M0 0 C2.31 0 4.62 0 7 0 C7 2.31 7 4.62 7 7 C4.69 7 2.38 7 0 7 C0 4.69 0 2.38 0 0 Z " fill="#B02114" transform="translate(93,114)"/>
<path d="M0 0 C2.31 0 4.62 0 7 0 C7 2.31 7 4.62 7 7 C4.69 7 2.38 7 0 7 C0 4.69 0 2.38 0 0 Z " fill="#BD2518" transform="translate(50,114)"/>
<path d="M0 0 C2.31 0 4.62 0 7 0 C7 2.31 7 4.62 7 7 C4.69 7 2.38 7 0 7 C0 4.69 0 2.38 0 0 Z " fill="#C72A20" transform="translate(29,114)"/>
<path d="M0 0 C2.31 0 4.62 0 7 0 C7 2.31 7 4.62 7 7 C4.69 7 2.38 7 0 7 C0 4.69 0 2.38 0 0 Z " fill="#BC2418" transform="translate(164,107)"/>
<path d="M0 0 C2.31 0 4.62 0 7 0 C7 2.31 7 4.62 7 7 C4.69 7 2.38 7 0 7 C0 4.69 0 2.38 0 0 Z " fill="#CF2A1D" transform="translate(157,107)"/>
<path d="M0 0 C2.31 0 4.62 0 7 0 C7 2.31 7 4.62 7 7 C4.69 7 2.38 7 0 7 C0 4.69 0 2.38 0 0 Z " fill="#EC9893" transform="translate(129,107)"/>
<path d="M0 0 C2.31 0 4.62 0 7 0 C7 2.31 7 4.62 7 7 C4.69 7 2.38 7 0 7 C0 4.69 0 2.38 0 0 Z " fill="#C8281B" transform="translate(86,107)"/>
<path d="M0 0 C2.31 0 4.62 0 7 0 C7 2.31 7 4.62 7 7 C4.69 7 2.38 7 0 7 C0 4.69 0 2.38 0 0 Z " fill="#B62316" transform="translate(79,107)"/>
<path d="M0 0 C2.31 0 4.62 0 7 0 C7 2.31 7 4.62 7 7 C4.69 7 2.38 7 0 7 C0 4.69 0 2.38 0 0 Z " fill="#52272E" transform="translate(29,107)"/>
<path d="M0 0 C2.31 0 4.62 0 7 0 C7 2.31 7 4.62 7 7 C4.69 7 2.38 7 0 7 C0 4.69 0 2.38 0 0 Z " fill="#C12619" transform="translate(179,100)"/>
<path d="M0 0 C2.31 0 4.62 0 7 0 C7 2.31 7 4.62 7 7 C4.69 7 2.38 7 0 7 C0 4.69 0 2.38 0 0 Z " fill="#E57169" transform="translate(136,100)"/>
<path d="M0 0 C2.31 0 4.62 0 7 0 C7 2.31 7 4.62 7 7 C4.69 7 2.38 7 0 7 C0 4.69 0 2.38 0 0 Z " fill="#F0ABA7" transform="translate(107,100)"/>
<path d="M0 0 C2.31 0 4.62 0 7 0 C7 2.31 7 4.62 7 7 C4.69 7 2.38 7 0 7 C0 4.69 0 2.38 0 0 Z " fill="#BC2418" transform="translate(64,100)"/>
<path d="M0 0 C2.31 0 4.62 0 7 0 C7 2.31 7 4.62 7 7 C4.69 7 2.38 7 0 7 C0 4.69 0 2.38 0 0 Z " fill="#8F2018" transform="translate(29,100)"/>
<path d="M0 0 C2.31 0 4.62 0 7 0 C7 2.31 7 4.62 7 7 C4.69 7 2.38 7 0 7 C0 4.69 0 2.38 0 0 Z " fill="#B32215" transform="translate(200,93)"/>
<path d="M0 0 C2.31 0 4.62 0 7 0 C7 2.31 7 4.62 7 7 C4.69 7 2.38 7 0 7 C0 4.69 0 2.38 0 0 Z " fill="#C6271B" transform="translate(193,93)"/>
<path d="M0 0 C2.31 0 4.62 0 7 0 C7 2.31 7 4.62 7 7 C4.69 7 2.38 7 0 7 C0 4.69 0 2.38 0 0 Z " fill="#DC4237" transform="translate(143,93)"/>
<path d="M0 0 C2.31 0 4.62 0 7 0 C7 2.31 7 4.62 7 7 C4.69 7 2.38 7 0 7 C0 4.69 0 2.38 0 0 Z " fill="#F3C0BD" transform="translate(129,93)"/>
<path d="M0 0 C2.31 0 4.62 0 7 0 C7 2.31 7 4.62 7 7 C4.69 7 2.38 7 0 7 C0 4.69 0 2.38 0 0 Z " fill="#E77F77" transform="translate(114,93)"/>
<path d="M0 0 C2.31 0 4.62 0 7 0 C7 2.31 7 4.62 7 7 C4.69 7 2.38 7 0 7 C0 4.69 0 2.38 0 0 Z " fill="#C12619" transform="translate(50,93)"/>
<path d="M0 0 C2.31 0 4.62 0 7 0 C7 2.31 7 4.62 7 7 C4.69 7 2.38 7 0 7 C0 4.69 0 2.38 0 0 Z " fill="#B82317" transform="translate(214,86)"/>
<path d="M0 0 C2.31 0 4.62 0 7 0 C7 2.31 7 4.62 7 7 C4.69 7 2.38 7 0 7 C0 4.69 0 2.38 0 0 Z " fill="#C6271B" transform="translate(157,86)"/>
<path d="M0 0 C2.31 0 4.62 0 7 0 C7 2.31 7 4.62 7 7 C4.69 7 2.38 7 0 7 C0 4.69 0 2.38 0 0 Z " fill="#E77B73" transform="translate(100,86)"/>
<path d="M0 0 C2.31 0 4.62 0 7 0 C7 2.31 7 4.62 7 7 C4.69 7 2.38 7 0 7 C0 4.69 0 2.38 0 0 Z " fill="#F2B9B5" transform="translate(93,86)"/>
<path d="M0 0 C2.31 0 4.62 0 7 0 C7 2.31 7 4.62 7 7 C4.69 7 2.38 7 0 7 C0 4.69 0 2.38 0 0 Z " fill="#F7D5D3" transform="translate(79,86)"/>
<path d="M0 0 C2.31 0 4.62 0 7 0 C7 2.31 7 4.62 7 7 C4.69 7 2.38 7 0 7 C0 4.69 0 2.38 0 0 Z " fill="#E15B51" transform="translate(64,86)"/>
<path d="M0 0 C2.31 0 4.62 0 7 0 C7 2.31 7 4.62 7 7 C4.69 7 2.38 7 0 7 C0 4.69 0 2.38 0 0 Z " fill="#C7271B" transform="translate(36,86)"/>
<path d="M0 0 C2.31 0 4.62 0 7 0 C7 2.31 7 4.62 7 7 C4.69 7 2.38 7 0 7 C0 4.69 0 2.38 0 0 Z " fill="#C12418" transform="translate(200,79)"/>
<path d="M0 0 C2.31 0 4.62 0 7 0 C7 2.31 7 4.62 7 7 C4.69 7 2.38 7 0 7 C0 4.69 0 2.38 0 0 Z " fill="#9B170B" transform="translate(193,79)"/>
<path d="M0 0 C2.31 0 4.62 0 7 0 C7 2.31 7 4.62 7 7 C4.69 7 2.38 7 0 7 C0 4.69 0 2.38 0 0 Z " fill="#BE2519" transform="translate(143,79)"/>
<path d="M0 0 C2.31 0 4.62 0 7 0 C7 2.31 7 4.62 7 7 C4.69 7 2.38 7 0 7 C0 4.69 0 2.38 0 0 Z " fill="#F0ACA8" transform="translate(107,79)"/>
<path d="M0 0 C2.31 0 4.62 0 7 0 C7 2.31 7 4.62 7 7 C4.69 7 2.38 7 0 7 C0 4.69 0 2.38 0 0 Z " fill="#E2655C" transform="translate(57,79)"/>
<path d="M0 0 C2.31 0 4.62 0 7 0 C7 2.31 7 4.62 7 7 C4.69 7 2.38 7 0 7 C0 4.69 0 2.38 0 0 Z " fill="#AD2A23" transform="translate(29,79)"/>
<path d="M0 0 C2.31 0 4.62 0 7 0 C7 2.31 7 4.62 7 7 C4.69 7 2.38 7 0 7 C0 4.69 0 2.38 0 0 Z " fill="#712A2E" transform="translate(200,64)"/>
<path d="M0 0 C2.31 0 4.62 0 7 0 C7 2.31 7 4.62 7 7 C4.69 7 2.38 7 0 7 C0 4.69 0 2.38 0 0 Z " fill="#AD2B26" transform="translate(193,64)"/>
<path d="M0 0 C2.31 0 4.62 0 7 0 C7 2.31 7 4.62 7 7 C4.69 7 2.38 7 0 7 C0 4.69 0 2.38 0 0 Z " fill="#DB3B30" transform="translate(150,64)"/>
<path d="M0 0 C2.31 0 4.62 0 7 0 C7 2.31 7 4.62 7 7 C4.69 7 2.38 7 0 7 C0 4.69 0 2.38 0 0 Z " fill="#EC9A94" transform="translate(143,64)"/>
<path d="M0 0 C2.31 0 4.62 0 7 0 C7 2.31 7 4.62 7 7 C4.69 7 2.38 7 0 7 C0 4.69 0 2.38 0 0 Z " fill="#F5C8C5" transform="translate(136,64)"/>
<path d="M0 0 C2.31 0 4.62 0 7 0 C7 2.31 7 4.62 7 7 C4.69 7 2.38 7 0 7 C0 4.69 0 2.38 0 0 Z " fill="#FFFFFF" transform="translate(129,64)"/>
<path d="M0 0 C2.31 0 4.62 0 7 0 C7 2.31 7 4.62 7 7 C4.69 7 2.38 7 0 7 C0 4.69 0 2.38 0 0 Z " fill="#E15E54" transform="translate(107,64)"/>
<path d="M0 0 C2.31 0 4.62 0 7 0 C7 2.31 7 4.62 7 7 C4.69 7 2.38 7 0 7 C0 4.69 0 2.38 0 0 Z " fill="#852B2B" transform="translate(57,64)"/>
<path d="M0 0 C2.31 0 4.62 0 7 0 C7 2.31 7 4.62 7 7 C4.69 7 2.38 7 0 7 C0 4.69 0 2.38 0 0 Z " fill="#4C2A33" transform="translate(50,64)"/>
<path d="M0 0 C2.31 0 4.62 0 7 0 C7 2.31 7 4.62 7 7 C4.69 7 2.38 7 0 7 C0 4.69 0 2.38 0 0 Z " fill="#542A32" transform="translate(186,57)"/>
<path d="M0 0 C2.31 0 4.62 0 7 0 C7 2.31 7 4.62 7 7 C4.69 7 2.38 7 0 7 C0 4.69 0 2.38 0 0 Z " fill="#912B2A" transform="translate(179,57)"/>
<path d="M0 0 C2.31 0 4.62 0 7 0 C7 2.31 7 4.62 7 7 C4.69 7 2.38 7 0 7 C0 4.69 0 2.38 0 0 Z " fill="#952B29" transform="translate(79,57)"/>
<path d="M0 0 C2.31 0 4.62 0 7 0 C7 2.31 7 4.62 7 7 C4.69 7 2.38 7 0 7 C0 4.69 0 2.38 0 0 Z " fill="#742A2D" transform="translate(164,50)"/>
<path d="M0 0 C2.31 0 4.62 0 7 0 C7 2.31 7 4.62 7 7 C4.69 7 2.38 7 0 7 C0 4.69 0 2.38 0 0 Z " fill="#B12B25" transform="translate(157,50)"/>
<path d="M0 0 C2.31 0 4.62 0 7 0 C7 2.31 7 4.62 7 7 C4.69 7 2.38 7 0 7 C0 4.69 0 2.38 0 0 Z " fill="#E05A50" transform="translate(136,50)"/>
<path d="M0 0 C2.31 0 4.62 0 7 0 C7 2.31 7 4.62 7 7 C4.69 7 2.38 7 0 7 C0 4.69 0 2.38 0 0 Z " fill="#DE4E44" transform="translate(114,50)"/>
<path d="M0 0 C2.31 0 4.62 0 7 0 C7 2.31 7 4.62 7 7 C4.69 7 2.38 7 0 7 C0 4.69 0 2.38 0 0 Z " fill="#6D2A2E" transform="translate(93,50)"/>
<path d="M0 0 C2.31 0 4.62 0 7 0 C7 2.31 7 4.62 7 7 C4.69 7 2.38 7 0 7 C0 4.69 0 2.38 0 0 Z " fill="#352936" transform="translate(86,50)"/>
<path d="M0 0 C2.31 0 4.62 0 7 0 C7 2.31 7 4.62 7 7 C4.69 7 2.38 7 0 7 C0 4.69 0 2.38 0 0 Z " fill="#582A31" transform="translate(150,43)"/>
<path d="M0 0 C2.31 0 4.62 0 7 0 C7 2.31 7 4.62 7 7 C4.69 7 2.38 7 0 7 C0 4.69 0 2.38 0 0 Z " fill="#942B29" transform="translate(143,43)"/>
<path d="M0 0 C2.31 0 4.62 0 7 0 C7 2.31 7 4.62 7 7 C4.69 7 2.38 7 0 7 C0 4.69 0 2.38 0 0 Z " fill="#BA2B24" transform="translate(136,43)"/>
<path d="M0 0 C2.31 0 4.62 0 7 0 C7 2.31 7 4.62 7 7 C4.69 7 2.38 7 0 7 C0 4.69 0 2.38 0 0 Z " fill="#7E2A2C" transform="translate(114,43)"/>
<path d="M0 0 C2.31 0 4.62 0 7 0 C7 2.31 7 4.62 7 7 C4.69 7 2.38 7 0 7 C0 4.69 0 2.38 0 0 Z " fill="#462A33" transform="translate(107,43)"/>
</svg>
