<?xml version="1.0" encoding="UTF-8"?>
<svg version="1.1" xmlns="http://www.w3.org/2000/svg" width="256" height="256">
<path d="M0 0 C66 0 132 0 200 0 C200 2.31 200 4.62 200 7 C202.31 7 204.62 7 207 7 C207 9.31 207 11.62 207 14 C209.31 14 211.62 14 214 14 C214 16.31 214 18.62 214 21 C216.31 21 218.62 21 221 21 C221 25.95 221 30.9 221 36 C222.98 36 224.96 36 227 36 C227 97.05 227 158.1 227 221 C225.02 221 223.04 221 221 221 C221 225.95 221 230.9 221 236 C218.69 236 216.38 236 214 236 C214 238.31 214 240.62 214 243 C211.69 243 209.38 243 207 243 C207 245.31 207 247.62 207 250 C202.05 250 197.1 250 192 250 C192 251.98 192 253.96 192 256 C130.95 256 69.9 256 7 256 C7 254.02 7 252.04 7 250 C2.05 250 -2.9 250 -8 250 C-8 247.69 -8 245.38 -8 243 C-10.31 243 -12.62 243 -15 243 C-15 240.69 -15 238.38 -15 236 C-17.31 236 -19.62 236 -22 236 C-22 233.69 -22 231.38 -22 229 C-24.31 229 -26.62 229 -29 229 C-29 163 -29 97 -29 29 C-26.69 29 -24.38 29 -22 29 C-22 26.36 -22 23.72 -22 21 C-19.69 21 -17.38 21 -15 21 C-15 18.69 -15 16.38 -15 14 C-12.69 14 -10.38 14 -8 14 C-8 11.69 -8 9.38 -8 7 C-5.36 7 -2.72 7 0 7 C0 4.69 0 2.38 0 0 Z " fill="#242938" transform="translate(29,0)"/>
<path d="M0 0 C4.62 0 9.24 0 14 0 C14 2.31 14 4.62 14 7 C16.31 7 18.62 7 21 7 C21 9.31 21 11.62 21 14 C23.31 14 25.62 14 28 14 C28 16.31 28 18.62 28 21 C32.62 21 37.24 21 42 21 C42 23.31 42 25.62 42 28 C44.64 28 47.28 28 50 28 C50 70.57 50 113.14 50 157 C47.36 157 44.72 157 42 157 C42 159.31 42 161.62 42 164 C37.38 164 32.76 164 28 164 C28 166.31 28 168.62 28 171 C25.69 171 23.38 171 21 171 C21 173.31 21 175.62 21 178 C16.38 178 11.76 178 7 178 C7 180.31 7 182.62 7 185 C4.69 185 2.38 185 0 185 C0 187.64 0 190.28 0 193 C-4.95 193 -9.9 193 -15 193 C-15 190.36 -15 187.72 -15 185 C-17.31 185 -19.62 185 -22 185 C-22 182.69 -22 180.38 -22 178 C-24.31 178 -26.62 178 -29 178 C-29 173.38 -29 168.76 -29 164 C-31.31 164 -33.62 164 -36 164 C-36 161.69 -36 159.38 -36 157 C-38.31 157 -40.62 157 -43 157 C-43 154.69 -43 152.38 -43 150 C-45.31 150 -47.62 150 -50 150 C-50 147.69 -50 145.38 -50 143 C-52.64 143 -55.28 143 -58 143 C-58 140.36 -58 137.72 -58 135 C-60.31 135 -62.62 135 -65 135 C-65 130.38 -65 125.76 -65 121 C-67.31 121 -69.62 121 -72 121 C-72 118.69 -72 116.38 -72 114 C-74.31 114 -76.62 114 -79 114 C-79 111.69 -79 109.38 -79 107 C-81.31 107 -83.62 107 -86 107 C-86 104.69 -86 102.38 -86 100 C-88.31 100 -90.62 100 -93 100 C-93 97.69 -93 95.38 -93 93 C-95.31 93 -97.62 93 -100 93 C-100 90.36 -100 87.72 -100 85 C-102.64 85 -105.28 85 -108 85 C-108 82.69 -108 80.38 -108 78 C-110.31 78 -112.62 78 -115 78 C-115 75.69 -115 73.38 -115 71 C-117.31 71 -119.62 71 -122 71 C-122 68.69 -122 66.38 -122 64 C-124.31 64 -126.62 64 -129 64 C-129 59.38 -129 54.76 -129 50 C-131.31 50 -133.62 50 -136 50 C-136 45.05 -136 40.1 -136 35 C-131.38 35 -126.76 35 -122 35 C-122 32.69 -122 30.38 -122 28 C-119.69 28 -117.38 28 -115 28 C-115 25.69 -115 23.38 -115 21 C-110.05 21 -105.1 21 -100 21 C-100 23.31 -100 25.62 -100 28 C-97.69 28 -95.38 28 -93 28 C-93 30.31 -93 32.62 -93 35 C-90.69 35 -88.38 35 -86 35 C-86 37.64 -86 40.28 -86 43 C-83.69 43 -81.38 43 -79 43 C-79 45.31 -79 47.62 -79 50 C-76.69 50 -74.38 50 -72 50 C-72 52.31 -72 54.62 -72 57 C-69.69 57 -67.38 57 -65 57 C-65 59.31 -65 61.62 -65 64 C-62.69 64 -60.38 64 -58 64 C-58 66.31 -58 68.62 -58 71 C-55.36 71 -52.72 71 -50 71 C-50 73.31 -50 75.62 -50 78 C-47.69 78 -45.38 78 -43 78 C-43 80.31 -43 82.62 -43 85 C-40.69 85 -38.38 85 -36 85 C-36 87.64 -36 90.28 -36 93 C-33.69 93 -31.38 93 -29 93 C-29 95.31 -29 97.62 -29 100 C-26.69 100 -24.38 100 -22 100 C-22 102.31 -22 104.62 -22 107 C-19.69 107 -17.38 107 -15 107 C-15 109.31 -15 111.62 -15 114 C-12.69 114 -10.38 114 -8 114 C-8 116.31 -8 118.62 -8 121 C-5.36 121 -2.72 121 0 121 C0 81.07 0 41.14 0 0 Z " fill="#A477DA" transform="translate(179,36)"/>
<path d="M0 0 C4.62 0 9.24 0 14 0 C14 2.31 14 4.62 14 7 C16.31 7 18.62 7 21 7 C21 9.31 21 11.62 21 14 C23.31 14 25.62 14 28 14 C28 16.31 28 18.62 28 21 C32.62 21 37.24 21 42 21 C42 23.31 42 25.62 42 28 C44.64 28 47.28 28 50 28 C50 70.57 50 113.14 50 157 C47.36 157 44.72 157 42 157 C42 159.31 42 161.62 42 164 C37.38 164 32.76 164 28 164 C28 166.31 28 168.62 28 171 C25.69 171 23.38 171 21 171 C21 173.31 21 175.62 21 178 C16.38 178 11.76 178 7 178 C7 180.31 7 182.62 7 185 C4.69 185 2.38 185 0 185 C0 123.95 0 62.9 0 0 Z " fill="#CA95F7" transform="translate(179,36)"/>
<path d="M0 0 C2.31 0 4.62 0 7 0 C7 2.31 7 4.62 7 7 C9.31 7 11.62 7 14 7 C14 11.62 14 16.24 14 21 C16.31 21 18.62 21 21 21 C21 23.31 21 25.62 21 28 C23.31 28 25.62 28 28 28 C28 30.31 28 32.62 28 35 C30.31 35 32.62 35 35 35 C35 37.31 35 39.62 35 42 C37.64 42 40.28 42 43 42 C43 44.64 43 47.28 43 50 C45.31 50 47.62 50 50 50 C50 52.31 50 54.62 50 57 C52.31 57 54.62 57 57 57 C57 59.31 57 61.62 57 64 C59.31 64 61.62 64 64 64 C64 66.31 64 68.62 64 71 C66.31 71 68.62 71 71 71 C71 73.31 71 75.62 71 78 C73.31 78 75.62 78 78 78 C78 80.31 78 82.62 78 85 C75.69 85 73.38 85 71 85 C71 87.31 71 89.62 71 92 C68.69 92 66.38 92 64 92 C64 94.64 64 97.28 64 100 C61.69 100 59.38 100 57 100 C57 102.31 57 104.62 57 107 C52.38 107 47.76 107 43 107 C43 109.31 43 111.62 43 114 C35.74 114 28.48 114 21 114 C21 111.69 21 109.38 21 107 C18.69 107 16.38 107 14 107 C14 104.69 14 102.38 14 100 C9.38 100 4.76 100 0 100 C0 95.05 0 90.1 0 85 C-2.31 85 -4.62 85 -7 85 C-7 59.26 -7 33.52 -7 7 C-4.69 7 -2.38 7 0 7 C0 4.69 0 2.38 0 0 Z " fill="#5D428E" transform="translate(36,79)"/>
<path d="M0 0 C7.26 0 14.52 0 22 0 C22 2.31 22 4.62 22 7 C19.69 7 17.38 7 15 7 C15 46.93 15 86.86 15 128 C12.36 128 9.72 128 7 128 C7 125.69 7 123.38 7 121 C4.69 121 2.38 121 0 121 C0 118.69 0 116.38 0 114 C-2.31 114 -4.62 114 -7 114 C-7 111.69 -7 109.38 -7 107 C-9.31 107 -11.62 107 -14 107 C-14 104.69 -14 102.38 -14 100 C-16.31 100 -18.62 100 -21 100 C-21 97.36 -21 94.72 -21 92 C-23.31 92 -25.62 92 -28 92 C-28 89.69 -28 87.38 -28 85 C-30.31 85 -32.62 85 -35 85 C-35 82.69 -35 80.38 -35 78 C-37.64 78 -40.28 78 -43 78 C-43 75.69 -43 73.38 -43 71 C-45.31 71 -47.62 71 -50 71 C-50 66.38 -50 61.76 -50 57 C-47.69 57 -45.38 57 -43 57 C-43 54.69 -43 52.38 -43 50 C-40.36 50 -37.72 50 -35 50 C-35 47.36 -35 44.72 -35 42 C-32.69 42 -30.38 42 -28 42 C-28 39.69 -28 37.38 -28 35 C-25.69 35 -23.38 35 -21 35 C-21 30.38 -21 25.76 -21 21 C-18.69 21 -16.38 21 -14 21 C-14 18.69 -14 16.38 -14 14 C-11.69 14 -9.38 14 -7 14 C-7 11.69 -7 9.38 -7 7 C-4.69 7 -2.38 7 0 7 C0 4.69 0 2.38 0 0 Z " fill="#7151A8" transform="translate(164,29)"/>
<path d="M0 0 C2.31 0 4.62 0 7 0 C7 2.31 7 4.62 7 7 C9.31 7 11.62 7 14 7 C14 9.31 14 11.62 14 14 C16.31 14 18.62 14 21 14 C21 16.31 21 18.62 21 21 C23.31 21 25.62 21 28 21 C28 23.31 28 25.62 28 28 C30.31 28 32.62 28 35 28 C35 30.31 35 32.62 35 35 C32.69 35 30.38 35 28 35 C28 37.31 28 39.62 28 42 C25.69 42 23.38 42 21 42 C21 44.64 21 47.28 21 50 C18.69 50 16.38 50 14 50 C14 52.31 14 54.62 14 57 C9.38 57 4.76 57 0 57 C0 59.31 0 61.62 0 64 C-7.26 64 -14.52 64 -22 64 C-22 61.69 -22 59.38 -22 57 C-24.31 57 -26.62 57 -29 57 C-29 54.69 -29 52.38 -29 50 C-31.31 50 -33.62 50 -36 50 C-36 47.36 -36 44.72 -36 42 C-33.69 42 -31.38 42 -29 42 C-29 39.69 -29 37.38 -29 35 C-26.69 35 -24.38 35 -22 35 C-22 32.69 -22 30.38 -22 28 C-19.69 28 -17.38 28 -15 28 C-15 23.38 -15 18.76 -15 14 C-12.69 14 -10.38 14 -8 14 C-8 11.69 -8 9.38 -8 7 C-5.36 7 -2.72 7 0 7 C0 4.69 0 2.38 0 0 Z " fill="#7151A9" transform="translate(79,129)"/>
<path d="M0 0 C2.64 0 5.28 0 8 0 C8 18.81 8 37.62 8 57 C5.36 57 2.72 57 0 57 C0 54.69 0 52.38 0 50 C-2.31 50 -4.62 50 -7 50 C-7 47.69 -7 45.38 -7 43 C-9.31 43 -11.62 43 -14 43 C-14 40.69 -14 38.38 -14 36 C-16.31 36 -18.62 36 -21 36 C-21 31.05 -21 26.1 -21 21 C-18.69 21 -16.38 21 -14 21 C-14 18.69 -14 16.38 -14 14 C-11.69 14 -9.38 14 -7 14 C-7 11.69 -7 9.38 -7 7 C-4.69 7 -2.38 7 0 7 C0 4.69 0 2.38 0 0 Z " fill="#242838" transform="translate(171,100)"/>
<path d="M0 0 C2.64 0 5.28 0 8 0 C8 42.57 8 85.14 8 129 C5.36 129 2.72 129 0 129 C0 86.43 0 43.86 0 0 Z " fill="#BD8CE8" transform="translate(221,64)"/>
<path d="M0 0 C2.31 0 4.62 0 7 0 C7 2.31 7 4.62 7 7 C9.31 7 11.62 7 14 7 C14 9.31 14 11.62 14 14 C16.64 14 19.28 14 22 14 C22 18.95 22 23.9 22 29 C19.36 29 16.72 29 14 29 C14 31.31 14 33.62 14 36 C11.69 36 9.38 36 7 36 C7 38.31 7 40.62 7 43 C4.69 43 2.38 43 0 43 C0 28.81 0 14.62 0 0 Z " fill="#25293A" transform="translate(57,107)"/>
<path d="M0 0 C4.95 0 9.9 0 15 0 C15 2.31 15 4.62 15 7 C12.69 7 10.38 7 8 7 C8 28.12 8 49.24 8 71 C5.36 71 2.72 71 0 71 C0 47.57 0 24.14 0 0 Z " fill="#664999" transform="translate(171,29)"/>
<path d="M0 0 C2.64 0 5.28 0 8 0 C8 23.76 8 47.52 8 72 C5.36 72 2.72 72 0 72 C0 48.24 0 24.48 0 0 Z " fill="#8E66C1" transform="translate(171,157)"/>
<path d="M0 0 C2.31 0 4.62 0 7 0 C7 14.19 7 28.38 7 43 C4.69 43 2.38 43 0 43 C0 28.81 0 14.62 0 0 Z " fill="#443768" transform="translate(57,107)"/>
<path d="M0 0 C4.95 0 9.9 0 15 0 C15 2.31 15 4.62 15 7 C10.05 7 5.1 7 0 7 C0 4.69 0 2.38 0 0 Z " fill="#34304F" transform="translate(64,193)"/>
<path d="M0 0 C4.95 0 9.9 0 15 0 C15 2.31 15 4.62 15 7 C10.05 7 5.1 7 0 7 C0 4.69 0 2.38 0 0 Z " fill="#614883" transform="translate(171,29)"/>
<path d="M0 0 C2.64 0 5.28 0 8 0 C8 2.64 8 5.28 8 8 C5.36 8 2.72 8 0 8 C0 5.36 0 2.72 0 0 Z " fill="#644C84" transform="translate(171,221)"/>
<path d="M0 0 C2.64 0 5.28 0 8 0 C8 2.64 8 5.28 8 8 C5.36 8 2.72 8 0 8 C0 5.36 0 2.72 0 0 Z " fill="#8765B6" transform="translate(121,171)"/>
<path d="M0 0 C2.64 0 5.28 0 8 0 C8 2.64 8 5.28 8 8 C5.36 8 2.72 8 0 8 C0 5.36 0 2.72 0 0 Z " fill="#312D4B" transform="translate(121,71)"/>
<path d="M0 0 C2.31 0 4.62 0 7 0 C7 2.64 7 5.28 7 8 C4.69 8 2.38 8 0 8 C0 5.36 0 2.72 0 0 Z " fill="#8462B6" transform="translate(164,221)"/>
<path d="M0 0 C2.31 0 4.62 0 7 0 C7 2.64 7 5.28 7 8 C4.69 8 2.38 8 0 8 C0 5.36 0 2.72 0 0 Z " fill="#2B2C41" transform="translate(157,221)"/>
<path d="M0 0 C2.31 0 4.62 0 7 0 C7 2.64 7 5.28 7 8 C4.69 8 2.38 8 0 8 C0 5.36 0 2.72 0 0 Z " fill="#333333" transform="translate(0,221)"/>
<path d="M0 0 C2.64 0 5.28 0 8 0 C8 2.31 8 4.62 8 7 C5.36 7 2.72 7 0 7 C0 4.69 0 2.38 0 0 Z " fill="#7B609C" transform="translate(221,186)"/>
<path d="M0 0 C2.64 0 5.28 0 8 0 C8 2.31 8 4.62 8 7 C5.36 7 2.72 7 0 7 C0 4.69 0 2.38 0 0 Z " fill="#2D2D43" transform="translate(121,179)"/>
<path d="M0 0 C2.31 0 4.62 0 7 0 C7 2.64 7 5.28 7 8 C4.69 8 2.38 8 0 8 C0 5.36 0 2.72 0 0 Z " fill="#503E78" transform="translate(93,171)"/>
<path d="M0 0 C2.64 0 5.28 0 8 0 C8 2.31 8 4.62 8 7 C5.36 7 2.72 7 0 7 C0 4.69 0 2.38 0 0 Z " fill="#2C2D42" transform="translate(171,150)"/>
<path d="M0 0 C2.31 0 4.62 0 7 0 C7 2.64 7 5.28 7 8 C4.69 8 2.38 8 0 8 C0 5.36 0 2.72 0 0 Z " fill="#8363AF" transform="translate(86,71)"/>
<path d="M0 0 C2.64 0 5.28 0 8 0 C8 2.31 8 4.62 8 7 C5.36 7 2.72 7 0 7 C0 4.69 0 2.38 0 0 Z " fill="#9D76C0" transform="translate(221,64)"/>
<path d="M0 0 C2.64 0 5.28 0 8 0 C8 2.31 8 4.62 8 7 C5.36 7 2.72 7 0 7 C0 4.69 0 2.38 0 0 Z " fill="#312F46" transform="translate(221,57)"/>
<path d="M0 0 C2.64 0 5.28 0 8 0 C8 2.31 8 4.62 8 7 C5.36 7 2.72 7 0 7 C0 4.69 0 2.38 0 0 Z " fill="#795CA1" transform="translate(71,57)"/>
<path d="M0 0 C2.64 0 5.28 0 8 0 C8 2.31 8 4.62 8 7 C5.36 7 2.72 7 0 7 C0 4.69 0 2.38 0 0 Z " fill="#333333" transform="translate(221,0)"/>
<path d="M0 0 C2.31 0 4.62 0 7 0 C7 2.31 7 4.62 7 7 C4.69 7 2.38 7 0 7 C0 4.69 0 2.38 0 0 Z " fill="#53436E" transform="translate(186,214)"/>
<path d="M0 0 C2.31 0 4.62 0 7 0 C7 2.31 7 4.62 7 7 C4.69 7 2.38 7 0 7 C0 4.69 0 2.38 0 0 Z " fill="#8B66BE" transform="translate(157,214)"/>
<path d="M0 0 C2.31 0 4.62 0 7 0 C7 2.31 7 4.62 7 7 C4.69 7 2.38 7 0 7 C0 4.69 0 2.38 0 0 Z " fill="#8867AD" transform="translate(193,207)"/>
<path d="M0 0 C2.31 0 4.62 0 7 0 C7 2.31 7 4.62 7 7 C4.69 7 2.38 7 0 7 C0 4.69 0 2.38 0 0 Z " fill="#72569D" transform="translate(150,207)"/>
<path d="M0 0 C2.31 0 4.62 0 7 0 C7 2.31 7 4.62 7 7 C4.69 7 2.38 7 0 7 C0 4.69 0 2.38 0 0 Z " fill="#453A5B" transform="translate(207,200)"/>
<path d="M0 0 C2.31 0 4.62 0 7 0 C7 2.31 7 4.62 7 7 C4.69 7 2.38 7 0 7 C0 4.69 0 2.38 0 0 Z " fill="#B686E3" transform="translate(200,200)"/>
<path d="M0 0 C2.31 0 4.62 0 7 0 C7 2.31 7 4.62 7 7 C4.69 7 2.38 7 0 7 C0 4.69 0 2.38 0 0 Z " fill="#5A487E" transform="translate(143,200)"/>
<path d="M0 0 C2.31 0 4.62 0 7 0 C7 2.31 7 4.62 7 7 C4.69 7 2.38 7 0 7 C0 4.69 0 2.38 0 0 Z " fill="#785D9A" transform="translate(214,193)"/>
<path d="M0 0 C2.31 0 4.62 0 7 0 C7 2.31 7 4.62 7 7 C4.69 7 2.38 7 0 7 C0 4.69 0 2.38 0 0 Z " fill="#473C65" transform="translate(136,193)"/>
<path d="M0 0 C2.31 0 4.62 0 7 0 C7 2.31 7 4.62 7 7 C4.69 7 2.38 7 0 7 C0 4.69 0 2.38 0 0 Z " fill="#463969" transform="translate(64,193)"/>
<path d="M0 0 C2.31 0 4.62 0 7 0 C7 2.31 7 4.62 7 7 C4.69 7 2.38 7 0 7 C0 4.69 0 2.38 0 0 Z " fill="#393351" transform="translate(129,186)"/>
<path d="M0 0 C2.31 0 4.62 0 7 0 C7 2.31 7 4.62 7 7 C4.69 7 2.38 7 0 7 C0 4.69 0 2.38 0 0 Z " fill="#463A6A" transform="translate(79,186)"/>
<path d="M0 0 C2.31 0 4.62 0 7 0 C7 2.31 7 4.62 7 7 C4.69 7 2.38 7 0 7 C0 4.69 0 2.38 0 0 Z " fill="#332D4D" transform="translate(50,186)"/>
<path d="M0 0 C2.31 0 4.62 0 7 0 C7 2.31 7 4.62 7 7 C4.69 7 2.38 7 0 7 C0 4.69 0 2.38 0 0 Z " fill="#4C3C72" transform="translate(86,179)"/>
<path d="M0 0 C2.31 0 4.62 0 7 0 C7 2.31 7 4.62 7 7 C4.69 7 2.38 7 0 7 C0 4.69 0 2.38 0 0 Z " fill="#413564" transform="translate(43,179)"/>
<path d="M0 0 C2.31 0 4.62 0 7 0 C7 2.31 7 4.62 7 7 C4.69 7 2.38 7 0 7 C0 4.69 0 2.38 0 0 Z " fill="#6D5494" transform="translate(114,164)"/>
<path d="M0 0 C2.31 0 4.62 0 7 0 C7 2.31 7 4.62 7 7 C4.69 7 2.38 7 0 7 C0 4.69 0 2.38 0 0 Z " fill="#53407C" transform="translate(100,164)"/>
<path d="M0 0 C2.31 0 4.62 0 7 0 C7 2.31 7 4.62 7 7 C4.69 7 2.38 7 0 7 C0 4.69 0 2.38 0 0 Z " fill="#3A2A59" transform="translate(29,164)"/>
<path d="M0 0 C2.31 0 4.62 0 7 0 C7 2.31 7 4.62 7 7 C4.69 7 2.38 7 0 7 C0 4.69 0 2.38 0 0 Z " fill="#7557A0" transform="translate(107,157)"/>
<path d="M0 0 C2.31 0 4.62 0 7 0 C7 2.31 7 4.62 7 7 C4.69 7 2.38 7 0 7 C0 4.69 0 2.38 0 0 Z " fill="#3D2C5D" transform="translate(50,150)"/>
<path d="M0 0 C2.31 0 4.62 0 7 0 C7 2.31 7 4.62 7 7 C4.69 7 2.38 7 0 7 C0 4.69 0 2.38 0 0 Z " fill="#6D4F99" transform="translate(93,143)"/>
<path d="M0 0 C2.31 0 4.62 0 7 0 C7 2.31 7 4.62 7 7 C4.69 7 2.38 7 0 7 C0 4.69 0 2.38 0 0 Z " fill="#5D468A" transform="translate(64,143)"/>
<path d="M0 0 C2.31 0 4.62 0 7 0 C7 2.31 7 4.62 7 7 C4.69 7 2.38 7 0 7 C0 4.69 0 2.38 0 0 Z " fill="#372D54" transform="translate(57,143)"/>
<path d="M0 0 C2.31 0 4.62 0 7 0 C7 2.31 7 4.62 7 7 C4.69 7 2.38 7 0 7 C0 4.69 0 2.38 0 0 Z " fill="#64488D" transform="translate(86,136)"/>
<path d="M0 0 C2.31 0 4.62 0 7 0 C7 2.31 7 4.62 7 7 C4.69 7 2.38 7 0 7 C0 4.69 0 2.38 0 0 Z " fill="#5E4586" transform="translate(79,129)"/>
<path d="M0 0 C2.31 0 4.62 0 7 0 C7 2.31 7 4.62 7 7 C4.69 7 2.38 7 0 7 C0 4.69 0 2.38 0 0 Z " fill="#936DC1" transform="translate(64,107)"/>
<path d="M0 0 C2.31 0 4.62 0 7 0 C7 2.31 7 4.62 7 7 C4.69 7 2.38 7 0 7 C0 4.69 0 2.38 0 0 Z " fill="#3F345C" transform="translate(57,107)"/>
<path d="M0 0 C2.31 0 4.62 0 7 0 C7 2.31 7 4.62 7 7 C4.69 7 2.38 7 0 7 C0 4.69 0 2.38 0 0 Z " fill="#8B66B8" transform="translate(57,100)"/>
<path d="M0 0 C2.31 0 4.62 0 7 0 C7 2.31 7 4.62 7 7 C4.69 7 2.38 7 0 7 C0 4.69 0 2.38 0 0 Z " fill="#422F61" transform="translate(50,100)"/>
<path d="M0 0 C2.31 0 4.62 0 7 0 C7 2.31 7 4.62 7 7 C4.69 7 2.38 7 0 7 C0 4.69 0 2.38 0 0 Z " fill="#8561B3" transform="translate(50,93)"/>
<path d="M0 0 C2.31 0 4.62 0 7 0 C7 2.31 7 4.62 7 7 C4.69 7 2.38 7 0 7 C0 4.69 0 2.38 0 0 Z " fill="#644A96" transform="translate(114,86)"/>
<path d="M0 0 C2.31 0 4.62 0 7 0 C7 2.31 7 4.62 7 7 C4.69 7 2.38 7 0 7 C0 4.69 0 2.38 0 0 Z " fill="#9D74D1" transform="translate(100,86)"/>
<path d="M0 0 C2.31 0 4.62 0 7 0 C7 2.31 7 4.62 7 7 C4.69 7 2.38 7 0 7 C0 4.69 0 2.38 0 0 Z " fill="#7958A3" transform="translate(43,86)"/>
<path d="M0 0 C2.31 0 4.62 0 7 0 C7 2.31 7 4.62 7 7 C4.69 7 2.38 7 0 7 C0 4.69 0 2.38 0 0 Z " fill="#906BBF" transform="translate(93,79)"/>
<path d="M0 0 C2.31 0 4.62 0 7 0 C7 2.31 7 4.62 7 7 C4.69 7 2.38 7 0 7 C0 4.69 0 2.38 0 0 Z " fill="#795AA2" transform="translate(36,79)"/>
<path d="M0 0 C2.31 0 4.62 0 7 0 C7 2.31 7 4.62 7 7 C4.69 7 2.38 7 0 7 C0 4.69 0 2.38 0 0 Z " fill="#2F2C46" transform="translate(29,79)"/>
<path d="M0 0 C2.31 0 4.62 0 7 0 C7 2.31 7 4.62 7 7 C4.69 7 2.38 7 0 7 C0 4.69 0 2.38 0 0 Z " fill="#3B3359" transform="translate(129,64)"/>
<path d="M0 0 C2.31 0 4.62 0 7 0 C7 2.31 7 4.62 7 7 C4.69 7 2.38 7 0 7 C0 4.69 0 2.38 0 0 Z " fill="#785C9F" transform="translate(79,64)"/>
<path d="M0 0 C2.31 0 4.62 0 7 0 C7 2.31 7 4.62 7 7 C4.69 7 2.38 7 0 7 C0 4.69 0 2.38 0 0 Z " fill="#564576" transform="translate(50,64)"/>
<path d="M0 0 C2.31 0 4.62 0 7 0 C7 2.31 7 4.62 7 7 C4.69 7 2.38 7 0 7 C0 4.69 0 2.38 0 0 Z " fill="#B586DB" transform="translate(214,57)"/>
<path d="M0 0 C2.31 0 4.62 0 7 0 C7 2.31 7 4.62 7 7 C4.69 7 2.38 7 0 7 C0 4.69 0 2.38 0 0 Z " fill="#483A6C" transform="translate(136,57)"/>
<path d="M0 0 C2.31 0 4.62 0 7 0 C7 2.31 7 4.62 7 7 C4.69 7 2.38 7 0 7 C0 4.69 0 2.38 0 0 Z " fill="#926CBF" transform="translate(64,57)"/>
<path d="M0 0 C2.31 0 4.62 0 7 0 C7 2.31 7 4.62 7 7 C4.69 7 2.38 7 0 7 C0 4.69 0 2.38 0 0 Z " fill="#3C3554" transform="translate(57,57)"/>
<path d="M0 0 C2.31 0 4.62 0 7 0 C7 2.31 7 4.62 7 7 C4.69 7 2.38 7 0 7 C0 4.69 0 2.38 0 0 Z " fill="#755A93" transform="translate(207,50)"/>
<path d="M0 0 C2.31 0 4.62 0 7 0 C7 2.31 7 4.62 7 7 C4.69 7 2.38 7 0 7 C0 4.69 0 2.38 0 0 Z " fill="#584384" transform="translate(143,50)"/>
<path d="M0 0 C2.31 0 4.62 0 7 0 C7 2.31 7 4.62 7 7 C4.69 7 2.38 7 0 7 C0 4.69 0 2.38 0 0 Z " fill="#3E3653" transform="translate(200,43)"/>
<path d="M0 0 C2.31 0 4.62 0 7 0 C7 2.31 7 4.62 7 7 C4.69 7 2.38 7 0 7 C0 4.69 0 2.38 0 0 Z " fill="#B989E2" transform="translate(193,43)"/>
<path d="M0 0 C2.31 0 4.62 0 7 0 C7 2.31 7 4.62 7 7 C4.69 7 2.38 7 0 7 C0 4.69 0 2.38 0 0 Z " fill="#6B4EA0" transform="translate(150,43)"/>
<path d="M0 0 C2.31 0 4.62 0 7 0 C7 2.31 7 4.62 7 7 C4.69 7 2.38 7 0 7 C0 4.69 0 2.38 0 0 Z " fill="#8062A1" transform="translate(186,36)"/>
<path d="M0 0 C2.31 0 4.62 0 7 0 C7 2.31 7 4.62 7 7 C4.69 7 2.38 7 0 7 C0 4.69 0 2.38 0 0 Z " fill="#493E62" transform="translate(179,29)"/>
<path d="M0 0 C2.31 0 4.62 0 7 0 C7 2.31 7 4.62 7 7 C4.69 7 2.38 7 0 7 C0 4.69 0 2.38 0 0 Z " fill="#302D4B" transform="translate(157,29)"/>
</svg>
