<?xml version="1.0" encoding="UTF-8"?>
<svg version="1.1" xmlns="http://www.w3.org/2000/svg" width="256" height="256">
<path d="M0 0 C66 0 132 0 200 0 C200 2.31 200 4.62 200 7 C202.31 7 204.62 7 207 7 C207 9.31 207 11.62 207 14 C209.31 14 211.62 14 214 14 C214 16.31 214 18.62 214 21 C216.31 21 218.62 21 221 21 C221 25.95 221 30.9 221 36 C222.98 36 224.96 36 227 36 C227 97.05 227 158.1 227 221 C225.02 221 223.04 221 221 221 C221 225.95 221 230.9 221 236 C218.69 236 216.38 236 214 236 C214 238.31 214 240.62 214 243 C211.69 243 209.38 243 207 243 C207 245.31 207 247.62 207 250 C202.05 250 197.1 250 192 250 C192 251.98 192 253.96 192 256 C130.95 256 69.9 256 7 256 C7 254.02 7 252.04 7 250 C2.05 250 -2.9 250 -8 250 C-8 247.69 -8 245.38 -8 243 C-10.31 243 -12.62 243 -15 243 C-15 240.69 -15 238.38 -15 236 C-17.31 236 -19.62 236 -22 236 C-22 233.69 -22 231.38 -22 229 C-24.31 229 -26.62 229 -29 229 C-29 163 -29 97 -29 29 C-26.69 29 -24.38 29 -22 29 C-22 26.36 -22 23.72 -22 21 C-19.69 21 -17.38 21 -15 21 C-15 18.69 -15 16.38 -15 14 C-12.69 14 -10.38 14 -8 14 C-8 11.69 -8 9.38 -8 7 C-5.36 7 -2.72 7 0 7 C0 4.69 0 2.38 0 0 Z " fill="#232938" transform="translate(29,0)"/>
<path d="M0 0 C2.64 0 5.28 0 8 0 C8 2.31 8 4.62 8 7 C10.31 7 12.62 7 15 7 C15 9.31 15 11.62 15 14 C19.62 14 24.24 14 29 14 C29 16.31 29 18.62 29 21 C35.93 21 42.86 21 50 21 C50 23.31 50 25.62 50 28 C52.64 28 55.28 28 58 28 C58 75.19 58 122.38 58 171 C55.36 171 52.72 171 50 171 C50 173.31 50 175.62 50 178 C45.38 178 40.76 178 36 178 C36 180.31 36 182.62 36 185 C31.38 185 26.76 185 22 185 C22 187.31 22 189.62 22 192 C17.38 192 12.76 192 8 192 C8 194.64 8 197.28 8 200 C5.36 200 2.72 200 0 200 C0 197.36 0 194.72 0 192 C-2.31 192 -4.62 192 -7 192 C-7 189.69 -7 187.38 -7 185 C-9.31 185 -11.62 185 -14 185 C-14 182.69 -14 180.38 -14 178 C-16.31 178 -18.62 178 -21 178 C-21 175.69 -21 173.38 -21 171 C-23.31 171 -25.62 171 -28 171 C-28 168.69 -28 166.38 -28 164 C-30.31 164 -32.62 164 -35 164 C-35 161.69 -35 159.38 -35 157 C-39.95 157 -44.9 157 -50 157 C-50 154.69 -50 152.38 -50 150 C-52.31 150 -54.62 150 -57 150 C-57 147.36 -57 144.72 -57 142 C-59.31 142 -61.62 142 -64 142 C-64 139.69 -64 137.38 -64 135 C-66.31 135 -68.62 135 -71 135 C-71 132.69 -71 130.38 -71 128 C-73.31 128 -75.62 128 -78 128 C-78 125.69 -78 123.38 -78 121 C-80.31 121 -82.62 121 -85 121 C-85 123.31 -85 125.62 -85 128 C-87.31 128 -89.62 128 -92 128 C-92 130.31 -92 132.62 -92 135 C-94.64 135 -97.28 135 -100 135 C-100 137.31 -100 139.62 -100 142 C-104.62 142 -109.24 142 -114 142 C-114 144.64 -114 147.28 -114 150 C-118.62 150 -123.24 150 -128 150 C-128 147.36 -128 144.72 -128 142 C-130.31 142 -132.62 142 -135 142 C-135 135.07 -135 128.14 -135 121 C-132.69 121 -130.38 121 -128 121 C-128 118.69 -128 116.38 -128 114 C-125.69 114 -123.38 114 -121 114 C-121 111.69 -121 109.38 -121 107 C-116.38 107 -111.76 107 -107 107 C-107 102.05 -107 97.1 -107 92 C-109.31 92 -111.62 92 -114 92 C-114 89.69 -114 87.38 -114 85 C-118.62 85 -123.24 85 -128 85 C-128 82.69 -128 80.38 -128 78 C-130.31 78 -132.62 78 -135 78 C-135 71.07 -135 64.14 -135 57 C-132.69 57 -130.38 57 -128 57 C-128 54.69 -128 52.38 -128 50 C-123.38 50 -118.76 50 -114 50 C-114 52.31 -114 54.62 -114 57 C-111.69 57 -109.38 57 -107 57 C-107 59.31 -107 61.62 -107 64 C-102.05 64 -97.1 64 -92 64 C-92 66.31 -92 68.62 -92 71 C-89.69 71 -87.38 71 -85 71 C-85 73.31 -85 75.62 -85 78 C-82.69 78 -80.38 78 -78 78 C-78 75.69 -78 73.38 -78 71 C-75.69 71 -73.38 71 -71 71 C-71 68.69 -71 66.38 -71 64 C-68.69 64 -66.38 64 -64 64 C-64 61.69 -64 59.38 -64 57 C-61.69 57 -59.38 57 -57 57 C-57 54.69 -57 52.38 -57 50 C-54.69 50 -52.38 50 -50 50 C-50 47.36 -50 44.72 -50 42 C-45.05 42 -40.1 42 -35 42 C-35 39.69 -35 37.38 -35 35 C-32.69 35 -30.38 35 -28 35 C-28 32.69 -28 30.38 -28 28 C-25.69 28 -23.38 28 -21 28 C-21 25.69 -21 23.38 -21 21 C-18.69 21 -16.38 21 -14 21 C-14 18.69 -14 16.38 -14 14 C-11.69 14 -9.38 14 -7 14 C-7 11.69 -7 9.38 -7 7 C-4.69 7 -2.38 7 0 7 C0 4.69 0 2.38 0 0 Z " fill="#2488C9" transform="translate(171,29)"/>
<path d="M0 0 C2.64 0 5.28 0 8 0 C8 2.31 8 4.62 8 7 C10.31 7 12.62 7 15 7 C15 9.31 15 11.62 15 14 C19.62 14 24.24 14 29 14 C29 16.31 29 18.62 29 21 C35.93 21 42.86 21 50 21 C50 23.31 50 25.62 50 28 C52.64 28 55.28 28 58 28 C58 75.19 58 122.38 58 171 C55.36 171 52.72 171 50 171 C50 173.31 50 175.62 50 178 C45.38 178 40.76 178 36 178 C36 180.31 36 182.62 36 185 C31.38 185 26.76 185 22 185 C22 187.31 22 189.62 22 192 C17.38 192 12.76 192 8 192 C8 133.26 8 74.52 8 14 C5.36 14 2.72 14 0 14 C0 9.38 0 4.76 0 0 Z " fill="#3B98D3" transform="translate(171,29)"/>
<path d="M0 0 C2.31 0 4.62 0 7 0 C7 2.31 7 4.62 7 7 C9.64 7 12.28 7 15 7 C15 49.24 15 91.48 15 135 C12.36 135 9.72 135 7 135 C7 132.69 7 130.38 7 128 C4.69 128 2.38 128 0 128 C0 125.69 0 123.38 0 121 C-4.62 121 -9.24 121 -14 121 C-14 118.69 -14 116.38 -14 114 C-16.31 114 -18.62 114 -21 114 C-21 111.69 -21 109.38 -21 107 C-23.31 107 -25.62 107 -28 107 C-28 104.69 -28 102.38 -28 100 C-32.95 100 -37.9 100 -43 100 C-43 97.69 -43 95.38 -43 93 C-47.62 93 -52.24 93 -57 93 C-57 90.36 -57 87.72 -57 85 C-59.31 85 -61.62 85 -64 85 C-64 82.69 -64 80.38 -64 78 C-66.31 78 -68.62 78 -71 78 C-71 73.38 -71 68.76 -71 64 C-68.69 64 -66.38 64 -64 64 C-64 61.69 -64 59.38 -64 57 C-61.69 57 -59.38 57 -57 57 C-57 54.69 -57 52.38 -57 50 C-54.69 50 -52.38 50 -50 50 C-50 47.69 -50 45.38 -50 43 C-47.69 43 -45.38 43 -43 43 C-43 40.36 -43 37.72 -43 35 C-38.05 35 -33.1 35 -28 35 C-28 32.69 -28 30.38 -28 28 C-25.69 28 -23.38 28 -21 28 C-21 25.69 -21 23.38 -21 21 C-18.69 21 -16.38 21 -14 21 C-14 18.69 -14 16.38 -14 14 C-11.69 14 -9.38 14 -7 14 C-7 11.69 -7 9.38 -7 7 C-4.69 7 -2.38 7 0 7 C0 4.69 0 2.38 0 0 Z " fill="#0876B7" transform="translate(164,36)"/>
<path d="M0 0 C2.64 0 5.28 0 8 0 C8 28.05 8 56.1 8 85 C5.36 85 2.72 85 0 85 C0 82.69 0 80.38 0 78 C-2.31 78 -4.62 78 -7 78 C-7 75.69 -7 73.38 -7 71 C-11.62 71 -16.24 71 -21 71 C-21 68.69 -21 66.38 -21 64 C-23.31 64 -25.62 64 -28 64 C-28 61.69 -28 59.38 -28 57 C-30.31 57 -32.62 57 -35 57 C-35 54.69 -35 52.38 -35 50 C-37.31 50 -39.62 50 -42 50 C-42 45.05 -42 40.1 -42 35 C-39.69 35 -37.38 35 -35 35 C-35 32.69 -35 30.38 -35 28 C-32.69 28 -30.38 28 -28 28 C-28 25.69 -28 23.38 -28 21 C-23.38 21 -18.76 21 -14 21 C-14 18.69 -14 16.38 -14 14 C-11.69 14 -9.38 14 -7 14 C-7 11.69 -7 9.38 -7 7 C-4.69 7 -2.38 7 0 7 C0 4.69 0 2.38 0 0 Z " fill="#242938" transform="translate(171,86)"/>
<path d="M0 0 C2.31 0 4.62 0 7 0 C7 2.31 7 4.62 7 7 C9.64 7 12.28 7 15 7 C15 9.31 15 11.62 15 14 C17.31 14 19.62 14 22 14 C22 18.62 22 23.24 22 28 C19.69 28 17.38 28 15 28 C15 30.31 15 32.62 15 35 C12.36 35 9.72 35 7 35 C7 37.31 7 39.62 7 42 C2.38 42 -2.24 42 -7 42 C-7 44.64 -7 47.28 -7 50 C-11.62 50 -16.24 50 -21 50 C-21 47.36 -21 44.72 -21 42 C-23.31 42 -25.62 42 -28 42 C-28 35.07 -28 28.14 -28 21 C-25.69 21 -23.38 21 -21 21 C-21 18.69 -21 16.38 -21 14 C-18.69 14 -16.38 14 -14 14 C-14 11.69 -14 9.38 -14 7 C-9.38 7 -4.76 7 0 7 C0 4.69 0 2.38 0 0 Z " fill="#106FB2" transform="translate(64,129)"/>
<path d="M0 0 C2.64 0 5.28 0 8 0 C8 47.19 8 94.38 8 143 C5.36 143 2.72 143 0 143 C0 95.81 0 48.62 0 0 Z " fill="#357CAC" transform="translate(221,57)"/>
<path d="M0 0 C4.62 0 9.24 0 14 0 C14 2.31 14 4.62 14 7 C18.95 7 23.9 7 29 7 C29 11.95 29 16.9 29 22 C26.36 22 23.72 22 21 22 C21 19.69 21 17.38 21 15 C16.38 15 11.76 15 7 15 C7 12.36 7 9.72 7 7 C4.69 7 2.38 7 0 7 C0 4.69 0 2.38 0 0 Z " fill="#0A71AF" transform="translate(100,114)"/>
<path d="M0 0 C2.64 0 5.28 0 8 0 C8 4.95 8 9.9 8 15 C5.36 15 2.72 15 0 15 C0 10.05 0 5.1 0 0 Z " fill="#145581" transform="translate(121,121)"/>
<path d="M0 0 C2.64 0 5.28 0 8 0 C8 4.62 8 9.24 8 14 C5.36 14 2.72 14 0 14 C0 9.38 0 4.76 0 0 Z " fill="#1672AB" transform="translate(171,29)"/>
<path d="M0 0 C2.31 0 4.62 0 7 0 C7 4.95 7 9.9 7 15 C4.69 15 2.38 15 0 15 C0 10.05 0 5.1 0 0 Z " fill="#244F72" transform="translate(57,121)"/>
<path d="M0 0 C2.31 0 4.62 0 7 0 C7 4.62 7 9.24 7 14 C4.69 14 2.38 14 0 14 C0 9.38 0 4.76 0 0 Z " fill="#16669A" transform="translate(93,100)"/>
<path d="M0 0 C4.62 0 9.24 0 14 0 C14 2.31 14 4.62 14 7 C9.38 7 4.76 7 0 7 C0 4.69 0 2.38 0 0 Z " fill="#2473A9" transform="translate(43,79)"/>
<path d="M0 0 C4.62 0 9.24 0 14 0 C14 2.31 14 4.62 14 7 C9.38 7 4.76 7 0 7 C0 4.69 0 2.38 0 0 Z " fill="#283C53" transform="translate(200,43)"/>
<path d="M0 0 C4.62 0 9.24 0 14 0 C14 2.31 14 4.62 14 7 C9.38 7 4.76 7 0 7 C0 4.69 0 2.38 0 0 Z " fill="#27384D" transform="translate(186,36)"/>
<path d="M0 0 C2.64 0 5.28 0 8 0 C8 2.64 8 5.28 8 8 C5.36 8 2.72 8 0 8 C0 5.36 0 2.72 0 0 Z " fill="#367DAD" transform="translate(171,221)"/>
<path d="M0 0 C2.64 0 5.28 0 8 0 C8 2.64 8 5.28 8 8 C5.36 8 2.72 8 0 8 C0 5.36 0 2.72 0 0 Z " fill="#15537E" transform="translate(121,71)"/>
<path d="M0 0 C2.31 0 4.62 0 7 0 C7 2.64 7 5.28 7 8 C4.69 8 2.38 8 0 8 C0 5.36 0 2.72 0 0 Z " fill="#283A4F" transform="translate(179,221)"/>
<path d="M0 0 C2.31 0 4.62 0 7 0 C7 2.64 7 5.28 7 8 C4.69 8 2.38 8 0 8 C0 5.36 0 2.72 0 0 Z " fill="#283F56" transform="translate(164,221)"/>
<path d="M0 0 C2.31 0 4.62 0 7 0 C7 2.64 7 5.28 7 8 C4.69 8 2.38 8 0 8 C0 5.36 0 2.72 0 0 Z " fill="#333333" transform="translate(0,221)"/>
<path d="M0 0 C2.64 0 5.28 0 8 0 C8 2.31 8 4.62 8 7 C5.36 7 2.72 7 0 7 C0 4.69 0 2.38 0 0 Z " fill="#27364A" transform="translate(221,200)"/>
<path d="M0 0 C2.64 0 5.28 0 8 0 C8 2.31 8 4.62 8 7 C5.36 7 2.72 7 0 7 C0 4.69 0 2.38 0 0 Z " fill="#24608B" transform="translate(121,179)"/>
<path d="M0 0 C2.31 0 4.62 0 7 0 C7 2.64 7 5.28 7 8 C4.69 8 2.38 8 0 8 C0 5.36 0 2.72 0 0 Z " fill="#246898" transform="translate(114,171)"/>
<path d="M0 0 C2.31 0 4.62 0 7 0 C7 2.64 7 5.28 7 8 C4.69 8 2.38 8 0 8 C0 5.36 0 2.72 0 0 Z " fill="#1D4162" transform="translate(57,171)"/>
<path d="M0 0 C2.31 0 4.62 0 7 0 C7 2.64 7 5.28 7 8 C4.69 8 2.38 8 0 8 C0 5.36 0 2.72 0 0 Z " fill="#1A4D76" transform="translate(43,171)"/>
<path d="M0 0 C2.64 0 5.28 0 8 0 C8 2.31 8 4.62 8 7 C5.36 7 2.72 7 0 7 C0 4.69 0 2.38 0 0 Z " fill="#243D56" transform="translate(171,164)"/>
<path d="M0 0 C2.64 0 5.28 0 8 0 C8 2.31 8 4.62 8 7 C5.36 7 2.72 7 0 7 C0 4.69 0 2.38 0 0 Z " fill="#14639D" transform="translate(71,157)"/>
<path d="M0 0 C2.64 0 5.28 0 8 0 C8 2.31 8 4.62 8 7 C5.36 7 2.72 7 0 7 C0 4.69 0 2.38 0 0 Z " fill="#156299" transform="translate(71,136)"/>
<path d="M0 0 C2.64 0 5.28 0 8 0 C8 2.31 8 4.62 8 7 C5.36 7 2.72 7 0 7 C0 4.69 0 2.38 0 0 Z " fill="#245479" transform="translate(121,129)"/>
<path d="M0 0 C2.31 0 4.62 0 7 0 C7 2.64 7 5.28 7 8 C4.69 8 2.38 8 0 8 C0 5.36 0 2.72 0 0 Z " fill="#1068A0" transform="translate(114,121)"/>
<path d="M0 0 C2.31 0 4.62 0 7 0 C7 2.64 7 5.28 7 8 C4.69 8 2.38 8 0 8 C0 5.36 0 2.72 0 0 Z " fill="#2178B0" transform="translate(107,121)"/>
<path d="M0 0 C2.64 0 5.28 0 8 0 C8 2.31 8 4.62 8 7 C5.36 7 2.72 7 0 7 C0 4.69 0 2.38 0 0 Z " fill="#246695" transform="translate(71,93)"/>
<path d="M0 0 C2.64 0 5.28 0 8 0 C8 2.31 8 4.62 8 7 C5.36 7 2.72 7 0 7 C0 4.69 0 2.38 0 0 Z " fill="#1C3F5D" transform="translate(171,86)"/>
<path d="M0 0 C2.64 0 5.28 0 8 0 C8 2.31 8 4.62 8 7 C5.36 7 2.72 7 0 7 C0 4.69 0 2.38 0 0 Z " fill="#3474A0" transform="translate(221,57)"/>
<path d="M0 0 C2.64 0 5.28 0 8 0 C8 2.31 8 4.62 8 7 C5.36 7 2.72 7 0 7 C0 4.69 0 2.38 0 0 Z " fill="#3C99D4" transform="translate(171,29)"/>
<path d="M0 0 C2.64 0 5.28 0 8 0 C8 2.31 8 4.62 8 7 C5.36 7 2.72 7 0 7 C0 4.69 0 2.38 0 0 Z " fill="#333333" transform="translate(221,0)"/>
<path d="M0 0 C2.31 0 4.62 0 7 0 C7 2.31 7 4.62 7 7 C4.69 7 2.38 7 0 7 C0 4.69 0 2.38 0 0 Z " fill="#29425B" transform="translate(193,214)"/>
<path d="M0 0 C2.31 0 4.62 0 7 0 C7 2.31 7 4.62 7 7 C4.69 7 2.38 7 0 7 C0 4.69 0 2.38 0 0 Z " fill="#3475A2" transform="translate(186,214)"/>
<path d="M0 0 C2.31 0 4.62 0 7 0 C7 2.31 7 4.62 7 7 C4.69 7 2.38 7 0 7 C0 4.69 0 2.38 0 0 Z " fill="#243449" transform="translate(157,214)"/>
<path d="M0 0 C2.31 0 4.62 0 7 0 C7 2.31 7 4.62 7 7 C4.69 7 2.38 7 0 7 C0 4.69 0 2.38 0 0 Z " fill="#2B4B67" transform="translate(207,207)"/>
<path d="M0 0 C2.31 0 4.62 0 7 0 C7 2.31 7 4.62 7 7 C4.69 7 2.38 7 0 7 C0 4.69 0 2.38 0 0 Z " fill="#3577A5" transform="translate(200,207)"/>
<path d="M0 0 C2.31 0 4.62 0 7 0 C7 2.31 7 4.62 7 7 C4.69 7 2.38 7 0 7 C0 4.69 0 2.38 0 0 Z " fill="#243D56" transform="translate(150,207)"/>
<path d="M0 0 C2.31 0 4.62 0 7 0 C7 2.31 7 4.62 7 7 C4.69 7 2.38 7 0 7 C0 4.69 0 2.38 0 0 Z " fill="#3577A5" transform="translate(214,200)"/>
<path d="M0 0 C2.31 0 4.62 0 7 0 C7 2.31 7 4.62 7 7 C4.69 7 2.38 7 0 7 C0 4.69 0 2.38 0 0 Z " fill="#244563" transform="translate(143,200)"/>
<path d="M0 0 C2.31 0 4.62 0 7 0 C7 2.31 7 4.62 7 7 C4.69 7 2.38 7 0 7 C0 4.69 0 2.38 0 0 Z " fill="#244E70" transform="translate(136,193)"/>
<path d="M0 0 C2.31 0 4.62 0 7 0 C7 2.31 7 4.62 7 7 C4.69 7 2.38 7 0 7 C0 4.69 0 2.38 0 0 Z " fill="#24577E" transform="translate(129,186)"/>
<path d="M0 0 C2.31 0 4.62 0 7 0 C7 2.31 7 4.62 7 7 C4.69 7 2.38 7 0 7 C0 4.69 0 2.38 0 0 Z " fill="#2476AE" transform="translate(164,164)"/>
<path d="M0 0 C2.31 0 4.62 0 7 0 C7 2.31 7 4.62 7 7 C4.69 7 2.38 7 0 7 C0 4.69 0 2.38 0 0 Z " fill="#2472A7" transform="translate(107,164)"/>
<path d="M0 0 C2.31 0 4.62 0 7 0 C7 2.31 7 4.62 7 7 C4.69 7 2.38 7 0 7 C0 4.69 0 2.38 0 0 Z " fill="#185482" transform="translate(64,164)"/>
<path d="M0 0 C2.31 0 4.62 0 7 0 C7 2.31 7 4.62 7 7 C4.69 7 2.38 7 0 7 C0 4.69 0 2.38 0 0 Z " fill="#16598B" transform="translate(36,164)"/>
<path d="M0 0 C2.31 0 4.62 0 7 0 C7 2.31 7 4.62 7 7 C4.69 7 2.38 7 0 7 C0 4.69 0 2.38 0 0 Z " fill="#246492" transform="translate(157,157)"/>
<path d="M0 0 C2.31 0 4.62 0 7 0 C7 2.31 7 4.62 7 7 C4.69 7 2.38 7 0 7 C0 4.69 0 2.38 0 0 Z " fill="#247BB5" transform="translate(100,157)"/>
<path d="M0 0 C2.31 0 4.62 0 7 0 C7 2.31 7 4.62 7 7 C4.69 7 2.38 7 0 7 C0 4.69 0 2.38 0 0 Z " fill="#21334A" transform="translate(79,157)"/>
<path d="M0 0 C2.31 0 4.62 0 7 0 C7 2.31 7 4.62 7 7 C4.69 7 2.38 7 0 7 C0 4.69 0 2.38 0 0 Z " fill="#1C466A" transform="translate(29,157)"/>
<path d="M0 0 C2.31 0 4.62 0 7 0 C7 2.31 7 4.62 7 7 C4.69 7 2.38 7 0 7 C0 4.69 0 2.38 0 0 Z " fill="#245175" transform="translate(150,150)"/>
<path d="M0 0 C2.31 0 4.62 0 7 0 C7 2.31 7 4.62 7 7 C4.69 7 2.38 7 0 7 C0 4.69 0 2.38 0 0 Z " fill="#1F3E5B" transform="translate(86,150)"/>
<path d="M0 0 C2.31 0 4.62 0 7 0 C7 2.31 7 4.62 7 7 C4.69 7 2.38 7 0 7 C0 4.69 0 2.38 0 0 Z " fill="#165B8E" transform="translate(36,150)"/>
<path d="M0 0 C2.31 0 4.62 0 7 0 C7 2.31 7 4.62 7 7 C4.69 7 2.38 7 0 7 C0 4.69 0 2.38 0 0 Z " fill="#243F59" transform="translate(143,143)"/>
<path d="M0 0 C2.31 0 4.62 0 7 0 C7 2.31 7 4.62 7 7 C4.69 7 2.38 7 0 7 C0 4.69 0 2.38 0 0 Z " fill="#2478AF" transform="translate(136,143)"/>
<path d="M0 0 C2.31 0 4.62 0 7 0 C7 2.31 7 4.62 7 7 C4.69 7 2.38 7 0 7 C0 4.69 0 2.38 0 0 Z " fill="#14639D" transform="translate(79,143)"/>
<path d="M0 0 C2.31 0 4.62 0 7 0 C7 2.31 7 4.62 7 7 C4.69 7 2.38 7 0 7 C0 4.69 0 2.38 0 0 Z " fill="#175685" transform="translate(43,143)"/>
<path d="M0 0 C2.31 0 4.62 0 7 0 C7 2.31 7 4.62 7 7 C4.69 7 2.38 7 0 7 C0 4.69 0 2.38 0 0 Z " fill="#246695" transform="translate(129,136)"/>
<path d="M0 0 C2.31 0 4.62 0 7 0 C7 2.31 7 4.62 7 7 C4.69 7 2.38 7 0 7 C0 4.69 0 2.38 0 0 Z " fill="#194E79" transform="translate(50,136)"/>
<path d="M0 0 C2.31 0 4.62 0 7 0 C7 2.31 7 4.62 7 7 C4.69 7 2.38 7 0 7 C0 4.69 0 2.38 0 0 Z " fill="#176197" transform="translate(64,129)"/>
<path d="M0 0 C2.31 0 4.62 0 7 0 C7 2.31 7 4.62 7 7 C4.69 7 2.38 7 0 7 C0 4.69 0 2.38 0 0 Z " fill="#1C476C" transform="translate(57,129)"/>
<path d="M0 0 C2.31 0 4.62 0 7 0 C7 2.31 7 4.62 7 7 C4.69 7 2.38 7 0 7 C0 4.69 0 2.38 0 0 Z " fill="#20344B" transform="translate(136,114)"/>
<path d="M0 0 C2.31 0 4.62 0 7 0 C7 2.31 7 4.62 7 7 C4.69 7 2.38 7 0 7 C0 4.69 0 2.38 0 0 Z " fill="#0F6499" transform="translate(129,114)"/>
<path d="M0 0 C2.31 0 4.62 0 7 0 C7 2.31 7 4.62 7 7 C4.69 7 2.38 7 0 7 C0 4.69 0 2.38 0 0 Z " fill="#1B6BA0" transform="translate(100,114)"/>
<path d="M0 0 C2.31 0 4.62 0 7 0 C7 2.31 7 4.62 7 7 C4.69 7 2.38 7 0 7 C0 4.69 0 2.38 0 0 Z " fill="#245880" transform="translate(50,114)"/>
<path d="M0 0 C2.31 0 4.62 0 7 0 C7 2.31 7 4.62 7 7 C4.69 7 2.38 7 0 7 C0 4.69 0 2.38 0 0 Z " fill="#1B4363" transform="translate(143,107)"/>
<path d="M0 0 C2.31 0 4.62 0 7 0 C7 2.31 7 4.62 7 7 C4.69 7 2.38 7 0 7 C0 4.69 0 2.38 0 0 Z " fill="#24628E" transform="translate(43,107)"/>
<path d="M0 0 C2.31 0 4.62 0 7 0 C7 2.31 7 4.62 7 7 C4.69 7 2.38 7 0 7 C0 4.69 0 2.38 0 0 Z " fill="#15527B" transform="translate(150,100)"/>
<path d="M0 0 C2.31 0 4.62 0 7 0 C7 2.31 7 4.62 7 7 C4.69 7 2.38 7 0 7 C0 4.69 0 2.38 0 0 Z " fill="#0D68A0" transform="translate(93,100)"/>
<path d="M0 0 C2.31 0 4.62 0 7 0 C7 2.31 7 4.62 7 7 C4.69 7 2.38 7 0 7 C0 4.69 0 2.38 0 0 Z " fill="#204A6C" transform="translate(86,100)"/>
<path d="M0 0 C2.31 0 4.62 0 7 0 C7 2.31 7 4.62 7 7 C4.69 7 2.38 7 0 7 C0 4.69 0 2.38 0 0 Z " fill="#2478AF" transform="translate(79,100)"/>
<path d="M0 0 C2.31 0 4.62 0 7 0 C7 2.31 7 4.62 7 7 C4.69 7 2.38 7 0 7 C0 4.69 0 2.38 0 0 Z " fill="#246B9D" transform="translate(36,100)"/>
<path d="M0 0 C2.31 0 4.62 0 7 0 C7 2.31 7 4.62 7 7 C4.69 7 2.38 7 0 7 C0 4.69 0 2.38 0 0 Z " fill="#213145" transform="translate(164,93)"/>
<path d="M0 0 C2.31 0 4.62 0 7 0 C7 2.31 7 4.62 7 7 C4.69 7 2.38 7 0 7 C0 4.69 0 2.38 0 0 Z " fill="#106093" transform="translate(157,93)"/>
<path d="M0 0 C2.31 0 4.62 0 7 0 C7 2.31 7 4.62 7 7 C4.69 7 2.38 7 0 7 C0 4.69 0 2.38 0 0 Z " fill="#0F6398" transform="translate(100,93)"/>
<path d="M0 0 C2.31 0 4.62 0 7 0 C7 2.31 7 4.62 7 7 C4.69 7 2.38 7 0 7 C0 4.69 0 2.38 0 0 Z " fill="#243144" transform="translate(79,93)"/>
<path d="M0 0 C2.31 0 4.62 0 7 0 C7 2.31 7 4.62 7 7 C4.69 7 2.38 7 0 7 C0 4.69 0 2.38 0 0 Z " fill="#244C6D" transform="translate(29,93)"/>
<path d="M0 0 C2.31 0 4.62 0 7 0 C7 2.31 7 4.62 7 7 C4.69 7 2.38 7 0 7 C0 4.69 0 2.38 0 0 Z " fill="#0B6FAB" transform="translate(164,86)"/>
<path d="M0 0 C2.31 0 4.62 0 7 0 C7 2.31 7 4.62 7 7 C4.69 7 2.38 7 0 7 C0 4.69 0 2.38 0 0 Z " fill="#115E8F" transform="translate(107,86)"/>
<path d="M0 0 C2.31 0 4.62 0 7 0 C7 2.31 7 4.62 7 7 C4.69 7 2.38 7 0 7 C0 4.69 0 2.38 0 0 Z " fill="#24557A" transform="translate(64,86)"/>
<path d="M0 0 C2.31 0 4.62 0 7 0 C7 2.31 7 4.62 7 7 C4.69 7 2.38 7 0 7 C0 4.69 0 2.38 0 0 Z " fill="#246999" transform="translate(36,86)"/>
<path d="M0 0 C2.31 0 4.62 0 7 0 C7 2.31 7 4.62 7 7 C4.69 7 2.38 7 0 7 C0 4.69 0 2.38 0 0 Z " fill="#135987" transform="translate(114,79)"/>
<path d="M0 0 C2.31 0 4.62 0 7 0 C7 2.31 7 4.62 7 7 C4.69 7 2.38 7 0 7 C0 4.69 0 2.38 0 0 Z " fill="#244360" transform="translate(57,79)"/>
<path d="M0 0 C2.31 0 4.62 0 7 0 C7 2.31 7 4.62 7 7 C4.69 7 2.38 7 0 7 C0 4.69 0 2.38 0 0 Z " fill="#245F8A" transform="translate(43,79)"/>
<path d="M0 0 C2.31 0 4.62 0 7 0 C7 2.31 7 4.62 7 7 C4.69 7 2.38 7 0 7 C0 4.69 0 2.38 0 0 Z " fill="#174E76" transform="translate(129,64)"/>
<path d="M0 0 C2.31 0 4.62 0 7 0 C7 2.31 7 4.62 7 7 C4.69 7 2.38 7 0 7 C0 4.69 0 2.38 0 0 Z " fill="#19496D" transform="translate(136,57)"/>
<path d="M0 0 C2.31 0 4.62 0 7 0 C7 2.31 7 4.62 7 7 C4.69 7 2.38 7 0 7 C0 4.69 0 2.38 0 0 Z " fill="#326C95" transform="translate(214,50)"/>
<path d="M0 0 C2.31 0 4.62 0 7 0 C7 2.31 7 4.62 7 7 C4.69 7 2.38 7 0 7 C0 4.69 0 2.38 0 0 Z " fill="#1A4464" transform="translate(143,50)"/>
<path d="M0 0 C2.31 0 4.62 0 7 0 C7 2.31 7 4.62 7 7 C4.69 7 2.38 7 0 7 C0 4.69 0 2.38 0 0 Z " fill="#31688F" transform="translate(200,43)"/>
<path d="M0 0 C2.31 0 4.62 0 7 0 C7 2.31 7 4.62 7 7 C4.69 7 2.38 7 0 7 C0 4.69 0 2.38 0 0 Z " fill="#1C3F5C" transform="translate(150,43)"/>
<path d="M0 0 C2.31 0 4.62 0 7 0 C7 2.31 7 4.62 7 7 C4.69 7 2.38 7 0 7 C0 4.69 0 2.38 0 0 Z " fill="#306389" transform="translate(186,36)"/>
<path d="M0 0 C2.31 0 4.62 0 7 0 C7 2.31 7 4.62 7 7 C4.69 7 2.38 7 0 7 C0 4.69 0 2.38 0 0 Z " fill="#3A8EC4" transform="translate(179,36)"/>
<path d="M0 0 C2.31 0 4.62 0 7 0 C7 2.31 7 4.62 7 7 C4.69 7 2.38 7 0 7 C0 4.69 0 2.38 0 0 Z " fill="#1E3953" transform="translate(157,36)"/>
<path d="M0 0 C2.31 0 4.62 0 7 0 C7 2.31 7 4.62 7 7 C4.69 7 2.38 7 0 7 C0 4.69 0 2.38 0 0 Z " fill="#293F57" transform="translate(179,29)"/>
</svg>
