<?xml version="1.0" encoding="UTF-8"?>
<svg version="1.1" xmlns="http://www.w3.org/2000/svg" width="256" height="256">
<path d="M0 0 C61.05 0 122.1 0 185 0 C185 2.31 185 4.62 185 7 C189.95 7 194.9 7 200 7 C200 9.31 200 11.62 200 14 C202.31 14 204.62 14 207 14 C207 16.31 207 18.62 207 21 C209.31 21 211.62 21 214 21 C214 25.95 214 30.9 214 36 C215.98 36 217.96 36 220 36 C220 97.05 220 158.1 220 221 C218.02 221 216.04 221 214 221 C214 225.95 214 230.9 214 236 C211.69 236 209.38 236 207 236 C207 238.31 207 240.62 207 243 C204.69 243 202.38 243 200 243 C200 245.31 200 247.62 200 250 C195.05 250 190.1 250 185 250 C185 251.98 185 253.96 185 256 C123.95 256 62.9 256 0 256 C0 254.02 0 252.04 0 250 C-4.95 250 -9.9 250 -15 250 C-15 247.69 -15 245.38 -15 243 C-17.31 243 -19.62 243 -22 243 C-22 240.69 -22 238.38 -22 236 C-24.31 236 -26.62 236 -29 236 C-29 231.05 -29 226.1 -29 221 C-31.31 221 -33.62 221 -36 221 C-36 159.95 -36 98.9 -36 36 C-33.69 36 -31.38 36 -29 36 C-29 31.05 -29 26.1 -29 21 C-26.69 21 -24.38 21 -22 21 C-22 18.69 -22 16.38 -22 14 C-19.69 14 -17.38 14 -15 14 C-15 11.69 -15 9.38 -15 7 C-10.05 7 -5.1 7 0 7 C0 4.69 0 2.38 0 0 Z " fill="#232938" transform="translate(36,0)"/>
<path d="M0 0 C11.55 0 23.1 0 35 0 C35 56.43 35 112.86 35 171 C23.45 171 11.9 171 0 171 C0 168.69 0 166.38 0 164 C-21.45 164 -42.9 164 -65 164 C-65 161.69 -65 159.38 -65 157 C-76.55 157 -88.1 157 -100 157 C-100 154.69 -100 152.38 -100 150 C-114.19 150 -128.38 150 -143 150 C-143 107.43 -143 64.86 -143 21 C-126.5 21 -110 21 -93 21 C-93 18.69 -93 16.38 -93 14 C-86.07 14 -79.14 14 -72 14 C-72 11.69 -72 9.38 -72 7 C-48.24 7 -24.48 7 0 7 C0 4.69 0 2.38 0 0 Z " fill="#126B93" transform="translate(179,43)"/>
<path d="M0 0 C30.69 0 61.38 0 93 0 C93 25.74 93 51.48 93 78 C81.45 78 69.9 78 58 78 C58 75.69 58 73.38 58 71 C43.81 71 29.62 71 15 71 C15 68.69 15 66.38 15 64 C10.05 64 5.1 64 0 64 C0 42.88 0 21.76 0 0 Z " fill="#00ADEF" transform="translate(121,136)"/>
<path d="M0 0 C11.55 0 23.1 0 35 0 C35 25.74 35 51.48 35 78 C4.31 78 -26.38 78 -58 78 C-58 56.88 -58 35.76 -58 14 C-53.05 14 -48.1 14 -43 14 C-43 11.69 -43 9.38 -43 7 C-28.81 7 -14.62 7 0 7 C0 4.69 0 2.38 0 0 Z " fill="#00ACEE" transform="translate(179,43)"/>
<path d="M0 0 C6.93 0 13.86 0 21 0 C21 21.12 21 42.24 21 64 C-0.12 64 -21.24 64 -43 64 C-43 45.19 -43 26.38 -43 7 C-28.81 7 -14.62 7 0 7 C0 4.69 0 2.38 0 0 Z " fill="#00ADEF" transform="translate(86,57)"/>
<path d="M0 0 C21.12 0 42.24 0 64 0 C64 18.81 64 37.62 64 57 C42.88 57 21.76 57 0 57 C0 38.19 0 19.38 0 0 Z " fill="#00ACEE" transform="translate(43,136)"/>
<path d="M0 0 C9.57 0 19.14 0 29 0 C29 2.31 29 4.62 29 7 C24.05 7 19.1 7 14 7 C14 28.12 14 49.24 14 71 C44.69 71 75.38 71 107 71 C107 75.95 107 80.9 107 86 C76.31 86 45.62 86 14 86 C14 107.12 14 128.24 14 150 C18.95 150 23.9 150 29 150 C29 152.31 29 154.62 29 157 C21.74 157 14.48 157 7 157 C7 107.5 7 58 7 7 C4.69 7 2.38 7 0 7 C0 4.69 0 2.38 0 0 Z " fill="#146287" transform="translate(107,50)"/>
<path d="M0 0 C9.57 0 19.14 0 29 0 C29 2.31 29 4.62 29 7 C24.05 7 19.1 7 14 7 C14 54.19 14 101.38 14 150 C18.95 150 23.9 150 29 150 C29 152.31 29 154.62 29 157 C21.74 157 14.48 157 7 157 C7 107.5 7 58 7 7 C4.69 7 2.38 7 0 7 C0 4.69 0 2.38 0 0 Z " fill="#1B4965" transform="translate(107,50)"/>
<path d="M0 0 C9.57 0 19.14 0 29 0 C29 2.31 29 4.62 29 7 C19.43 7 9.86 7 0 7 C0 4.69 0 2.38 0 0 Z " fill="#0F74A1" transform="translate(57,57)"/>
<path d="M0 0 C9.24 0 18.48 0 28 0 C28 2.31 28 4.62 28 7 C18.76 7 9.52 7 0 7 C0 4.69 0 2.38 0 0 Z " fill="#02A5E3" transform="translate(79,193)"/>
<path d="M0 0 C7.26 0 14.52 0 22 0 C22 2.31 22 4.62 22 7 C14.74 7 7.48 7 0 7 C0 4.69 0 2.38 0 0 Z " fill="#19506E" transform="translate(57,193)"/>
<path d="M0 0 C4.95 0 9.9 0 15 0 C15 2.31 15 4.62 15 7 C10.05 7 5.1 7 0 7 C0 4.69 0 2.38 0 0 Z " fill="#13688F" transform="translate(164,207)"/>
<path d="M0 0 C4.95 0 9.9 0 15 0 C15 2.31 15 4.62 15 7 C10.05 7 5.1 7 0 7 C0 4.69 0 2.38 0 0 Z " fill="#165D7F" transform="translate(121,200)"/>
<path d="M0 0 C4.95 0 9.9 0 15 0 C15 2.31 15 4.62 15 7 C10.05 7 5.1 7 0 7 C0 4.69 0 2.38 0 0 Z " fill="#165D7F" transform="translate(121,50)"/>
<path d="M0 0 C4.95 0 9.9 0 15 0 C15 2.31 15 4.62 15 7 C10.05 7 5.1 7 0 7 C0 4.69 0 2.38 0 0 Z " fill="#13688F" transform="translate(164,43)"/>
<path d="M0 0 C4.62 0 9.24 0 14 0 C14 2.31 14 4.62 14 7 C9.38 7 4.76 7 0 7 C0 4.69 0 2.38 0 0 Z " fill="#0792C9" transform="translate(179,207)"/>
<path d="M0 0 C4.62 0 9.24 0 14 0 C14 2.31 14 4.62 14 7 C9.38 7 4.76 7 0 7 C0 4.69 0 2.38 0 0 Z " fill="#0794CC" transform="translate(136,200)"/>
<path d="M0 0 C4.62 0 9.24 0 14 0 C14 2.31 14 4.62 14 7 C9.38 7 4.76 7 0 7 C0 4.69 0 2.38 0 0 Z " fill="#0C83B4" transform="translate(79,193)"/>
<path d="M0 0 C4.62 0 9.24 0 14 0 C14 2.31 14 4.62 14 7 C9.38 7 4.76 7 0 7 C0 4.69 0 2.38 0 0 Z " fill="#156185" transform="translate(57,57)"/>
<path d="M0 0 C4.62 0 9.24 0 14 0 C14 2.31 14 4.62 14 7 C9.38 7 4.76 7 0 7 C0 4.69 0 2.38 0 0 Z " fill="#0794CC" transform="translate(136,50)"/>
<path d="M0 0 C4.62 0 9.24 0 14 0 C14 2.31 14 4.62 14 7 C9.38 7 4.76 7 0 7 C0 4.69 0 2.38 0 0 Z " fill="#0792C9" transform="translate(179,43)"/>
<path d="M0 0 C2.64 0 5.28 0 8 0 C8 2.31 8 4.62 8 7 C5.36 7 2.72 7 0 7 C0 4.69 0 2.38 0 0 Z " fill="#156185" transform="translate(71,193)"/>
<path d="M0 0 C2.31 0 4.62 0 7 0 C7 2.31 7 4.62 7 7 C4.69 7 2.38 7 0 7 C0 4.69 0 2.38 0 0 Z " fill="#1F3A4F" transform="translate(207,214)"/>
<path d="M0 0 C2.31 0 4.62 0 7 0 C7 2.31 7 4.62 7 7 C4.69 7 2.38 7 0 7 C0 4.69 0 2.38 0 0 Z " fill="#02A4E3" transform="translate(193,207)"/>
<path d="M0 0 C2.31 0 4.62 0 7 0 C7 2.31 7 4.62 7 7 C4.69 7 2.38 7 0 7 C0 4.69 0 2.38 0 0 Z " fill="#0D7DAD" transform="translate(179,207)"/>
<path d="M0 0 C2.31 0 4.62 0 7 0 C7 2.31 7 4.62 7 7 C4.69 7 2.38 7 0 7 C0 4.69 0 2.38 0 0 Z " fill="#195271" transform="translate(164,207)"/>
<path d="M0 0 C2.31 0 4.62 0 7 0 C7 2.31 7 4.62 7 7 C4.69 7 2.38 7 0 7 C0 4.69 0 2.38 0 0 Z " fill="#1F3D53" transform="translate(157,207)"/>
<path d="M0 0 C2.31 0 4.62 0 7 0 C7 2.31 7 4.62 7 7 C4.69 7 2.38 7 0 7 C0 4.69 0 2.38 0 0 Z " fill="#02A7E6" transform="translate(150,200)"/>
<path d="M0 0 C2.31 0 4.62 0 7 0 C7 2.31 7 4.62 7 7 C4.69 7 2.38 7 0 7 C0 4.69 0 2.38 0 0 Z " fill="#0C82B3" transform="translate(136,200)"/>
<path d="M0 0 C2.31 0 4.62 0 7 0 C7 2.31 7 4.62 7 7 C4.69 7 2.38 7 0 7 C0 4.69 0 2.38 0 0 Z " fill="#116F99" transform="translate(129,200)"/>
<path d="M0 0 C2.31 0 4.62 0 7 0 C7 2.31 7 4.62 7 7 C4.69 7 2.38 7 0 7 C0 4.69 0 2.38 0 0 Z " fill="#0794CC" transform="translate(93,193)"/>
<path d="M0 0 C2.31 0 4.62 0 7 0 C7 2.31 7 4.62 7 7 C4.69 7 2.38 7 0 7 C0 4.69 0 2.38 0 0 Z " fill="#10729D" transform="translate(79,193)"/>
<path d="M0 0 C2.31 0 4.62 0 7 0 C7 2.31 7 4.62 7 7 C4.69 7 2.38 7 0 7 C0 4.69 0 2.38 0 0 Z " fill="#1E3F57" transform="translate(57,193)"/>
<path d="M0 0 C2.31 0 4.62 0 7 0 C7 2.31 7 4.62 7 7 C4.69 7 2.38 7 0 7 C0 4.69 0 2.38 0 0 Z " fill="#0698D2" transform="translate(43,186)"/>
<path d="M0 0 C2.31 0 4.62 0 7 0 C7 2.31 7 4.62 7 7 C4.69 7 2.38 7 0 7 C0 4.69 0 2.38 0 0 Z " fill="#059AD5" transform="translate(43,64)"/>
<path d="M0 0 C2.31 0 4.62 0 7 0 C7 2.31 7 4.62 7 7 C4.69 7 2.38 7 0 7 C0 4.69 0 2.38 0 0 Z " fill="#059AD5" transform="translate(86,57)"/>
<path d="M0 0 C2.31 0 4.62 0 7 0 C7 2.31 7 4.62 7 7 C4.69 7 2.38 7 0 7 C0 4.69 0 2.38 0 0 Z " fill="#0A87BB" transform="translate(79,57)"/>
<path d="M0 0 C2.31 0 4.62 0 7 0 C7 2.31 7 4.62 7 7 C4.69 7 2.38 7 0 7 C0 4.69 0 2.38 0 0 Z " fill="#1B4C68" transform="translate(57,57)"/>
<path d="M0 0 C2.31 0 4.62 0 7 0 C7 2.31 7 4.62 7 7 C4.69 7 2.38 7 0 7 C0 4.69 0 2.38 0 0 Z " fill="#20374B" transform="translate(50,57)"/>
<path d="M0 0 C2.31 0 4.62 0 7 0 C7 2.31 7 4.62 7 7 C4.69 7 2.38 7 0 7 C0 4.69 0 2.38 0 0 Z " fill="#0C82B3" transform="translate(136,50)"/>
<path d="M0 0 C2.31 0 4.62 0 7 0 C7 2.31 7 4.62 7 7 C4.69 7 2.38 7 0 7 C0 4.69 0 2.38 0 0 Z " fill="#116F99" transform="translate(129,50)"/>
<path d="M0 0 C2.31 0 4.62 0 7 0 C7 2.31 7 4.62 7 7 C4.69 7 2.38 7 0 7 C0 4.69 0 2.38 0 0 Z " fill="#223042" transform="translate(100,50)"/>
<path d="M0 0 C2.31 0 4.62 0 7 0 C7 2.31 7 4.62 7 7 C4.69 7 2.38 7 0 7 C0 4.69 0 2.38 0 0 Z " fill="#02A4E3" transform="translate(193,43)"/>
<path d="M0 0 C2.31 0 4.62 0 7 0 C7 2.31 7 4.62 7 7 C4.69 7 2.38 7 0 7 C0 4.69 0 2.38 0 0 Z " fill="#0D7DAD" transform="translate(179,43)"/>
<path d="M0 0 C2.31 0 4.62 0 7 0 C7 2.31 7 4.62 7 7 C4.69 7 2.38 7 0 7 C0 4.69 0 2.38 0 0 Z " fill="#195271" transform="translate(164,43)"/>
<path d="M0 0 C2.31 0 4.62 0 7 0 C7 2.31 7 4.62 7 7 C4.69 7 2.38 7 0 7 C0 4.69 0 2.38 0 0 Z " fill="#1F3D53" transform="translate(157,43)"/>
<path d="M0 0 C2.31 0 4.62 0 7 0 C7 2.31 7 4.62 7 7 C4.69 7 2.38 7 0 7 C0 4.69 0 2.38 0 0 Z " fill="#1F3A4F" transform="translate(207,36)"/>
</svg>
